G04 DipTrace 3.1.0.1*
G04 Bottom-Clock-IN12e.BottomPaste.gbr*
%MOIN*%
G04 #@! TF.FileFunction,Paste,Bot*
G04 #@! TF.Part,Single*
%ADD110C,0.129764*%
%ADD112C,0.188819*%
%ADD120C,0.066772*%
%ADD122R,0.078583X0.078583*%
%ADD124O,0.061969X0.051969*%
%ADD126O,0.051969X0.061969*%
%ADD128R,0.051969X0.056969*%
%ADD130O,0.051969X0.061969*%
%FSLAX26Y26*%
G04*
G70*
G90*
G75*
G01*
G04 BotPaste*
%LPD*%
D130*
X3828268Y1338898D3*
X4228268D3*
X4128268D3*
X4028268D3*
X3928268D3*
D128*
X3728268D3*
D126*
X4328268Y1337717D3*
X4428268D3*
X4828268Y1338898D3*
X4728268D3*
D124*
X472756Y1531417D3*
Y1631417D3*
Y1331417D3*
Y1431417D3*
Y1131417D3*
Y1031417D3*
Y1231417D3*
Y684567D3*
Y484567D3*
Y584567D3*
D126*
X2812520Y866457D3*
X2712520D3*
X5162126D3*
X5062126D3*
D124*
X7401890Y1531417D3*
Y1631417D3*
Y1331417D3*
Y1431417D3*
Y1131417D3*
Y1031417D3*
Y1231417D3*
Y684961D3*
Y484567D3*
Y584567D3*
D122*
X3010157Y870394D3*
D120*
X3797559D3*
D126*
X5028268Y1338898D3*
X5128268D3*
X4928268D3*
D112*
X520000Y1842835D3*
Y846772D3*
X7354646Y1842835D3*
Y846772D3*
D110*
X2000315Y1082992D3*
D126*
X4528268Y1338898D3*
X4628268D3*
M02*
