G04 DipTrace 3.1.0.1*
G04 Bottom-Clock-IN12e.TopPaste.gbr*
%MOIN*%
G04 #@! TF.FileFunction,Paste,Top*
G04 #@! TF.Part,Single*
%ADD82R,0.051024X0.070709*%
%ADD84R,0.047087X0.00378*%
%ADD86R,0.021496X0.007717*%
%ADD88R,0.076614X0.119921*%
%ADD90R,0.076614X0.02937*%
%ADD92R,0.070709X0.015591*%
%ADD94R,0.188819X0.188819*%
%ADD96R,0.023465X0.070709*%
%ADD98R,0.070709X0.023465*%
%ADD100R,0.031339X0.058898*%
%ADD102R,0.054961X0.054961*%
%ADD104R,0.035276X0.054961*%
%ADD106R,0.039213X0.054961*%
%ADD108R,0.033307X0.017559*%
%ADD110C,0.129764*%
%ADD112C,0.188819*%
%ADD114R,0.243937X0.220315*%
%ADD116R,0.078583X0.039213*%
%ADD118R,0.062835X0.129764*%
%ADD120C,0.066772*%
%ADD122R,0.078583X0.078583*%
%ADD124O,0.061969X0.051969*%
%ADD126O,0.051969X0.061969*%
%ADD128R,0.051969X0.056969*%
%ADD130O,0.051969X0.061969*%
%ADD132R,0.062835X0.086457*%
%ADD134R,0.039213X0.031339*%
%ADD136R,0.031339X0.041181*%
%ADD138R,0.129764X0.039213*%
%ADD140R,0.031339X0.035276*%
%ADD142R,0.035276X0.031339*%
%ADD144R,0.054961X0.039213*%
%ADD146R,0.035276X0.04315*%
%ADD148R,0.023465X0.023465*%
%ADD150R,0.04315X0.035276*%
%FSLAX26Y26*%
G04*
G70*
G90*
G75*
G01*
G04 TopPaste*
%LPD*%
D150*
X1421575Y1256220D3*
Y1331024D3*
X1492441Y1256220D3*
Y1331024D3*
D148*
X1555433Y1268031D3*
Y1327087D3*
X3803465Y523937D3*
X3744409D3*
X1421575Y1102677D3*
X1480630D3*
X1441260Y933386D3*
Y874331D3*
X3488504Y1362520D3*
X3547559D3*
X3228661D3*
X3287717D3*
D146*
X4551496Y988504D3*
X4626299D3*
D150*
X4291654Y712913D3*
Y787717D3*
D148*
X1071181Y1059370D3*
Y1118425D3*
D146*
X4551496Y1059370D3*
X4626299D3*
D148*
X929449Y1118425D3*
Y1177480D3*
D144*
X5909764Y1098740D3*
Y988504D3*
X6004252Y1098740D3*
Y988504D3*
X6098740Y1098740D3*
Y988504D3*
X6193228Y1098740D3*
Y988504D3*
D142*
X5795591Y673543D3*
X5862520D3*
X5795591Y838898D3*
X5862520D3*
X5795591Y783780D3*
X5862520D3*
D140*
X6271969Y539685D3*
Y606614D3*
D148*
X6358583Y708976D3*
X6299528D3*
D138*
X6063307Y1736535D3*
Y1909764D3*
X6236535Y1736535D3*
Y1909764D3*
D136*
X5256220Y1342835D3*
X5334961D3*
X5445197D3*
X5523937D3*
D134*
X7102677Y1240472D3*
Y1374331D3*
D132*
Y1075118D3*
Y917643D3*
X6429449Y1894016D3*
Y1736541D3*
D130*
X3828268Y1338898D3*
X4228268D3*
X4128268D3*
X4028268D3*
X3928268D3*
D128*
X3728268D3*
D126*
X4328268Y1337717D3*
X4428268D3*
X4828268Y1338898D3*
X4728268D3*
D124*
X472756Y1531417D3*
Y1631417D3*
Y1331417D3*
Y1431417D3*
Y1131417D3*
Y1031417D3*
Y1231417D3*
Y684567D3*
Y484567D3*
Y584567D3*
D126*
X2812520Y866457D3*
X2712520D3*
X5162126D3*
X5062126D3*
D124*
X7401890Y1531417D3*
Y1631417D3*
Y1331417D3*
Y1431417D3*
Y1131417D3*
Y1031417D3*
Y1231417D3*
Y684961D3*
Y484567D3*
Y584567D3*
D122*
X3010157Y870394D3*
D120*
X3797559D3*
D126*
X5028268Y1338898D3*
X5128268D3*
X4928268D3*
D118*
X6433386Y811339D3*
X6531811D3*
X6630236D3*
X6728661D3*
X6827087D3*
X6925512D3*
Y1610551D3*
X6827087D3*
X6728661D3*
X6630236D3*
X6527874D3*
X6429449D3*
D116*
X6480630Y657795D3*
D114*
X6728661Y567244D3*
D116*
X6480630Y476693D3*
D112*
X520000Y1842835D3*
Y846772D3*
X7354646Y1842835D3*
Y846772D3*
D110*
X2000315Y1082992D3*
D108*
X2905827Y1094803D3*
Y1020000D3*
X2996378Y1057402D3*
X2909764Y1283780D3*
Y1208976D3*
X3000315Y1246378D3*
D148*
X3803465Y626299D3*
X3744409D3*
X2976693Y551496D3*
X3035748D3*
X2976693Y500315D3*
X3035748D3*
X3803465Y575118D3*
X3744409D3*
X3803465Y472756D3*
X3744409D3*
X1421575Y1153858D3*
X1480630D3*
X1504252Y933386D3*
Y874331D3*
X2823150Y1094803D3*
X2764094D3*
X2823150Y1283780D3*
X2764094D3*
X5256220Y1268031D3*
Y1208976D3*
X5445197Y1268031D3*
Y1208976D3*
X1086929Y1311339D3*
X1027874D3*
X4827087Y1205039D3*
Y1145984D3*
D142*
X5795591Y618425D3*
X5862520D3*
X6126299Y870394D3*
X6193228D3*
D140*
X5933386Y775906D3*
Y842835D3*
X6390079Y606614D3*
Y539685D3*
D106*
X6275906Y468819D3*
X6386142D3*
X5819213Y1894016D3*
X5929449D3*
D140*
X5819213Y1728661D3*
Y1795591D3*
D142*
X5795591Y728661D3*
X5862520D3*
D104*
X5819213Y1488504D3*
D102*
X5773937Y1602677D3*
D104*
X5728661Y1488504D3*
D100*
X3441260Y1271969D3*
Y1023937D3*
X3590866D3*
Y1271969D3*
X3181417D3*
Y1023937D3*
X3331024D3*
Y1271969D3*
D126*
X4528268Y1338898D3*
X4628268D3*
D98*
X1715669Y1378268D3*
Y1328268D3*
Y1278268D3*
Y1228268D3*
Y1178268D3*
Y1128268D3*
Y1078268D3*
Y1028268D3*
Y978268D3*
Y928268D3*
Y878268D3*
Y828268D3*
Y778268D3*
Y728268D3*
D96*
X1829449Y683780D3*
X1879449D3*
X1929449D3*
X1979449D3*
X2029449D3*
X2079449D3*
X2129449D3*
X2179449D3*
X2229449D3*
X2279449D3*
D98*
X2392835Y728268D3*
Y778268D3*
Y828268D3*
Y878268D3*
Y928268D3*
Y978268D3*
Y1028268D3*
Y1078268D3*
Y1128268D3*
Y1178268D3*
Y1228268D3*
Y1278268D3*
Y1328268D3*
Y1378268D3*
D94*
X2010945Y1081417D3*
D92*
X3582992Y473150D3*
Y523150D3*
Y573150D3*
Y623150D3*
Y673150D3*
Y723150D3*
Y773150D3*
Y823150D3*
X3212913D3*
Y773150D3*
Y723150D3*
Y673150D3*
Y623150D3*
Y573150D3*
Y523150D3*
Y473150D3*
D90*
X4638110Y705039D3*
Y795591D3*
Y886142D3*
D88*
X4409764Y795591D3*
D86*
X1071181Y1181417D3*
Y1207008D3*
Y1232598D3*
X988504Y1181417D3*
Y1232598D3*
Y1207008D3*
D84*
X6023937Y716850D3*
Y697165D3*
Y677480D3*
Y657795D3*
Y638110D3*
X6197165D3*
Y657795D3*
Y677480D3*
Y697165D3*
Y716850D3*
D82*
X6110551Y677480D3*
M02*
