G04 DipTrace 3.1.0.1*
G04 Bottom-Clock-IN12e.Top.gbr*
%MOIN*%
G04 #@! TF.FileFunction,Copper,L1,Top*
G04 #@! TF.Part,Single*
G04 #@! TA.AperFunction,Conductor*
%ADD10C,0.009843*%
%ADD14C,0.011811*%
%ADD15C,0.019685*%
%ADD16C,0.059055*%
%ADD17C,0.03937*%
%ADD18C,0.047244*%
G04 #@! TA.AperFunction,ViaPad*
%ADD19C,0.031496*%
G04 #@! TA.AperFunction,CopperBalancing*
%ADD20C,0.003937*%
%ADD22R,0.051181X0.043307*%
%ADD23R,0.031496X0.031496*%
%ADD24R,0.043307X0.051181*%
%ADD25R,0.062992X0.047244*%
%ADD26R,0.043307X0.03937*%
%ADD27R,0.03937X0.043307*%
%ADD28R,0.137795X0.047244*%
%ADD29R,0.03937X0.049213*%
%ADD30R,0.047244X0.03937*%
%ADD32R,0.070866X0.094488*%
G04 #@! TA.AperFunction,ComponentPad*
%ADD33O,0.06X0.07*%
%ADD34R,0.06X0.065*%
%ADD35O,0.06X0.07*%
%ADD36O,0.07X0.06*%
%ADD38R,0.086614X0.086614*%
%ADD39C,0.074803*%
%ADD41R,0.070866X0.137795*%
%ADD42R,0.086614X0.047244*%
%ADD43R,0.251969X0.228346*%
G04 #@! TA.AperFunction,ComponentPad*
%ADD44C,0.19685*%
%ADD45C,0.137795*%
%ADD47R,0.041339X0.025591*%
%ADD48R,0.047244X0.062992*%
%ADD50R,0.043307X0.062992*%
%ADD51R,0.062992X0.062992*%
%ADD52R,0.03937X0.066929*%
%ADD53R,0.07874X0.031496*%
%ADD54R,0.031496X0.07874*%
%ADD55R,0.19685X0.19685*%
%ADD56R,0.07874X0.023622*%
%ADD58R,0.084646X0.037402*%
%ADD59R,0.084646X0.127953*%
%ADD62R,0.029528X0.015748*%
%ADD64R,0.055118X0.011811*%
%ADD65R,0.059055X0.07874*%
G04 #@! TA.AperFunction,ViaPad*
%ADD67C,0.023622*%
%ADD68C,0.035433*%
%FSLAX26Y26*%
G04*
G70*
G90*
G75*
G01*
G04 Top*
%LPD*%
X988504Y1207008D2*
D14*
X1010157D1*
X1027874Y1224724D1*
Y1311339D1*
X2905827Y1094803D2*
X2823150D1*
X2909764Y1283780D2*
X2823150D1*
X6728661Y567244D2*
Y811339D1*
X6630236D2*
X6728661D1*
X6827087D1*
X6925512D1*
X6996373D1*
X7102677Y917643D1*
X3582992Y473150D2*
X3744409Y472756D1*
X3582992Y623150D2*
Y626299D1*
X3744409D1*
X2392835Y778268D2*
Y771969D1*
X2516063D1*
X3582992Y573150D2*
Y575118D1*
X3744409D1*
X2642047Y768031D2*
X2903385D1*
X2964882D1*
X3079055D2*
Y799528D1*
X3142047Y862520D1*
X3291654D1*
X3480630Y673543D1*
Y598740D1*
X3508189Y571181D1*
X3581024D1*
X3582992Y573150D1*
X3212913D2*
D15*
X3132205D1*
X3008189Y697165D1*
Y868425D1*
X3010157Y870394D1*
X2909764Y1208976D2*
D14*
X2850709D1*
X2764094Y1122362D1*
Y1094803D1*
X3082992Y1149921D2*
X3000315D1*
X2941260Y1208976D1*
X2909764D1*
X3177480Y1138110D2*
X3197252Y1157882D1*
Y1153945D1*
X3189291Y1145984D1*
X3220787Y1114488D1*
X3634173D1*
X3712913Y1035748D1*
X3960945D1*
X4031811Y1106614D1*
Y1338898D1*
X4028268D1*
X3590866Y1271969D2*
Y1268031D1*
X3508189Y1185354D1*
X3173543D1*
X3047559Y1059370D1*
X2994409D1*
X2996378Y1057402D1*
X3590866Y1271969D2*
Y1319213D1*
X3547559Y1362520D1*
X1715669Y1278268D2*
X1628661D1*
X1602677Y1252283D1*
Y1189291D1*
X1571181Y1157795D1*
X1484567D1*
X1480630Y1153858D1*
Y1102677D1*
X2996378Y1057402D2*
Y1067244D1*
X2921575Y1142047D1*
X2846772D1*
X2630236Y1138110D2*
X2508189D1*
X1715669Y1278268D2*
X2171969D1*
X2173543Y1279843D1*
X4428268Y1337717D2*
D16*
X4527087D1*
D14*
X4528268Y1338898D1*
X4828268D2*
Y1206220D1*
X4827087Y1205039D1*
X5917638Y720787D2*
D15*
X5870394D1*
D14*
X5862520Y728661D1*
X6023937Y697165D2*
D10*
X5941260D1*
X5917638Y720787D1*
X5819213Y1488504D2*
D15*
Y1094803D1*
Y1894016D2*
Y1795591D1*
X6197165Y657795D2*
D10*
X6480630D1*
X1715669Y1378268D2*
D14*
X1760157D1*
X2392835D2*
X2350709D1*
X1829449Y683780D2*
Y581417D1*
X1827087Y579055D1*
X1071181Y1207008D2*
X1104646D1*
X1110551Y1201102D1*
X1071181Y1059370D2*
X1035748D1*
X1031811Y1055433D1*
X5909764Y1098740D2*
Y1130236D1*
X5894016Y1145984D1*
X5933386D1*
X5972756D1*
X6012126D1*
X6051496D1*
X6090866D1*
X6130236D1*
X6169606D1*
X6208976D1*
Y1114488D1*
X6193228Y1098740D1*
X6098740D1*
X6004252D1*
X5909764D1*
X5256220Y1208976D2*
Y1169606D1*
X5445197Y1208976D2*
Y1169606D1*
X3228661Y1362520D2*
Y1279843D1*
X3224724Y1275906D1*
X3185354D1*
X3181417Y1271969D1*
X3142047D1*
X3138110Y1268031D1*
X3181417Y1023937D2*
X3145984D1*
X3138110Y1016063D1*
X3484567Y1275906D2*
Y1358583D1*
X3488504Y1362520D1*
X3484567Y1275906D2*
X3445197D1*
X3441260Y1271969D1*
X3397953Y1268031D2*
X3437323D1*
X3441260Y1271969D1*
X3397953Y1020000D2*
X3437323D1*
X3441260Y1023937D1*
X3212913Y823150D2*
X3149921D1*
X3212913Y773150D2*
X3151102D1*
X3149921Y771969D1*
X3212913Y723150D2*
X3151496D1*
X3149921Y724724D1*
X3212913Y673150D2*
X3150315D1*
X3149921Y673543D1*
X3212913Y623150D2*
X3150709D1*
X3149921Y622362D1*
X3582992Y823150D2*
X3645984D1*
X3582992Y773150D2*
X3644803D1*
X3645984Y771969D1*
X3582992Y723150D2*
X3644409D1*
X3645984Y724724D1*
X3582992Y673150D2*
X3645591D1*
X3645984Y673543D1*
X3803465Y523937D2*
X3834961D1*
X3842835Y531811D1*
X4291654Y712913D2*
X4240472D1*
X4232598Y720787D1*
Y681417D1*
X4638110Y705039D2*
X4791654D1*
Y661732D1*
X4752283D1*
X4712913D1*
X929449Y1118425D2*
X894016D1*
X890079Y1114488D1*
X1555433Y1268031D2*
X1531186D1*
X1504252D1*
X1492441Y1256220D1*
X1421575D1*
X1374331D1*
X1370394Y1252283D1*
X1421575Y1256220D2*
Y1220787D1*
X1409764Y1208976D1*
X1449134D1*
X1488504D1*
X1527874D1*
Y1264719D1*
X1531186Y1268031D1*
X1421575Y1102677D2*
X1382205D1*
X2000315Y1082992D2*
Y1070787D1*
X2010945Y1081417D1*
X6063307Y1736535D2*
X6236535D1*
X6283780Y1689291D1*
X6244409D1*
X1441260Y933386D2*
X1401890D1*
X6023937Y638110D2*
Y606614D1*
X6275906Y468819D2*
X6244409D1*
X6228661Y453071D1*
Y531811D2*
X6264094D1*
X6271969Y539685D1*
X5795591Y838898D2*
Y783780D1*
Y728661D1*
Y673543D1*
Y618425D1*
X5752283D1*
X5748346Y614488D1*
X6126299Y649921D2*
Y661732D1*
X6110551Y677480D1*
X6433386Y811339D2*
X6425512D1*
X6370394Y756220D1*
X6358583Y708976D2*
Y744409D1*
X6370394Y756220D1*
X4551496Y1059370D2*
X4508189D1*
X4500315Y1067244D1*
X4551496Y988504D2*
X4500315D1*
Y980630D1*
X6429449Y1894016D2*
Y1909764D1*
X6236535D1*
X6063307D1*
X5945197D1*
X5929449Y1894016D1*
X6429449D2*
D17*
Y1909764D1*
X6972756D1*
X7248346Y1634173D1*
X7399134D1*
D14*
X7401890Y1631417D1*
X6197165Y697165D2*
D10*
X6244409D1*
X6256220Y708976D1*
Y744409D1*
X6201102Y799528D1*
X6153858D1*
X6126299Y827087D1*
Y870394D1*
X4457008Y941260D2*
D14*
Y933386D1*
X4460945D1*
X1715669Y878268D2*
X2177480D1*
X2252283Y803465D1*
X2661732D2*
X2673543Y791654D1*
X2669606D1*
X2673543Y787717D1*
X2925512D1*
X2941260Y803465D1*
X3047559Y799528D2*
X3051496Y803465D1*
X3133608Y885576D1*
X3674109D1*
X3752283Y807402D1*
X3866457D1*
X3964882Y905827D1*
X4421575D1*
X4457008Y941260D1*
X3047559Y799528D2*
Y803465D1*
X3051496D1*
X4771969Y882205D2*
X4827087D1*
X4909764Y799528D1*
X5205039D1*
X5295591Y890079D1*
X6063307D1*
X6082992Y870394D1*
X6126299D1*
X3331024Y1271969D2*
Y1228661D1*
X3311339Y1208976D1*
X3059370D1*
X3020000Y1248346D1*
X2998346D1*
X3000315Y1246378D1*
X3331024Y1271969D2*
Y1319213D1*
X3287717Y1362520D1*
X3059370Y1208976D2*
D3*
X2392835Y728268D2*
X2535354D1*
X2630236Y823150D1*
Y882205D1*
X2634173Y886142D1*
Y1016063D2*
Y1071181D1*
X2724724Y1161732D1*
Y1205039D1*
X2392835Y1328268D2*
X2423150Y1323150D1*
X1575118Y1027874D2*
X1382205D1*
X1177480Y1232598D1*
X1071181D1*
X2392835Y1328268D2*
X2277087D1*
X2185354Y1236535D1*
X1921575D1*
X1783780Y1098740D1*
Y1023937D1*
X988504Y1232598D2*
X791654D1*
X590866Y1433386D1*
X474724D1*
X472756Y1431417D1*
X5445197Y1268031D2*
Y1342835D1*
X5256220Y1268031D2*
Y1342835D1*
X6429449Y1610551D2*
D17*
Y1736541D1*
X7102677Y1240472D2*
Y1075118D1*
X6023937Y677480D2*
D10*
X5866457D1*
X5862520Y673543D1*
X1879449Y683780D2*
D14*
Y755039D1*
X1791654Y842835D1*
X1575118Y980630D2*
X827087D1*
X575118Y1232598D1*
X473937D1*
X472756Y1231417D1*
X2392835Y1028268D2*
X2566850D1*
X2610551Y984567D1*
X2921575D1*
X2933386Y996378D1*
X3106614D1*
X3138110Y964882D1*
X3724724D1*
X3752283Y992441D1*
X4252283D1*
X4488504Y1228661D1*
X4555433D1*
X4567244Y1216850D1*
X4929449Y1220787D2*
Y1337717D1*
X4928268Y1338898D1*
X4890079Y1185354D2*
X4949134D1*
X5027874Y1264094D1*
Y1338504D1*
X5028268Y1338898D1*
X2392835Y978268D2*
X2585354D1*
X2598740Y964882D1*
X2929449D1*
X2941260Y976693D1*
X3098740D1*
X3130236Y945197D1*
X3732598D1*
X3756220Y968819D1*
X4271969D1*
X4488504Y1185354D1*
X4905827Y1142047D2*
X5027874D1*
X5130236Y1244409D1*
Y1336929D1*
X5128268Y1338898D1*
X2392835Y878268D2*
X2539685D1*
X2606614Y945197D1*
X2937323D1*
X2949134Y957008D1*
X3086929D1*
X3118425Y925512D1*
X3744409D1*
X3764094Y945197D1*
X4291654D1*
X4496378Y1149921D1*
X4520000D1*
X5819213Y1728661D2*
D15*
Y1647953D1*
X5773937Y1602677D1*
X748346Y874331D2*
D14*
Y960945D1*
X681417Y1027874D1*
X476299D1*
X472756Y1031417D1*
X2229449Y683780D2*
Y591654D1*
X2177480Y539685D1*
X1752283D1*
X1492441Y799528D1*
X748346D1*
Y791654D1*
X6023937Y657795D2*
D10*
X5960945D1*
X5921575Y618425D1*
X5862520D1*
X2764094Y1283780D2*
D14*
Y1161732D1*
X2712913Y1110551D1*
Y1063307D1*
X2756220Y1020000D1*
X2905827D1*
X4128268Y1338898D2*
X4126299D1*
X2905827Y1020000D2*
X3043622D1*
X3118425Y1094803D1*
X3626299D1*
X3705039Y1016063D1*
X4035748D1*
X4126299Y1106614D1*
Y1336929D1*
X4128268Y1338898D1*
X2392835Y1178268D2*
X2568031D1*
X2736535Y1346772D1*
X3157795D1*
X3828268Y1338898D2*
X3850709D1*
X3649921Y1342835D2*
X3693228Y1386142D1*
X3781024D1*
X3828268Y1338898D1*
X1683780Y779843D2*
X1715669Y778268D1*
X1576693D1*
X1531811Y823150D1*
X701102D1*
X562520Y684567D1*
X472756D1*
X3212913Y473150D2*
X3114094D1*
X3086929Y500315D1*
X3035748D1*
X2392835Y1278268D2*
X2364882D1*
X2311339Y1224724D1*
Y669606D1*
X2445197Y535748D1*
X2874331D1*
X2917638Y492441D1*
Y496378D1*
X3086929D2*
X3110157Y473150D1*
X3114094D1*
X3212913Y523150D2*
X3107402D1*
X3079055Y551496D1*
X3035748D1*
Y606614D1*
X2980630Y661732D1*
X2354646D1*
X2334961Y681417D1*
Y1102677D1*
X2358583Y1126299D1*
X2390866D1*
X2392835Y1128268D1*
X6390079Y606614D2*
D15*
X6271969D1*
X6197165Y638110D2*
D10*
X6240472D1*
X6271969Y606614D1*
X6480630Y476693D2*
D14*
X6394016D1*
X6386142Y468819D1*
Y535748D1*
X6390079Y539685D1*
X2392835Y1228268D2*
X2575118Y1228661D1*
X2657795Y1224724D2*
Y1236535D1*
X2740472Y1319213D1*
X3079055D1*
X3086929Y1311339D1*
X3661732Y1303465D2*
X3665669D1*
X3701102Y1268031D1*
X3857402D1*
X3928268Y1338898D1*
X6023937Y716850D2*
D10*
X5992441D1*
X5980630Y728661D1*
Y831024D1*
X5968819Y842835D1*
X5933386D1*
D15*
X5866457D1*
D14*
X5862520Y838898D1*
Y783780D2*
D15*
X5925512D1*
D14*
X5933386Y775906D1*
X5909764Y988504D2*
D18*
X6004252D1*
X6098740D1*
X6193228D1*
D14*
X6224724D1*
X6846772Y1610551D1*
X6925512D1*
X6827087D1*
X6728661D1*
X6630236D1*
X4628268Y1338898D2*
D18*
Y1061339D1*
D14*
X4626299Y1059370D1*
D18*
Y988504D1*
Y931031D1*
Y897953D1*
D14*
X4638110Y886142D1*
X5334961Y1342835D2*
Y988504D1*
D18*
X5909764D1*
X988504Y1181417D2*
D14*
X933386D1*
X929449Y1177480D1*
X7401890Y1331417D2*
D17*
X7314882D1*
X7271969Y1374331D1*
X7102677D1*
X4638110Y886142D2*
D19*
X4567244D1*
Y610551D2*
X4563307D1*
X4445197Y492441D1*
X4000315D1*
X2705039D2*
X1421575D1*
X1311339D2*
X1256220D1*
X988504Y760157D1*
Y1016063D2*
X882205D1*
X575118Y1323150D1*
X481024D1*
X472756Y1331417D1*
X988504Y1181417D2*
D14*
Y1016063D1*
X6197165Y677480D2*
D10*
X6268031D1*
X6299528Y708976D1*
D14*
Y764094D1*
X6193228Y870394D1*
Y917638D2*
D15*
Y870394D1*
X6197165Y748346D2*
D10*
Y716850D1*
X6193228Y988504D2*
D15*
Y917638D1*
D14*
Y870394D1*
X5334961Y988504D2*
D18*
X5283780Y937323D1*
X4632591D1*
D14*
X4626299Y931031D1*
X1715669Y1328268D2*
D19*
X1556614D1*
D14*
X1555433Y1327087D1*
D19*
X1496378D1*
D14*
X1492441Y1331024D1*
D19*
X1421575D1*
X4638110Y795591D2*
D14*
X4669606D1*
X4724724Y850709D1*
Y882205D1*
X4728661Y996378D2*
Y1338504D1*
X4728268Y1338898D1*
X4716850D1*
X4764094Y1386142D1*
X5496378D1*
X5531811Y1350709D1*
X5523937Y1342835D1*
X4638110Y795591D2*
D19*
X4409764D1*
D14*
X4299528D1*
X4291654Y787717D1*
X3803465Y626299D2*
D15*
Y575118D1*
X3582992Y523150D2*
D14*
X3692806D1*
Y523937D1*
X3744409D1*
X472756Y584567D2*
D19*
X475118Y586929D1*
X622362D1*
X768031Y441260D1*
X1366457D1*
Y756220D1*
X2976693Y551496D2*
D15*
Y500315D1*
Y441260D2*
Y500315D1*
X1543622Y933386D2*
D14*
X1504252D1*
X3803465Y472756D2*
X3901890D1*
X3909073Y479940D1*
D19*
Y571722D1*
Y626299D1*
Y794900D1*
X3909764Y795591D1*
X3803465Y575118D2*
D14*
X3905677D1*
X3909073Y571722D1*
X3677480Y523937D2*
X3692806D1*
X3909073Y479940D2*
D19*
Y441260D1*
X3909764D1*
X1421575Y1331024D2*
D14*
X1106614D1*
X1086929Y1311339D1*
X1071181Y1118425D2*
X1110551D1*
X1071181Y1181417D2*
Y1118425D1*
X1086929Y1311339D2*
Y1271969D1*
X1382205Y1153858D2*
X1421575D1*
X1555433Y1327087D2*
X1606614D1*
X1366457Y441260D2*
D19*
X2976693D1*
X3803465Y626299D2*
D14*
X3909073D1*
X4409764Y795591D2*
D19*
X3941260D1*
X3909764D1*
Y1067244D2*
Y1086929D1*
X3764094Y1232598D1*
X4827087Y1106614D2*
D14*
Y1145984D1*
X2392835Y828268D2*
X2529055D1*
X2618425Y917638D1*
X2945197D1*
X2960945Y933386D1*
X3079055D1*
X3106614Y905827D1*
X3760157D1*
X3779843Y925512D1*
X4315276D1*
X4504252Y1114488D1*
X4551496D1*
X1715669Y828268D2*
X1581811D1*
X1539685Y870394D1*
X1508189D1*
X1504252Y874331D1*
X1441260D1*
X886142D1*
X626299Y1134173D1*
X475512D1*
X472756Y1131417D1*
D19*
X455039Y1883780D3*
Y1805039D3*
Y887717D3*
Y808976D3*
X520000Y1919213D3*
Y1765669D3*
Y923150D3*
Y769606D3*
X584961Y1883780D3*
Y1805039D3*
Y887717D3*
Y808976D3*
X5917638Y720787D3*
D67*
X6094803Y705039D3*
X6126299D3*
X6094803Y677480D3*
X6126299D3*
X6094803Y649921D3*
X6126299D3*
D19*
X5819213Y1094803D3*
X3059370Y1208976D3*
X2724724Y1205039D3*
X4724724Y882205D3*
X4728661Y996378D3*
X3157795Y1346772D3*
X3649921Y1342835D3*
X2575118Y1228661D3*
X2657795Y1224724D3*
X3086929Y1311339D3*
X3661732Y1303465D3*
X3189291Y1145984D3*
X3082992Y1149921D3*
D68*
X3909764Y441260D3*
D19*
X1543622Y933386D3*
X3677480Y523937D3*
D68*
X2705039Y492441D3*
D19*
X2964882Y768031D3*
D68*
X2976693Y441260D3*
X4567244Y886142D3*
Y610551D3*
D19*
X1791654Y842835D3*
X1575118Y980630D3*
X748346Y874331D3*
Y791654D3*
X2516063Y771969D3*
X2642047Y768031D3*
X3086929Y496378D3*
X2917638D3*
X1783780Y1023937D3*
X1575118Y1027874D3*
X1760157Y1378268D3*
X2350709D3*
X1827087Y579055D3*
D68*
X1366457Y756220D3*
X1606614Y1327087D3*
X4000315Y492441D3*
X1421575D3*
X1311339D3*
D19*
X3149921Y823150D3*
X1110551Y1201102D3*
X1031811Y1055433D3*
X890079Y1114488D3*
X5894016Y1145984D3*
X5933386D3*
X5972756D3*
X6012126D3*
X6051496D3*
X6090866D3*
X6130236D3*
X6169606D3*
X6208976D3*
X5256220Y1169606D3*
X5445197D3*
X4520000Y1149921D3*
X4905827Y1142047D3*
X4827087Y1106614D3*
X4551496Y1114488D3*
X3138110Y1268031D3*
Y1016063D3*
X3397953Y1020000D3*
X3149921Y771969D3*
X3397953Y1268031D3*
X3224724Y1275906D3*
X3484567D3*
X3149921Y724724D3*
Y673543D3*
Y622362D3*
X3645984Y823150D3*
Y771969D3*
Y724724D3*
Y673543D3*
X3842835Y531811D3*
X4232598Y720787D3*
Y681417D3*
X4712913Y661732D3*
X4752283D3*
X4791654D3*
Y705039D3*
D68*
X988504Y760157D3*
Y1016063D3*
D19*
X1110551Y1118425D3*
X1086929Y1271969D3*
X1382205Y1153858D3*
X1370394Y1252283D3*
X1409764Y1208976D3*
X1449134D3*
X1527874D3*
X1488504D3*
X1382205Y1102677D3*
X2846772Y1142047D3*
X2630236Y1138110D3*
X2508189D3*
X2173543Y1279843D3*
X6008189Y1689291D3*
X6047559D3*
X6086929D3*
X6126299D3*
X6165669D3*
X6205039D3*
X6244409D3*
X6283780D3*
X1401890Y933386D3*
X6228661Y453071D3*
Y492441D3*
Y531811D3*
X6023937Y606614D3*
X5748346Y614488D3*
Y653858D3*
Y693228D3*
Y732598D3*
Y771969D3*
Y811339D3*
Y850709D3*
X4771969Y882205D3*
X4457008Y941260D3*
X2661732Y803465D3*
X2252283D3*
X6197165Y748346D3*
X6193228Y917638D3*
D68*
X6370394Y756220D3*
Y799528D3*
Y842835D3*
Y886142D3*
X6417638Y905827D3*
X6460945D3*
X4500315Y1067244D3*
Y1023937D3*
Y980630D3*
X5708976Y472756D3*
X5866457D3*
X6023937D3*
D19*
X3079055Y768031D3*
D68*
X1240472Y1051496D3*
X1740472Y634173D3*
X5669606Y1890079D3*
Y1575118D3*
Y1732598D3*
Y1417638D3*
Y1102677D3*
Y1260157D3*
X4157795Y858583D3*
X4315276D3*
D19*
X2941260Y803465D3*
D68*
X4000315Y858583D3*
X4212913Y590866D3*
X4370394D3*
X4055433D3*
X5905827Y1496378D3*
X6063307D3*
X6220787D3*
X6063307Y1338898D3*
X5905827D3*
X6220787D3*
X1082992Y925512D3*
X925512D3*
X1240472D3*
X4606614Y472756D3*
X4764094D3*
X4921575D3*
X708976Y1831024D3*
Y1516063D3*
Y1673543D3*
D19*
X3047559Y799528D3*
D68*
X1850709Y945197D3*
X2165669Y1102677D3*
X2008189Y945197D3*
X2165669D3*
D19*
X2634173Y886142D3*
Y1016063D3*
X4488504Y1185354D3*
X4890079D3*
X4567244Y1216850D3*
X4929449Y1220787D3*
D68*
X3909764Y795591D3*
Y1067244D3*
X3764094Y1232598D3*
D19*
X7289685Y1883780D3*
Y1805039D3*
Y887717D3*
Y808976D3*
X7354646Y1919213D3*
Y1765669D3*
Y923150D3*
Y769606D3*
X7419606Y1883780D3*
Y1805039D3*
Y887717D3*
Y808976D3*
X6597169Y1671706D2*
D20*
X6958579D1*
X6597169Y1667900D2*
X6958579D1*
X6597169Y1664094D2*
X6958579D1*
X6597169Y1660289D2*
X6958579D1*
X6597169Y1656483D2*
X6958579D1*
X6597169Y1652677D2*
X6958579D1*
X6597169Y1648871D2*
X6958579D1*
X6597169Y1645066D2*
X6958579D1*
X6597169Y1641260D2*
X6958579D1*
X6597169Y1637454D2*
X6958579D1*
X6597169Y1633648D2*
X6958579D1*
X6597169Y1629843D2*
X6958579D1*
X6597169Y1626037D2*
X6958579D1*
X6597169Y1622231D2*
X6958579D1*
X6597169Y1618425D2*
X6958579D1*
X6597169Y1614619D2*
X6958579D1*
X6597169Y1610814D2*
X6958579D1*
X6597169Y1607008D2*
X6958579D1*
X6597169Y1603202D2*
X6958579D1*
X6597169Y1599396D2*
X6958579D1*
X6597169Y1595591D2*
X6958579D1*
X6597169Y1591785D2*
X6958579D1*
X6597169Y1587979D2*
X6958579D1*
X6597169Y1584173D2*
X6958579D1*
X6597169Y1580367D2*
X6958579D1*
X6597169Y1576562D2*
X6958579D1*
X6597169Y1572756D2*
X6958579D1*
X6597169Y1568950D2*
X6958579D1*
X6597169Y1565144D2*
X6958579D1*
X6597169Y1561339D2*
X6958579D1*
X6597169Y1557533D2*
X6958579D1*
X6597169Y1553727D2*
X6958579D1*
X6597169Y1549921D2*
X6958579D1*
X6597169Y1546115D2*
X6958579D1*
X6597169Y1542310D2*
X6959079D1*
X6597169Y1538504D2*
X6962885D1*
X6597169Y1534698D2*
X6966692D1*
X6597169Y1530892D2*
X6970497D1*
X6597169Y1527087D2*
X6974303D1*
X6597169Y1523281D2*
X6978110D1*
X6597169Y1519475D2*
X6981916D1*
X6597169Y1515669D2*
X6985723D1*
X6597169Y1511864D2*
X6989529D1*
X6597169Y1508058D2*
X6993335D1*
X6597169Y1504252D2*
X6997134D1*
X6597169Y1500446D2*
X7000940D1*
X6597169Y1496640D2*
X7004747D1*
X6597169Y1492835D2*
X7008552D1*
X6597169Y1489029D2*
X7012360D1*
X6597169Y1485223D2*
X7016165D1*
X6597169Y1481417D2*
X7019971D1*
X6597169Y1477612D2*
X7023778D1*
X6597169Y1473806D2*
X7027584D1*
X6597169Y1470000D2*
X7031390D1*
X6597169Y1466194D2*
X7035197D1*
X6597169Y1462388D2*
X7039003D1*
X6597169Y1458583D2*
X7042810D1*
X6597169Y1454777D2*
X7046615D1*
X6597169Y1450971D2*
X7050421D1*
X6597169Y1447165D2*
X7054220D1*
X6597169Y1443360D2*
X7058026D1*
X6597169Y1439554D2*
X7061833D1*
X6597169Y1435748D2*
X7065639D1*
X6597169Y1431942D2*
X7069446D1*
X6597169Y1428136D2*
X7073252D1*
X6597169Y1424331D2*
X7077058D1*
X6597169Y1420525D2*
X7080865D1*
X6597169Y1416719D2*
X7084671D1*
X6597169Y1412913D2*
X7088476D1*
X6597169Y1409108D2*
X7092283D1*
X6597169Y1405302D2*
X7096089D1*
X6597169Y1401496D2*
X7099896D1*
X6597169Y1397690D2*
X7103702D1*
X6597169Y1393885D2*
X7107508D1*
X6597169Y1390079D2*
X7123933D1*
X6597169Y1386273D2*
X7123933D1*
X6597169Y1382467D2*
X7123933D1*
X6597169Y1378661D2*
X7123933D1*
X6594570Y1374856D2*
X7123933D1*
X6590764Y1371050D2*
X7123933D1*
X6586958Y1367244D2*
X7123933D1*
X6583151Y1363438D2*
X7123933D1*
X6579345Y1359633D2*
X7123933D1*
X6575539Y1355827D2*
X6793593D1*
X6571732Y1352021D2*
X6789787D1*
X6567927Y1348215D2*
X6785982D1*
X6564119Y1344409D2*
X6782175D1*
X6560314Y1340604D2*
X6778369D1*
X6556508Y1336798D2*
X6774562D1*
X6552709Y1332992D2*
X6770756D1*
X6548903Y1329186D2*
X6766950D1*
X6545096Y1325381D2*
X6763151D1*
X6541290Y1321575D2*
X6759345D1*
X6537483Y1317769D2*
X6755538D1*
X6533677Y1313963D2*
X6751732D1*
X6529871Y1310157D2*
X6747925D1*
X6526064Y1306352D2*
X6744119D1*
X6522259Y1302546D2*
X6740314D1*
X6518453Y1298740D2*
X6736507D1*
X6514646Y1294934D2*
X6732701D1*
X6510840Y1291129D2*
X6728895D1*
X6507033Y1287323D2*
X6725088D1*
X6503227Y1283517D2*
X6721282D1*
X6499421Y1279711D2*
X6717475D1*
X6495622Y1275906D2*
X6713669D1*
X6491816Y1272100D2*
X6709864D1*
X6488009Y1268294D2*
X6706064D1*
X6484203Y1264488D2*
X6702259D1*
X6480396Y1260682D2*
X6698451D1*
X6476591Y1256877D2*
X6694646D1*
X6472785Y1253071D2*
X6690839D1*
X6468978Y1249265D2*
X6687033D1*
X6465172Y1245459D2*
X6683227D1*
X6461366Y1241654D2*
X6679420D1*
X6457559Y1237848D2*
X6675614D1*
X6453753Y1234042D2*
X6671808D1*
X6449946Y1230236D2*
X6668001D1*
X6446140Y1226430D2*
X6664196D1*
X6442335Y1222625D2*
X6660388D1*
X6438535Y1218819D2*
X6656583D1*
X6434730Y1215013D2*
X6652777D1*
X6430923Y1211207D2*
X6648978D1*
X6427117Y1207402D2*
X6645172D1*
X6423310Y1203596D2*
X6641365D1*
X6419504Y1199790D2*
X6637559D1*
X6415698Y1195984D2*
X6633752D1*
X6411891Y1192178D2*
X6629946D1*
X6408085Y1188373D2*
X6626140D1*
X6404280Y1184567D2*
X6622333D1*
X6400472Y1180761D2*
X6618528D1*
X6396667Y1176955D2*
X6614722D1*
X6392860Y1173150D2*
X6610915D1*
X6389054Y1169344D2*
X6607109D1*
X6385248Y1165538D2*
X6603302D1*
X6381449Y1161732D2*
X6599496D1*
X6377643Y1157927D2*
X6595697D1*
X6373836Y1154121D2*
X6591891D1*
X6370030Y1150315D2*
X6588085D1*
X6366223Y1146509D2*
X6584278D1*
X6362417Y1142703D2*
X6580472D1*
X6358612Y1138898D2*
X6576665D1*
X6354804Y1135092D2*
X6572860D1*
X6350999Y1131286D2*
X6569054D1*
X6347193Y1127480D2*
X6565247D1*
X6343386Y1123675D2*
X6561441D1*
X6339580Y1119869D2*
X6557635D1*
X6335773Y1116063D2*
X6553828D1*
X6331967Y1112257D2*
X6550022D1*
X6328161Y1108451D2*
X6546215D1*
X6324362Y1104646D2*
X6542409D1*
X6320556Y1100840D2*
X6538610D1*
X6316749Y1097034D2*
X6534804D1*
X6312944Y1093228D2*
X6530999D1*
X6309136Y1089423D2*
X6527192D1*
X6305331Y1085617D2*
X6523386D1*
X6301525Y1081811D2*
X6519579D1*
X6297718Y1078005D2*
X6515773D1*
X6293912Y1074199D2*
X6511967D1*
X6290106Y1070394D2*
X6508160D1*
X6286299Y1066588D2*
X6504354D1*
X6282493Y1062782D2*
X6500549D1*
X6278686Y1058976D2*
X6496741D1*
X6274881Y1055171D2*
X6492936D1*
X6271075Y1051365D2*
X6489129D1*
X6267276Y1047559D2*
X6485323D1*
X6263470Y1043753D2*
X6481524D1*
X6259663Y1039948D2*
X6477718D1*
X6255857Y1036142D2*
X6473912D1*
X6252050Y1032336D2*
X6470105D1*
X6248244Y1028530D2*
X6466299D1*
X6244438Y1024724D2*
X6462492D1*
X6240631Y1020919D2*
X6458686D1*
X6236825Y1017113D2*
X6454881D1*
X6233020Y1013307D2*
X6451073D1*
X6229213Y1009501D2*
X6447268D1*
X6177894Y1005696D2*
X6443462D1*
X5873329Y1001890D2*
X6439655D1*
X5874175Y998084D2*
X6435849D1*
X5875021Y994278D2*
X6432042D1*
X5875866Y990472D2*
X6428236D1*
X5876713Y986667D2*
X6424437D1*
X5877558Y982861D2*
X6420631D1*
X5878404Y979055D2*
X6416825D1*
X5879249Y975249D2*
X6413018D1*
X5880096Y971444D2*
X6409213D1*
X6224739Y1006220D2*
X5872844Y1002311D1*
X5879846Y970787D1*
X6408941D1*
X6794312Y1356143D1*
X6794837Y1356465D1*
X6795436Y1356608D1*
X7124323Y1356614D1*
X7124331Y1392039D1*
X7110243Y1392071D1*
X7109657Y1392261D1*
X7109159Y1392625D1*
X6959352Y1542465D1*
X6959072Y1543013D1*
X6958976Y1543622D1*
Y1675504D1*
X6596780Y1675512D1*
X6596765Y1378113D1*
X6596622Y1377514D1*
X6596301Y1376990D1*
X6226003Y1006692D1*
X6225478Y1006370D1*
X6224878Y1006227D1*
X5912130Y1927612D2*
X6462516D1*
X5912130Y1923806D2*
X6462516D1*
X5912130Y1920000D2*
X6462516D1*
X5912130Y1916194D2*
X6462516D1*
X5912130Y1912388D2*
X6462516D1*
X5912130Y1908583D2*
X6462516D1*
X5912130Y1904777D2*
X6462516D1*
X5912130Y1900971D2*
X6462516D1*
X5912130Y1897165D2*
X6462516D1*
X5912130Y1893360D2*
X6462516D1*
X6462906Y1931417D2*
X5911740D1*
X5911732Y1892055D1*
X6462906Y1892047D1*
X6462913Y1931409D1*
X7064651Y907927D2*
X7135744D1*
X7060844Y904121D2*
X7135744D1*
X7057038Y900315D2*
X7135744D1*
X7053231Y896509D2*
X7135744D1*
X7049425Y892703D2*
X7135744D1*
X7045619Y888898D2*
X7135744D1*
X7041812Y885092D2*
X7135744D1*
X7038007Y881286D2*
X7135744D1*
X7034201Y877480D2*
X7135744D1*
X6597169Y873675D2*
X7135744D1*
X6597169Y869869D2*
X7135744D1*
X6597169Y866063D2*
X7135744D1*
X6597169Y862257D2*
X7135744D1*
X6597169Y858451D2*
X7135744D1*
X6597169Y854646D2*
X7135744D1*
X6597169Y850840D2*
X7135744D1*
X6597169Y847034D2*
X7135744D1*
X6597169Y843228D2*
X7135744D1*
X6597169Y839423D2*
X7135744D1*
X6597169Y835617D2*
X7135744D1*
X6597169Y831811D2*
X7135744D1*
X6597169Y828005D2*
X7135744D1*
X6597169Y824199D2*
X7135744D1*
X6597169Y820394D2*
X7135744D1*
X6597169Y816588D2*
X7135744D1*
X6597169Y812782D2*
X7135744D1*
X6597169Y808976D2*
X7135744D1*
X6597169Y805171D2*
X7135744D1*
X6597169Y801365D2*
X7135744D1*
X6597169Y797559D2*
X7135744D1*
X6597169Y793753D2*
X7135744D1*
X6597169Y789948D2*
X7135744D1*
X6597169Y786142D2*
X7135744D1*
X6597169Y782336D2*
X7135744D1*
X6597169Y778530D2*
X7135744D1*
X6597169Y774724D2*
X7135744D1*
X6597169Y770919D2*
X7135744D1*
X6597169Y767113D2*
X7135744D1*
X6597169Y763307D2*
X7135744D1*
X6597169Y759501D2*
X7135744D1*
X6597169Y755696D2*
X7135744D1*
X6597169Y751890D2*
X7135744D1*
X6597169Y748084D2*
X7135744D1*
X6597169Y744278D2*
X7135744D1*
X6597169Y740472D2*
X7135744D1*
X6597169Y736667D2*
X7135744D1*
X6597169Y732861D2*
X7135744D1*
X6597169Y729055D2*
X7135744D1*
X6597169Y725249D2*
X7135744D1*
X6597169Y721444D2*
X7135744D1*
X6597169Y717638D2*
X7135744D1*
X6597169Y713832D2*
X7135744D1*
X6597169Y710026D2*
X7135744D1*
X6597169Y706220D2*
X7135744D1*
X6597169Y702415D2*
X7135744D1*
X6597169Y698609D2*
X7135744D1*
X6597169Y694803D2*
X7135744D1*
X6597169Y690997D2*
X7135744D1*
X6597169Y687192D2*
X7135744D1*
X6597169Y683386D2*
X7135744D1*
X6597169Y679580D2*
X7135744D1*
X6597169Y675774D2*
X7135744D1*
X6597169Y671969D2*
X7135744D1*
X6597169Y668163D2*
X7135744D1*
X6597169Y664357D2*
X7135744D1*
X6597169Y660551D2*
X7135744D1*
X6597169Y656745D2*
X7135744D1*
X6597169Y652940D2*
X7135744D1*
X6597169Y649134D2*
X7135744D1*
X6597169Y645328D2*
X7134276D1*
X6597169Y641522D2*
X7130470D1*
X6597169Y637717D2*
X7126663D1*
X6597169Y633911D2*
X7122857D1*
X6597169Y630105D2*
X7119050D1*
X6597169Y626299D2*
X7115244D1*
X6597169Y622493D2*
X7111445D1*
X6597169Y618688D2*
X7107639D1*
X6597169Y614882D2*
X7103833D1*
X6597169Y611076D2*
X7100026D1*
X6597169Y607270D2*
X7096220D1*
X6597169Y603465D2*
X7092413D1*
X6597169Y599659D2*
X7088608D1*
X6597169Y595853D2*
X7084802D1*
X6597169Y592047D2*
X7080995D1*
X6597169Y588241D2*
X7077189D1*
X6597169Y584436D2*
X7073383D1*
X6597169Y580630D2*
X7069576D1*
X6597169Y576824D2*
X7065770D1*
X6597169Y573018D2*
X7061963D1*
X6597169Y569213D2*
X7058157D1*
X6597169Y565407D2*
X7054358D1*
X6597169Y561601D2*
X7050552D1*
X6597169Y557795D2*
X7046747D1*
X6597169Y553990D2*
X7042940D1*
X6597169Y550184D2*
X7039134D1*
X6597169Y546378D2*
X7035327D1*
X6597169Y542572D2*
X7031521D1*
X6597169Y538766D2*
X7027715D1*
X6597169Y534961D2*
X7023908D1*
X6597169Y531155D2*
X7020102D1*
X6597169Y527349D2*
X7016297D1*
X6597169Y523543D2*
X7012490D1*
X6597169Y519738D2*
X7008684D1*
X6597169Y515932D2*
X7004877D1*
X6597169Y512126D2*
X7001071D1*
X6597169Y508320D2*
X6997272D1*
X6597169Y504514D2*
X6993466D1*
X6597169Y500709D2*
X6989660D1*
X6597169Y496903D2*
X6985853D1*
X6597169Y493097D2*
X6982047D1*
X6597169Y489291D2*
X6978240D1*
X6597169Y485486D2*
X6974434D1*
X6597169Y481680D2*
X6970629D1*
X6597169Y477874D2*
X6966822D1*
X6597169Y474068D2*
X6963016D1*
X6597169Y470262D2*
X6959210D1*
X6597169Y466457D2*
X6955403D1*
X6597169Y462651D2*
X6951597D1*
X6597169Y458845D2*
X6947790D1*
X6960937Y876299D2*
X6596780D1*
X6596772Y455047D1*
X6944374Y455039D1*
X7136139Y646797D1*
X7136142Y911724D1*
X7068067Y911732D1*
X7032969Y876675D1*
X7032420Y876395D1*
X7031811Y876299D1*
X6960945D1*
X5880634Y1155958D2*
X6222358D1*
X5880634Y1152152D2*
X6222358D1*
X5880634Y1148346D2*
X6222358D1*
X5880634Y1144541D2*
X6222358D1*
X5880634Y1140735D2*
X6222358D1*
X5880634Y1136929D2*
X6222358D1*
X5880634Y1133123D2*
X6222358D1*
X5880634Y1129318D2*
X6222358D1*
X5880634Y1125512D2*
X6222358D1*
X5880634Y1121706D2*
X6222358D1*
X5880634Y1117900D2*
X6222358D1*
X5880634Y1114094D2*
X6222358D1*
X5880634Y1110289D2*
X6222358D1*
X5880634Y1106483D2*
X6222358D1*
X5880634Y1102677D2*
X6222358D1*
X5880634Y1098871D2*
X6222358D1*
X5880634Y1095066D2*
X6222358D1*
X5880634Y1091260D2*
X6222358D1*
X5880634Y1087454D2*
X6222358D1*
X5880634Y1083648D2*
X6222358D1*
X5880236Y1159756D2*
Y1081031D1*
X6222748Y1081024D1*
X6222756Y1159756D1*
X5880244Y1159764D1*
X597023Y1935486D2*
X757791D1*
X5581421D2*
X5773386D1*
X601406Y1931680D2*
X757791D1*
X5581421D2*
X5773386D1*
X605397Y1927874D2*
X757791D1*
X5581421D2*
X5773386D1*
X609042Y1924068D2*
X757791D1*
X5581421D2*
X5773386D1*
X612379Y1920262D2*
X757791D1*
X5581421D2*
X5773386D1*
X615455Y1916457D2*
X757791D1*
X5581421D2*
X5773386D1*
X618284Y1912651D2*
X757791D1*
X5581421D2*
X5773386D1*
X620891Y1908845D2*
X757791D1*
X5581421D2*
X5773386D1*
X623290Y1905039D2*
X757791D1*
X5581421D2*
X5773386D1*
X625497Y1901234D2*
X757791D1*
X5581421D2*
X5773386D1*
X627520Y1897428D2*
X757791D1*
X5581421D2*
X5773386D1*
X629380Y1893622D2*
X757791D1*
X5581421D2*
X5773386D1*
X631072Y1889816D2*
X757791D1*
X5581421D2*
X5773386D1*
X632610Y1886010D2*
X757791D1*
X5581421D2*
X5773386D1*
X634002Y1882205D2*
X757791D1*
X5581421D2*
X5773386D1*
X635247Y1878399D2*
X757791D1*
X5581421D2*
X5773386D1*
X636362Y1874593D2*
X757791D1*
X5581421D2*
X5773386D1*
X637339Y1870787D2*
X757791D1*
X5581421D2*
X5773386D1*
X638177Y1866982D2*
X757791D1*
X5581421D2*
X5773386D1*
X638900Y1863176D2*
X757791D1*
X5581421D2*
X5773386D1*
X639484Y1859370D2*
X757791D1*
X5581421D2*
X5773386D1*
X639953Y1855564D2*
X757791D1*
X5581421D2*
X5773386D1*
X640299Y1851759D2*
X757791D1*
X5581421D2*
X5773386D1*
X640522Y1847953D2*
X757791D1*
X5581421D2*
X5773386D1*
X640622Y1844147D2*
X757791D1*
X5581421D2*
X5773386D1*
X640607Y1840341D2*
X757791D1*
X5581421D2*
X5773539D1*
X640469Y1836535D2*
X757791D1*
X5581421D2*
X5773539D1*
X640207Y1832730D2*
X757791D1*
X5581421D2*
X5773539D1*
X639823Y1828924D2*
X757791D1*
X5581421D2*
X5773539D1*
X639315Y1825118D2*
X757791D1*
X5581421D2*
X5773539D1*
X638685Y1821312D2*
X757791D1*
X5581421D2*
X5773539D1*
X637931Y1817507D2*
X757791D1*
X5581421D2*
X5773539D1*
X637047Y1813701D2*
X757791D1*
X5581421D2*
X5773539D1*
X636032Y1809895D2*
X757791D1*
X5581421D2*
X5773539D1*
X634878Y1806089D2*
X757791D1*
X5581421D2*
X5773539D1*
X633587Y1802283D2*
X757791D1*
X5581421D2*
X5773539D1*
X632149Y1798478D2*
X757791D1*
X5581421D2*
X5773539D1*
X630565Y1794672D2*
X757791D1*
X5581421D2*
X5773539D1*
X628819Y1790866D2*
X757791D1*
X5581421D2*
X5773539D1*
X626912Y1787060D2*
X757791D1*
X5581421D2*
X5773539D1*
X624828Y1783255D2*
X757791D1*
X5581421D2*
X5773539D1*
X622568Y1779449D2*
X757791D1*
X5581421D2*
X5773539D1*
X620107Y1775643D2*
X757791D1*
X5581421D2*
X5773539D1*
X617431Y1771837D2*
X757791D1*
X5581421D2*
X5773547D1*
X614524Y1768031D2*
X757791D1*
X5581421D2*
X5774116D1*
X611372Y1764226D2*
X757791D1*
X5581421D2*
X5775923D1*
X607942Y1760420D2*
X757791D1*
X5581421D2*
X5777323D1*
X604197Y1756614D2*
X757791D1*
X5581421D2*
X5777323D1*
X5861103D2*
X6305036D1*
X600091Y1752808D2*
X757791D1*
X5581421D2*
X5777323D1*
X5861103D2*
X6305036D1*
X595577Y1749003D2*
X757791D1*
X5581421D2*
X5777323D1*
X5861103D2*
X6305036D1*
X590564Y1745197D2*
X757791D1*
X5581421D2*
X5777323D1*
X5861103D2*
X6305036D1*
X584935Y1741391D2*
X757791D1*
X5581421D2*
X5777323D1*
X5861103D2*
X6305036D1*
X578522Y1737585D2*
X757791D1*
X5581421D2*
X5777323D1*
X5861103D2*
X6305036D1*
X571025Y1733780D2*
X757791D1*
X5581421D2*
X5777323D1*
X5861103D2*
X6305036D1*
X561859Y1729974D2*
X757791D1*
X5581421D2*
X5777323D1*
X5861103D2*
X6305036D1*
X549471Y1726168D2*
X757791D1*
X5581421D2*
X5777323D1*
X5861103D2*
X6305036D1*
X506610Y1722362D2*
X757791D1*
X5581421D2*
X5777323D1*
X5861103D2*
X6305036D1*
X509194Y1718556D2*
X757791D1*
X5581421D2*
X5777323D1*
X5861103D2*
X6305036D1*
X516668Y1714751D2*
X757791D1*
X5581421D2*
X5777323D1*
X5861103D2*
X6305036D1*
X524135Y1710945D2*
X757791D1*
X5581421D2*
X5777323D1*
X5861103D2*
X6305036D1*
X529656Y1707139D2*
X757791D1*
X5581421D2*
X5777323D1*
X5861103D2*
X6305036D1*
X533462Y1703333D2*
X757791D1*
X5581421D2*
X5777323D1*
X5861103D2*
X6305036D1*
X537268Y1699528D2*
X757791D1*
X5581421D2*
X5777323D1*
X5861103D2*
X6305036D1*
X541075Y1695722D2*
X757791D1*
X5581421D2*
X5777323D1*
X5861103D2*
X6305036D1*
X544881Y1691916D2*
X757791D1*
X5581421D2*
X5777323D1*
X5861103D2*
X6305036D1*
X548310Y1688110D2*
X757791D1*
X5581421D2*
X5777323D1*
X5861103D2*
X6305036D1*
X550356Y1684304D2*
X757791D1*
X5581421D2*
X5787165D1*
X5851260D2*
X6305036D1*
X552293Y1680499D2*
X757791D1*
X5581421D2*
X5787165D1*
X5851260D2*
X6305036D1*
X554231Y1676693D2*
X757791D1*
X5581421D2*
X5787165D1*
X5851260D2*
X6305036D1*
X556177Y1672887D2*
X757791D1*
X5581421D2*
X5787165D1*
X5851260D2*
X6305036D1*
X558114Y1669081D2*
X757791D1*
X5581421D2*
X5787165D1*
X5851260D2*
X6305036D1*
X560052Y1665276D2*
X757791D1*
X5581421D2*
X5787165D1*
X5851260D2*
X6305036D1*
X561490Y1661470D2*
X757791D1*
X5581421D2*
X5787165D1*
X5851260D2*
X6305036D1*
X562121Y1657664D2*
X757791D1*
X5581421D2*
X5783766D1*
X5851260D2*
X6305036D1*
X562720Y1653858D2*
X757791D1*
X5581421D2*
X5720236D1*
X5851260D2*
X6305036D1*
X563328Y1650052D2*
X757791D1*
X5581421D2*
X5720236D1*
X5851260D2*
X6305036D1*
X563928Y1646247D2*
X757791D1*
X5581421D2*
X5720236D1*
X5851214D2*
X6305036D1*
X564535Y1642441D2*
X757791D1*
X5581421D2*
X5720236D1*
X5850776D2*
X6305036D1*
X565135Y1638635D2*
X757791D1*
X5581421D2*
X5720236D1*
X5849861D2*
X6305036D1*
X565650Y1634829D2*
X757791D1*
X5581421D2*
X5720236D1*
X5848415D2*
X6305036D1*
X565342Y1631024D2*
X757791D1*
X5581421D2*
X5720236D1*
X5846354D2*
X6305036D1*
X564743Y1627218D2*
X757791D1*
X5581421D2*
X5720236D1*
X5843524D2*
X6305036D1*
X564135Y1623412D2*
X757791D1*
X5581421D2*
X5720236D1*
X5839833D2*
X6305036D1*
X563535Y1619606D2*
X757791D1*
X5581421D2*
X5720236D1*
X5836027D2*
X6305036D1*
X562928Y1615801D2*
X757791D1*
X5581421D2*
X5720236D1*
X5832221D2*
X6305036D1*
X562328Y1611995D2*
X757791D1*
X5581421D2*
X5720236D1*
X5828415D2*
X6305036D1*
X561728Y1608189D2*
X757791D1*
X5581421D2*
X5720236D1*
X5827638D2*
X6305036D1*
X560690Y1604383D2*
X757791D1*
X5581421D2*
X5720236D1*
X5827638D2*
X6305036D1*
X558783Y1600577D2*
X757791D1*
X5581421D2*
X5720236D1*
X5827638D2*
X6305036D1*
X556846Y1596772D2*
X757791D1*
X5581421D2*
X5720236D1*
X5827638D2*
X6305036D1*
X554900Y1592966D2*
X757791D1*
X5581421D2*
X5720236D1*
X5827638D2*
X6305036D1*
X552962Y1589160D2*
X757791D1*
X5581421D2*
X5720236D1*
X5827638D2*
X6305036D1*
X551025Y1585354D2*
X757791D1*
X5581421D2*
X5720236D1*
X5827638D2*
X6305036D1*
X549087Y1581549D2*
X757791D1*
X5581421D2*
X5720236D1*
X5827638D2*
X6305036D1*
X546188Y1577743D2*
X757791D1*
X5581421D2*
X5720236D1*
X5827638D2*
X6305036D1*
X542382Y1573937D2*
X757791D1*
X5581421D2*
X5720236D1*
X5827638D2*
X6305036D1*
X538575Y1570131D2*
X757791D1*
X5581421D2*
X5720236D1*
X5827638D2*
X6305036D1*
X534777Y1566325D2*
X757791D1*
X5581421D2*
X5720236D1*
X5827638D2*
X6305036D1*
X530971Y1562520D2*
X757791D1*
X5581421D2*
X5720236D1*
X5827638D2*
X6305036D1*
X526618Y1558714D2*
X757791D1*
X5581421D2*
X5720236D1*
X5827638D2*
X6305036D1*
X524327Y1554908D2*
X757791D1*
X5581421D2*
X5720236D1*
X5827638D2*
X6305036D1*
X526072Y1551102D2*
X757791D1*
X5581421D2*
X5720236D1*
X5827638D2*
X6305036D1*
X527464Y1547297D2*
X757791D1*
X5581421D2*
X6305036D1*
X528533Y1543491D2*
X757791D1*
X5581421D2*
X6305036D1*
X529294Y1539685D2*
X757791D1*
X5581421D2*
X5684803D1*
X5863071D2*
X6305036D1*
X529771Y1535879D2*
X757791D1*
X5581421D2*
X5684803D1*
X5863071D2*
X6305036D1*
X529956Y1532073D2*
X757791D1*
X5581421D2*
X5684803D1*
X5863071D2*
X6305036D1*
X529863Y1528268D2*
X757791D1*
X5581421D2*
X5684803D1*
X5863071D2*
X6305036D1*
X529494Y1524462D2*
X757791D1*
X5581421D2*
X5684803D1*
X5863071D2*
X6305036D1*
X528833Y1520656D2*
X757791D1*
X5581421D2*
X5684803D1*
X5863071D2*
X6305036D1*
X527872Y1516850D2*
X757791D1*
X5581421D2*
X5684803D1*
X5863071D2*
X6305036D1*
X526595Y1513045D2*
X757791D1*
X5581421D2*
X5684803D1*
X5863071D2*
X6305036D1*
X524973Y1509239D2*
X757791D1*
X5581421D2*
X5684803D1*
X5863071D2*
X6305036D1*
X522974Y1505433D2*
X757791D1*
X5581421D2*
X5684803D1*
X5863071D2*
X6305036D1*
X520544Y1501627D2*
X757791D1*
X5581421D2*
X5684803D1*
X5863071D2*
X6305036D1*
X517591Y1497822D2*
X757791D1*
X5581421D2*
X5684803D1*
X5863071D2*
X6305036D1*
X514000Y1494016D2*
X757791D1*
X5581421D2*
X5684803D1*
X5863071D2*
X6305036D1*
X509555Y1490210D2*
X757791D1*
X5581421D2*
X5684803D1*
X5863071D2*
X6305036D1*
X503804Y1486404D2*
X757791D1*
X5581421D2*
X5684803D1*
X5863071D2*
X6305036D1*
X495499Y1482598D2*
X757791D1*
X5581421D2*
X5684803D1*
X5863071D2*
X6305036D1*
X499128Y1478793D2*
X757791D1*
X5581421D2*
X5684803D1*
X5863071D2*
X6305036D1*
X506187Y1474987D2*
X757791D1*
X5581421D2*
X5684803D1*
X5863071D2*
X6305036D1*
X511362Y1471181D2*
X757791D1*
X5581421D2*
X5684803D1*
X5863071D2*
X6305036D1*
X515453Y1467375D2*
X757791D1*
X5581421D2*
X5684803D1*
X5863071D2*
X6305036D1*
X518775Y1463570D2*
X757791D1*
X5581421D2*
X5684803D1*
X5863071D2*
X6305036D1*
X599768Y1459764D2*
X757791D1*
X5581421D2*
X5684803D1*
X5863071D2*
X6305036D1*
X607342Y1455958D2*
X757791D1*
X5581421D2*
X5684803D1*
X5863071D2*
X6305036D1*
X611687Y1452152D2*
X757791D1*
X5581421D2*
X5684803D1*
X5863071D2*
X6305036D1*
X615493Y1448346D2*
X757791D1*
X5581421D2*
X5684803D1*
X5863071D2*
X6305036D1*
X619299Y1444541D2*
X757791D1*
X5581421D2*
X5684803D1*
X5863071D2*
X6305036D1*
X623106Y1440735D2*
X757791D1*
X5581421D2*
X5684803D1*
X5863071D2*
X6305036D1*
X626912Y1436929D2*
X757791D1*
X5581421D2*
X5684803D1*
X5772520D2*
X5775357D1*
X5863071D2*
X6305036D1*
X630718Y1433123D2*
X757791D1*
X5581421D2*
X5787165D1*
X5851260D2*
X6305036D1*
X634525Y1429318D2*
X757791D1*
X5581421D2*
X5787165D1*
X5851260D2*
X6305036D1*
X638331Y1425512D2*
X757791D1*
X5581421D2*
X5787165D1*
X5851260D2*
X6305036D1*
X642137Y1421706D2*
X757791D1*
X5581421D2*
X5787165D1*
X5851260D2*
X6305036D1*
X645943Y1417900D2*
X757791D1*
X5581421D2*
X5787165D1*
X5851260D2*
X6305036D1*
X649750Y1414094D2*
X757791D1*
X5581421D2*
X5787165D1*
X5851260D2*
X6305036D1*
X653556Y1410289D2*
X757791D1*
X5581421D2*
X5787165D1*
X5851260D2*
X6305036D1*
X657362Y1406483D2*
X757791D1*
X5581421D2*
X5787165D1*
X5851260D2*
X6305036D1*
X521259Y1402677D2*
X581987D1*
X661169D2*
X757791D1*
X5581421D2*
X5787165D1*
X5851260D2*
X6305036D1*
X518460Y1398871D2*
X585793D1*
X664975D2*
X757791D1*
X5581421D2*
X5787165D1*
X5851260D2*
X6305036D1*
X515069Y1395066D2*
X589592D1*
X668774D2*
X757791D1*
X5581421D2*
X5787165D1*
X5851260D2*
X6305036D1*
X510886Y1391260D2*
X593398D1*
X672580D2*
X757791D1*
X5581421D2*
X5787165D1*
X5851260D2*
X6305036D1*
X505565Y1387454D2*
X597205D1*
X676386D2*
X3249764D1*
X3325669D2*
X3509606D1*
X4156716D2*
X4401738D1*
X5565827D2*
X5787165D1*
X5851260D2*
X6305036D1*
X498213Y1383648D2*
X601011D1*
X680192D2*
X3150277D1*
X3165313D2*
X3249764D1*
X3325669D2*
X3509606D1*
X4161891D2*
X4396110D1*
X5565827D2*
X5787165D1*
X5851260D2*
X6305036D1*
X496576Y1379843D2*
X604817D1*
X683999D2*
X3139597D1*
X3175994D2*
X3249764D1*
X3325669D2*
X3509606D1*
X4165975D2*
X4391734D1*
X5565827D2*
X5787165D1*
X5851260D2*
X6305036D1*
X504480Y1376037D2*
X608623D1*
X687805D2*
X3133860D1*
X3181730D2*
X3249764D1*
X3325669D2*
X3509606D1*
X4169296D2*
X4388197D1*
X5565827D2*
X5787165D1*
X5851260D2*
X6305036D1*
X510063Y1372231D2*
X612430D1*
X691611D2*
X1373779D1*
X1540236D2*
X2725188D1*
X3185806D2*
X3249764D1*
X3325669D2*
X3509606D1*
X4172042D2*
X4385291D1*
X5565827D2*
X5787165D1*
X5851260D2*
X6305036D1*
X514407Y1368425D2*
X616236D1*
X695418D2*
X1373779D1*
X1540236D2*
X2718844D1*
X3188881D2*
X3249764D1*
X3325669D2*
X3509606D1*
X4174302D2*
X4382891D1*
X5565827D2*
X5787165D1*
X5851260D2*
X6305036D1*
X517922Y1364619D2*
X620042D1*
X699224D2*
X1373779D1*
X1777241D2*
X2331257D1*
X2454407D2*
X2714792D1*
X3191234D2*
X3249764D1*
X3325669D2*
X3509606D1*
X4176148D2*
X4380923D1*
X5565827D2*
X5787165D1*
X5851260D2*
X6305036D1*
X520813Y1360814D2*
X623849D1*
X703030D2*
X1373779D1*
X1777241D2*
X2331257D1*
X2454407D2*
X2710986D1*
X3193026D2*
X3249764D1*
X3329014D2*
X3509606D1*
X4177632D2*
X4379323D1*
X5565827D2*
X5787165D1*
X5851260D2*
X6305036D1*
X591771Y1357008D2*
X627655D1*
X706836D2*
X1096574D1*
X1777241D2*
X2331257D1*
X2454407D2*
X2707179D1*
X3194326D2*
X3249764D1*
X3332821D2*
X3509606D1*
X4178785D2*
X4378070D1*
X5178785D2*
X5214331D1*
X5376851D2*
X5403307D1*
X5565827D2*
X5787165D1*
X5851260D2*
X6305036D1*
X598038Y1353202D2*
X631461D1*
X710643D2*
X1089600D1*
X1777241D2*
X2264589D1*
X2454407D2*
X2703373D1*
X3195195D2*
X3249764D1*
X3336627D2*
X3509606D1*
X4179631D2*
X4377132D1*
X5179631D2*
X5214331D1*
X5376851D2*
X5403307D1*
X5565827D2*
X5787165D1*
X5851260D2*
X6305036D1*
X602383Y1349396D2*
X635267D1*
X714449D2*
X1085394D1*
X1777241D2*
X2258753D1*
X2454407D2*
X2699567D1*
X3195656D2*
X3249764D1*
X3340433D2*
X3509606D1*
X4180177D2*
X4376494D1*
X5180177D2*
X5214331D1*
X5376851D2*
X5403307D1*
X5565827D2*
X5787165D1*
X5851260D2*
X6305036D1*
X606189Y1345591D2*
X639074D1*
X718255D2*
X989921D1*
X1777241D2*
X2254816D1*
X2454407D2*
X2695760D1*
X3195733D2*
X3249764D1*
X3344240D2*
X3509606D1*
X4180446D2*
X4376140D1*
X5180446D2*
X5214331D1*
X5376851D2*
X5403307D1*
X5565827D2*
X5787165D1*
X5851260D2*
X6305036D1*
X609995Y1341785D2*
X642880D1*
X722062D2*
X989921D1*
X1777241D2*
X2251009D1*
X2454407D2*
X2691954D1*
X3195418D2*
X3249764D1*
X3348046D2*
X3509606D1*
X4180469D2*
X4376063D1*
X5180469D2*
X5214331D1*
X5376851D2*
X5403307D1*
X5565827D2*
X5787165D1*
X5851260D2*
X6305036D1*
X613802Y1337979D2*
X646679D1*
X725860D2*
X989921D1*
X1777241D2*
X2247211D1*
X2454407D2*
X2688156D1*
X3194702D2*
X3249764D1*
X3351814D2*
X3509606D1*
X4180469D2*
X4376063D1*
X5180469D2*
X5214331D1*
X5376851D2*
X5403307D1*
X5565827D2*
X5787165D1*
X5851260D2*
X6305036D1*
X617608Y1334173D2*
X650485D1*
X729666D2*
X989921D1*
X1777241D2*
X2243404D1*
X2454407D2*
X2684349D1*
X3193572D2*
X3249764D1*
X3354751D2*
X3509606D1*
X4180469D2*
X4376063D1*
X5180469D2*
X5214331D1*
X5376851D2*
X5403307D1*
X5565827D2*
X5787165D1*
X5851260D2*
X6305036D1*
X621414Y1330367D2*
X654291D1*
X733473D2*
X989921D1*
X1777241D2*
X2239598D1*
X2454407D2*
X2680543D1*
X3191973D2*
X3249764D1*
X3356789D2*
X3509606D1*
X4180354D2*
X4376117D1*
X5180354D2*
X5214331D1*
X5376851D2*
X5403307D1*
X5565827D2*
X5787165D1*
X5851260D2*
X6305036D1*
X625213Y1326562D2*
X658097D1*
X737279D2*
X989921D1*
X1777241D2*
X2235792D1*
X2454407D2*
X2676737D1*
X3189850D2*
X3249764D1*
X3372914D2*
X3509606D1*
X4179954D2*
X4376432D1*
X5179954D2*
X5214331D1*
X5376851D2*
X5403307D1*
X5565827D2*
X5787165D1*
X5851260D2*
X6305036D1*
X629019Y1322756D2*
X661904D1*
X741085D2*
X989921D1*
X1777241D2*
X2231986D1*
X2454407D2*
X2672930D1*
X3187067D2*
X3287888D1*
X3372914D2*
X3547731D1*
X4179262D2*
X4377032D1*
X5179262D2*
X5214331D1*
X5376851D2*
X5403307D1*
X5565827D2*
X5787165D1*
X5851260D2*
X6305036D1*
X632825Y1318950D2*
X665710D1*
X744892D2*
X989921D1*
X1777241D2*
X2228179D1*
X2454407D2*
X2669124D1*
X3124105D2*
X3132169D1*
X3183422D2*
X3289134D1*
X3372914D2*
X3548976D1*
X4178270D2*
X4377924D1*
X5178270D2*
X5214331D1*
X5376851D2*
X5403307D1*
X5565827D2*
X5787165D1*
X5851260D2*
X6305036D1*
X636632Y1315144D2*
X669516D1*
X748698D2*
X989921D1*
X1777241D2*
X2160327D1*
X2186759D2*
X2224373D1*
X2454407D2*
X2665318D1*
X3124690D2*
X3137144D1*
X3178447D2*
X3289134D1*
X3372914D2*
X3548976D1*
X4176963D2*
X4379131D1*
X4576961D2*
X4579573D1*
X4776957D2*
X4779576D1*
X5176963D2*
X5214331D1*
X5376851D2*
X5403307D1*
X5565827D2*
X5787165D1*
X5851260D2*
X6305036D1*
X640438Y1311339D2*
X673323D1*
X752504D2*
X989921D1*
X1777241D2*
X2152684D1*
X2194403D2*
X2220567D1*
X2454407D2*
X2661512D1*
X3124882D2*
X3144941D1*
X3170650D2*
X3289134D1*
X3372914D2*
X3548976D1*
X4175302D2*
X4380677D1*
X4575300D2*
X4581234D1*
X4775303D2*
X4781229D1*
X5175302D2*
X5214331D1*
X5376851D2*
X5403307D1*
X5565827D2*
X5787165D1*
X5851260D2*
X6305036D1*
X644244Y1307533D2*
X677129D1*
X756310D2*
X989921D1*
X1777241D2*
X2147771D1*
X2199316D2*
X2216760D1*
X2454407D2*
X2657705D1*
X3124690D2*
X3289134D1*
X3372914D2*
X3548976D1*
X4173264D2*
X4382592D1*
X4573263D2*
X4582441D1*
X4773266D2*
X4783274D1*
X5173264D2*
X5214331D1*
X5376851D2*
X5403307D1*
X5565827D2*
X5787165D1*
X5851260D2*
X6305036D1*
X648050Y1303727D2*
X680935D1*
X760117D2*
X989921D1*
X2202922D2*
X2212954D1*
X2454407D2*
X2653899D1*
X3124105D2*
X3289134D1*
X3372914D2*
X3548976D1*
X4170780D2*
X4384929D1*
X4570779D2*
X4582441D1*
X4770782D2*
X4785750D1*
X5170780D2*
X5214331D1*
X5376851D2*
X5403307D1*
X5565827D2*
X5787165D1*
X5851260D2*
X6305036D1*
X651857Y1299921D2*
X684741D1*
X763923D2*
X989921D1*
X1124882D2*
X1373779D1*
X2205675D2*
X2209148D1*
X2288329D2*
X2331257D1*
X2454407D2*
X2650093D1*
X3123106D2*
X3289134D1*
X3372914D2*
X3548976D1*
X4167774D2*
X4387767D1*
X4567780D2*
X4582441D1*
X4767775D2*
X4788757D1*
X5167774D2*
X5214331D1*
X5376851D2*
X5403307D1*
X5565827D2*
X5787165D1*
X5851260D2*
X6305036D1*
X655663Y1296115D2*
X688548D1*
X767729D2*
X989921D1*
X1124882D2*
X1373779D1*
X2284523D2*
X2331257D1*
X2454407D2*
X2646286D1*
X3121660D2*
X3289134D1*
X3372914D2*
X3548976D1*
X4164114D2*
X4391204D1*
X4564112D2*
X4582441D1*
X4764115D2*
X4792425D1*
X5164114D2*
X5218268D1*
X5294173D2*
X5306850D1*
X5363071D2*
X5407244D1*
X5483150D2*
X5787165D1*
X5851260D2*
X6305036D1*
X659469Y1292310D2*
X692354D1*
X771536D2*
X989921D1*
X1124882D2*
X1373779D1*
X2280717D2*
X2331257D1*
X2454407D2*
X2642480D1*
X3119707D2*
X3289134D1*
X3372914D2*
X3548976D1*
X4159562D2*
X4395448D1*
X4559560D2*
X4582441D1*
X4759563D2*
X4796977D1*
X5159562D2*
X5218268D1*
X5294173D2*
X5306850D1*
X5363071D2*
X5407244D1*
X5483150D2*
X5787165D1*
X5851260D2*
X6305036D1*
X663276Y1288504D2*
X696160D1*
X775342D2*
X989921D1*
X1124882D2*
X1373779D1*
X1540236D2*
X1597627D1*
X2276911D2*
X2331257D1*
X2454407D2*
X2638674D1*
X2952638D2*
X3056712D1*
X3117146D2*
X3289134D1*
X3372914D2*
X3548976D1*
X4154410D2*
X4400862D1*
X4553639D2*
X4582441D1*
X4756772D2*
X4800160D1*
X5158347D2*
X5218268D1*
X5294173D2*
X5306850D1*
X5363071D2*
X5407244D1*
X5483150D2*
X5787165D1*
X5851260D2*
X6305036D1*
X667082Y1284698D2*
X699967D1*
X779148D2*
X989921D1*
X1124882D2*
X1595498D1*
X2273104D2*
X2331257D1*
X2454407D2*
X2634868D1*
X2952638D2*
X3060057D1*
X3113802D2*
X3289134D1*
X3372914D2*
X3548976D1*
X4154410D2*
X4408413D1*
X4448117D2*
X4511628D1*
X4544904D2*
X4582441D1*
X4756772D2*
X4800160D1*
X5158347D2*
X5218268D1*
X5294173D2*
X5306850D1*
X5363071D2*
X5407244D1*
X5483150D2*
X5787165D1*
X5851260D2*
X6305036D1*
X670888Y1280892D2*
X703765D1*
X782947D2*
X989921D1*
X1124882D2*
X1591699D1*
X2269306D2*
X2327919D1*
X2454407D2*
X2631069D1*
X2952638D2*
X2957441D1*
X3043189D2*
X3064540D1*
X3109319D2*
X3289134D1*
X3372914D2*
X3548976D1*
X4154410D2*
X4582441D1*
X4756772D2*
X4800160D1*
X5158347D2*
X5218268D1*
X5294173D2*
X5306850D1*
X5363071D2*
X5407244D1*
X5483150D2*
X5787165D1*
X5851260D2*
X6305036D1*
X674694Y1277087D2*
X707572D1*
X786753D2*
X989921D1*
X1124882D2*
X1587893D1*
X2265499D2*
X2324113D1*
X2454407D2*
X2627263D1*
X2952638D2*
X2957441D1*
X3043189D2*
X3071122D1*
X3102736D2*
X3289134D1*
X3372914D2*
X3548976D1*
X4154410D2*
X4582441D1*
X4756772D2*
X4800160D1*
X5158347D2*
X5218268D1*
X5294173D2*
X5306850D1*
X5363071D2*
X5407244D1*
X5483150D2*
X5787165D1*
X5851260D2*
X6305036D1*
X678501Y1273281D2*
X711378D1*
X790559D2*
X999764D1*
X1124859D2*
X1584086D1*
X2261693D2*
X2320307D1*
X2454407D2*
X2623456D1*
X2952638D2*
X2957441D1*
X3043189D2*
X3289134D1*
X3372914D2*
X3548976D1*
X4154410D2*
X4582441D1*
X4756772D2*
X4800160D1*
X5158347D2*
X5218268D1*
X5294173D2*
X5306850D1*
X5363071D2*
X5407244D1*
X5483150D2*
X5787165D1*
X5851260D2*
X6305036D1*
X682299Y1269475D2*
X715184D1*
X794366D2*
X999764D1*
X1124797D2*
X1580541D1*
X2257887D2*
X2316501D1*
X2454407D2*
X2619650D1*
X2952638D2*
X2957441D1*
X3043189D2*
X3289134D1*
X3372914D2*
X3548976D1*
X4154410D2*
X4582441D1*
X4756772D2*
X4800160D1*
X5158347D2*
X5218268D1*
X5294173D2*
X5306850D1*
X5363071D2*
X5407244D1*
X5483150D2*
X5787165D1*
X5851260D2*
X6305036D1*
X686106Y1265669D2*
X718990D1*
X798172D2*
X999764D1*
X1124351D2*
X1578012D1*
X2254080D2*
X2312694D1*
X2454407D2*
X2568315D1*
X2581921D2*
X2615844D1*
X2952638D2*
X2957441D1*
X3043189D2*
X3289134D1*
X3372914D2*
X3548915D1*
X4154410D2*
X4582441D1*
X4756772D2*
X4800160D1*
X5158347D2*
X5218268D1*
X5294173D2*
X5306850D1*
X5363071D2*
X5407244D1*
X5483150D2*
X5787165D1*
X5851260D2*
X6305036D1*
X689912Y1261864D2*
X722797D1*
X801978D2*
X951535D1*
X1123498D2*
X1576274D1*
X2250274D2*
X2308888D1*
X2454407D2*
X2557166D1*
X2593071D2*
X2612038D1*
X2952638D2*
X2957441D1*
X3046073D2*
X3289134D1*
X3372914D2*
X3545108D1*
X4154410D2*
X4582441D1*
X4756772D2*
X4800160D1*
X5158347D2*
X5218268D1*
X5294173D2*
X5306850D1*
X5363071D2*
X5407244D1*
X5483150D2*
X5787165D1*
X5851260D2*
X6305036D1*
X693718Y1258058D2*
X726603D1*
X1188828D2*
X1575174D1*
X2246468D2*
X2305082D1*
X2454407D2*
X2551345D1*
X2598892D2*
X2608231D1*
X2952638D2*
X2957441D1*
X3049879D2*
X3289134D1*
X3372914D2*
X3541302D1*
X4154410D2*
X4582441D1*
X4756772D2*
X4800160D1*
X5158347D2*
X5218268D1*
X5294173D2*
X5306850D1*
X5363071D2*
X5407244D1*
X5483150D2*
X5787165D1*
X5851260D2*
X6305036D1*
X697524Y1254252D2*
X730409D1*
X1195179D2*
X1574636D1*
X2242662D2*
X2301275D1*
X2861103D2*
X2866890D1*
X2952638D2*
X2957441D1*
X3053685D2*
X3289134D1*
X3372914D2*
X3537496D1*
X4154410D2*
X4477464D1*
X4571071D2*
X4582441D1*
X4756772D2*
X4800160D1*
X5158347D2*
X5218268D1*
X5294173D2*
X5306850D1*
X5363071D2*
X5407244D1*
X5483150D2*
X5787165D1*
X5851260D2*
X6305036D1*
X701331Y1250446D2*
X734216D1*
X1199224D2*
X1574567D1*
X1640430D2*
X1654091D1*
X2238855D2*
X2297469D1*
X2861103D2*
X2866890D1*
X2952638D2*
X2957441D1*
X3057492D2*
X3289134D1*
X3372914D2*
X3533690D1*
X4154410D2*
X4470974D1*
X4756772D2*
X4800160D1*
X5158347D2*
X5218268D1*
X5294173D2*
X5306850D1*
X5363071D2*
X5407244D1*
X5483150D2*
X5787165D1*
X5851260D2*
X6305036D1*
X705137Y1246640D2*
X738022D1*
X1203030D2*
X1574567D1*
X1636624D2*
X1654091D1*
X2235049D2*
X2293663D1*
X2861103D2*
X2957441D1*
X3061298D2*
X3289134D1*
X3372914D2*
X3529883D1*
X4154410D2*
X4466891D1*
X4756772D2*
X4800160D1*
X5158347D2*
X5218268D1*
X5294173D2*
X5306850D1*
X5363071D2*
X5407244D1*
X5483150D2*
X5787165D1*
X5851260D2*
X6305036D1*
X708943Y1242835D2*
X741828D1*
X1206836D2*
X1574567D1*
X1632818D2*
X1654091D1*
X2231243D2*
X2289964D1*
X2792205D2*
X2866890D1*
X2952638D2*
X2957441D1*
X3076023D2*
X3289134D1*
X3372914D2*
X3526077D1*
X4154410D2*
X4463085D1*
X4756772D2*
X4800160D1*
X5158300D2*
X5218268D1*
X5294173D2*
X5306850D1*
X5363071D2*
X5407244D1*
X5483150D2*
X5787165D1*
X5851260D2*
X6305036D1*
X712750Y1239029D2*
X745634D1*
X1210643D2*
X1574567D1*
X1630788D2*
X1654091D1*
X2227436D2*
X2287204D1*
X2792205D2*
X2866890D1*
X2952638D2*
X2957441D1*
X3082290D2*
X3289134D1*
X3372914D2*
X3522271D1*
X4154410D2*
X4459279D1*
X4756772D2*
X4789134D1*
X5157816D2*
X5218268D1*
X5294173D2*
X5306850D1*
X5363071D2*
X5407244D1*
X5483150D2*
X5787165D1*
X5851260D2*
X6305036D1*
X716556Y1235223D2*
X749441D1*
X1214449D2*
X1574567D1*
X1630788D2*
X1654091D1*
X2223630D2*
X2285297D1*
X2792205D2*
X2841407D1*
X2952638D2*
X2957441D1*
X3372914D2*
X3518464D1*
X4154410D2*
X4455472D1*
X4756772D2*
X4789134D1*
X5156778D2*
X5218268D1*
X5294173D2*
X5306850D1*
X5363071D2*
X5407244D1*
X5483150D2*
X5787165D1*
X5851260D2*
X6305036D1*
X720362Y1231417D2*
X753247D1*
X1218255D2*
X1574567D1*
X1630788D2*
X1654091D1*
X2219824D2*
X2284051D1*
X2792205D2*
X2834048D1*
X3372914D2*
X3514658D1*
X4154410D2*
X4451666D1*
X4756772D2*
X4789134D1*
X5155109D2*
X5218268D1*
X5294173D2*
X5306850D1*
X5363071D2*
X5407244D1*
X5483150D2*
X5787165D1*
X5851260D2*
X6305036D1*
X724168Y1227612D2*
X757053D1*
X1222062D2*
X1574567D1*
X1630788D2*
X1654091D1*
X2216018D2*
X2283382D1*
X2792205D2*
X2829749D1*
X3372914D2*
X3510852D1*
X4154410D2*
X4447860D1*
X4756772D2*
X4789134D1*
X5152679D2*
X5306850D1*
X5363071D2*
X5787165D1*
X5851260D2*
X6305036D1*
X727975Y1223806D2*
X760852D1*
X1225860D2*
X1574567D1*
X1630788D2*
X1654091D1*
X2212219D2*
X2283228D1*
X2792205D2*
X2825951D1*
X3372914D2*
X3507053D1*
X4154410D2*
X4444061D1*
X4756772D2*
X4789134D1*
X5149227D2*
X5306850D1*
X5363071D2*
X5787165D1*
X5851260D2*
X6305036D1*
X731781Y1220000D2*
X764658D1*
X1229666D2*
X1574567D1*
X1630788D2*
X1654091D1*
X2208413D2*
X2283228D1*
X2792205D2*
X2822145D1*
X3372914D2*
X3503247D1*
X4154410D2*
X4440255D1*
X4756772D2*
X4789134D1*
X5145421D2*
X5306850D1*
X5363071D2*
X5787165D1*
X5851260D2*
X6305036D1*
X735587Y1216194D2*
X768464D1*
X1233473D2*
X1574567D1*
X1630788D2*
X1654091D1*
X2204576D2*
X2283228D1*
X2792205D2*
X2818338D1*
X3356174D2*
X3499441D1*
X4154410D2*
X4436449D1*
X4756772D2*
X4789134D1*
X5141614D2*
X5306850D1*
X5363071D2*
X5787165D1*
X5851260D2*
X6305036D1*
X739386Y1212388D2*
X772294D1*
X1237279D2*
X1574567D1*
X1630788D2*
X1654091D1*
X2199355D2*
X2283228D1*
X2792205D2*
X2814532D1*
X4154410D2*
X4432642D1*
X4756772D2*
X4789134D1*
X5137808D2*
X5306850D1*
X5363071D2*
X5787165D1*
X5851260D2*
X6305036D1*
X743192Y1208583D2*
X777423D1*
X1241085D2*
X1574567D1*
X1630788D2*
X1654091D1*
X1933214D2*
X2283228D1*
X2792205D2*
X2810726D1*
X4154410D2*
X4428836D1*
X4756772D2*
X4789134D1*
X5134002D2*
X5306850D1*
X5363071D2*
X5787165D1*
X5851260D2*
X6305036D1*
X746998Y1204777D2*
X891496D1*
X1108150D2*
X1165710D1*
X1244892D2*
X1574567D1*
X1630788D2*
X1654091D1*
X1929408D2*
X2283228D1*
X2792205D2*
X2806919D1*
X4154410D2*
X4425030D1*
X4756772D2*
X4789134D1*
X5130195D2*
X5306850D1*
X5363071D2*
X5787165D1*
X5851260D2*
X6305036D1*
X750805Y1200971D2*
X891496D1*
X1108150D2*
X1169516D1*
X1248698D2*
X1574567D1*
X1630788D2*
X1654091D1*
X1925602D2*
X2283228D1*
X2792205D2*
X2803113D1*
X4154410D2*
X4421223D1*
X4756772D2*
X4789134D1*
X5126389D2*
X5306850D1*
X5363071D2*
X5787165D1*
X5851260D2*
X6305036D1*
X754611Y1197165D2*
X891496D1*
X1108150D2*
X1173323D1*
X1252504D2*
X1570960D1*
X1630788D2*
X1654091D1*
X1921795D2*
X2283228D1*
X2792205D2*
X2799307D1*
X4154410D2*
X4417417D1*
X4756772D2*
X4789134D1*
X5122583D2*
X5306850D1*
X5363071D2*
X5787165D1*
X5851260D2*
X6305036D1*
X758417Y1193360D2*
X891496D1*
X1108150D2*
X1177129D1*
X1256310D2*
X1567154D1*
X1630788D2*
X1654091D1*
X1917989D2*
X2283228D1*
X2792205D2*
X2795501D1*
X4154410D2*
X4413611D1*
X4756772D2*
X4789134D1*
X5118777D2*
X5306850D1*
X5363071D2*
X5787165D1*
X5851260D2*
X6305036D1*
X762224Y1189554D2*
X891496D1*
X1108150D2*
X1180935D1*
X1260117D2*
X1370127D1*
X1518583D2*
X1563348D1*
X1630788D2*
X1654091D1*
X1914183D2*
X2283228D1*
X4154410D2*
X4409805D1*
X4756772D2*
X4789134D1*
X5114970D2*
X5306850D1*
X5363071D2*
X5787165D1*
X5851260D2*
X6305036D1*
X766030Y1185748D2*
X891496D1*
X1028333D2*
X1034212D1*
X1108150D2*
X1184741D1*
X1263923D2*
X1361968D1*
X1518583D2*
X1559542D1*
X1630557D2*
X1654091D1*
X1910377D2*
X2283228D1*
X4154410D2*
X4405998D1*
X4756772D2*
X4789134D1*
X5111164D2*
X5306850D1*
X5363071D2*
X5787165D1*
X5851260D2*
X6305036D1*
X769836Y1181942D2*
X891496D1*
X1025473D2*
X1034212D1*
X1108150D2*
X1188548D1*
X1267729D2*
X1356870D1*
X1629796D2*
X1654091D1*
X1906570D2*
X2283228D1*
X4154410D2*
X4402192D1*
X4756772D2*
X4789134D1*
X5107358D2*
X5306850D1*
X5363071D2*
X5787165D1*
X5851260D2*
X6305036D1*
X773643Y1178136D2*
X891496D1*
X1025473D2*
X1034212D1*
X1108150D2*
X1192354D1*
X1271536D2*
X1353156D1*
X1628442D2*
X1654091D1*
X1902764D2*
X2283228D1*
X4154410D2*
X4398386D1*
X4756772D2*
X4789134D1*
X5103551D2*
X5306850D1*
X5363071D2*
X5787165D1*
X5851260D2*
X6305036D1*
X777449Y1174331D2*
X891496D1*
X1025473D2*
X1034212D1*
X1108150D2*
X1196160D1*
X1275342D2*
X1350319D1*
X1626405D2*
X1654091D1*
X1898958D2*
X2283228D1*
X4154410D2*
X4394579D1*
X4756772D2*
X4789134D1*
X5099745D2*
X5306850D1*
X5363071D2*
X5787165D1*
X5851260D2*
X6305036D1*
X781255Y1170525D2*
X891496D1*
X1025473D2*
X1034212D1*
X1108150D2*
X1199967D1*
X1279148D2*
X1348150D1*
X1623467D2*
X1654091D1*
X1895151D2*
X2283228D1*
X4154410D2*
X4390773D1*
X4756772D2*
X4789134D1*
X5095939D2*
X5306850D1*
X5363071D2*
X5787165D1*
X5851260D2*
X6305036D1*
X785061Y1166719D2*
X891496D1*
X1025473D2*
X1034212D1*
X1108150D2*
X1203765D1*
X1282947D2*
X1346520D1*
X1619699D2*
X1654091D1*
X1891353D2*
X2283228D1*
X4154410D2*
X4386975D1*
X4756772D2*
X4789134D1*
X5092140D2*
X5306850D1*
X5363071D2*
X5787165D1*
X5851260D2*
X6305036D1*
X788868Y1162913D2*
X891496D1*
X1025473D2*
X1034212D1*
X1108150D2*
X1207572D1*
X1286753D2*
X1345359D1*
X1615893D2*
X1654091D1*
X1887547D2*
X2283228D1*
X4154410D2*
X4383168D1*
X4756772D2*
X4789134D1*
X5088334D2*
X5306850D1*
X5363071D2*
X5787165D1*
X5851260D2*
X6305036D1*
X792674Y1159108D2*
X891496D1*
X1025473D2*
X1034212D1*
X1108150D2*
X1211378D1*
X1290559D2*
X1344621D1*
X1612087D2*
X1654091D1*
X1883740D2*
X2283228D1*
X4154410D2*
X4379362D1*
X4756772D2*
X4789134D1*
X5084528D2*
X5306850D1*
X5363071D2*
X5787165D1*
X5851260D2*
X6305036D1*
X796473Y1155302D2*
X891496D1*
X1025473D2*
X1033228D1*
X1118069D2*
X1215184D1*
X1294366D2*
X1344283D1*
X1608280D2*
X1654091D1*
X1879934D2*
X2283228D1*
X4154410D2*
X4375556D1*
X4756772D2*
X4789134D1*
X4865040D2*
X4867153D1*
X5080721D2*
X5306850D1*
X5363071D2*
X5787165D1*
X5851260D2*
X6305036D1*
X800279Y1151496D2*
X891496D1*
X1016614D2*
X1033228D1*
X1128750D2*
X1218990D1*
X1298172D2*
X1344329D1*
X1604474D2*
X1654091D1*
X1876128D2*
X2283228D1*
X4154410D2*
X4371749D1*
X4756772D2*
X4789134D1*
X4865040D2*
X4869081D1*
X5076915D2*
X5306850D1*
X5363071D2*
X5787165D1*
X5851260D2*
X6305036D1*
X804085Y1147690D2*
X891496D1*
X1016614D2*
X1033228D1*
X1134486D2*
X1222797D1*
X1301978D2*
X1344759D1*
X1600668D2*
X1654091D1*
X1872321D2*
X2283228D1*
X4154410D2*
X4367943D1*
X4756772D2*
X4789134D1*
X4865040D2*
X4868297D1*
X5073109D2*
X5306850D1*
X5363071D2*
X5787165D1*
X5851260D2*
X6305036D1*
X807891Y1143885D2*
X891496D1*
X1016614D2*
X1033228D1*
X1138562D2*
X1226603D1*
X1305784D2*
X1345597D1*
X1596862D2*
X1654091D1*
X1868515D2*
X2283228D1*
X4154410D2*
X4364137D1*
X4756772D2*
X4789134D1*
X4865040D2*
X4867921D1*
X5069303D2*
X5306850D1*
X5363071D2*
X5787165D1*
X5851260D2*
X6305036D1*
X811698Y1140079D2*
X891496D1*
X1016614D2*
X1033228D1*
X1141637D2*
X1230409D1*
X1309591D2*
X1346874D1*
X1593055D2*
X1654091D1*
X1864709D2*
X2283228D1*
X4154410D2*
X4360330D1*
X4756772D2*
X4789134D1*
X4865040D2*
X4867921D1*
X5065496D2*
X5306850D1*
X5363071D2*
X5787165D1*
X5851260D2*
X6305036D1*
X815504Y1136273D2*
X960394D1*
X1016614D2*
X1033228D1*
X1143990D2*
X1234216D1*
X1313397D2*
X1348619D1*
X1589041D2*
X1654091D1*
X1860903D2*
X2283228D1*
X4154410D2*
X4356524D1*
X4756772D2*
X4789134D1*
X4865040D2*
X4868320D1*
X5061690D2*
X5306850D1*
X5363071D2*
X5787165D1*
X5851260D2*
X6305036D1*
X819310Y1132467D2*
X960394D1*
X1016614D2*
X1033228D1*
X1145782D2*
X1238022D1*
X1317203D2*
X1350942D1*
X1582828D2*
X1654091D1*
X1857096D2*
X2283228D1*
X4154410D2*
X4352718D1*
X4756772D2*
X4789134D1*
X4865040D2*
X4869120D1*
X5057884D2*
X5306850D1*
X5363071D2*
X5787165D1*
X5851260D2*
X6305036D1*
X823117Y1128661D2*
X960394D1*
X1016614D2*
X1033228D1*
X1147082D2*
X1241828D1*
X1321010D2*
X1353956D1*
X1518583D2*
X1654091D1*
X1853290D2*
X2283228D1*
X4154410D2*
X4348912D1*
X4756772D2*
X4789134D1*
X4865040D2*
X4870342D1*
X5054077D2*
X5306850D1*
X5363071D2*
X5787165D1*
X5851260D2*
X6305036D1*
X826923Y1124856D2*
X960394D1*
X1016614D2*
X1033228D1*
X1147950D2*
X1245634D1*
X1324816D2*
X1357947D1*
X1518583D2*
X1654091D1*
X1849484D2*
X2283228D1*
X4154410D2*
X4345105D1*
X4756772D2*
X4789134D1*
X4865040D2*
X4872042D1*
X5050271D2*
X5306850D1*
X5363071D2*
X5787165D1*
X5851260D2*
X6305036D1*
X830729Y1121050D2*
X960394D1*
X1016614D2*
X1033228D1*
X1148412D2*
X1249441D1*
X1328622D2*
X1363529D1*
X1518583D2*
X1654091D1*
X1845677D2*
X2283228D1*
X4154410D2*
X4341299D1*
X4756772D2*
X4789134D1*
X4865040D2*
X4874295D1*
X5046357D2*
X5306850D1*
X5363071D2*
X5787165D1*
X5851260D2*
X6305036D1*
X834535Y1117244D2*
X960394D1*
X1016614D2*
X1033228D1*
X1148489D2*
X1253247D1*
X1332428D2*
X1373441D1*
X1518583D2*
X1654091D1*
X1841871D2*
X2283228D1*
X4154410D2*
X4337493D1*
X4756772D2*
X4789134D1*
X4865040D2*
X4877232D1*
X5040636D2*
X5306850D1*
X5363071D2*
X5787165D1*
X5851260D2*
X6302544D1*
X838342Y1113438D2*
X960394D1*
X1016614D2*
X1033228D1*
X1148173D2*
X1257053D1*
X1336235D2*
X1442677D1*
X1518583D2*
X1654091D1*
X1838065D2*
X2283228D1*
X4154410D2*
X4333686D1*
X4756772D2*
X4789134D1*
X4865040D2*
X4881100D1*
X4930554D2*
X5306850D1*
X5363071D2*
X5786212D1*
X5852213D2*
X6298738D1*
X842148Y1109633D2*
X960394D1*
X1016614D2*
X1033228D1*
X1147458D2*
X1260852D1*
X1340033D2*
X1442677D1*
X1518583D2*
X1654091D1*
X1834266D2*
X2283228D1*
X4154410D2*
X4329888D1*
X4756772D2*
X4789134D1*
X4865040D2*
X4886459D1*
X4925194D2*
X5306850D1*
X5363071D2*
X5784312D1*
X5854113D2*
X6294932D1*
X845954Y1105827D2*
X960394D1*
X1016614D2*
X1033228D1*
X1146328D2*
X1264658D1*
X1343840D2*
X1442677D1*
X1518583D2*
X1654091D1*
X1830460D2*
X2283228D1*
X4154402D2*
X4326082D1*
X4756772D2*
X4789141D1*
X4865032D2*
X4895494D1*
X4916159D2*
X5306850D1*
X5363071D2*
X5782913D1*
X5855512D2*
X6291125D1*
X849761Y1102021D2*
X960394D1*
X1016614D2*
X1033228D1*
X1144729D2*
X1268464D1*
X1347646D2*
X1442677D1*
X1518583D2*
X1654091D1*
X1826654D2*
X2283228D1*
X4154025D2*
X4322275D1*
X4756772D2*
X4789418D1*
X4864755D2*
X5306850D1*
X5363071D2*
X5781959D1*
X5856466D2*
X6287319D1*
X853559Y1098215D2*
X960394D1*
X1016614D2*
X1033228D1*
X1142606D2*
X1272271D1*
X1351452D2*
X1442677D1*
X1518583D2*
X1654091D1*
X1822847D2*
X2283228D1*
X4153110D2*
X4318469D1*
X4756772D2*
X4790087D1*
X4864086D2*
X5306850D1*
X5363071D2*
X5781413D1*
X5857012D2*
X6283513D1*
X857365Y1094409D2*
X960394D1*
X1016614D2*
X1033228D1*
X1139823D2*
X1276077D1*
X1355259D2*
X1442677D1*
X1518583D2*
X1654091D1*
X1819041D2*
X2283228D1*
X4151580D2*
X4314663D1*
X4756772D2*
X4791171D1*
X4863002D2*
X5306850D1*
X5363071D2*
X5781260D1*
X5857166D2*
X6279706D1*
X861172Y1090604D2*
X960394D1*
X1016614D2*
X1033228D1*
X1136178D2*
X1279883D1*
X1359065D2*
X1442677D1*
X1518583D2*
X1654091D1*
X1815235D2*
X2283228D1*
X4149319D2*
X4310856D1*
X4756772D2*
X4792717D1*
X4861456D2*
X5306850D1*
X5363071D2*
X5781498D1*
X5856927D2*
X6275900D1*
X864978Y1086798D2*
X960394D1*
X1016614D2*
X1033228D1*
X1131203D2*
X1283690D1*
X1362871D2*
X1442677D1*
X1518583D2*
X1654091D1*
X1811890D2*
X2283228D1*
X4146074D2*
X4307050D1*
X4577269D2*
X4582441D1*
X4756772D2*
X4794785D1*
X4859388D2*
X5306850D1*
X5363071D2*
X5782121D1*
X5856304D2*
X6272094D1*
X868784Y1082992D2*
X960394D1*
X1016614D2*
X1033228D1*
X1123406D2*
X1287496D1*
X1366677D2*
X1442677D1*
X1518583D2*
X1654091D1*
X1811890D2*
X2283228D1*
X4142268D2*
X4303244D1*
X4512347D2*
X4530637D1*
X4572355D2*
X4582441D1*
X4756772D2*
X4797492D1*
X4856681D2*
X5306850D1*
X5363071D2*
X5783167D1*
X5855259D2*
X6268288D1*
X872591Y1079186D2*
X960394D1*
X1016614D2*
X1291302D1*
X1370484D2*
X1442677D1*
X1518583D2*
X1654091D1*
X1811890D2*
X2283228D1*
X4138462D2*
X4299438D1*
X4508540D2*
X4538280D1*
X4564712D2*
X4582441D1*
X4756772D2*
X4801037D1*
X4853136D2*
X5306850D1*
X5363071D2*
X5784658D1*
X5853767D2*
X6264481D1*
X876397Y1075381D2*
X960394D1*
X1016614D2*
X1295108D1*
X1374290D2*
X1442677D1*
X1518583D2*
X1654091D1*
X1811890D2*
X2283228D1*
X4134655D2*
X4295631D1*
X4504734D2*
X4582441D1*
X4756772D2*
X4805835D1*
X4848338D2*
X5306850D1*
X5363071D2*
X5786673D1*
X5851752D2*
X6260675D1*
X880203Y1071575D2*
X960394D1*
X1016614D2*
X1298915D1*
X1378096D2*
X1442677D1*
X1518583D2*
X1654091D1*
X1811890D2*
X2283228D1*
X4130849D2*
X4291825D1*
X4500928D2*
X4582141D1*
X4756772D2*
X4813171D1*
X4841002D2*
X5306850D1*
X5363071D2*
X5789303D1*
X5849122D2*
X6256869D1*
X884009Y1067769D2*
X960394D1*
X1016614D2*
X1302721D1*
X1381903D2*
X1442677D1*
X1518583D2*
X1654091D1*
X1811890D2*
X2283228D1*
X4127043D2*
X4288019D1*
X4497122D2*
X4581257D1*
X4756772D2*
X5306850D1*
X5363071D2*
X5792748D1*
X5845677D2*
X6253062D1*
X887816Y1063963D2*
X960394D1*
X1016614D2*
X1306527D1*
X1385709D2*
X1564317D1*
X1585920D2*
X1654091D1*
X1811890D2*
X2283228D1*
X3127174D2*
X3289134D1*
X3372914D2*
X3548976D1*
X4123236D2*
X4284212D1*
X4493315D2*
X4580703D1*
X4756772D2*
X5306850D1*
X5363071D2*
X5797385D1*
X5841041D2*
X6249256D1*
X891622Y1060157D2*
X960394D1*
X1016614D2*
X1310334D1*
X1389515D2*
X1555528D1*
X1594709D2*
X1654091D1*
X1811890D2*
X2283228D1*
X3123367D2*
X3289134D1*
X3372914D2*
X3548976D1*
X4119430D2*
X4280406D1*
X4489509D2*
X4580480D1*
X4756772D2*
X5306850D1*
X5363071D2*
X5804313D1*
X5834112D2*
X6245458D1*
X895428Y1056352D2*
X960394D1*
X1016614D2*
X1314140D1*
X1393321D2*
X1550237D1*
X1599999D2*
X1654091D1*
X1811890D2*
X2283228D1*
X3119561D2*
X3289134D1*
X3372914D2*
X3548976D1*
X4115624D2*
X4276600D1*
X4485703D2*
X4580472D1*
X4756772D2*
X5306850D1*
X5363071D2*
X6241651D1*
X1016614Y1052546D2*
X1317938D1*
X1603828D2*
X1654091D1*
X1811890D2*
X2283228D1*
X3115762D2*
X3289134D1*
X3372914D2*
X3548976D1*
X4111825D2*
X4272801D1*
X4481904D2*
X4580472D1*
X4756772D2*
X5306850D1*
X5363071D2*
X6237845D1*
X1016614Y1048740D2*
X1321745D1*
X1606743D2*
X1654091D1*
X1812374D2*
X2283228D1*
X3111956D2*
X3289134D1*
X3372914D2*
X3548976D1*
X4108019D2*
X4268995D1*
X4478098D2*
X4580472D1*
X4756772D2*
X5306850D1*
X5363071D2*
X6234039D1*
X1016614Y1044934D2*
X1325551D1*
X1608973D2*
X1654091D1*
X1815312D2*
X2283228D1*
X3108150D2*
X3289134D1*
X3372914D2*
X3548976D1*
X4104213D2*
X4265189D1*
X4474291D2*
X4580472D1*
X4756772D2*
X5306850D1*
X5363071D2*
X6230232D1*
X1019459Y1041129D2*
X1329357D1*
X1610657D2*
X1654091D1*
X1817565D2*
X2283228D1*
X3104343D2*
X3289134D1*
X3372914D2*
X3548976D1*
X4100406D2*
X4261382D1*
X4470485D2*
X4580472D1*
X4756772D2*
X5306850D1*
X5363071D2*
X6226426D1*
X1022220Y1037323D2*
X1333164D1*
X1611864D2*
X1654091D1*
X1819264D2*
X2283228D1*
X3100537D2*
X3289134D1*
X3372914D2*
X3548976D1*
X4096600D2*
X4257576D1*
X4466679D2*
X4580472D1*
X4756772D2*
X5306850D1*
X5363071D2*
X6222620D1*
X1024365Y1033517D2*
X1336970D1*
X1612648D2*
X1654091D1*
X1820487D2*
X2283228D1*
X3096731D2*
X3289134D1*
X3372914D2*
X3548976D1*
X4092794D2*
X4253770D1*
X4462873D2*
X4580472D1*
X4756772D2*
X5306850D1*
X1025995Y1029711D2*
X1340776D1*
X1613025D2*
X1654091D1*
X1821286D2*
X2283228D1*
X3092925D2*
X3289134D1*
X3372914D2*
X3548976D1*
X4088988D2*
X4249964D1*
X4459066D2*
X4580472D1*
X4756772D2*
X5306850D1*
X1027180Y1025906D2*
X1344582D1*
X1613017D2*
X1654091D1*
X1821679D2*
X2283228D1*
X3089118D2*
X3289134D1*
X3372914D2*
X3548976D1*
X4085181D2*
X4246157D1*
X4455260D2*
X4580472D1*
X4756772D2*
X5306850D1*
X1027964Y1022100D2*
X1348389D1*
X1612625D2*
X1654091D1*
X1821686D2*
X2283228D1*
X3117331D2*
X3289134D1*
X3372914D2*
X3548976D1*
X4081375D2*
X4242351D1*
X4451454D2*
X4580472D1*
X4756772D2*
X5303982D1*
X1028364Y1018294D2*
X1352195D1*
X1611825D2*
X1654091D1*
X1821310D2*
X2283228D1*
X3123975D2*
X3289134D1*
X3372914D2*
X3548976D1*
X4447647D2*
X4580472D1*
X4759555D2*
X5300107D1*
X1028395Y1014488D2*
X1356001D1*
X1610603D2*
X1654091D1*
X1820525D2*
X2283228D1*
X3128096D2*
X3289134D1*
X3372914D2*
X3548976D1*
X4443841D2*
X4580472D1*
X4761962D2*
X5296300D1*
X1028056Y1010682D2*
X1359808D1*
X1608903D2*
X1654091D1*
X1819318D2*
X2283228D1*
X3131903D2*
X3289134D1*
X3372914D2*
X3548976D1*
X4440035D2*
X4580472D1*
X4763785D2*
X5292494D1*
X1606650Y1006877D2*
X1654091D1*
X1817634D2*
X2283228D1*
X3135709D2*
X3289134D1*
X3372914D2*
X3548976D1*
X4436229D2*
X4580472D1*
X4765115D2*
X5288688D1*
X1605628Y1003071D2*
X1654091D1*
X1815404D2*
X2283228D1*
X3139515D2*
X3289134D1*
X3372914D2*
X3548976D1*
X4432422D2*
X4580472D1*
X4766015D2*
X5284881D1*
X1608119Y999265D2*
X1654091D1*
X1812490D2*
X2283228D1*
X3143321D2*
X3289134D1*
X3372914D2*
X3548976D1*
X4428616D2*
X4580472D1*
X4766507D2*
X5281075D1*
X1610018Y995459D2*
X1654091D1*
X1808660D2*
X2283228D1*
X3147120D2*
X3289134D1*
X3372914D2*
X3548976D1*
X4424817D2*
X4580472D1*
X4766607D2*
X5277269D1*
X1611418Y991654D2*
X1654091D1*
X1803370D2*
X2283228D1*
X4421011D2*
X4580472D1*
X4766314D2*
X5273463D1*
X1612371Y987848D2*
X1654091D1*
X1794581D2*
X2283228D1*
X4417205D2*
X4580472D1*
X4765630D2*
X5269656D1*
X1612917Y984042D2*
X1654091D1*
X1777241D2*
X2283228D1*
X4413399D2*
X4580472D1*
X4764530D2*
X5265850D1*
X1613071Y980236D2*
X1654091D1*
X1777241D2*
X2283228D1*
X4409592D2*
X4580472D1*
X1612833Y976430D2*
X1654091D1*
X1777241D2*
X2283228D1*
X4405786D2*
X4443431D1*
X4470585D2*
X4580472D1*
X1612210Y972625D2*
X1654091D1*
X1777241D2*
X2283228D1*
X4401980D2*
X4435949D1*
X4478067D2*
X4580472D1*
X1611164Y968819D2*
X1654091D1*
X1777241D2*
X2283228D1*
X4398173D2*
X4431097D1*
X4482919D2*
X4580472D1*
X1609672Y965013D2*
X1654091D1*
X1777241D2*
X2283228D1*
X4394367D2*
X4427521D1*
X4486495D2*
X4580472D1*
X1607658Y961207D2*
X1654091D1*
X1777241D2*
X2283228D1*
X4390561D2*
X4424791D1*
X4489224D2*
X4580472D1*
X1605028Y957402D2*
X1654091D1*
X1777241D2*
X2283228D1*
X4386755D2*
X4422700D1*
X4491316D2*
X4580472D1*
X1601583Y953596D2*
X1654091D1*
X1777241D2*
X2283228D1*
X4382948D2*
X4421139D1*
X4492877D2*
X4580472D1*
X850276Y949790D2*
X1466299D1*
X1596946D2*
X1654091D1*
X1777241D2*
X2283228D1*
X4379142D2*
X4420039D1*
X4493977D2*
X4580472D1*
X854082Y945984D2*
X1466299D1*
X1590018D2*
X1654091D1*
X1777241D2*
X2283228D1*
X4375336D2*
X4419355D1*
X4494661D2*
X4580472D1*
X857888Y942178D2*
X1466299D1*
X1580529D2*
X1654091D1*
X1777241D2*
X2283228D1*
X4371529D2*
X4418332D1*
X4494953D2*
X4580472D1*
X861687Y938373D2*
X1466299D1*
X1581244D2*
X1654091D1*
X1777241D2*
X2283228D1*
X4367731D2*
X4414534D1*
X4494853D2*
X4580472D1*
X865493Y934567D2*
X1466299D1*
X1581560D2*
X1654091D1*
X1777241D2*
X2283228D1*
X4363925D2*
X4410727D1*
X4494361D2*
X4580472D1*
X869299Y930761D2*
X1466299D1*
X1581483D2*
X1654091D1*
X1777241D2*
X2283228D1*
X4493461D2*
X4580472D1*
X6353075D2*
X6482201D1*
X873106Y926955D2*
X1466299D1*
X1581021D2*
X1654091D1*
X1777241D2*
X2283228D1*
X4492131D2*
X4580472D1*
X6353075D2*
X6482201D1*
X876912Y923150D2*
X1466299D1*
X1580152D2*
X1654091D1*
X1777241D2*
X2283228D1*
X4490309D2*
X4552967D1*
X6353075D2*
X6482201D1*
X880718Y919344D2*
X1466299D1*
X1578853D2*
X1654091D1*
X1777241D2*
X2283228D1*
X4487902D2*
X4545401D1*
X6353075D2*
X6482201D1*
X884525Y915538D2*
X1466299D1*
X1577061D2*
X1654091D1*
X1777241D2*
X2283228D1*
X4484772D2*
X4540426D1*
X6353075D2*
X6482201D1*
X888331Y911732D2*
X1403307D1*
X1574708D2*
X1654091D1*
X1777241D2*
X2283228D1*
X4480612D2*
X4536727D1*
X6353075D2*
X6482201D1*
X892137Y907927D2*
X1403307D1*
X1571632D2*
X1654091D1*
X1777241D2*
X2283228D1*
X4474707D2*
X4533866D1*
X6353075D2*
X6482201D1*
X895943Y904121D2*
X1403307D1*
X1567557D2*
X1654091D1*
X2187866D2*
X2283228D1*
X4463003D2*
X4531652D1*
X6353075D2*
X6482201D1*
X1561821Y900315D2*
X1654091D1*
X2194672D2*
X2283228D1*
X4455652D2*
X4529952D1*
X6353075D2*
X6474173D1*
X1551140Y896509D2*
X1654091D1*
X2198832D2*
X2283228D1*
X3790429D2*
X3915971D1*
X4451846D2*
X4528707D1*
X6353075D2*
X6474173D1*
X1556523Y892703D2*
X1654091D1*
X2202638D2*
X2283228D1*
X3786622D2*
X3912165D1*
X4448040D2*
X4527869D1*
X6353075D2*
X6474173D1*
X1560775Y888898D2*
X1654091D1*
X2206444D2*
X2283228D1*
X2672026D2*
X2944646D1*
X3782816D2*
X3908359D1*
X4444233D2*
X4527423D1*
X4859988D2*
X5254816D1*
X6353075D2*
X6474173D1*
X1564581Y885092D2*
X1654091D1*
X2210251D2*
X2283228D1*
X2672111D2*
X2944646D1*
X3778941D2*
X3904553D1*
X4440358D2*
X4527338D1*
X4863794D2*
X5251009D1*
X6353075D2*
X6474173D1*
X1568380Y881286D2*
X1654091D1*
X2214049D2*
X2283228D1*
X2671811D2*
X2944646D1*
X3773435D2*
X3900754D1*
X4474291D2*
X4527623D1*
X4867592D2*
X5247211D1*
X6353075D2*
X6474173D1*
X1572186Y877480D2*
X1654091D1*
X2217855D2*
X2283228D1*
X2671111D2*
X2944646D1*
X3721792D2*
X3896948D1*
X3976129D2*
X4345236D1*
X4474291D2*
X4528284D1*
X4871399D2*
X5243404D1*
X6353075D2*
X6474173D1*
X1575992Y873675D2*
X1654091D1*
X2221662D2*
X2283228D1*
X2669996D2*
X2944646D1*
X3725599D2*
X3893141D1*
X3972323D2*
X4345236D1*
X4474291D2*
X4529337D1*
X4875205D2*
X5239598D1*
X6353075D2*
X6474173D1*
X1579799Y869869D2*
X1654091D1*
X2225468D2*
X2283228D1*
X2668420D2*
X2944646D1*
X3729405D2*
X3889335D1*
X3968517D2*
X4345236D1*
X4474291D2*
X4530829D1*
X4879011D2*
X5235792D1*
X6353075D2*
X6474173D1*
X1583605Y866063D2*
X1654091D1*
X2229274D2*
X2283228D1*
X2666305D2*
X2944646D1*
X3733211D2*
X3885529D1*
X3964710D2*
X4345236D1*
X4474291D2*
X4532805D1*
X4882818D2*
X5231986D1*
X6353075D2*
X6474173D1*
X1587411Y862257D2*
X1654091D1*
X2233081D2*
X2283228D1*
X2663552D2*
X2944646D1*
X3737018D2*
X3881723D1*
X3960904D2*
X4345236D1*
X4474291D2*
X4535358D1*
X4886624D2*
X5228179D1*
X5307361D2*
X5818661D1*
X6353075D2*
X6474173D1*
X1591218Y858451D2*
X1654091D1*
X2236887D2*
X2283228D1*
X2659946D2*
X2944646D1*
X3740824D2*
X3877916D1*
X3957098D2*
X4345236D1*
X4474291D2*
X4538642D1*
X4890430D2*
X5224373D1*
X5303555D2*
X5818661D1*
X6353075D2*
X6474173D1*
X2240693Y854646D2*
X2283228D1*
X2658347D2*
X2944646D1*
X3339118D2*
X3665449D1*
X3744630D2*
X3874110D1*
X3953292D2*
X4345236D1*
X4474291D2*
X4542963D1*
X4894236D2*
X5220567D1*
X5299748D2*
X5818661D1*
X6353075D2*
X6474173D1*
X2244499Y850840D2*
X2283228D1*
X2658347D2*
X2944646D1*
X3342925D2*
X3669255D1*
X3748436D2*
X3870304D1*
X3949485D2*
X4345236D1*
X4474291D2*
X4549068D1*
X4793028D2*
X4818861D1*
X4898043D2*
X5216760D1*
X5295942D2*
X5818661D1*
X6353075D2*
X6474173D1*
X2248306Y847034D2*
X2283228D1*
X2658347D2*
X2944646D1*
X3346731D2*
X3673061D1*
X3752243D2*
X3866497D1*
X3945679D2*
X4345236D1*
X4474291D2*
X4561103D1*
X4752589D2*
X4758391D1*
X4785546D2*
X4822667D1*
X4901849D2*
X5212954D1*
X5292136D2*
X5818661D1*
X6353075D2*
X6474173D1*
X2252112Y843228D2*
X2283228D1*
X2658347D2*
X2944646D1*
X3350537D2*
X3676867D1*
X3756049D2*
X3862691D1*
X3941873D2*
X4345236D1*
X4474291D2*
X4677652D1*
X4751804D2*
X4826474D1*
X4905655D2*
X5209148D1*
X5288329D2*
X5818661D1*
X6353075D2*
X6474173D1*
X2263523Y839423D2*
X2283228D1*
X2672972D2*
X2930020D1*
X3354343D2*
X3680674D1*
X3759855D2*
X3858885D1*
X3938066D2*
X4345236D1*
X4474291D2*
X4673846D1*
X4750436D2*
X4830280D1*
X4909462D2*
X5205342D1*
X5284523D2*
X5818661D1*
X6353075D2*
X6474173D1*
X2272089Y835617D2*
X2283228D1*
X2681538D2*
X2921454D1*
X3358150D2*
X3684480D1*
X3763662D2*
X3855079D1*
X3934260D2*
X4345236D1*
X4474291D2*
X4573583D1*
X4748367D2*
X4834086D1*
X4913268D2*
X5201535D1*
X5280717D2*
X5818661D1*
X6353075D2*
X6474173D1*
X2277318Y831811D2*
X2283228D1*
X2686767D2*
X2916225D1*
X3150926D2*
X3282775D1*
X3361956D2*
X3688286D1*
X4745391D2*
X4837893D1*
X4917074D2*
X5197729D1*
X5276911D2*
X5818661D1*
X6353075D2*
X6474173D1*
X2281109Y828005D2*
X2283224D1*
X2690558D2*
X2912434D1*
X3147120D2*
X3286581D1*
X3365762D2*
X3692093D1*
X4741608D2*
X4841699D1*
X4920880D2*
X5193923D1*
X5273104D2*
X5818661D1*
X6353075D2*
X6474173D1*
X2693441Y824199D2*
X2909551D1*
X3143321D2*
X3290379D1*
X3369561D2*
X3695891D1*
X4737810D2*
X4845498D1*
X5269306D2*
X5818661D1*
X6353075D2*
X6474173D1*
X2695656Y820394D2*
X2907336D1*
X3139515D2*
X3294186D1*
X3373367D2*
X3699697D1*
X4734003D2*
X4849304D1*
X5265499D2*
X5818661D1*
X6353075D2*
X6474173D1*
X2697317Y816588D2*
X2905675D1*
X3135709D2*
X3297992D1*
X3377174D2*
X3703504D1*
X4730197D2*
X4853110D1*
X5261693D2*
X5818661D1*
X6353075D2*
X6474173D1*
X3131903Y812782D2*
X3301798D1*
X3380980D2*
X3707310D1*
X4726391D2*
X4856916D1*
X5257887D2*
X5818661D1*
X6353075D2*
X6474173D1*
X3128096Y808976D2*
X3305605D1*
X3384786D2*
X3711116D1*
X4722584D2*
X4860723D1*
X5254080D2*
X5818661D1*
X6353075D2*
X6474173D1*
X1777241Y805171D2*
X1789726D1*
X3124290D2*
X3309411D1*
X3388592D2*
X3714923D1*
X4718778D2*
X4864529D1*
X5250274D2*
X5818661D1*
X6353075D2*
X6474173D1*
X1777241Y801365D2*
X1793532D1*
X3120484D2*
X3313217D1*
X3392399D2*
X3718729D1*
X4714972D2*
X4868335D1*
X5246468D2*
X5818661D1*
X6353075D2*
X6474173D1*
X1777241Y797559D2*
X1797338D1*
X3116677D2*
X3317023D1*
X3396205D2*
X3722535D1*
X4711166D2*
X4872142D1*
X5242662D2*
X5818661D1*
X6353075D2*
X6474173D1*
X1777241Y793753D2*
X1801145D1*
X3112871D2*
X3320830D1*
X3400011D2*
X3726342D1*
X4707359D2*
X4875948D1*
X5238855D2*
X5818661D1*
X6353075D2*
X6474173D1*
X1777241Y789948D2*
X1804951D1*
X3109949D2*
X3324636D1*
X3403818D2*
X3730148D1*
X4703553D2*
X4879754D1*
X5235049D2*
X5818661D1*
X6353075D2*
X6474173D1*
X1777241Y786142D2*
X1808757D1*
X3112356D2*
X3328442D1*
X3407624D2*
X3734108D1*
X4702638D2*
X4883560D1*
X5231243D2*
X5818661D1*
X6353075D2*
X6474173D1*
X1777241Y782336D2*
X1812564D1*
X3114178D2*
X3332249D1*
X3411430D2*
X3740060D1*
X4702638D2*
X4887367D1*
X5227436D2*
X5818661D1*
X6353075D2*
X6474173D1*
X1777241Y778530D2*
X1816370D1*
X3115509D2*
X3336055D1*
X3415236D2*
X3871119D1*
X4702638D2*
X4891281D1*
X5223523D2*
X5818661D1*
X6353075D2*
X6474173D1*
X1777241Y774724D2*
X1820176D1*
X3116408D2*
X3339861D1*
X3419043D2*
X3871119D1*
X4702638D2*
X4897002D1*
X5542051D2*
X5818661D1*
X6353075D2*
X6474173D1*
X1777241Y770919D2*
X1823982D1*
X3116900D2*
X3343667D1*
X3422849D2*
X3871119D1*
X4702638D2*
X5009760D1*
X5542051D2*
X5818661D1*
X6353075D2*
X6474173D1*
X1777241Y767113D2*
X1827781D1*
X3117000D2*
X3347466D1*
X3426648D2*
X3871119D1*
X4702638D2*
X5009760D1*
X5542051D2*
X5818661D1*
X6353075D2*
X6474173D1*
X1777241Y763307D2*
X1831587D1*
X3116708D2*
X3351272D1*
X3430454D2*
X3871119D1*
X4702638D2*
X5009760D1*
X5542051D2*
X5818661D1*
X6353075D2*
X6474173D1*
X1777241Y759501D2*
X1835394D1*
X3116024D2*
X3355079D1*
X3434260D2*
X3871119D1*
X4702638D2*
X5009760D1*
X5542051D2*
X5818661D1*
X6353075D2*
X6474173D1*
X1777241Y755696D2*
X1839200D1*
X3040236D2*
X3043191D1*
X3114924D2*
X3358885D1*
X3438066D2*
X3871119D1*
X3947025D2*
X4243858D1*
X4339449D2*
X4345236D1*
X4474291D2*
X4573583D1*
X4702638D2*
X5009760D1*
X5542051D2*
X5818661D1*
X6353075D2*
X6474173D1*
X1777241Y751890D2*
X1843006D1*
X3040236D2*
X3044747D1*
X3113363D2*
X3362691D1*
X3441873D2*
X3871119D1*
X3947025D2*
X4243858D1*
X4339449D2*
X4345236D1*
X4474291D2*
X5009760D1*
X5542051D2*
X5818661D1*
X6353075D2*
X6474173D1*
X1583474Y748084D2*
X1654091D1*
X1777241D2*
X1846812D1*
X3040236D2*
X3046839D1*
X3111272D2*
X3366497D1*
X3445679D2*
X3871119D1*
X3947025D2*
X4243858D1*
X4339449D2*
X4345236D1*
X4474291D2*
X5009760D1*
X5542051D2*
X5818661D1*
X6353067D2*
X6474173D1*
X1587281Y744278D2*
X1654091D1*
X1777241D2*
X1841499D1*
X3040236D2*
X3049568D1*
X3108542D2*
X3370304D1*
X3449485D2*
X3871119D1*
X3947025D2*
X4243858D1*
X4339449D2*
X4345236D1*
X4474291D2*
X5009760D1*
X5542051D2*
X5818661D1*
X6352460D2*
X6474173D1*
X1591087Y740472D2*
X1654091D1*
X1777241D2*
X1841499D1*
X3040236D2*
X3053144D1*
X3104966D2*
X3374110D1*
X3453292D2*
X3871119D1*
X3947025D2*
X4345236D1*
X4474291D2*
X5009760D1*
X5542051D2*
X5818661D1*
X6350599D2*
X6474173D1*
X1594893Y736667D2*
X1654091D1*
X1777241D2*
X1841499D1*
X3040236D2*
X3057996D1*
X3100114D2*
X3377916D1*
X3457098D2*
X3871119D1*
X3947025D2*
X4345236D1*
X4474291D2*
X5009760D1*
X5542051D2*
X5818661D1*
X6346600D2*
X6474173D1*
X1598699Y732861D2*
X1654091D1*
X1777241D2*
X1841499D1*
X3040236D2*
X3065478D1*
X3092632D2*
X3381723D1*
X3460904D2*
X3871119D1*
X3947025D2*
X4345236D1*
X4474291D2*
X5009760D1*
X5542051D2*
X5818661D1*
X6073701D2*
X6147401D1*
X6337480D2*
X6474173D1*
X1602506Y729055D2*
X1654091D1*
X1777241D2*
X1841499D1*
X3040236D2*
X3385529D1*
X3464710D2*
X3871119D1*
X3947025D2*
X4345236D1*
X4474291D2*
X5009760D1*
X5542051D2*
X5818661D1*
X6073701D2*
X6147401D1*
X6337480D2*
X6474173D1*
X1606312Y725249D2*
X1654091D1*
X1777241D2*
X1841499D1*
X3040236D2*
X3389335D1*
X3468517D2*
X3871119D1*
X3947025D2*
X4345236D1*
X4474291D2*
X5009760D1*
X5542051D2*
X5818661D1*
X6073701D2*
X6147401D1*
X6337480D2*
X6474173D1*
X1610118Y721444D2*
X1654091D1*
X1777241D2*
X1841499D1*
X3040236D2*
X3393141D1*
X3472323D2*
X3871119D1*
X3947025D2*
X4345236D1*
X4474291D2*
X5009760D1*
X5542051D2*
X5818661D1*
X6073701D2*
X6147401D1*
X6337480D2*
X6474173D1*
X1613925Y717638D2*
X1654091D1*
X1777241D2*
X1841499D1*
X3040236D2*
X3396948D1*
X3476129D2*
X3871119D1*
X3947025D2*
X4345236D1*
X4474291D2*
X5009760D1*
X5542051D2*
X5818661D1*
X6073701D2*
X6147401D1*
X6337480D2*
X6482201D1*
X1617731Y713832D2*
X1654091D1*
X1777241D2*
X1841499D1*
X3040236D2*
X3400754D1*
X3479936D2*
X3871119D1*
X3947025D2*
X4345236D1*
X4474291D2*
X5009760D1*
X5542051D2*
X5818661D1*
X6073701D2*
X6147401D1*
X6337480D2*
X6482201D1*
X1621529Y710026D2*
X1654091D1*
X1777241D2*
X1841499D1*
X3040490D2*
X3404553D1*
X3483734D2*
X3871119D1*
X3947025D2*
X4345236D1*
X4474291D2*
X5009760D1*
X5542051D2*
X5818661D1*
X6073701D2*
X6147401D1*
X6337480D2*
X6482201D1*
X1625336Y706220D2*
X1654091D1*
X1777241D2*
X1841499D1*
X3044289D2*
X3408359D1*
X3487540D2*
X3871119D1*
X3947025D2*
X5009760D1*
X5542051D2*
X5818661D1*
X6073701D2*
X6147401D1*
X6337480D2*
X6482201D1*
X1629142Y702415D2*
X1654091D1*
X1777241D2*
X1841499D1*
X3048095D2*
X3412165D1*
X3491347D2*
X3871119D1*
X3947025D2*
X5009760D1*
X5542051D2*
X5818661D1*
X6073701D2*
X6147401D1*
X6337480D2*
X6415118D1*
X1632948Y698609D2*
X1654091D1*
X1777241D2*
X1841499D1*
X3051901D2*
X3415971D1*
X3495153D2*
X3871119D1*
X3947025D2*
X5009760D1*
X5542051D2*
X5818661D1*
X6073701D2*
X6147401D1*
X6337480D2*
X6415118D1*
X1636755Y694803D2*
X1654091D1*
X1777241D2*
X1841499D1*
X3055708D2*
X3419778D1*
X3498959D2*
X3871119D1*
X3947025D2*
X5009760D1*
X5542051D2*
X5818661D1*
X6073701D2*
X6147401D1*
X6337480D2*
X6415118D1*
X1640561Y690997D2*
X1654091D1*
X1777241D2*
X1841499D1*
X3059514D2*
X3423584D1*
X3502558D2*
X3871119D1*
X3947025D2*
X5009760D1*
X5542051D2*
X5818661D1*
X6073701D2*
X6147401D1*
X6337480D2*
X6415118D1*
X1644367Y687192D2*
X1841499D1*
X3063320D2*
X3427390D1*
X3505149D2*
X3871119D1*
X3947025D2*
X5009760D1*
X5542051D2*
X5818661D1*
X6073701D2*
X6147401D1*
X6337480D2*
X6415118D1*
X1648173Y683386D2*
X1841499D1*
X3067126D2*
X3431197D1*
X3506933D2*
X3871119D1*
X3947025D2*
X5009760D1*
X5542051D2*
X5818661D1*
X6073701D2*
X6147401D1*
X1651980Y679580D2*
X1841499D1*
X3070933D2*
X3435003D1*
X3508071D2*
X3871119D1*
X3947025D2*
X5009760D1*
X5542051D2*
X5818661D1*
X6073701D2*
X6147401D1*
X1655786Y675774D2*
X1841499D1*
X3074739D2*
X3438809D1*
X3508648D2*
X3871119D1*
X3947025D2*
X5009760D1*
X5542051D2*
X5818661D1*
X6073701D2*
X6147401D1*
X1659592Y671969D2*
X1841499D1*
X3078545D2*
X3442615D1*
X3508740D2*
X3871119D1*
X3947025D2*
X5009760D1*
X5542051D2*
X5818661D1*
X6073701D2*
X6147401D1*
X1663399Y668163D2*
X1841499D1*
X3082352D2*
X3446422D1*
X3508740D2*
X3871119D1*
X3947025D2*
X5009760D1*
X5542051D2*
X5818661D1*
X6073701D2*
X6147401D1*
X1667205Y664357D2*
X1841499D1*
X3086158D2*
X3450228D1*
X3508740D2*
X3871119D1*
X3947025D2*
X5009760D1*
X5542051D2*
X5818661D1*
X6073701D2*
X6147401D1*
X1671011Y660551D2*
X1841499D1*
X3089964D2*
X3452520D1*
X3508740D2*
X3706457D1*
X3841417D2*
X3871119D1*
X3947025D2*
X5009760D1*
X5542051D2*
X5818661D1*
X6073701D2*
X6147401D1*
X1674817Y656745D2*
X1841499D1*
X3093770D2*
X3452520D1*
X3508740D2*
X3521417D1*
X3644567D2*
X3706457D1*
X3841417D2*
X3871119D1*
X3947025D2*
X5009760D1*
X5542051D2*
X5818661D1*
X6073701D2*
X6147401D1*
X1678616Y652940D2*
X1841499D1*
X3097577D2*
X3452520D1*
X3508740D2*
X3521417D1*
X3947025D2*
X5009760D1*
X5542051D2*
X5818661D1*
X6073701D2*
X6147401D1*
X1682422Y649134D2*
X1841499D1*
X3101375D2*
X3452520D1*
X3508740D2*
X3521417D1*
X3947025D2*
X4558257D1*
X4576231D2*
X5009760D1*
X5542051D2*
X5818661D1*
X6073701D2*
X6147401D1*
X1686229Y645328D2*
X1841499D1*
X3105182D2*
X3452520D1*
X3508740D2*
X3521417D1*
X3947025D2*
X4548061D1*
X4586427D2*
X5009760D1*
X5542051D2*
X5818661D1*
X6073701D2*
X6147401D1*
X1690035Y641522D2*
X1841499D1*
X3108988D2*
X3452520D1*
X3508740D2*
X3521417D1*
X3947025D2*
X4541664D1*
X4592202D2*
X5009760D1*
X5542051D2*
X5818661D1*
X6073701D2*
X6147401D1*
X1693841Y637717D2*
X1841499D1*
X3112794D2*
X3452520D1*
X3508740D2*
X3521417D1*
X3947025D2*
X4536973D1*
X4596354D2*
X5009760D1*
X5542051D2*
X5818661D1*
X6073701D2*
X6147401D1*
X1697647Y633911D2*
X1841499D1*
X3116600D2*
X3452520D1*
X3508740D2*
X3521417D1*
X3947025D2*
X4533159D1*
X4599522D2*
X5009760D1*
X5542051D2*
X5818661D1*
X6073701D2*
X6147401D1*
X1701454Y630105D2*
X1841499D1*
X3120407D2*
X3452520D1*
X3508740D2*
X3521417D1*
X3947025D2*
X4529353D1*
X4601990D2*
X5009760D1*
X5542051D2*
X5818661D1*
X5971454D2*
X5974180D1*
X6073701D2*
X6147401D1*
X1705260Y626299D2*
X1841499D1*
X3124213D2*
X3452520D1*
X3508740D2*
X3521417D1*
X3947025D2*
X4525546D1*
X4603890D2*
X5009760D1*
X5542051D2*
X5818661D1*
X5967648D2*
X6147401D1*
X1709066Y622493D2*
X1856224D1*
X3128019D2*
X3452520D1*
X3508740D2*
X3521417D1*
X3947025D2*
X4521740D1*
X4605320D2*
X5009760D1*
X5542051D2*
X5818661D1*
X5963842D2*
X6147401D1*
X1712873Y618688D2*
X1856224D1*
X3131826D2*
X3452520D1*
X3508740D2*
X3521417D1*
X3947025D2*
X4517934D1*
X4606320D2*
X5009760D1*
X5542051D2*
X5818661D1*
X5960035D2*
X6147401D1*
X1716679Y614882D2*
X1856224D1*
X3135632D2*
X3452520D1*
X3508740D2*
X3521417D1*
X3947025D2*
X4514128D1*
X4606927D2*
X5009760D1*
X5542051D2*
X5818661D1*
X5956229D2*
X6147401D1*
X1720485Y611076D2*
X1856224D1*
X3139438D2*
X3452520D1*
X3508740D2*
X3521417D1*
X3947025D2*
X4510321D1*
X4607166D2*
X5009760D1*
X5542051D2*
X5818661D1*
X5952423D2*
X6147401D1*
X1724291Y607270D2*
X1856224D1*
X3143244D2*
X3452520D1*
X3511693D2*
X3521417D1*
X3947025D2*
X4506515D1*
X4607027D2*
X5009760D1*
X5542051D2*
X5818661D1*
X5948616D2*
X6230079D1*
X1728098Y603465D2*
X1856224D1*
X3274488D2*
X3452520D1*
X3515499D2*
X3521417D1*
X3947025D2*
X4502709D1*
X4606527D2*
X5009760D1*
X5542051D2*
X5818661D1*
X5944810D2*
X6230079D1*
X1731904Y599659D2*
X1856224D1*
X3274488D2*
X3452520D1*
X3519306D2*
X3521414D1*
X3947025D2*
X4498902D1*
X4605635D2*
X5009760D1*
X5542051D2*
X5818661D1*
X5941004D2*
X6230079D1*
X1735703Y595853D2*
X1856224D1*
X3274488D2*
X3452673D1*
X3947025D2*
X4495096D1*
X4604328D2*
X5009760D1*
X5542051D2*
X5818661D1*
X5936290D2*
X6230079D1*
X1739509Y592047D2*
X1856224D1*
X3274488D2*
X3453342D1*
X3947025D2*
X4491290D1*
X4602567D2*
X5009760D1*
X5542051D2*
X5818661D1*
X5926309D2*
X6230079D1*
X1743315Y588241D2*
X1856224D1*
X3274488D2*
X3454588D1*
X3947025D2*
X4487484D1*
X4600268D2*
X5009760D1*
X5542051D2*
X5818661D1*
X5906378D2*
X6230079D1*
X1747122Y584436D2*
X1856224D1*
X3274488D2*
X3456495D1*
X3947025D2*
X4483685D1*
X4597308D2*
X5009760D1*
X5542051D2*
X5818661D1*
X5906378D2*
X6230079D1*
X1750928Y580630D2*
X1856224D1*
X3274488D2*
X3459256D1*
X3947025D2*
X4479879D1*
X4593471D2*
X5009760D1*
X5542051D2*
X5818661D1*
X5906378D2*
X6230079D1*
X1754734Y576824D2*
X1856224D1*
X3274488D2*
X3462954D1*
X3947025D2*
X4476072D1*
X4588249D2*
X5009760D1*
X5542051D2*
X6230079D1*
X1758540Y573018D2*
X1856224D1*
X3274488D2*
X3466760D1*
X3947025D2*
X4472266D1*
X4580037D2*
X5009760D1*
X5542051D2*
X6230079D1*
X1762347Y569213D2*
X1856363D1*
X3274488D2*
X3470567D1*
X3947025D2*
X4468460D1*
X4575477D2*
X5009760D1*
X5542051D2*
X6230079D1*
X3274488Y565407D2*
X3474373D1*
X3947025D2*
X4464654D1*
X4571671D2*
X5009760D1*
X5542051D2*
X6230079D1*
X3274488Y561601D2*
X3478179D1*
X3947025D2*
X4460847D1*
X4567865D2*
X5009760D1*
X5542051D2*
X6297162D1*
X3274488Y557795D2*
X3481986D1*
X3947025D2*
X4457041D1*
X4564058D2*
X5009760D1*
X5542051D2*
X6297162D1*
X3274488Y553990D2*
X3485792D1*
X3947025D2*
X4453235D1*
X4560252D2*
X5009760D1*
X5542051D2*
X6297162D1*
X423941Y550184D2*
X428605D1*
X3274488D2*
X3489706D1*
X3947025D2*
X4449428D1*
X4556453D2*
X5009760D1*
X5542051D2*
X6297162D1*
X423941Y546378D2*
X432350D1*
X513162D2*
X609400D1*
X3274488D2*
X3495427D1*
X3841417D2*
X3871119D1*
X3947025D2*
X4445622D1*
X4552647D2*
X5009760D1*
X5542051D2*
X6297162D1*
X423941Y542572D2*
X437018D1*
X508494D2*
X613206D1*
X3274488D2*
X3521417D1*
X3841417D2*
X3871119D1*
X3947025D2*
X4441816D1*
X4548841D2*
X5009760D1*
X5542051D2*
X6297162D1*
X423941Y538766D2*
X443138D1*
X502373D2*
X617013D1*
X3274488D2*
X3521417D1*
X3841417D2*
X3871119D1*
X3947025D2*
X4438010D1*
X4545035D2*
X5009760D1*
X5542051D2*
X6297162D1*
X423941Y534961D2*
X452412D1*
X493100D2*
X620819D1*
X3274488D2*
X3521417D1*
X3782362D2*
X3871119D1*
X3947025D2*
X4434203D1*
X4541228D2*
X5009760D1*
X5542051D2*
X6297162D1*
X423941Y531155D2*
X624625D1*
X3274488D2*
X3521417D1*
X3782362D2*
X3871119D1*
X3947025D2*
X3991943D1*
X4008686D2*
X4430397D1*
X4537422D2*
X5009760D1*
X5542051D2*
X6297162D1*
X423941Y527349D2*
X628432D1*
X3274488D2*
X3521417D1*
X3782362D2*
X3871119D1*
X3947025D2*
X3981378D1*
X4533616D2*
X5009760D1*
X5542051D2*
X6297162D1*
X423941Y523543D2*
X632238D1*
X3274488D2*
X3521417D1*
X3782362D2*
X3871119D1*
X3947025D2*
X3975526D1*
X4529809D2*
X5009760D1*
X5542051D2*
X6297162D1*
X424225Y519738D2*
X636044D1*
X3274488D2*
X3521417D1*
X3782362D2*
X3871119D1*
X3947025D2*
X3971336D1*
X4526003D2*
X5009760D1*
X5542051D2*
X6297162D1*
X424725Y515932D2*
X639850D1*
X3274488D2*
X3521417D1*
X3782362D2*
X3871119D1*
X3947025D2*
X3968129D1*
X4522197D2*
X5009760D1*
X5542051D2*
X6297162D1*
X425225Y512126D2*
X643657D1*
X3274488D2*
X3521417D1*
X3782362D2*
X3871119D1*
X3947025D2*
X3965645D1*
X4518391D2*
X5009760D1*
X5542051D2*
X6297162D1*
X425732Y508320D2*
X647463D1*
X3274488D2*
X3521417D1*
X3841417D2*
X3871119D1*
X3947025D2*
X3963723D1*
X4514584D2*
X5009760D1*
X5542051D2*
X6297162D1*
X426232Y504514D2*
X651269D1*
X3274488D2*
X3521417D1*
X3841417D2*
X3871119D1*
X3947025D2*
X3962285D1*
X4510778D2*
X5009760D1*
X5542051D2*
X6297162D1*
X426732Y500709D2*
X655076D1*
X3274488D2*
X3521417D1*
X3841417D2*
X3871119D1*
X3947025D2*
X3961270D1*
X4506972D2*
X5009760D1*
X5542051D2*
X6297162D1*
X427232Y496903D2*
X658882D1*
X3274488D2*
X3521417D1*
X3947025D2*
X3960647D1*
X4503165D2*
X5009760D1*
X5542051D2*
X6297162D1*
X428301Y493097D2*
X662680D1*
X3274488D2*
X3521417D1*
X3947025D2*
X3960401D1*
X4499367D2*
X5009760D1*
X5542051D2*
X6297162D1*
X429877Y489291D2*
X666487D1*
X3274488D2*
X3521417D1*
X3947025D2*
X3960517D1*
X4495561D2*
X5009760D1*
X5542051D2*
X6297162D1*
X431453Y485486D2*
X670293D1*
X3274488D2*
X3521417D1*
X3947025D2*
X3961009D1*
X4491754D2*
X5009760D1*
X5542051D2*
X6297162D1*
X433030Y481680D2*
X674099D1*
X3274488D2*
X3521417D1*
X3947025D2*
X3961885D1*
X4487948D2*
X5009760D1*
X5542051D2*
X6297162D1*
X434606Y477874D2*
X677906D1*
X3274488D2*
X3521417D1*
X3947025D2*
X3963177D1*
X4484142D2*
X5009760D1*
X5542051D2*
X6297162D1*
X436182Y474068D2*
X681712D1*
X3274488D2*
X3521417D1*
X3947025D2*
X3964923D1*
X4480335D2*
X5009760D1*
X5542051D2*
X6297162D1*
X438336Y470262D2*
X685518D1*
X3274488D2*
X3521417D1*
X3947025D2*
X3967199D1*
X4476529D2*
X5009760D1*
X5542051D2*
X6297162D1*
X441258Y466457D2*
X689324D1*
X3947025D2*
X3970136D1*
X4472723D2*
X5009760D1*
X5542051D2*
X6297162D1*
X444180Y462651D2*
X693131D1*
X3947025D2*
X3973942D1*
X4468463D2*
X5009760D1*
X5542051D2*
X6297162D1*
X447102Y458845D2*
X696937D1*
X3947025D2*
X3979094D1*
X4462381D2*
X5009760D1*
X5542051D2*
X6297162D1*
X450016Y455039D2*
X700743D1*
X3947209D2*
X3987130D1*
X4449024D2*
X5009760D1*
X5542051D2*
X6297162D1*
X453338Y451234D2*
X704550D1*
X3948409D2*
X5009760D1*
X5542051D2*
X6297162D1*
X458297Y447428D2*
X708356D1*
X3949201D2*
X5009760D1*
X5542051D2*
X6297162D1*
X463257Y443622D2*
X712162D1*
X3949616D2*
X5009760D1*
X5542051D2*
X6297162D1*
X468217Y439816D2*
X715968D1*
X3949662D2*
X5009760D1*
X5542051D2*
X6297162D1*
X473930Y436010D2*
X719767D1*
X3949331D2*
X5009760D1*
X5542051D2*
X6297162D1*
X483111Y432205D2*
X723573D1*
X3948632D2*
X5009760D1*
X5542051D2*
X6297162D1*
X492300Y428399D2*
X727380D1*
X3947532D2*
X5009760D1*
X5542051D2*
X6297162D1*
X514354Y424593D2*
X731186D1*
X3946002D2*
X5009760D1*
X5542051D2*
X6297162D1*
X1376142Y1374488D2*
X1539843D1*
Y1364653D1*
X1547275Y1364646D1*
X1550846Y1365381D1*
X1552799Y1365633D1*
X1556614Y1365827D1*
X1598760D1*
X1601462Y1366277D1*
X1605385Y1366595D1*
X1609319Y1366522D1*
X1613227Y1366057D1*
X1614412Y1365826D1*
X1776850Y1365827D1*
Y1305992D1*
X2146579Y1305984D1*
X2148520Y1307852D1*
X2150021Y1309124D1*
X2151588Y1310316D1*
X2153214Y1311424D1*
X2154897Y1312446D1*
X2156630Y1313378D1*
X2158410Y1314218D1*
X2160232Y1314964D1*
X2162090Y1315613D1*
X2163980Y1316164D1*
X2165896Y1316615D1*
X2167833Y1316965D1*
X2169785Y1317213D1*
X2171748Y1317359D1*
X2173716Y1317401D1*
X2175683Y1317341D1*
X2177645Y1317177D1*
X2179595Y1316911D1*
X2181528Y1316543D1*
X2183440Y1316074D1*
X2185325Y1315506D1*
X2187177Y1314840D1*
X2188991Y1314078D1*
X2190764Y1313221D1*
X2192489Y1312273D1*
X2194161Y1311236D1*
X2195778Y1310113D1*
X2197333Y1308907D1*
X2198823Y1307621D1*
X2200243Y1306258D1*
X2201591Y1304823D1*
X2202861Y1303319D1*
X2204050Y1301751D1*
X2205156Y1300123D1*
X2206832Y1297212D1*
X2257488Y1347866D1*
X2258928Y1349208D1*
X2260460Y1350444D1*
X2262075Y1351567D1*
X2263767Y1352574D1*
X2265525Y1353458D1*
X2267342Y1354215D1*
X2269208Y1354841D1*
X2271113Y1355333D1*
X2273049Y1355689D1*
X2275005Y1355906D1*
X2279055Y1355984D1*
X2331659D1*
X2331654Y1365826D1*
X2454016D1*
Y1256118D1*
X2549709Y1256323D1*
X2551596Y1257943D1*
X2553163Y1259135D1*
X2554789Y1260243D1*
X2556472Y1261265D1*
X2558205Y1262197D1*
X2559985Y1263037D1*
X2561807Y1263783D1*
X2563665Y1264432D1*
X2565555Y1264982D1*
X2567470Y1265434D1*
X2569407Y1265784D1*
X2571360Y1266032D1*
X2573323Y1266178D1*
X2575291Y1266220D1*
X2577258Y1266159D1*
X2579219Y1265996D1*
X2581170Y1265730D1*
X2583103Y1265362D1*
X2585015Y1264893D1*
X2586899Y1264325D1*
X2588751Y1263659D1*
X2590566Y1262897D1*
X2592338Y1262040D1*
X2594063Y1261092D1*
X2595736Y1260055D1*
X2597353Y1258932D1*
X2598908Y1257726D1*
X2600398Y1256439D1*
X2601818Y1255077D1*
X2603647Y1253072D1*
X2716924Y1366357D1*
X2718118Y1367484D1*
X2719634Y1368739D1*
X2721235Y1369883D1*
X2722914Y1370910D1*
X2724661Y1371816D1*
X2726468Y1372595D1*
X2728326Y1373245D1*
X2730226Y1373760D1*
X2732157Y1374140D1*
X2734110Y1374382D1*
X2736535Y1374488D1*
X3132443D1*
X3134273Y1376053D1*
X3135840Y1377245D1*
X3137466Y1378354D1*
X3139149Y1379375D1*
X3140882Y1380307D1*
X3142662Y1381147D1*
X3144484Y1381893D1*
X3146342Y1382542D1*
X3148232Y1383093D1*
X3150148Y1383544D1*
X3152084Y1383894D1*
X3154037Y1384142D1*
X3156000Y1384288D1*
X3157968Y1384330D1*
X3159935Y1384270D1*
X3161897Y1384106D1*
X3163847Y1383840D1*
X3165780Y1383472D1*
X3167692Y1383003D1*
X3169576Y1382435D1*
X3171429Y1381769D1*
X3173243Y1381007D1*
X3175016Y1380150D1*
X3176741Y1379203D1*
X3178413Y1378165D1*
X3180030Y1377042D1*
X3181585Y1375836D1*
X3183075Y1374550D1*
X3184495Y1373187D1*
X3185843Y1371752D1*
X3187113Y1370249D1*
X3188302Y1368681D1*
X3189408Y1367052D1*
X3190427Y1365368D1*
X3191357Y1363633D1*
X3192194Y1361852D1*
X3192937Y1360029D1*
X3193583Y1358170D1*
X3194131Y1356280D1*
X3194579Y1354363D1*
X3194926Y1352426D1*
X3195172Y1350473D1*
X3195354Y1346772D1*
X3195303Y1344804D1*
X3195148Y1342842D1*
X3194891Y1340890D1*
X3194532Y1338955D1*
X3194072Y1337041D1*
X3193513Y1335154D1*
X3192855Y1333299D1*
X3192101Y1331481D1*
X3191253Y1329705D1*
X3190313Y1327976D1*
X3189283Y1326298D1*
X3188168Y1324676D1*
X3186968Y1323116D1*
X3185689Y1321620D1*
X3184333Y1320193D1*
X3182904Y1318839D1*
X3181407Y1317562D1*
X3179844Y1316365D1*
X3178221Y1315252D1*
X3176542Y1314225D1*
X3174811Y1313288D1*
X3173033Y1312443D1*
X3171214Y1311691D1*
X3169358Y1311037D1*
X3167470Y1310480D1*
X3165555Y1310023D1*
X3163620Y1309667D1*
X3161668Y1309413D1*
X3159705Y1309261D1*
X3157738Y1309213D1*
X3155770Y1309267D1*
X3153808Y1309425D1*
X3151857Y1309685D1*
X3149923Y1310047D1*
X3148010Y1310510D1*
X3146123Y1311072D1*
X3144269Y1311733D1*
X3142452Y1312489D1*
X3140677Y1313340D1*
X3138949Y1314283D1*
X3137273Y1315315D1*
X3135654Y1316433D1*
X3134095Y1317635D1*
X3132451Y1319060D1*
X3123692Y1319055D1*
X3124060Y1316993D1*
X3124305Y1315040D1*
X3124488Y1311339D1*
X3124437Y1309371D1*
X3124282Y1307409D1*
X3124025Y1305457D1*
X3123666Y1303522D1*
X3123206Y1301608D1*
X3122646Y1299721D1*
X3121989Y1297866D1*
X3121235Y1296048D1*
X3120387Y1294272D1*
X3119447Y1292542D1*
X3118417Y1290865D1*
X3117302Y1289243D1*
X3116102Y1287683D1*
X3114823Y1286187D1*
X3113467Y1284760D1*
X3112038Y1283406D1*
X3110540Y1282129D1*
X3108978Y1280932D1*
X3107355Y1279819D1*
X3105675Y1278792D1*
X3103945Y1277855D1*
X3102167Y1277010D1*
X3100348Y1276258D1*
X3098492Y1275604D1*
X3096604Y1275047D1*
X3094689Y1274590D1*
X3092754Y1274234D1*
X3090802Y1273980D1*
X3088839Y1273828D1*
X3086872Y1273780D1*
X3084904Y1273834D1*
X3082942Y1273992D1*
X3080991Y1274252D1*
X3079056Y1274614D1*
X3077143Y1275077D1*
X3075257Y1275639D1*
X3073403Y1276300D1*
X3071586Y1277056D1*
X3069811Y1277907D1*
X3068083Y1278850D1*
X3066407Y1279882D1*
X3064787Y1281000D1*
X3063228Y1282202D1*
X3061735Y1283483D1*
X3060310Y1284841D1*
X3058958Y1286272D1*
X3057684Y1287772D1*
X3056489Y1289336D1*
X3055054Y1291493D1*
X2952248Y1291496D1*
X2952244Y1249173D1*
X2867284D1*
Y1256070D1*
X2860713Y1256063D1*
X2860709Y1246220D1*
X2791804D1*
X2791822Y1189287D1*
X2831110Y1228575D1*
X2832550Y1229916D1*
X2834082Y1231152D1*
X2835698Y1232276D1*
X2837389Y1233283D1*
X2839147Y1234167D1*
X2840964Y1234923D1*
X2842830Y1235550D1*
X2844735Y1236042D1*
X2846671Y1236397D1*
X2848627Y1236615D1*
X2852677Y1236693D1*
X2867279D1*
X2867284Y1243582D1*
X2952244D1*
Y1234424D1*
X2954479Y1233338D1*
X2956174Y1232338D1*
X2957800Y1231216D1*
X2957835Y1235394D1*
Y1280984D1*
X3042795D1*
Y1264752D1*
X3061049Y1246495D1*
X3063471Y1246311D1*
X3065422Y1246045D1*
X3067355Y1245677D1*
X3069267Y1245208D1*
X3071151Y1244640D1*
X3073003Y1243974D1*
X3074818Y1243211D1*
X3076590Y1242355D1*
X3078315Y1241407D1*
X3079988Y1240370D1*
X3081605Y1239247D1*
X3083160Y1238041D1*
X3084711Y1236696D1*
X3289524Y1236693D1*
X3289528Y1321508D1*
X3286082Y1324957D1*
X3250158Y1324961D1*
Y1388114D1*
X760003Y1388116D1*
X759404Y1388260D1*
X758879Y1388582D1*
X758479Y1389050D1*
X758243Y1389619D1*
X758189Y1390079D1*
Y1939284D1*
X591781Y1939291D1*
X595040Y1936780D1*
X599562Y1932982D1*
X603892Y1928967D1*
X608020Y1924745D1*
X611935Y1920324D1*
X615629Y1915717D1*
X619092Y1910934D1*
X622316Y1905987D1*
X625293Y1900888D1*
X628016Y1895648D1*
X630479Y1890282D1*
X632675Y1884800D1*
X634599Y1879218D1*
X636247Y1873547D1*
X637615Y1867803D1*
X638699Y1861999D1*
X639497Y1856148D1*
X640006Y1850265D1*
X640226Y1844364D1*
X640172Y1838898D1*
X639834Y1833003D1*
X639206Y1827132D1*
X638292Y1821298D1*
X637092Y1815516D1*
X635609Y1809800D1*
X633848Y1804164D1*
X631812Y1798621D1*
X629507Y1793185D1*
X626937Y1787869D1*
X624109Y1782685D1*
X621031Y1777646D1*
X617708Y1772764D1*
X614150Y1768052D1*
X610365Y1763520D1*
X606362Y1759179D1*
X602151Y1755039D1*
X597741Y1751112D1*
X593144Y1747406D1*
X588371Y1743930D1*
X583433Y1740692D1*
X578341Y1737701D1*
X573109Y1734964D1*
X567749Y1732486D1*
X562274Y1730275D1*
X556697Y1728335D1*
X551031Y1726672D1*
X545290Y1725288D1*
X539489Y1724188D1*
X533640Y1723375D1*
X527759Y1722849D1*
X521859Y1722613D1*
X515954Y1722667D1*
X510059Y1723010D1*
X506226Y1723391D1*
X506220Y1719872D1*
X526238Y1709624D1*
X527987Y1708353D1*
X531566Y1704835D1*
X546936Y1689405D1*
X548207Y1687655D1*
X550523Y1683203D1*
X560373Y1663779D1*
X561041Y1661722D1*
X561868Y1656772D1*
X565233Y1635254D1*
Y1633092D1*
X564490Y1628129D1*
X561041Y1606624D1*
X560373Y1604568D1*
X558133Y1600077D1*
X548207Y1580691D1*
X546936Y1578942D1*
X543418Y1575363D1*
X527987Y1559993D1*
X526238Y1558722D1*
X522848Y1556947D1*
X524804Y1553116D1*
X526316Y1549481D1*
X527547Y1545743D1*
X528491Y1541922D1*
X529142Y1538040D1*
X529496Y1534120D1*
X529567Y1531417D1*
X529417Y1527484D1*
X528970Y1523574D1*
X528227Y1519708D1*
X527192Y1515911D1*
X525872Y1512202D1*
X524275Y1508605D1*
X522409Y1505140D1*
X520285Y1501826D1*
X517916Y1498682D1*
X515315Y1495728D1*
X512497Y1492980D1*
X509479Y1490453D1*
X506277Y1488163D1*
X502912Y1486123D1*
X499400Y1484344D1*
X495764Y1482837D1*
X492025Y1481610D1*
X491319Y1481422D1*
X495073Y1480249D1*
X498730Y1478793D1*
X502266Y1477064D1*
X505661Y1475072D1*
X508894Y1472827D1*
X511948Y1470344D1*
X514805Y1467636D1*
X517447Y1464719D1*
X519861Y1461609D1*
X520214Y1461097D1*
X590866Y1461102D1*
X592833Y1461033D1*
X594790Y1460823D1*
X596727Y1460476D1*
X598635Y1459991D1*
X600503Y1459373D1*
X602323Y1458624D1*
X604085Y1457747D1*
X605780Y1456748D1*
X607401Y1455630D1*
X608937Y1454401D1*
X611857Y1451592D1*
X803135Y1260315D1*
X951925D1*
X951929Y1262283D1*
X1000150D1*
X1000157Y1273776D1*
X990315Y1273780D1*
Y1348898D1*
X1085288D1*
X1088456Y1351964D1*
X1089988Y1353199D1*
X1091603Y1354323D1*
X1093294Y1355330D1*
X1095053Y1356214D1*
X1096869Y1356971D1*
X1098735Y1357597D1*
X1100641Y1358089D1*
X1102577Y1358445D1*
X1104533Y1358662D1*
X1108583Y1358740D1*
X1374169D1*
X1374173Y1374488D1*
X1376142D1*
X1445039Y1287559D2*
X1374173D1*
Y1303299D1*
X1124492Y1303307D1*
X1124450Y1273780D1*
X1124437Y1270001D1*
X1124282Y1268039D1*
X1124025Y1266087D1*
X1123666Y1264152D1*
X1123206Y1262238D1*
X1122634Y1260315D1*
X1177480D1*
X1179447Y1260245D1*
X1181404Y1260036D1*
X1183341Y1259688D1*
X1185249Y1259204D1*
X1187117Y1258586D1*
X1188937Y1257836D1*
X1190699Y1256960D1*
X1192395Y1255960D1*
X1194015Y1254843D1*
X1195552Y1253614D1*
X1198471Y1250805D1*
X1393685Y1055591D1*
X1549766D1*
X1551596Y1057156D1*
X1553163Y1058348D1*
X1554789Y1059456D1*
X1556472Y1060477D1*
X1558205Y1061410D1*
X1559985Y1062250D1*
X1561807Y1062995D1*
X1563665Y1063644D1*
X1565555Y1064195D1*
X1567470Y1064646D1*
X1569407Y1064996D1*
X1571360Y1065245D1*
X1573323Y1065390D1*
X1575291Y1065433D1*
X1577258Y1065372D1*
X1579219Y1065208D1*
X1581170Y1064942D1*
X1583103Y1064574D1*
X1585015Y1064106D1*
X1586899Y1063538D1*
X1588751Y1062871D1*
X1590566Y1062109D1*
X1592338Y1061253D1*
X1594063Y1060305D1*
X1595736Y1059268D1*
X1597353Y1058145D1*
X1598908Y1056938D1*
X1600398Y1055652D1*
X1601818Y1054290D1*
X1603165Y1052855D1*
X1604436Y1051351D1*
X1605625Y1049783D1*
X1606731Y1048155D1*
X1607750Y1046471D1*
X1608680Y1044736D1*
X1609517Y1042954D1*
X1610260Y1041132D1*
X1610906Y1039272D1*
X1611454Y1037382D1*
X1611902Y1035465D1*
X1612249Y1033528D1*
X1612494Y1031575D1*
X1612677Y1027874D1*
X1612626Y1025906D1*
X1612471Y1023944D1*
X1612214Y1021993D1*
X1611855Y1020058D1*
X1611395Y1018144D1*
X1610835Y1016257D1*
X1610178Y1014402D1*
X1609424Y1012583D1*
X1608576Y1010807D1*
X1607636Y1009078D1*
X1606606Y1007400D1*
X1605491Y1005779D1*
X1604315Y1004248D1*
X1605625Y1002539D1*
X1606731Y1000911D1*
X1607750Y999227D1*
X1608680Y997492D1*
X1609517Y995710D1*
X1610260Y993887D1*
X1610906Y992028D1*
X1611454Y990138D1*
X1611902Y988221D1*
X1612249Y986284D1*
X1612494Y984331D1*
X1612677Y980630D1*
X1612626Y978662D1*
X1612471Y976700D1*
X1612214Y974749D1*
X1611855Y972813D1*
X1611395Y970900D1*
X1610835Y969013D1*
X1610178Y967157D1*
X1609424Y965339D1*
X1608576Y963563D1*
X1607636Y961834D1*
X1606606Y960156D1*
X1605491Y958535D1*
X1604291Y956974D1*
X1603012Y955478D1*
X1601656Y954051D1*
X1600227Y952698D1*
X1598729Y951421D1*
X1597167Y950224D1*
X1595544Y949110D1*
X1593864Y948084D1*
X1592134Y947146D1*
X1590356Y946301D1*
X1588537Y945550D1*
X1586681Y944895D1*
X1584793Y944338D1*
X1582878Y943881D1*
X1579822Y943379D1*
X1580406Y940977D1*
X1580753Y939040D1*
X1580998Y937087D1*
X1581181Y933386D1*
X1581130Y931418D1*
X1580975Y929456D1*
X1580718Y927505D1*
X1580359Y925569D1*
X1579899Y923656D1*
X1579339Y921769D1*
X1578682Y919913D1*
X1577928Y918095D1*
X1577080Y916319D1*
X1576140Y914590D1*
X1575110Y912912D1*
X1573994Y911291D1*
X1572795Y909730D1*
X1571516Y908234D1*
X1570160Y906807D1*
X1568731Y905454D1*
X1567233Y904176D1*
X1565671Y902980D1*
X1564048Y901866D1*
X1562368Y900840D1*
X1560638Y899902D1*
X1558860Y899057D1*
X1557041Y898306D1*
X1555185Y897651D1*
X1553297Y897094D1*
X1551382Y896637D1*
X1549545Y896299D1*
X1551142Y895632D1*
X1552904Y894755D1*
X1554599Y893756D1*
X1556220Y892638D1*
X1557756Y891409D1*
X1560676Y888600D1*
X1593294Y855982D1*
X1654484Y855984D1*
X1654488Y1250543D1*
X1640136Y1250551D1*
X1630399Y1240808D1*
X1630394Y1189314D1*
X1630346Y1187669D1*
X1630161Y1185710D1*
X1629838Y1183768D1*
X1629378Y1181855D1*
X1628783Y1179979D1*
X1628056Y1178150D1*
X1627201Y1176377D1*
X1626223Y1174669D1*
X1625126Y1173035D1*
X1623916Y1171483D1*
X1622276Y1169693D1*
X1589599Y1137083D1*
X1588083Y1135828D1*
X1586481Y1134684D1*
X1584803Y1133657D1*
X1583056Y1132751D1*
X1581248Y1131972D1*
X1579390Y1131322D1*
X1577491Y1130806D1*
X1575560Y1130427D1*
X1573607Y1130185D1*
X1571181Y1130079D1*
X1518193D1*
X1518189Y1065118D1*
X1443071D1*
Y1116291D1*
X1384016Y1116299D1*
X1382147D1*
X1380180Y1116354D1*
X1378218Y1116511D1*
X1376267Y1116772D1*
X1374332Y1117134D1*
X1372419Y1117596D1*
X1370533Y1118159D1*
X1368679Y1118819D1*
X1366862Y1119576D1*
X1365087Y1120427D1*
X1363359Y1121370D1*
X1361683Y1122401D1*
X1360063Y1123520D1*
X1358504Y1124721D1*
X1357010Y1126003D1*
X1355586Y1127361D1*
X1354234Y1128792D1*
X1352959Y1130292D1*
X1351765Y1131856D1*
X1350654Y1133481D1*
X1349630Y1135162D1*
X1348695Y1136894D1*
X1347852Y1138673D1*
X1347104Y1140493D1*
X1346452Y1142350D1*
X1345898Y1144239D1*
X1345444Y1146154D1*
X1345091Y1148091D1*
X1344840Y1150043D1*
X1344691Y1152006D1*
X1344646Y1153973D1*
X1344703Y1155941D1*
X1344864Y1157902D1*
X1345127Y1159853D1*
X1345492Y1161787D1*
X1345958Y1163700D1*
X1346523Y1165585D1*
X1347187Y1167438D1*
X1347946Y1169254D1*
X1348800Y1171027D1*
X1349745Y1172754D1*
X1350779Y1174428D1*
X1351900Y1176046D1*
X1353104Y1177604D1*
X1354388Y1179095D1*
X1355748Y1180518D1*
X1357181Y1181867D1*
X1358683Y1183140D1*
X1360249Y1184332D1*
X1361876Y1185440D1*
X1363558Y1186462D1*
X1365292Y1187394D1*
X1367072Y1188234D1*
X1368893Y1188979D1*
X1370752Y1189628D1*
X1372641Y1190179D1*
X1374557Y1190630D1*
X1376494Y1190981D1*
X1378446Y1191229D1*
X1380409Y1191374D1*
X1384014Y1191366D1*
X1384016Y1191417D1*
X1518189D1*
Y1185519D1*
X1559701Y1185512D1*
X1574957Y1200769D1*
X1574960Y1252283D1*
X1575030Y1254250D1*
X1575240Y1256207D1*
X1575587Y1258144D1*
X1576071Y1260052D1*
X1576690Y1261920D1*
X1577439Y1263740D1*
X1578316Y1265502D1*
X1579315Y1267198D1*
X1580433Y1268818D1*
X1581662Y1270355D1*
X1584470Y1273274D1*
X1599418Y1288221D1*
X1596001Y1289010D1*
X1592998Y1289991D1*
X1592992Y1289528D1*
X1539847Y1289527D1*
X1539843Y1287559D1*
X1445039Y1287567D1*
X3781969Y537559D2*
Y510307D1*
X3841024Y510315D1*
Y500480D1*
X3871509Y500473D1*
X3871514Y547399D1*
X3841016Y547402D1*
X3841024Y537559D1*
X3781961D1*
X1405669Y911890D2*
X1466701D1*
X1466693Y952921D1*
X846764Y952913D1*
X897627Y902042D1*
X1403697Y902047D1*
X1403701Y911890D1*
X1405669D1*
X3545925Y1324961D2*
X3510000D1*
Y1388114D1*
X3325280Y1388110D1*
X3325276Y1364161D1*
X3350622Y1338811D1*
X3351964Y1337371D1*
X3353199Y1335839D1*
X3354323Y1334224D1*
X3355330Y1332532D1*
X3356214Y1330774D1*
X3356973Y1328950D1*
X3358425Y1327244D1*
X3372520D1*
Y1216693D1*
X3356026D1*
X3354381Y1213741D1*
X3354646Y1213071D1*
X3496709D1*
X3549374Y1265736D1*
X3549370Y1321508D1*
X3545924Y1324957D1*
X4339055Y758031D2*
Y744252D1*
X4244252D1*
Y758039D1*
X3946635Y758031D1*
X3946633Y455510D1*
X3947442Y453208D1*
X3948444Y449403D1*
X3949062Y445516D1*
X3949290Y441587D1*
X3949242Y439292D1*
X3948851Y435376D1*
X3948072Y431519D1*
X3946914Y427758D1*
X3945387Y424131D1*
X3945089Y423549D1*
X5010156Y423543D1*
X5010157Y771807D1*
X4909764Y771811D1*
X4907797Y771881D1*
X4905840Y772090D1*
X4903903Y772438D1*
X4901995Y772922D1*
X4900127Y773540D1*
X4898307Y774290D1*
X4896545Y775166D1*
X4894849Y776166D1*
X4893229Y777283D1*
X4891692Y778512D1*
X4888773Y781321D1*
X4815604Y854490D1*
X4797321Y854488D1*
X4795580Y852995D1*
X4794017Y851799D1*
X4792394Y850685D1*
X4790715Y849658D1*
X4788984Y848721D1*
X4787207Y847876D1*
X4785387Y847125D1*
X4783531Y846470D1*
X4781643Y845913D1*
X4779729Y845456D1*
X4777793Y845100D1*
X4775841Y844846D1*
X4773879Y844694D1*
X4771911Y844646D1*
X4769943Y844700D1*
X4767982Y844858D1*
X4766031Y845118D1*
X4764096Y845480D1*
X4762183Y845943D1*
X4760297Y846505D1*
X4758442Y847166D1*
X4756625Y847923D1*
X4754850Y848773D1*
X4752435Y850139D1*
X4752371Y848742D1*
X4752162Y846785D1*
X4751814Y844848D1*
X4751330Y842940D1*
X4750712Y841072D1*
X4749962Y839252D1*
X4749086Y837490D1*
X4748086Y835794D1*
X4746969Y834174D1*
X4745740Y832637D1*
X4742931Y829718D1*
X4702244Y789031D1*
Y755079D1*
X4573976D1*
Y758039D1*
X4473902Y758031D1*
X4473898Y709803D1*
X4345630D1*
Y758024D1*
X4339059Y758031D1*
X1107756Y1155984D2*
X1108756Y1155941D1*
X1110724Y1155984D1*
X1112691Y1155923D1*
X1114652Y1155760D1*
X1116603Y1155494D1*
X1118536Y1155126D1*
X1120448Y1154657D1*
X1122332Y1154089D1*
X1124185Y1153423D1*
X1125999Y1152660D1*
X1127771Y1151804D1*
X1129496Y1150856D1*
X1131169Y1149819D1*
X1132786Y1148696D1*
X1134341Y1147489D1*
X1135831Y1146203D1*
X1137251Y1144841D1*
X1138599Y1143406D1*
X1139869Y1141902D1*
X1141058Y1140334D1*
X1142164Y1138706D1*
X1143183Y1137022D1*
X1144113Y1135287D1*
X1144950Y1133506D1*
X1145693Y1131683D1*
X1146339Y1129824D1*
X1146887Y1127933D1*
X1147335Y1126017D1*
X1147682Y1124079D1*
X1147927Y1122126D1*
X1148110Y1118425D1*
X1148059Y1116458D1*
X1147904Y1114495D1*
X1147647Y1112544D1*
X1147288Y1110609D1*
X1146828Y1108695D1*
X1146268Y1106808D1*
X1145611Y1104953D1*
X1144857Y1103135D1*
X1144009Y1101358D1*
X1143069Y1099629D1*
X1142039Y1097951D1*
X1140924Y1096330D1*
X1139724Y1094769D1*
X1138445Y1093273D1*
X1137089Y1091847D1*
X1135660Y1090493D1*
X1134163Y1089216D1*
X1132600Y1088019D1*
X1130977Y1086906D1*
X1129298Y1085879D1*
X1127567Y1084942D1*
X1125789Y1084096D1*
X1123970Y1083345D1*
X1122114Y1082690D1*
X1120226Y1082134D1*
X1118311Y1081677D1*
X1116376Y1081320D1*
X1114424Y1081066D1*
X1112461Y1080915D1*
X1108734D1*
X1106772Y1080866D1*
X1033622D1*
Y1155984D1*
X1034599D1*
X1034606Y1192263D1*
X1029756Y1187409D1*
X1028316Y1186068D1*
X1026784Y1184832D1*
X1025162Y1183704D1*
X1025079Y1183543D1*
Y1151732D1*
X1016213D1*
X1016221Y1044245D1*
X1018596Y1041693D1*
X1020995Y1038574D1*
X1023073Y1035231D1*
X1024807Y1031699D1*
X1026182Y1028012D1*
X1027184Y1024206D1*
X1027802Y1020319D1*
X1028030Y1016390D1*
X1027982Y1014095D1*
X1027591Y1010179D1*
X1027267Y1008339D1*
X1362527Y1008347D1*
X1166000Y1204882D1*
X1107760D1*
X1107756Y1155976D1*
X6193402Y1033937D2*
X6219623D1*
X6305438Y1119748D1*
X6305433Y1758181D1*
X5860713Y1758189D1*
X5860709Y1685197D1*
X5850859D1*
X5850866Y1647732D1*
X5850791Y1645765D1*
X5850594Y1643807D1*
X5850275Y1641865D1*
X5849837Y1639946D1*
X5849280Y1638058D1*
X5848607Y1636209D1*
X5847820Y1634404D1*
X5846923Y1632653D1*
X5845919Y1630960D1*
X5844811Y1629333D1*
X5843604Y1627778D1*
X5841595Y1625570D1*
X5827246Y1611221D1*
X5827244Y1549370D1*
X5720630D1*
Y1655984D1*
X5782477D1*
X5787555Y1661060D1*
X5787559Y1685193D1*
X5777717Y1685197D1*
Y1762483D1*
X5776569Y1763869D1*
X5775439Y1765713D1*
X5774611Y1767710D1*
X5774107Y1769813D1*
X5773937Y1771969D1*
Y1840705D1*
X5773780Y1840708D1*
Y1939295D1*
X5581026Y1939291D1*
X5581000Y1389771D1*
X5580809Y1389185D1*
X5580447Y1388687D1*
X5579949Y1388325D1*
X5579363Y1388134D1*
X5573150Y1388110D1*
X5565437D1*
X5565433Y1296417D1*
X5482764D1*
X5482756Y1230472D1*
X5407638D1*
Y1296425D1*
X5403701Y1296417D1*
Y1358417D1*
X5376461Y1358425D1*
X5376457Y1296417D1*
X5362685D1*
X5362677Y1033941D1*
X6193236Y1033937D1*
X5819055Y659921D2*
Y862370D1*
X5307071Y862362D1*
X5224638Y779929D1*
X5223192Y778583D1*
X5222756Y777874D1*
X5539993Y777850D1*
X5540579Y777659D1*
X5541077Y777297D1*
X5541439Y776799D1*
X5541629Y776213D1*
X5541654Y770000D1*
Y423551D1*
X6297551Y423543D1*
X6297559Y563146D1*
X6230472Y563150D1*
Y610309D1*
X6226851Y610393D1*
X6147796D1*
X6147795Y734571D1*
X6073311Y734567D1*
X6073307Y630078D1*
X5974567D1*
Y631070D1*
X5972025Y631063D1*
X5940474Y599519D1*
X5939031Y598180D1*
X5937495Y596950D1*
X5935872Y595837D1*
X5934171Y594846D1*
X5932402Y593984D1*
X5930575Y593253D1*
X5928698Y592659D1*
X5926783Y592205D1*
X5924840Y591893D1*
X5921575Y591693D1*
X5905988D1*
X5905984Y576929D1*
X5819055D1*
X5819063Y659921D1*
X6337087Y734563D2*
Y684535D1*
X6415508Y684528D1*
X6415512Y703228D1*
X6482603D1*
X6482598Y720626D1*
X6474567Y720630D1*
Y902047D1*
X6482602D1*
X6482598Y931410D1*
X6352685Y931417D1*
X6352677Y748346D1*
X6352508Y746191D1*
X6352003Y744088D1*
X6351175Y742091D1*
X6350046Y740247D1*
X6348641Y738603D1*
X6346997Y737199D1*
X6345153Y736069D1*
X6343156Y735241D1*
X6341053Y734737D1*
X6338898Y734567D1*
X6337091D1*
X5218661Y1296417D2*
X5214724D1*
Y1358417D1*
X5177996Y1358425D1*
X5178567Y1356322D1*
X5179365Y1352467D1*
X5179868Y1348563D1*
X5180074Y1344633D1*
X5180079Y1333898D1*
X5179929Y1329964D1*
X5179482Y1326054D1*
X5178738Y1322189D1*
X5177704Y1318391D1*
X5176384Y1314683D1*
X5174786Y1311086D1*
X5172920Y1307620D1*
X5170797Y1304306D1*
X5168428Y1301163D1*
X5165827Y1298208D1*
X5163009Y1295460D1*
X5159991Y1292934D1*
X5157949Y1291440D1*
X5157953Y1244409D1*
X5157883Y1242443D1*
X5157674Y1240486D1*
X5157326Y1238549D1*
X5156842Y1236641D1*
X5156223Y1234772D1*
X5155474Y1232953D1*
X5154597Y1231191D1*
X5153598Y1229495D1*
X5152481Y1227875D1*
X5151251Y1226338D1*
X5148443Y1223419D1*
X5047473Y1122449D1*
X5046032Y1121107D1*
X5044501Y1119872D1*
X5042885Y1118748D1*
X5041194Y1117741D1*
X5039435Y1116857D1*
X5037619Y1116100D1*
X5035753Y1115474D1*
X5033847Y1114982D1*
X5031912Y1114626D1*
X5029956Y1114409D1*
X5025906Y1114331D1*
X4931179D1*
X4929438Y1112838D1*
X4927876Y1111641D1*
X4926252Y1110528D1*
X4924573Y1109501D1*
X4922842Y1108564D1*
X4921065Y1107718D1*
X4919246Y1106967D1*
X4917389Y1106312D1*
X4915501Y1105756D1*
X4913587Y1105299D1*
X4911651Y1104943D1*
X4909699Y1104688D1*
X4907737Y1104537D1*
X4905769Y1104488D1*
X4903802Y1104543D1*
X4901840Y1104700D1*
X4899889Y1104961D1*
X4897954Y1105323D1*
X4896041Y1105785D1*
X4894155Y1106348D1*
X4892301Y1107008D1*
X4890484Y1107765D1*
X4888709Y1108616D1*
X4886981Y1109559D1*
X4885305Y1110590D1*
X4883685Y1111709D1*
X4882126Y1112910D1*
X4880632Y1114192D1*
X4879208Y1115550D1*
X4877856Y1116981D1*
X4876581Y1118481D1*
X4875387Y1120045D1*
X4874276Y1121670D1*
X4873252Y1123351D1*
X4872317Y1125083D1*
X4871474Y1126862D1*
X4870726Y1128682D1*
X4870074Y1130539D1*
X4869520Y1132428D1*
X4869066Y1134343D1*
X4868713Y1136280D1*
X4868462Y1138232D1*
X4868313Y1140194D1*
X4868268Y1142162D1*
X4868325Y1144130D1*
X4868486Y1146091D1*
X4868749Y1148042D1*
X4869114Y1149976D1*
X4870081Y1153560D1*
X4867937Y1155016D1*
X4866378Y1156217D1*
X4864645Y1157727D1*
X4864605Y1108352D1*
X4864594Y1104647D1*
X4864440Y1102684D1*
X4864182Y1100733D1*
X4863823Y1098798D1*
X4863363Y1096884D1*
X4862804Y1094997D1*
X4862146Y1093142D1*
X4861392Y1091324D1*
X4860544Y1089547D1*
X4859604Y1087818D1*
X4858575Y1086140D1*
X4857459Y1084519D1*
X4856260Y1082958D1*
X4854980Y1081462D1*
X4853625Y1080036D1*
X4852196Y1078682D1*
X4850698Y1077405D1*
X4849135Y1076208D1*
X4847512Y1075095D1*
X4845833Y1074068D1*
X4844102Y1073131D1*
X4842325Y1072285D1*
X4840505Y1071534D1*
X4838649Y1070879D1*
X4836761Y1070323D1*
X4834847Y1069866D1*
X4832911Y1069509D1*
X4830959Y1069255D1*
X4828997Y1069104D1*
X4827029Y1069055D1*
X4825062Y1069110D1*
X4823100Y1069267D1*
X4821149Y1069527D1*
X4819214Y1069889D1*
X4817301Y1070352D1*
X4815415Y1070915D1*
X4813560Y1071575D1*
X4811743Y1072332D1*
X4809969Y1073183D1*
X4808241Y1074125D1*
X4806565Y1075157D1*
X4804945Y1076276D1*
X4803386Y1077477D1*
X4801892Y1078759D1*
X4800467Y1080117D1*
X4799116Y1081548D1*
X4797841Y1083048D1*
X4796647Y1084612D1*
X4795536Y1086237D1*
X4794512Y1087918D1*
X4793577Y1089650D1*
X4792734Y1091429D1*
X4791986Y1093249D1*
X4791334Y1095106D1*
X4790780Y1096995D1*
X4790326Y1098910D1*
X4789973Y1100847D1*
X4789722Y1102799D1*
X4789573Y1104761D1*
X4789577Y1108428D1*
X4789528Y1108425D1*
Y1242598D1*
X4800547D1*
X4800551Y1290120D1*
X4797624Y1292120D1*
X4794541Y1294567D1*
X4791653Y1297241D1*
X4788976Y1300126D1*
X4786525Y1303206D1*
X4784316Y1306464D1*
X4782360Y1309880D1*
X4780669Y1313434D1*
X4779253Y1317107D1*
X4778271Y1320335D1*
X4777079Y1316524D1*
X4775619Y1312869D1*
X4773886Y1309335D1*
X4771890Y1305943D1*
X4769642Y1302712D1*
X4767155Y1299661D1*
X4764444Y1296808D1*
X4761524Y1294168D1*
X4758412Y1291758D1*
X4756380Y1290385D1*
X4756378Y1021721D1*
X4757979Y1019855D1*
X4759169Y1018287D1*
X4760274Y1016659D1*
X4761293Y1014975D1*
X4762223Y1013240D1*
X4763060Y1011458D1*
X4763803Y1009636D1*
X4764449Y1007776D1*
X4764997Y1005886D1*
X4765445Y1003969D1*
X4765792Y1002032D1*
X4766038Y1000079D1*
X4766220Y996378D1*
X4766169Y994410D1*
X4766014Y992448D1*
X4765757Y990497D1*
X4765398Y988561D1*
X4764938Y986648D1*
X4764379Y984761D1*
X4763659Y982756D1*
X5264965D1*
X5303707Y1021480D1*
X5306685Y1024066D1*
X5307244Y1025906D1*
Y1296413D1*
X5293787Y1296417D1*
X5293780Y1230472D1*
X5218662D1*
Y1296425D1*
X4155261Y1388110D2*
X4157811Y1386460D1*
X4160957Y1384095D1*
X4163914Y1381497D1*
X4166665Y1378683D1*
X4169195Y1375667D1*
X4171489Y1372469D1*
X4173533Y1369105D1*
X4175316Y1365596D1*
X4176828Y1361962D1*
X4178059Y1358223D1*
X4179003Y1354402D1*
X4179654Y1350520D1*
X4180008Y1346600D1*
X4180079Y1341929D1*
X4180041Y1331930D1*
X4179743Y1328005D1*
X4179147Y1324114D1*
X4178257Y1320280D1*
X4177079Y1316524D1*
X4175619Y1312869D1*
X4173886Y1309335D1*
X4171890Y1305943D1*
X4169642Y1302712D1*
X4167155Y1299661D1*
X4164444Y1296808D1*
X4161524Y1294168D1*
X4158412Y1291758D1*
X4155126Y1289592D1*
X4154015Y1288947D1*
X4154016Y1106614D1*
X4153946Y1104647D1*
X4153737Y1102690D1*
X4153389Y1100753D1*
X4152905Y1098846D1*
X4152286Y1096977D1*
X4151537Y1095157D1*
X4150660Y1093395D1*
X4149661Y1091700D1*
X4148544Y1090080D1*
X4147314Y1088543D1*
X4144506Y1085624D1*
X4079055Y1020158D1*
X4240803D1*
X4470086Y1249374D1*
X4471602Y1250628D1*
X4473204Y1251772D1*
X4474883Y1252800D1*
X4476630Y1253706D1*
X4478437Y1254485D1*
X4480295Y1255134D1*
X4482194Y1255650D1*
X4484125Y1256030D1*
X4486078Y1256272D1*
X4488504Y1256378D1*
X4557056Y1256330D1*
X4559015Y1256146D1*
X4560956Y1255822D1*
X4562870Y1255362D1*
X4564753Y1254764D1*
X4567417Y1254409D1*
X4569384Y1254348D1*
X4571345Y1254185D1*
X4573296Y1253919D1*
X4575229Y1253551D1*
X4577141Y1253082D1*
X4579025Y1252514D1*
X4580877Y1251848D1*
X4582837Y1251015D1*
X4582835Y1308993D1*
X4581481Y1311641D1*
X4579926Y1315257D1*
X4578651Y1318980D1*
X4578257Y1320280D1*
X4577079Y1316524D1*
X4575619Y1312869D1*
X4573886Y1309335D1*
X4571890Y1305943D1*
X4569642Y1302712D1*
X4567155Y1299661D1*
X4564444Y1296808D1*
X4561524Y1294168D1*
X4558412Y1291758D1*
X4555126Y1289592D1*
X4551685Y1287680D1*
X4548109Y1286036D1*
X4544418Y1284668D1*
X4540634Y1283584D1*
X4536779Y1282790D1*
X4532875Y1282292D1*
X4528944Y1282091D1*
X4525009Y1282189D1*
X4521093Y1282586D1*
X4517218Y1283279D1*
X4513407Y1284263D1*
X4509682Y1285535D1*
X4507627Y1286380D1*
X4451445Y1286378D1*
X4448109Y1284855D1*
X4444418Y1283487D1*
X4440634Y1282403D1*
X4436779Y1281609D1*
X4432875Y1281111D1*
X4428944Y1280910D1*
X4425009Y1281008D1*
X4421093Y1281405D1*
X4417218Y1282097D1*
X4413407Y1283082D1*
X4409682Y1284354D1*
X4406064Y1285904D1*
X4402575Y1287725D1*
X4399233Y1289805D1*
X4396059Y1292133D1*
X4393072Y1294695D1*
X4390287Y1297477D1*
X4387721Y1300462D1*
X4385390Y1303633D1*
X4383305Y1306972D1*
X4381481Y1310460D1*
X4379926Y1314076D1*
X4378651Y1317799D1*
X4377661Y1321609D1*
X4376964Y1325483D1*
X4376563Y1329398D1*
X4376465Y1332710D1*
X4376460Y1343333D1*
X4376657Y1347264D1*
X4377151Y1351169D1*
X4377940Y1355025D1*
X4379020Y1358811D1*
X4380384Y1362503D1*
X4382024Y1366081D1*
X4383931Y1369524D1*
X4386094Y1372812D1*
X4388500Y1375927D1*
X4391136Y1378850D1*
X4393987Y1381565D1*
X4397035Y1384055D1*
X4400263Y1386307D1*
X4403298Y1388107D1*
X4155281Y1388110D1*
X467763Y532764D2*
X464497Y532859D1*
X460581Y533255D1*
X456706Y533948D1*
X452895Y534933D1*
X449170Y536204D1*
X445553Y537755D1*
X442063Y539575D1*
X438722Y541656D1*
X435548Y543984D1*
X432560Y546546D1*
X429775Y549327D1*
X427209Y552312D1*
X424878Y555484D1*
X423540Y557575D1*
X423543Y521937D1*
X427077Y495098D1*
X436686Y471905D1*
X451973Y451979D1*
X471896Y436690D1*
X495098Y427077D1*
X521940Y423543D1*
X732628D1*
X606808Y549367D1*
X515778Y549370D1*
X513932Y547477D1*
X511012Y544838D1*
X507900Y542428D1*
X504614Y540261D1*
X501173Y538350D1*
X497597Y536705D1*
X493906Y535337D1*
X490122Y534253D1*
X486267Y533460D1*
X482363Y532961D1*
X478432Y532760D1*
X467756Y532763D1*
X2945040Y840839D2*
Y889929D1*
X2671536Y889921D1*
X2671692Y887880D1*
X2671681Y884174D1*
X2671526Y882212D1*
X2671269Y880261D1*
X2670910Y878325D1*
X2670450Y876411D1*
X2669890Y874524D1*
X2669233Y872669D1*
X2668479Y870851D1*
X2667631Y869075D1*
X2666691Y867346D1*
X2665661Y865668D1*
X2664546Y864046D1*
X2663346Y862486D1*
X2662067Y860990D1*
X2660711Y859563D1*
X2657954Y857077D1*
X2657974Y840835D1*
X2659937Y840981D1*
X2661905Y841023D1*
X2663872Y840963D1*
X2665834Y840799D1*
X2667784Y840533D1*
X2669717Y840165D1*
X2671629Y839696D1*
X2673514Y839128D1*
X2675366Y838462D1*
X2677180Y837700D1*
X2678953Y836843D1*
X2680678Y835895D1*
X2682350Y834858D1*
X2683967Y833735D1*
X2685522Y832529D1*
X2687012Y831243D1*
X2688432Y829880D1*
X2689780Y828445D1*
X2691050Y826942D1*
X2692239Y825373D1*
X2693345Y823745D1*
X2694364Y822061D1*
X2695294Y820326D1*
X2696131Y818545D1*
X2697321Y815437D1*
X2905665Y815433D1*
X2907001Y818860D1*
X2907855Y820634D1*
X2908800Y822360D1*
X2909834Y824035D1*
X2910955Y825653D1*
X2912159Y827210D1*
X2913443Y828702D1*
X2914803Y830124D1*
X2916236Y831474D1*
X2917738Y832746D1*
X2919304Y833938D1*
X2920931Y835046D1*
X2922613Y836068D1*
X2924347Y837000D1*
X2926127Y837840D1*
X2927948Y838586D1*
X2929807Y839235D1*
X2931696Y839786D1*
X2933612Y840237D1*
X2935549Y840587D1*
X2937502Y840835D1*
X2939464Y840981D1*
X2941432Y841023D1*
X2945047Y840825D1*
X3767874Y663858D2*
X3841024D1*
Y654023D1*
X3871509Y654016D1*
X3871514Y780158D1*
X3868538Y779763D1*
X3864488Y779685D1*
X3752283D1*
X3750317Y779755D1*
X3748360Y779964D1*
X3746423Y780312D1*
X3744515Y780796D1*
X3742647Y781414D1*
X3740827Y782164D1*
X3739065Y783040D1*
X3737369Y784040D1*
X3735749Y785157D1*
X3734212Y786386D1*
X3731293Y789195D1*
X3662626Y857862D1*
X3335503Y857860D1*
X3500216Y693154D1*
X3501342Y691961D1*
X3502597Y690445D1*
X3503741Y688843D1*
X3504768Y687165D1*
X3505674Y685417D1*
X3506454Y683610D1*
X3507103Y681752D1*
X3507619Y679853D1*
X3507998Y677922D1*
X3508240Y675969D1*
X3508346Y673543D1*
Y610221D1*
X3519667Y598900D1*
X3521807Y598898D1*
X3521811Y656772D1*
X3644173D1*
Y654011D1*
X3706846Y654016D1*
X3706850Y663858D1*
X3767874D1*
X5777717Y1541811D2*
X5862677D1*
Y1435197D1*
X5850859D1*
X5850866Y1115019D1*
X5851845Y1113400D1*
X5852774Y1111665D1*
X5853611Y1109883D1*
X5854354Y1108061D1*
X5855000Y1106202D1*
X5855548Y1104311D1*
X5855996Y1102395D1*
X5856344Y1100457D1*
X5856589Y1098504D1*
X5856772Y1094803D1*
X5856720Y1092836D1*
X5856566Y1090873D1*
X5856308Y1088922D1*
X5855949Y1086987D1*
X5855489Y1085073D1*
X5854930Y1083186D1*
X5854272Y1081331D1*
X5853518Y1079513D1*
X5852670Y1077736D1*
X5851730Y1076007D1*
X5850701Y1074329D1*
X5849585Y1072708D1*
X5848386Y1071147D1*
X5847106Y1069651D1*
X5845751Y1068225D1*
X5844322Y1066871D1*
X5842824Y1065594D1*
X5841261Y1064397D1*
X5839638Y1063284D1*
X5837959Y1062257D1*
X5836228Y1061320D1*
X5834451Y1060474D1*
X5832631Y1059723D1*
X5830775Y1059068D1*
X5828887Y1058512D1*
X5826973Y1058055D1*
X5825037Y1057698D1*
X5823085Y1057444D1*
X5821123Y1057293D1*
X5819155Y1057244D1*
X5817188Y1057299D1*
X5815226Y1057456D1*
X5813275Y1057716D1*
X5811340Y1058078D1*
X5809427Y1058541D1*
X5807541Y1059104D1*
X5805686Y1059764D1*
X5803869Y1060521D1*
X5802095Y1061372D1*
X5800367Y1062314D1*
X5798691Y1063346D1*
X5797071Y1064465D1*
X5795512Y1065666D1*
X5794018Y1066948D1*
X5792593Y1068306D1*
X5791242Y1069737D1*
X5789967Y1071237D1*
X5788773Y1072801D1*
X5787662Y1074426D1*
X5786638Y1076107D1*
X5785703Y1077839D1*
X5784860Y1079618D1*
X5784112Y1081438D1*
X5783460Y1083295D1*
X5782906Y1085184D1*
X5782452Y1087099D1*
X5782099Y1089036D1*
X5781848Y1090988D1*
X5781699Y1092950D1*
X5781654Y1094918D1*
X5781711Y1096886D1*
X5781872Y1098847D1*
X5782135Y1100798D1*
X5782500Y1102732D1*
X5782966Y1104644D1*
X5783531Y1106530D1*
X5784194Y1108383D1*
X5784954Y1110199D1*
X5785807Y1111972D1*
X5787557Y1115000D1*
X5787559Y1435193D1*
X5775748Y1435197D1*
Y1437327D1*
X5772130Y1437323D1*
X5772126Y1435197D1*
X5685197D1*
Y1541811D1*
X5772126D1*
Y1539681D1*
X5775744Y1539685D1*
X5775748Y1541811D1*
X5777717D1*
X3549370Y992598D2*
Y1067094D1*
X3372524Y1067087D1*
X3372520Y992606D1*
X3549366Y992598D1*
X3289528Y992599D2*
Y1067094D1*
X3129906Y1067087D1*
X3086929Y1024094D1*
X3108237Y1024047D1*
X3110196Y1023862D1*
X3112138Y1023539D1*
X3114051Y1023078D1*
X3115927Y1022483D1*
X3117756Y1021756D1*
X3119529Y1020902D1*
X3121237Y1019924D1*
X3122871Y1018827D1*
X3124423Y1017616D1*
X3126213Y1015977D1*
X3149588Y992602D1*
X3289524Y992598D1*
X4573974Y847196D2*
X4570276Y846731D1*
X4566342Y846624D1*
X4562417Y846910D1*
X4558540Y847584D1*
X4554749Y848641D1*
X4551082Y850069D1*
X4547575Y851855D1*
X4544263Y853981D1*
X4541179Y856426D1*
X4538353Y859165D1*
X4535814Y862171D1*
X4533586Y865415D1*
X4531692Y868865D1*
X4530150Y872486D1*
X4528976Y876242D1*
X4528182Y880096D1*
X4527774Y884011D1*
X4527758Y887946D1*
X4528133Y891863D1*
X4528896Y895724D1*
X4530039Y899490D1*
X4531550Y903123D1*
X4533416Y906588D1*
X4535617Y909851D1*
X4538131Y912878D1*
X4540934Y915641D1*
X4543997Y918111D1*
X4547292Y920264D1*
X4550783Y922079D1*
X4554438Y923538D1*
X4558220Y924626D1*
X4562092Y925332D1*
X4566014Y925650D1*
X4569949Y925577D1*
X4573857Y925112D1*
X4573970Y925090D1*
X4573976Y926653D1*
X4580859D1*
X4580866Y1059370D1*
X4581036Y1063302D1*
X4581547Y1067205D1*
X4582393Y1071049D1*
X4582835Y1072577D1*
Y1093780D1*
X4580669Y1090832D1*
X4579390Y1089336D1*
X4578034Y1087910D1*
X4576605Y1086556D1*
X4575107Y1085279D1*
X4573545Y1084082D1*
X4571922Y1082969D1*
X4570242Y1081942D1*
X4568512Y1081005D1*
X4566734Y1080159D1*
X4564915Y1079408D1*
X4563059Y1078753D1*
X4561171Y1078197D1*
X4559256Y1077740D1*
X4557320Y1077383D1*
X4555369Y1077129D1*
X4553406Y1076978D1*
X4551439Y1076929D1*
X4549471Y1076984D1*
X4547509Y1077141D1*
X4545558Y1077401D1*
X4543623Y1077763D1*
X4541710Y1078226D1*
X4539824Y1078789D1*
X4537970Y1079449D1*
X4536153Y1080206D1*
X4534378Y1081057D1*
X4532650Y1081999D1*
X4530974Y1083031D1*
X4529354Y1084150D1*
X4527795Y1085351D1*
X4526151Y1086776D1*
X4515732Y1086772D1*
X4362520Y933543D1*
X4410094D1*
X4419490Y942939D1*
X4419667Y945304D1*
X4419930Y947255D1*
X4420295Y949189D1*
X4420761Y951101D1*
X4421326Y952986D1*
X4421990Y954840D1*
X4422749Y956655D1*
X4423603Y958429D1*
X4424548Y960155D1*
X4425583Y961830D1*
X4426703Y963448D1*
X4427907Y965005D1*
X4429191Y966497D1*
X4430551Y967920D1*
X4431984Y969269D1*
X4433486Y970541D1*
X4435052Y971733D1*
X4436679Y972842D1*
X4438361Y973863D1*
X4440095Y974795D1*
X4441875Y975635D1*
X4443697Y976381D1*
X4445555Y977030D1*
X4447444Y977581D1*
X4449360Y978032D1*
X4451297Y978382D1*
X4453250Y978630D1*
X4455213Y978776D1*
X4457180Y978819D1*
X4459148Y978758D1*
X4461109Y978594D1*
X4463059Y978328D1*
X4464993Y977960D1*
X4466905Y977492D1*
X4468789Y976923D1*
X4470641Y976257D1*
X4472456Y975495D1*
X4474228Y974639D1*
X4475953Y973691D1*
X4477626Y972654D1*
X4479242Y971530D1*
X4480798Y970324D1*
X4482288Y969038D1*
X4483708Y967675D1*
X4485055Y966240D1*
X4486325Y964737D1*
X4487515Y963169D1*
X4488621Y961540D1*
X4489640Y959857D1*
X4490569Y958121D1*
X4491407Y956340D1*
X4492149Y954517D1*
X4492796Y952658D1*
X4493344Y950768D1*
X4493792Y948851D1*
X4494139Y946914D1*
X4494384Y944961D1*
X4494567Y941260D1*
X4494515Y939292D1*
X4494361Y937330D1*
X4494104Y935379D1*
X4493745Y933443D1*
X4493285Y931530D1*
X4492725Y929643D1*
X4492067Y927787D1*
X4491314Y925969D1*
X4490465Y924193D1*
X4489525Y922464D1*
X4488496Y920786D1*
X4487380Y919165D1*
X4486181Y917604D1*
X4484902Y916108D1*
X4483546Y914681D1*
X4482117Y913328D1*
X4480619Y912050D1*
X4479057Y910854D1*
X4477433Y909740D1*
X4475754Y908714D1*
X4474023Y907776D1*
X4472246Y906931D1*
X4470427Y906180D1*
X4468571Y905525D1*
X4466683Y904968D1*
X4464768Y904511D1*
X4462832Y904155D1*
X4460880Y903901D1*
X4458695Y903744D1*
X4441173Y886228D1*
X4439733Y884887D1*
X4438201Y883651D1*
X4436586Y882527D1*
X4434888Y881517D1*
X4436181Y881378D1*
X4473898D1*
Y833157D1*
X4573972Y833150D1*
X4573976Y836102D1*
X4670918D1*
X4680451Y845632D1*
X4573976Y845630D1*
Y847191D1*
X4606723Y608583D2*
X4606331Y604668D1*
X4605553Y600810D1*
X4604394Y597049D1*
X4602867Y593422D1*
X4600987Y589965D1*
X4598773Y586711D1*
X4596246Y583694D1*
X4593432Y580943D1*
X4590358Y578486D1*
X4587055Y576347D1*
X4583556Y574546D1*
X4579895Y573103D1*
X4578566Y572690D1*
X4471694Y465822D1*
X4470263Y464470D1*
X4468764Y463196D1*
X4467199Y462001D1*
X4465574Y460890D1*
X4463894Y459866D1*
X4462161Y458931D1*
X4460383Y458089D1*
X4458562Y457340D1*
X4456705Y456688D1*
X4454816Y456135D1*
X4452901Y455680D1*
X4450965Y455327D1*
X4449012Y455076D1*
X4445197Y454882D1*
X4012626D1*
X4009179Y453920D1*
X4005305Y453230D1*
X4001381Y452928D1*
X3997447Y453018D1*
X3993541Y453498D1*
X3989702Y454365D1*
X3985968Y455609D1*
X3982377Y457218D1*
X3978963Y459176D1*
X3975761Y461464D1*
X3972803Y464059D1*
X3970117Y466936D1*
X3967731Y470065D1*
X3965667Y473416D1*
X3963947Y476955D1*
X3962587Y480649D1*
X3961602Y484458D1*
X3961000Y488348D1*
X3960788Y492277D1*
X3960967Y496208D1*
X3961537Y500102D1*
X3962491Y503920D1*
X3963820Y507625D1*
X3965511Y511178D1*
X3967546Y514546D1*
X3969907Y517695D1*
X3972569Y520594D1*
X3975506Y523213D1*
X3978689Y525528D1*
X3982086Y527514D1*
X3985664Y529153D1*
X3989387Y530428D1*
X3993218Y531326D1*
X3997120Y531839D1*
X4001054Y531962D1*
X4004980Y531692D1*
X4008860Y531034D1*
X4012633Y530000D1*
X4429641D1*
X4536749Y637109D1*
X4538177Y638464D1*
X4539673Y639743D1*
X4541235Y640941D1*
X4542857Y642055D1*
X4546108Y643941D1*
X4549015Y645624D1*
X4552593Y647263D1*
X4556316Y648538D1*
X4560147Y649436D1*
X4564049Y649949D1*
X4567983Y650072D1*
X4571909Y649803D1*
X4575789Y649144D1*
X4579584Y648103D1*
X4583257Y646690D1*
X4586771Y644919D1*
X4590092Y642807D1*
X4593186Y640375D1*
X4596023Y637648D1*
X4598575Y634652D1*
X4600816Y631417D1*
X4602724Y627975D1*
X4604281Y624361D1*
X4605471Y620609D1*
X4606281Y616758D1*
X4606705Y612846D1*
X4606772Y610551D1*
X4606723Y608583D1*
X1789974Y805321D2*
X1787667Y805488D1*
X1785716Y805748D1*
X1783781Y806110D1*
X1781868Y806573D1*
X1779982Y807135D1*
X1776857Y808325D1*
X1776851Y690708D1*
X1654488D1*
Y750559D1*
X1580619Y750551D1*
X1763769Y567397D1*
X1857145Y567402D1*
X1856784Y569025D1*
X1856614Y571185D1*
Y622601D1*
X1841890Y622598D1*
Y744960D1*
X1850325D1*
X1789976Y805315D1*
X1821287Y1021969D2*
X1821132Y1020007D1*
X1820875Y1018056D1*
X1820516Y1016121D1*
X1820056Y1014207D1*
X1819497Y1012320D1*
X1818839Y1010465D1*
X1818085Y1008646D1*
X1817237Y1006870D1*
X1816297Y1005141D1*
X1815268Y1003463D1*
X1814152Y1001842D1*
X1812953Y1000281D1*
X1811673Y998785D1*
X1810317Y997358D1*
X1808889Y996005D1*
X1807391Y994728D1*
X1805828Y993531D1*
X1804205Y992418D1*
X1802526Y991391D1*
X1800795Y990453D1*
X1799018Y989608D1*
X1797198Y988857D1*
X1795342Y988202D1*
X1793454Y987645D1*
X1791540Y987188D1*
X1789604Y986832D1*
X1787652Y986578D1*
X1785690Y986427D1*
X1783722Y986378D1*
X1781755Y986433D1*
X1779793Y986590D1*
X1776852Y987036D1*
X1776851Y905992D1*
X2177457Y905984D1*
X2179103Y905937D1*
X2181062Y905752D1*
X2183003Y905429D1*
X2184917Y904968D1*
X2186793Y904373D1*
X2188622Y903646D1*
X2190395Y902792D1*
X2192102Y901814D1*
X2193736Y900717D1*
X2195289Y899506D1*
X2197079Y897866D1*
X2253958Y840987D1*
X2256385Y840799D1*
X2258335Y840533D1*
X2260269Y840165D1*
X2262180Y839696D1*
X2264065Y839128D1*
X2265917Y838462D1*
X2267731Y837700D1*
X2269504Y836843D1*
X2271229Y835895D1*
X2272902Y834858D1*
X2274518Y833735D1*
X2276073Y832529D1*
X2277563Y831243D1*
X2278984Y829880D1*
X2280331Y828445D1*
X2281601Y826942D1*
X2283624Y824146D1*
X2283622Y1224724D1*
X2283692Y1226691D1*
X2283901Y1228648D1*
X2284249Y1230585D1*
X2284733Y1232493D1*
X2285351Y1234361D1*
X2286101Y1236181D1*
X2286977Y1237943D1*
X2287977Y1239639D1*
X2289094Y1241259D1*
X2290323Y1242796D1*
X2293132Y1245715D1*
X2331655Y1284238D1*
X2331654Y1300556D1*
X2288573Y1300551D1*
X2204968Y1216951D1*
X2203772Y1215823D1*
X2202256Y1214568D1*
X2200655Y1213424D1*
X2198976Y1212397D1*
X2197229Y1211491D1*
X2195422Y1210712D1*
X2193564Y1210062D1*
X2191664Y1209547D1*
X2189733Y1209167D1*
X2187780Y1208925D1*
X2185354Y1208819D1*
X1933055D1*
X1811500Y1087263D1*
X1811496Y1049289D1*
X1813097Y1047414D1*
X1814287Y1045846D1*
X1815392Y1044218D1*
X1816412Y1042534D1*
X1817341Y1040799D1*
X1818178Y1039017D1*
X1818921Y1037195D1*
X1819567Y1035335D1*
X1820115Y1033445D1*
X1820563Y1031528D1*
X1820911Y1029591D1*
X1821156Y1027638D1*
X1821339Y1023937D1*
X1821287Y1021969D1*
X3116563Y766064D2*
X3116408Y764102D1*
X3116151Y762150D1*
X3115792Y760215D1*
X3115332Y758301D1*
X3114772Y756414D1*
X3114115Y754559D1*
X3113361Y752741D1*
X3112513Y750965D1*
X3111573Y749235D1*
X3110543Y747558D1*
X3109428Y745936D1*
X3108228Y744375D1*
X3106949Y742880D1*
X3105593Y741453D1*
X3104164Y740099D1*
X3102666Y738822D1*
X3101104Y737625D1*
X3099481Y736512D1*
X3097801Y735485D1*
X3096071Y734548D1*
X3094293Y733702D1*
X3092474Y732951D1*
X3090618Y732297D1*
X3088730Y731740D1*
X3086815Y731283D1*
X3084880Y730927D1*
X3082928Y730673D1*
X3080965Y730521D1*
X3078998Y730472D1*
X3077030Y730527D1*
X3075068Y730685D1*
X3073117Y730945D1*
X3071182Y731307D1*
X3069269Y731770D1*
X3067383Y732332D1*
X3065529Y732993D1*
X3063712Y733749D1*
X3061937Y734600D1*
X3060209Y735543D1*
X3058533Y736575D1*
X3056913Y737693D1*
X3055354Y738895D1*
X3053861Y740176D1*
X3052436Y741534D1*
X3051084Y742965D1*
X3049810Y744465D1*
X3048615Y746029D1*
X3047504Y747654D1*
X3046480Y749335D1*
X3045545Y751067D1*
X3044703Y752846D1*
X3043954Y754666D1*
X3043302Y756524D1*
X3042749Y758412D1*
X3042295Y760328D1*
X3041925Y762394D1*
X3039845Y762773D1*
X3039843Y710276D1*
X3145314Y604805D1*
X3151728Y604803D1*
X3151732Y606772D1*
X3274095D1*
Y466856D1*
X3521807Y466851D1*
X3521811Y543457D1*
X3508189Y543465D1*
X3506222Y543534D1*
X3504265Y543744D1*
X3502328Y544091D1*
X3500420Y544575D1*
X3498552Y545194D1*
X3496732Y545943D1*
X3494970Y546820D1*
X3493275Y547819D1*
X3491654Y548937D1*
X3490118Y550166D1*
X3487198Y552974D1*
X3461031Y579142D1*
X3459690Y580582D1*
X3458454Y582113D1*
X3457330Y583729D1*
X3456324Y585420D1*
X3455440Y587179D1*
X3454683Y588995D1*
X3454057Y590861D1*
X3453565Y592767D1*
X3453209Y594703D1*
X3452992Y596659D1*
X3452913Y600709D1*
Y662063D1*
X3280171Y834805D1*
X3153528Y834803D1*
X3109182Y790457D1*
X3110668Y788312D1*
X3111687Y786628D1*
X3112617Y784893D1*
X3113454Y783112D1*
X3114197Y781289D1*
X3114843Y779430D1*
X3115391Y777539D1*
X3115839Y775623D1*
X3116186Y773685D1*
X3116431Y771733D1*
X3116614Y768031D1*
X3116563Y766064D1*
X4345630Y833150D2*
Y878118D1*
X3976362Y878110D1*
X3931417Y833150D1*
X4345626D1*
X3720769Y878113D2*
X3763767Y835115D1*
X3854976Y835118D1*
X3917638Y897795D1*
X3791323D1*
X3779756Y886228D1*
X3778316Y884887D1*
X3776784Y883651D1*
X3775169Y882527D1*
X3773477Y881521D1*
X3771719Y880637D1*
X3769902Y879880D1*
X3768036Y879254D1*
X3766131Y878762D1*
X3764195Y878406D1*
X3762239Y878188D1*
X3758189Y878110D1*
X3720764D1*
X4856597Y891891D2*
X4921247Y827242D1*
X5193559Y827244D1*
X5258189Y891890D1*
X4856606D1*
X897761Y1053622D2*
X960783D1*
X960787Y1139921D1*
X891890D1*
Y1204889D1*
X791677Y1204882D1*
X790031Y1204929D1*
X788072Y1205114D1*
X786130Y1205438D1*
X784217Y1205898D1*
X782341Y1206493D1*
X780512Y1207220D1*
X778739Y1208075D1*
X777031Y1209053D1*
X775397Y1210150D1*
X773845Y1211360D1*
X772055Y1213000D1*
X579385Y1405670D1*
X522714Y1405669D1*
X521378Y1403462D1*
X519130Y1400232D1*
X516643Y1397181D1*
X513932Y1394327D1*
X511012Y1391688D1*
X507900Y1389278D1*
X504614Y1387111D1*
X501173Y1385200D1*
X497597Y1383556D1*
X493906Y1382188D1*
X491319Y1381422D1*
X495073Y1380249D1*
X498730Y1378793D1*
X502266Y1377064D1*
X505661Y1375072D1*
X508894Y1372827D1*
X511948Y1370344D1*
X514805Y1367636D1*
X517447Y1364719D1*
X519861Y1361609D1*
X520484Y1360704D1*
X575118Y1360709D1*
X577086Y1360657D1*
X579048Y1360503D1*
X580999Y1360245D1*
X582935Y1359886D1*
X584848Y1359427D1*
X586735Y1358867D1*
X588591Y1358209D1*
X590409Y1357455D1*
X592185Y1356607D1*
X593914Y1355667D1*
X595592Y1354638D1*
X597213Y1353522D1*
X598774Y1352323D1*
X600276Y1351038D1*
X604460Y1346924D1*
X897763Y1053621D1*
X6372760Y553596D2*
X6490075D1*
X6372760Y549790D2*
X6490075D1*
X6372760Y545984D2*
X6490075D1*
X6372760Y542178D2*
X6490075D1*
X6372760Y538373D2*
X6490075D1*
X6372760Y534567D2*
X6490075D1*
X6372760Y530761D2*
X6490075D1*
X6372760Y526955D2*
X6490075D1*
X6372760Y523150D2*
X6490075D1*
X6372760Y519344D2*
X6490075D1*
X6372760Y515538D2*
X6490075D1*
X6372760Y511732D2*
X6490075D1*
X6372760Y507927D2*
X6490075D1*
X6372760Y504121D2*
X6490075D1*
X6372760Y500315D2*
X6490075D1*
X6372760Y496509D2*
X6490075D1*
X6372760Y492703D2*
X6490075D1*
X6372760Y488898D2*
X6490075D1*
X6372760Y485092D2*
X6490075D1*
X6372760Y481286D2*
X6490075D1*
X6372760Y477480D2*
X6490075D1*
X6372760Y473675D2*
X6490075D1*
X6372760Y469869D2*
X6490075D1*
X6372760Y466063D2*
X6490075D1*
X6372760Y462257D2*
X6490075D1*
X6372760Y458451D2*
X6490075D1*
X6372760Y454646D2*
X6490075D1*
X6372760Y450840D2*
X6490075D1*
X6372760Y447034D2*
X6490075D1*
X6372760Y443228D2*
X6490075D1*
X6372760Y439423D2*
X6490075D1*
X6490472Y439299D2*
Y557394D1*
X6372370Y557402D1*
X6372362Y439299D1*
X6490465Y439291D1*
X6183783Y738766D2*
X6210547D1*
X6183783Y734961D2*
X6210547D1*
X6183783Y731155D2*
X6210547D1*
X6183783Y727349D2*
X6210547D1*
X6183783Y723543D2*
X6210547D1*
X6183783Y719738D2*
X6210547D1*
X6210937Y742441D2*
X6183394D1*
X6183386Y718827D1*
X6210937Y718819D1*
X6210945Y742433D1*
D22*
X1421575Y1256220D3*
Y1331024D3*
X1492441Y1256220D3*
Y1331024D3*
D23*
X1555433Y1268031D3*
Y1327087D3*
X3803465Y523937D3*
X3744409D3*
X1421575Y1102677D3*
X1480630D3*
X1441260Y933386D3*
Y874331D3*
X3488504Y1362520D3*
X3547559D3*
X3228661D3*
X3287717D3*
D24*
X4551496Y988504D3*
X4626299D3*
D22*
X4291654Y712913D3*
Y787717D3*
D23*
X1071181Y1059370D3*
Y1118425D3*
D24*
X4551496Y1059370D3*
X4626299D3*
D23*
X929449Y1118425D3*
Y1177480D3*
D25*
X5909764Y1098740D3*
Y988504D3*
X6004252Y1098740D3*
Y988504D3*
X6098740Y1098740D3*
Y988504D3*
X6193228Y1098740D3*
Y988504D3*
D26*
X5795591Y673543D3*
X5862520D3*
X5795591Y838898D3*
X5862520D3*
X5795591Y783780D3*
X5862520D3*
D27*
X6271969Y539685D3*
Y606614D3*
D23*
X6358583Y708976D3*
X6299528D3*
D28*
X6063307Y1736535D3*
Y1909764D3*
X6236535Y1736535D3*
Y1909764D3*
D29*
X5256220Y1342835D3*
X5334961D3*
X5445197D3*
X5523937D3*
D30*
X7102677Y1240472D3*
Y1374331D3*
D32*
Y1075118D3*
Y917643D3*
X6429449Y1894016D3*
Y1736541D3*
D33*
X3828268Y1338898D3*
X4228268D3*
X4128268D3*
X4028268D3*
X3928268D3*
D34*
X3728268D3*
D35*
X4328268Y1337717D3*
X4428268D3*
X4828268Y1338898D3*
X4728268D3*
D36*
X472756Y1531417D3*
Y1631417D3*
Y1331417D3*
Y1431417D3*
Y1131417D3*
Y1031417D3*
Y1231417D3*
Y684567D3*
Y484567D3*
Y584567D3*
D35*
X2812520Y866457D3*
X2712520D3*
X5162126D3*
X5062126D3*
D36*
X7401890Y1531417D3*
Y1631417D3*
Y1331417D3*
Y1431417D3*
Y1131417D3*
Y1031417D3*
Y1231417D3*
Y684961D3*
Y484567D3*
Y584567D3*
D38*
X3010157Y870394D3*
D39*
X3797559D3*
D35*
X5028268Y1338898D3*
X5128268D3*
X4928268D3*
D41*
X6433386Y811339D3*
X6531811D3*
X6630236D3*
X6728661D3*
X6827087D3*
X6925512D3*
Y1610551D3*
X6827087D3*
X6728661D3*
X6630236D3*
X6527874D3*
X6429449D3*
D42*
X6480630Y657795D3*
D43*
X6728661Y567244D3*
D42*
X6480630Y476693D3*
D44*
X520000Y1842835D3*
Y846772D3*
X7354646Y1842835D3*
Y846772D3*
D45*
X2000315Y1082992D3*
D47*
X2905827Y1094803D3*
Y1020000D3*
X2996378Y1057402D3*
X2909764Y1283780D3*
Y1208976D3*
X3000315Y1246378D3*
D23*
X3803465Y626299D3*
X3744409D3*
X2976693Y551496D3*
X3035748D3*
X2976693Y500315D3*
X3035748D3*
X3803465Y575118D3*
X3744409D3*
X3803465Y472756D3*
X3744409D3*
X1421575Y1153858D3*
X1480630D3*
X1504252Y933386D3*
Y874331D3*
X2823150Y1094803D3*
X2764094D3*
X2823150Y1283780D3*
X2764094D3*
X5256220Y1268031D3*
Y1208976D3*
X5445197Y1268031D3*
Y1208976D3*
X1086929Y1311339D3*
X1027874D3*
X4827087Y1205039D3*
Y1145984D3*
D26*
X5795591Y618425D3*
X5862520D3*
X6126299Y870394D3*
X6193228D3*
D27*
X5933386Y775906D3*
Y842835D3*
X6390079Y606614D3*
Y539685D3*
D48*
X6275906Y468819D3*
X6386142D3*
X5819213Y1894016D3*
X5929449D3*
D27*
X5819213Y1728661D3*
Y1795591D3*
D26*
X5795591Y728661D3*
X5862520D3*
D50*
X5819213Y1488504D3*
D51*
X5773937Y1602677D3*
D50*
X5728661Y1488504D3*
D52*
X3441260Y1271969D3*
Y1023937D3*
X3590866D3*
Y1271969D3*
X3181417D3*
Y1023937D3*
X3331024D3*
Y1271969D3*
D35*
X4528268Y1338898D3*
X4628268D3*
D53*
X1715669Y1378268D3*
Y1328268D3*
Y1278268D3*
Y1228268D3*
Y1178268D3*
Y1128268D3*
Y1078268D3*
Y1028268D3*
Y978268D3*
Y928268D3*
Y878268D3*
Y828268D3*
Y778268D3*
Y728268D3*
D54*
X1829449Y683780D3*
X1879449D3*
X1929449D3*
X1979449D3*
X2029449D3*
X2079449D3*
X2129449D3*
X2179449D3*
X2229449D3*
X2279449D3*
D53*
X2392835Y728268D3*
Y778268D3*
Y828268D3*
Y878268D3*
Y928268D3*
Y978268D3*
Y1028268D3*
Y1078268D3*
Y1128268D3*
Y1178268D3*
Y1228268D3*
Y1278268D3*
Y1328268D3*
Y1378268D3*
D55*
X2010945Y1081417D3*
D56*
X3582992Y473150D3*
Y523150D3*
Y573150D3*
Y623150D3*
Y673150D3*
Y723150D3*
Y773150D3*
Y823150D3*
X3212913D3*
Y773150D3*
Y723150D3*
Y673150D3*
Y623150D3*
Y573150D3*
Y523150D3*
Y473150D3*
D58*
X4638110Y705039D3*
Y795591D3*
Y886142D3*
D59*
X4409764Y795591D3*
D62*
X1071181Y1181417D3*
Y1207008D3*
Y1232598D3*
X988504Y1181417D3*
Y1232598D3*
Y1207008D3*
D64*
X6023937Y716850D3*
Y697165D3*
Y677480D3*
Y657795D3*
Y638110D3*
X6197165D3*
Y657795D3*
Y677480D3*
Y697165D3*
Y716850D3*
D65*
X6110551Y677480D3*
M02*
