M48
INCH
T01C0.0118
T02C0.0157
T03C0.0197
T04C0.033
T05C0.034
T06C0.0461
T07C0.0591
T08C0.0984
T09C0.1102
%
T01
X+060948Y+007050
X+060948Y+006775
X+060948Y+006499
X+061263Y+006499
X+061263Y+006775
X+061263Y+007050
T02
X+004550Y+018838
X+005200Y+019192
X+005850Y+018838
X+005850Y+018050
X+005200Y+017657
X+004550Y+018050
X+008901Y+011145
X+010318Y+010554
X+011106Y+011184
X+011106Y+012011
X+010869Y+012720
X+013704Y+012523
X+014098Y+012090
X+014491Y+012090
X+014885Y+012090
X+015279Y+012090
X+013822Y+011539
X+013822Y+011027
X+014019Y+009334
X+015436Y+009334
X+015751Y+009806
X+015751Y+010279
X+017838Y+010239
X+017917Y+008428
X+018271Y+005791
X+022523Y+008035
X+025161Y+007720
X+026420Y+007680
X+026617Y+008035
X+026342Y+008861
X+026342Y+010161
X+026302Y+011381
X+026578Y+012247
X+027247Y+012050
X+028468Y+011420
X+030594Y+012090
X+030830Y+011499
X+031893Y+011460
X+031381Y+012680
X+030869Y+013113
X+031578Y+013468
X+032247Y+012759
X+033980Y+012680
X+034846Y+012759
X+036499Y+013428
X+036617Y+013035
X+033980Y+010200
X+031381Y+010161
X+031499Y+008231
X+031499Y+007720
X+031499Y+007247
X+031499Y+006735
X+031499Y+006224
X+030869Y+004964
X+029176Y+004964
X+029649Y+007680
X+029413Y+008035
X+030476Y+007995
X+030791Y+007680
X+036460Y+007720
X+036460Y+007247
X+036460Y+006735
X+036460Y+008231
X+036775Y+005239
X+038428Y+005318
X+042326Y+006814
X+042326Y+007208
X+044570Y+009413
X+045515Y+011145
X+045200Y+011499
X+044885Y+011854
X+045672Y+012169
X+047287Y+009964
X+047247Y+008822
X+047720Y+008822
X+047917Y+007050
X+047917Y+006617
X+047523Y+006617
X+047129Y+006617
X+048271Y+011066
X+049058Y+011420
X+048901Y+011854
X+049294Y+012208
X+052562Y+011696
X+054452Y+011696
X+058192Y+010948
X+058940Y+011460
X+059334Y+011460
X+059728Y+011460
X+060121Y+011460
X+060515Y+011460
X+060909Y+011460
X+061302Y+011460
X+061696Y+011460
X+062090Y+011460
X+061932Y+009176
X+061972Y+007483
X+062287Y+005318
X+062287Y+004924
X+062287Y+004531
X+060239Y+006066
X+059176Y+007208
X+057483Y+007326
X+057483Y+006932
X+057483Y+006539
X+057483Y+006145
X+057483Y+007720
X+057483Y+008113
X+057483Y+008507
X+060082Y+016893
X+060476Y+016893
X+060869Y+016893
X+061263Y+016893
X+061657Y+016893
X+062050Y+016893
X+062444Y+016893
X+062838Y+016893
X+072897Y+018050
X+073546Y+017657
X+074196Y+018050
X+074196Y+018838
X+073546Y+019192
X+072897Y+018838
X+073546Y+009231
X+072897Y+008877
X+072897Y+008090
X+073546Y+007696
X+074196Y+008090
X+074196Y+008877
X+025751Y+012287
X+025082Y+011381
X+023507Y+013783
X+021735Y+012798
X+017602Y+013783
X+007483Y+008743
X+007483Y+007917
X+005850Y+008090
X+005200Y+007696
X+004550Y+008090
X+004550Y+008877
X+005200Y+009231
X+005850Y+008877
T03
X+039098Y+004413
X+040003Y+004924
X+040554Y+005909
X+042129Y+005909
X+043704Y+005909
X+045672Y+006106
X+046066Y+004728
X+047641Y+004728
X+049216Y+004728
X+045672Y+008861
X+045003Y+009806
X+045003Y+010239
X+045003Y+010672
X+043153Y+008586
X+041578Y+008586
X+040003Y+008586
X+039098Y+007956
X+039098Y+010672
X+037641Y+012326
X+029767Y+004413
X+027050Y+004924
X+021657Y+009452
X+021657Y+011027
X+020082Y+009452
X+018507Y+009452
X+017405Y+006342
X+014216Y+004924
X+013113Y+004924
X+013665Y+007562
X+012405Y+009255
X+012405Y+010515
X+010830Y+009255
X+009885Y+010161
X+009255Y+009255
X+009885Y+007602
X+007090Y+015161
X+007090Y+016735
X+007090Y+018310
X+016066Y+013271
X+056696Y+012602
X+056696Y+014176
X+056696Y+015751
X+056696Y+017326
X+056696Y+018901
X+059058Y+014964
X+060633Y+014964
X+062208Y+014964
X+062208Y+013389
X+060633Y+013389
X+059058Y+013389
X+056696Y+011027
X+057090Y+004728
X+058665Y+004728
X+060239Y+004728
X+063704Y+007562
X+063704Y+007995
X+063704Y+008428
X+063704Y+008861
X+064176Y+009058
X+064609Y+009058
T04
X+038283Y+013389
X+039283Y+013389
X+040283Y+013389
X+041283Y+013389
X+042283Y+013389
X+037283Y+013389
T05
X+043283Y+013377
X+044283Y+013377
X+045283Y+013389
X+046283Y+013389
X+047283Y+013389
X+048283Y+013389
X+049283Y+013389
X+050283Y+013389
X+051283Y+013389
X+051621Y+008665
X+050621Y+008665
X+028125Y+008665
X+027125Y+008665
X+004728Y+010314
X+004728Y+011314
X+004728Y+012314
X+004728Y+013314
X+004728Y+014314
X+004728Y+015314
X+004728Y+016314
X+004728Y+006846
X+004728Y+005846
X+004728Y+004846
X+074019Y+004846
X+074019Y+005846
X+074019Y+006850
X+074019Y+010314
X+074019Y+011314
X+074019Y+012314
X+074019Y+013314
X+074019Y+014314
X+074019Y+015314
X+074019Y+016314
T06
X+037976Y+008704
T07
X+030102Y+008704
T08
X+020003Y+010830
T09
X+005200Y+018428
X+005200Y+008468
X+073546Y+008468
X+073546Y+018428
T00
M30
