M48
INCH
T01C0.0157
T02C0.0315
T03C0.034
T04C0.1102
%
T01
X+004550Y+018838
X+005200Y+019192
X+005850Y+018838
X+005850Y+018050
X+005200Y+017657
X+004550Y+018050
X+008546Y+018058
X+010279Y+018428
X+012680Y+018058
X+014649Y+015932
X+015200Y+016420
X+016145Y+016420
X+017106Y+014515
X+017106Y+012743
X+016145Y+012838
X+015200Y+012326
X+014649Y+012468
X+014649Y+014200
X+012326Y+012995
X+012326Y+012523
X+011539Y+011854
X+010515Y+011854
X+009846Y+011066
X+010476Y+010554
X+010869Y+010554
X+011086Y+009102
X+011224Y+008609
X+012050Y+008609
X+012405Y+008940
X+012759Y+008649
X+013350Y+009515
X+012365Y+011027
X+010082Y+009161
X+009806Y+009476
X+010121Y+008688
X+008625Y+008609
X+008113Y+008609
X+007877Y+009554
X+007129Y+008609
X+005850Y+008877
X+005200Y+009231
X+004550Y+008877
X+004550Y+008090
X+005200Y+007696
X+005850Y+008090
X+007129Y+006956
X+006854Y+006641
X+007444Y+007271
X+008665Y+006562
X+009137Y+006720
X+009649Y+006720
X+010003Y+006917
X+010633Y+005239
X+009609Y+004846
X+007641Y+005239
X+006224Y+005909
X+007326Y+010972
X+007326Y+012743
X+007326Y+014515
X+009570Y+013665
X+009491Y+012050
X+011617Y+014964
X+017106Y+010972
X+017657Y+009554
X+017893Y+008609
X+018405Y+008609
X+019586Y+009476
X+019861Y+009161
X+019901Y+008688
X+020865Y+009102
X+021003Y+008609
X+021830Y+008609
X+022184Y+008940
X+022539Y+008649
X+023507Y+008665
X+023980Y+008625
X+024531Y+009019
X+024924Y+008665
X+024901Y+007759
X+024940Y+006814
X+024389Y+006696
X+023995Y+007310
X+023523Y+007192
X+023169Y+006972
X+023011Y+006602
X+022499Y+006483
X+022184Y+007310
X+021751Y+007310
X+019783Y+006917
X+019428Y+006720
X+018917Y+006720
X+018444Y+006562
X+017224Y+007271
X+016909Y+006956
X+016633Y+006641
X+015161Y+006814
X+014609Y+006696
X+014216Y+007310
X+013743Y+007192
X+013389Y+006972
X+013231Y+006602
X+012720Y+006483
X+012405Y+007310
X+011972Y+007310
X+011854Y+004846
X+013743Y+004846
X+014728Y+005239
X+015121Y+007759
X+016909Y+008609
X+017420Y+005239
X+019389Y+004846
X+020413Y+005239
X+021633Y+004846
X+023523Y+004846
X+024507Y+005239
X+023129Y+009515
X+022145Y+011027
X+021318Y+011854
X+020294Y+011854
X+019625Y+011066
X+020255Y+010554
X+020649Y+010554
X+019271Y+012050
X+019350Y+013665
X+021397Y+014964
X+022106Y+012995
X+022106Y+012523
X+024428Y+012468
X+024980Y+012326
X+024428Y+014200
X+024428Y+015932
X+024924Y+018074
X+025948Y+018113
X+028192Y+017326
X+027602Y+014491
X+027602Y+013783
X+026224Y+014137
X+027680Y+010003
X+030625Y+008609
X+031609Y+008609
X+032121Y+008609
X+031373Y+009554
X+030822Y+010972
X+030822Y+012743
X+030822Y+014515
X+033066Y+013665
X+032987Y+012050
X+034011Y+011854
X+035035Y+011854
X+035822Y+012523
X+035822Y+012995
X+035861Y+011027
X+034365Y+010554
X+033972Y+010554
X+033342Y+011066
X+033302Y+009476
X+033578Y+009161
X+033617Y+008688
X+034582Y+009102
X+034720Y+008609
X+035546Y+008609
X+035901Y+008940
X+036255Y+008649
X+036846Y+009515
X+037239Y+007192
X+036885Y+006972
X+036728Y+006602
X+036216Y+006483
X+035901Y+007310
X+035468Y+007310
X+033499Y+006917
X+033145Y+006720
X+032633Y+006720
X+032161Y+006562
X+030940Y+007271
X+030625Y+006956
X+030350Y+006641
X+031137Y+005239
X+033106Y+004846
X+034129Y+005239
X+035350Y+004846
X+037239Y+004846
X+038224Y+005239
X+038106Y+006696
X+038657Y+006814
X+038617Y+007759
X+037712Y+007310
X+040129Y+006641
X+040405Y+006956
X+040720Y+007271
X+040405Y+008609
X+041389Y+008609
X+041901Y+008609
X+041153Y+009554
X+040602Y+010972
X+040602Y+012743
X+039641Y+012838
X+038696Y+012326
X+038145Y+012468
X+038145Y+014200
X+038145Y+015932
X+038696Y+016420
X+039641Y+016420
X+040602Y+014515
X+042846Y+013665
X+042767Y+012050
X+043791Y+011854
X+044814Y+011854
X+045602Y+012523
X+045602Y+012995
X+045641Y+011027
X+044145Y+010554
X+043751Y+010554
X+043121Y+011066
X+043082Y+009476
X+043357Y+009161
X+043397Y+008688
X+044361Y+009102
X+044499Y+008609
X+045326Y+008609
X+045680Y+008940
X+046035Y+008649
X+047003Y+008665
X+047476Y+008625
X+048027Y+009019
X+048420Y+008665
X+048397Y+007759
X+048436Y+006814
X+047885Y+006696
X+047491Y+007310
X+047019Y+007192
X+046665Y+006972
X+046507Y+006602
X+045995Y+006483
X+045680Y+007310
X+045247Y+007310
X+043279Y+006917
X+042924Y+006720
X+042413Y+006720
X+041940Y+006562
X+040917Y+005239
X+042885Y+004846
X+043909Y+005239
X+045129Y+004846
X+047019Y+004846
X+048003Y+005239
X+046625Y+009515
X+047924Y+012468
X+048476Y+012326
X+047924Y+014200
X+047924Y+015932
X+048428Y+018074
X+049452Y+018113
X+051688Y+017326
X+051098Y+014491
X+051098Y+013783
X+049720Y+014137
X+051176Y+010003
X+054121Y+008609
X+055106Y+008609
X+055617Y+008609
X+054869Y+009554
X+054318Y+010972
X+054318Y+012743
X+054318Y+014515
X+056562Y+013665
X+056483Y+012050
X+057507Y+011854
X+058531Y+011854
X+059318Y+012523
X+059318Y+012995
X+059357Y+011027
X+057861Y+010554
X+057468Y+010554
X+056838Y+011066
X+056798Y+009476
X+057074Y+009161
X+057113Y+008688
X+058078Y+009102
X+058216Y+008609
X+059043Y+008609
X+059397Y+008940
X+059751Y+008649
X+060342Y+009515
X+060735Y+007192
X+060381Y+006972
X+060224Y+006602
X+059712Y+006483
X+059397Y+007310
X+058964Y+007310
X+056995Y+006917
X+056641Y+006720
X+056129Y+006720
X+055657Y+006562
X+054436Y+007271
X+054121Y+006956
X+053846Y+006641
X+054633Y+005239
X+056602Y+004846
X+057625Y+005239
X+058846Y+004846
X+060735Y+004846
X+061720Y+005239
X+061602Y+006696
X+062153Y+006814
X+062113Y+007759
X+061208Y+007310
X+063625Y+006641
X+063901Y+006956
X+064216Y+007271
X+063901Y+008609
X+064885Y+008609
X+065397Y+008609
X+064649Y+009554
X+064098Y+010972
X+064098Y+012743
X+063137Y+012838
X+062192Y+012326
X+061641Y+012468
X+061641Y+014200
X+061641Y+015932
X+062192Y+016420
X+063137Y+016420
X+064098Y+014515
X+066342Y+013665
X+066263Y+012050
X+067287Y+011854
X+068310Y+011854
X+069098Y+012523
X+069098Y+012995
X+069137Y+011027
X+067641Y+010554
X+067247Y+010554
X+066617Y+011066
X+066578Y+009476
X+066854Y+009161
X+066893Y+008688
X+067857Y+009102
X+067995Y+008609
X+068822Y+008609
X+069176Y+008940
X+069531Y+008649
X+070121Y+009515
X+070515Y+007192
X+070161Y+006972
X+070003Y+006602
X+069491Y+006483
X+069176Y+007310
X+068743Y+007310
X+066775Y+006917
X+066420Y+006720
X+065909Y+006720
X+065436Y+006562
X+064413Y+005239
X+066381Y+004846
X+067405Y+005239
X+068625Y+004846
X+070515Y+004846
X+071499Y+005239
X+072602Y+005239
X+071932Y+006814
X+071381Y+006696
X+070987Y+007310
X+071893Y+007759
X+072897Y+008090
X+073546Y+007696
X+074196Y+008090
X+074196Y+008877
X+073546Y+009231
X+072897Y+008877
X+071972Y+012326
X+071420Y+012468
X+071420Y+014200
X+071420Y+015932
X+071854Y+016145
X+072917Y+015318
X+073011Y+013271
X+073546Y+017657
X+072897Y+018050
X+072897Y+018838
X+073546Y+019192
X+074196Y+018838
X+074196Y+018050
X+069452Y+018058
X+067050Y+018428
X+065318Y+018058
X+068389Y+014964
X+059672Y+018058
X+057271Y+018428
X+055539Y+018058
X+058609Y+014964
X+045956Y+018058
X+043554Y+018428
X+041822Y+018058
X+044893Y+014964
X+036176Y+018058
X+033775Y+018428
X+032043Y+018058
X+035113Y+014964
X+022460Y+018058
X+020058Y+018428
X+018326Y+018058
T02
X+026641Y+015420
X+028609Y+015420
X+032220Y+015224
X+032909Y+016602
X+034483Y+016995
X+036058Y+016602
X+036747Y+015224
X+036747Y+013452
X+036747Y+011680
X+036058Y+010302
X+034483Y+009909
X+032909Y+010302
X+032220Y+011680
X+032220Y+013452
X+028609Y+011483
X+026641Y+011483
X+023031Y+011680
X+022342Y+010302
X+020767Y+009909
X+019192Y+010302
X+018503Y+011680
X+018503Y+013452
X+018503Y+015224
X+019192Y+016602
X+020767Y+016995
X+022342Y+016602
X+023031Y+015224
X+023031Y+013452
X+013251Y+013452
X+013251Y+015224
X+012562Y+016602
X+010987Y+016995
X+009413Y+016602
X+008724Y+015224
X+008724Y+013452
X+008724Y+011680
X+009413Y+010302
X+010987Y+009909
X+012562Y+010302
X+013251Y+011680
X+041999Y+011680
X+042688Y+010302
X+044263Y+009909
X+045838Y+010302
X+046527Y+011680
X+046527Y+013452
X+046527Y+015224
X+045838Y+016602
X+044263Y+016995
X+042688Y+016602
X+041999Y+015224
X+041999Y+013452
X+050137Y+011483
X+052106Y+011483
X+055716Y+011680
X+056405Y+010302
X+057980Y+009909
X+059554Y+010302
X+060243Y+011680
X+060243Y+013452
X+060243Y+015224
X+059554Y+016602
X+057980Y+016995
X+056405Y+016602
X+055716Y+015224
X+055716Y+013452
X+052106Y+015420
X+050137Y+015420
X+065495Y+015224
X+066184Y+016602
X+067759Y+016995
X+069334Y+016602
X+070023Y+015224
X+070023Y+013452
X+070023Y+011680
X+069334Y+010302
X+067759Y+009909
X+066184Y+010302
X+065495Y+011680
X+065495Y+013452
T03
X+004728Y+015314
X+004728Y+016314
X+004728Y+014314
X+004728Y+013314
X+004728Y+012314
X+004728Y+011314
X+004728Y+010314
X+004728Y+006846
X+004728Y+005846
X+004728Y+004846
X+027125Y+008665
X+028125Y+008665
X+050621Y+008665
X+051621Y+008665
X+074019Y+010314
X+074019Y+011314
X+074019Y+012314
X+074019Y+013314
X+074019Y+014314
X+074019Y+015314
X+074019Y+016314
X+074019Y+006850
X+074019Y+005846
X+074019Y+004846
T04
X+005200Y+018428
X+005200Y+008468
X+073546Y+008468
X+073546Y+018428
T00
M30
