G04 DipTrace 3.1.0.1*
G04 Top-Clock-IN12c.BottomDimension.gbr*
%MOIN*%
G04 #@! TF.FileFunction,Drawing,Bot*
G04 #@! TF.Part,Single*
%ADD13C,0.001378*%
%ADD63C,0.006176*%
%FSLAX26Y26*%
G04*
G70*
G90*
G75*
G01*
G04 BotDimension*
%LPD*%
X520000Y1968819D2*
D13*
X197165D1*
X472756Y1630236D2*
X197165D1*
X216850Y1799528D2*
Y1929449D1*
G36*
Y1968819D2*
X224724Y1929449D1*
X208976D1*
X216850Y1968819D1*
G37*
Y1799528D2*
D13*
Y1669606D1*
G36*
Y1630236D2*
X208976Y1669606D1*
X224724D1*
X216850Y1630236D1*
G37*
X520000Y394016D2*
D13*
X220787D1*
X472756Y484567D2*
X220787D1*
X240472D2*
Y394016D1*
Y543622D2*
Y523937D1*
G36*
Y484567D2*
X232598Y523937D1*
X248346D1*
X240472Y484567D1*
G37*
Y334961D2*
D13*
Y354646D1*
G36*
Y394016D2*
X248346Y354646D1*
X232598D1*
X240472Y394016D1*
G37*
Y606076D2*
D13*
Y484567D1*
X472756Y1031417D2*
X-86299D1*
X472756Y684567D2*
X-86299D1*
X-66614Y857992D2*
Y992047D1*
G36*
Y1031417D2*
X-58740Y992047D1*
X-74488D1*
X-66614Y1031417D1*
G37*
Y857992D2*
D13*
Y723937D1*
G36*
Y684567D2*
X-74488Y723937D1*
X-58740D1*
X-66614Y684567D1*
G37*
X164492Y1833139D2*
D63*
X166393Y1838843D1*
X170196Y1840789D1*
X174042D1*
X177845Y1838843D1*
X179790Y1835041D1*
X181692Y1827391D1*
X183593Y1821643D1*
X187440Y1817841D1*
X191242Y1815940D1*
X196990D1*
X200793Y1817841D1*
X202738Y1819742D1*
X204640Y1825490D1*
Y1833139D1*
X202738Y1838843D1*
X200793Y1840789D1*
X196990Y1842690D1*
X191242D1*
X187440Y1840789D1*
X183593Y1836942D1*
X181692Y1831238D1*
X179790Y1823589D1*
X177845Y1819742D1*
X174042Y1817841D1*
X170196D1*
X166393Y1819742D1*
X164492Y1825490D1*
Y1833139D1*
X200793Y1801687D2*
X202738Y1803588D1*
X204640Y1801687D1*
X202738Y1799741D1*
X200793Y1801687D1*
X170196Y1764442D2*
X166393Y1766343D1*
X164492Y1772091D1*
Y1775894D1*
X166393Y1781642D1*
X172141Y1785489D1*
X181692Y1787390D1*
X191242D1*
X198892Y1785489D1*
X202738Y1781642D1*
X204640Y1775894D1*
Y1773993D1*
X202738Y1768289D1*
X198892Y1764442D1*
X193144Y1762541D1*
X191242D1*
X185494Y1764442D1*
X181692Y1768289D1*
X179790Y1773993D1*
Y1775894D1*
X181692Y1781642D1*
X185494Y1785489D1*
X191242Y1787390D1*
X197664Y613394D2*
X195763D1*
X191916Y611493D1*
X190015Y609591D1*
X188114Y605745D1*
Y598095D1*
X190015Y594293D1*
X191916Y592392D1*
X195763Y590446D1*
X199566D1*
X203413Y592392D1*
X209116Y596194D1*
X228262Y615339D1*
Y588545D1*
X224415Y574292D2*
X226360Y576193D1*
X228262Y574292D1*
X226360Y572347D1*
X224415Y574292D1*
X188114Y556148D2*
Y535146D1*
X203413Y546598D1*
Y540850D1*
X205314Y537047D1*
X207215Y535146D1*
X212963Y533201D1*
X216766D1*
X222514Y535146D1*
X226360Y538949D1*
X228262Y544697D1*
Y550445D1*
X226360Y556148D1*
X224415Y558050D1*
X220612Y559995D1*
X-118973Y903528D2*
X-117071Y909232D1*
X-113269Y911177D1*
X-109422D1*
X-105620Y909232D1*
X-103674Y905429D1*
X-101773Y897780D1*
X-99872Y892032D1*
X-96025Y888229D1*
X-92222Y886328D1*
X-86474D1*
X-82672Y888229D1*
X-80726Y890130D1*
X-78825Y895878D1*
Y903528D1*
X-80726Y909232D1*
X-82672Y911177D1*
X-86474Y913078D1*
X-92222D1*
X-96025Y911177D1*
X-99872Y907330D1*
X-101773Y901626D1*
X-103674Y893977D1*
X-105620Y890130D1*
X-109422Y888229D1*
X-113269D1*
X-117071Y890130D1*
X-118973Y895878D1*
Y903528D1*
X-82672Y872075D2*
X-80726Y873976D1*
X-78825Y872075D1*
X-80726Y870130D1*
X-82672Y872075D1*
X-118973Y848228D2*
X-117071Y853932D1*
X-113269Y855877D1*
X-109422D1*
X-105620Y853932D1*
X-103674Y850129D1*
X-101773Y842480D1*
X-99872Y836732D1*
X-96025Y832929D1*
X-92222Y831028D1*
X-86474D1*
X-82672Y832929D1*
X-80726Y834830D1*
X-78825Y840578D1*
Y848228D1*
X-80726Y853932D1*
X-82672Y855877D1*
X-86474Y857778D1*
X-92222D1*
X-96025Y855877D1*
X-99872Y852030D1*
X-101773Y846326D1*
X-103674Y838677D1*
X-105620Y834830D1*
X-109422Y832929D1*
X-113269D1*
X-117071Y834830D1*
X-118973Y840578D1*
Y848228D1*
X-111323Y818676D2*
X-113269Y814830D1*
X-118973Y809082D1*
X-78825D1*
M02*
