G04 DipTrace 3.1.0.1*
G04 Top-Clock-IN12c.BottomPaste.gbr*
%MOIN*%
G04 #@! TF.FileFunction,Paste,Bot*
G04 #@! TF.Part,Single*
%ADD47R,0.017559X0.033307*%
%ADD49R,0.033307X0.017559*%
%ADD51C,0.188819*%
%ADD53C,0.054961*%
%ADD55O,0.051969X0.061969*%
%ADD57O,0.061969X0.051969*%
%FSLAX26Y26*%
G04*
G70*
G90*
G75*
G01*
G04 BotPaste*
%LPD*%
D57*
X472756Y1531417D3*
Y1631417D3*
Y1331417D3*
Y1431417D3*
Y1131417D3*
Y1031417D3*
Y1231417D3*
Y684567D3*
Y484567D3*
Y584567D3*
D55*
X2812520Y866457D3*
X2712520D3*
X5162126D3*
X5062126D3*
D57*
X7401890Y1531417D3*
Y1631417D3*
Y1331417D3*
Y1431417D3*
Y1131417D3*
Y1031417D3*
Y1231417D3*
Y684961D3*
Y484567D3*
Y584567D3*
D53*
X2664094Y1542047D3*
X2860945D3*
X2664094Y1148346D3*
X2860945D3*
X5013701Y1542047D3*
X5210551D3*
X5013701Y1148346D3*
X5210551D3*
X1098740Y1699528D3*
X1325118Y1345197D3*
Y1522362D3*
X1098740Y990866D3*
X1325118Y1168031D3*
X1256220Y1030236D3*
Y1660157D3*
X941260D3*
X872362Y1522362D3*
Y1345197D3*
Y1168031D3*
X941260Y1030236D3*
X2076693Y1699528D3*
X2303071Y1345197D3*
Y1522362D3*
X2076693Y990866D3*
X2303071Y1168031D3*
X2234173Y1030236D3*
Y1660157D3*
X1919213D3*
X1850315Y1522362D3*
Y1345197D3*
Y1168031D3*
X1919213Y1030236D3*
X3448346Y1699528D3*
X3674724Y1345197D3*
Y1522362D3*
X3448346Y990866D3*
X3674724Y1168031D3*
X3605827Y1030236D3*
Y1660157D3*
X3290866D3*
X3221969Y1522362D3*
Y1345197D3*
Y1168031D3*
X3290866Y1030236D3*
X4426299Y1699528D3*
X4652677Y1345197D3*
Y1522362D3*
X4426299Y990866D3*
X4652677Y1168031D3*
X4583780Y1030236D3*
Y1660157D3*
X4268819D3*
X4199921Y1522362D3*
Y1345197D3*
Y1168031D3*
X4268819Y1030236D3*
X5797953Y1699528D3*
X6024331Y1345197D3*
Y1522362D3*
X5797953Y990866D3*
X6024331Y1168031D3*
X5955433Y1030236D3*
Y1660157D3*
X5640472D3*
X5571575Y1522362D3*
Y1345197D3*
Y1168031D3*
X5640472Y1030236D3*
X6775906Y1699528D3*
X7002283Y1345197D3*
Y1522362D3*
X6775906Y990866D3*
X7002283Y1168031D3*
X6933386Y1030236D3*
Y1660157D3*
X6618425D3*
X6549528Y1522362D3*
Y1345197D3*
Y1168031D3*
X6618425Y1030236D3*
D51*
X520000Y1842835D3*
Y846772D3*
X7354646Y1842835D3*
Y846772D3*
D49*
X7151672Y1557795D3*
Y1482992D3*
X7061121Y1520394D3*
X7151672Y1384567D3*
Y1309764D3*
X7061121Y1347165D3*
X7151672Y1211339D3*
Y1136535D3*
X7061121Y1173937D3*
D47*
X6945197Y1764270D3*
X7020000D3*
X6982598Y1673719D3*
X6740472Y1846948D3*
X6815276D3*
X6777874Y1756396D3*
X6527874Y1764270D3*
X6602677D3*
X6565276Y1673719D3*
D49*
X6471005Y990866D3*
Y1065669D3*
X6561556Y1028268D3*
X6400139Y1486929D3*
Y1561732D3*
X6490690Y1524331D3*
X6400139Y1309764D3*
Y1384567D3*
X6490690Y1347165D3*
X6400139Y1132598D3*
Y1207402D3*
X6490690Y1170000D3*
X6173719Y1557795D3*
Y1482992D3*
X6083168Y1520394D3*
X6173719Y1384567D3*
Y1309764D3*
X6083168Y1347165D3*
X6173719Y1211339D3*
Y1136535D3*
X6083168Y1173937D3*
D47*
X5967244Y1764270D3*
X6042047D3*
X6004646Y1673719D3*
X5762520Y1846948D3*
X5837323D3*
X5799921Y1756396D3*
X5549921Y1764270D3*
X5624724D3*
X5587323Y1673719D3*
D49*
X5493052Y990866D3*
Y1065669D3*
X5583604Y1028268D3*
X5422186Y1486929D3*
Y1561732D3*
X5512738Y1524331D3*
X5422186Y1309764D3*
Y1384567D3*
X5512738Y1347165D3*
X5422186Y1132598D3*
Y1207402D3*
X5512738Y1170000D3*
D47*
X5173543Y1685354D3*
X5248346D3*
X5210945Y1594803D3*
D49*
X5108189Y1051496D3*
Y1126299D3*
X5198740Y1088898D3*
X4802066Y1557795D3*
Y1482992D3*
X4711514Y1520394D3*
X4802066Y1384567D3*
Y1309764D3*
X4711514Y1347165D3*
X4802066Y1211339D3*
Y1136535D3*
X4711514Y1173937D3*
D47*
X4595591Y1764270D3*
X4670394D3*
X4632992Y1673719D3*
X4390866Y1846948D3*
X4465669D3*
X4428268Y1756396D3*
X4178268Y1764270D3*
X4253071D3*
X4215669Y1673719D3*
D49*
X4121399Y990866D3*
Y1065669D3*
X4211950Y1028268D3*
X4050533Y1486929D3*
Y1561732D3*
X4141084Y1524331D3*
X4050533Y1309764D3*
Y1384567D3*
X4141084Y1347165D3*
X4050533Y1132598D3*
Y1207402D3*
X4141084Y1170000D3*
X3824113Y1557795D3*
Y1482992D3*
X3733562Y1520394D3*
X3824113Y1384567D3*
Y1309764D3*
X3733562Y1347165D3*
X3824113Y1211339D3*
Y1136535D3*
X3733562Y1173937D3*
D47*
X3617638Y1764270D3*
X3692441D3*
X3655039Y1673719D3*
X3412913Y1846948D3*
X3487717D3*
X3450315Y1756396D3*
X3200315Y1764270D3*
X3275118D3*
X3237717Y1673719D3*
D49*
X3143446Y990866D3*
Y1065669D3*
X3233997Y1028268D3*
X3072580Y1486929D3*
Y1561732D3*
X3163131Y1524331D3*
X3072580Y1309764D3*
Y1384567D3*
X3163131Y1347165D3*
X3072580Y1132598D3*
Y1207402D3*
X3163131Y1170000D3*
D47*
X2823150Y1689291D3*
X2897953D3*
X2860551Y1598740D3*
D49*
X2758583Y1051496D3*
Y1126299D3*
X2849134Y1088898D3*
X2452459Y1557795D3*
Y1482992D3*
X2361908Y1520394D3*
X2452459Y1384567D3*
Y1309764D3*
X2361908Y1347165D3*
X2452459Y1211339D3*
Y1136535D3*
X2361908Y1173937D3*
D47*
X2245984Y1764270D3*
X2320787D3*
X2283386Y1673719D3*
X2041260Y1846948D3*
X2116063D3*
X2078661Y1756396D3*
X1828661Y1764270D3*
X1903465D3*
X1866063Y1673719D3*
D49*
X1771793Y990866D3*
Y1065669D3*
X1862344Y1028268D3*
X1700927Y1486929D3*
Y1561732D3*
X1791478Y1524331D3*
X1700927Y1309764D3*
Y1384567D3*
X1791478Y1347165D3*
X1700927Y1132598D3*
Y1207402D3*
X1791478Y1170000D3*
X1474507Y1557795D3*
Y1482992D3*
X1383955Y1520394D3*
X1474507Y1384567D3*
Y1309764D3*
X1383955Y1347165D3*
X1474507Y1211339D3*
Y1136535D3*
X1383955Y1173937D3*
D47*
X1268031Y1764270D3*
X1342835D3*
X1305433Y1673719D3*
X1063307Y1846948D3*
X1138110D3*
X1100709Y1756396D3*
X850709Y1764270D3*
X925512D3*
X888110Y1673719D3*
D49*
X793840Y990866D3*
Y1065669D3*
X884391Y1028268D3*
X722974Y1486929D3*
Y1561732D3*
X813525Y1524331D3*
X722974Y1309764D3*
Y1384567D3*
X813525Y1347165D3*
X722974Y1132598D3*
Y1207402D3*
X813525Y1170000D3*
M02*
