G04 DipTrace 3.1.0.1*
G04 Top-Clock-IN12c.TopSilk.gbr*
%MOIN*%
G04 #@! TF.FileFunction,Legend,Top*
G04 #@! TF.Part,Single*
%ADD10C,0.009843*%
%ADD12C,0.002992*%
%ADD18C,0.015743*%
%ADD22C,0.01*%
%ADD24C,0.005*%
%ADD62C,0.004632*%
%ADD63C,0.006176*%
%FSLAX26Y26*%
G04*
G70*
G90*
G75*
G01*
G04 TopSilk*
%LPD*%
X931417Y1285742D2*
D10*
Y1242441D1*
X982598D1*
Y1285742D1*
X931417Y1352666D2*
Y1309365D1*
Y1352677D2*
X982598D1*
Y1309365D2*
Y1352666D1*
X1018025Y510157D2*
X974724D1*
Y458976D1*
X1018025D1*
X1084950Y510157D2*
X1041649D1*
X1084961D2*
Y458976D1*
X1041649D2*
X1084950D1*
X1431411Y510157D2*
X1388110D1*
Y458976D1*
X1431411D1*
X1498335Y510157D2*
X1455035D1*
X1498346D2*
Y458976D1*
X1455035D2*
X1498335D1*
X1909370Y1285742D2*
Y1242441D1*
X1960551D1*
Y1285742D1*
X1909370Y1352666D2*
Y1309365D1*
Y1352677D2*
X1960551D1*
Y1309365D2*
Y1352666D1*
X1995978Y510157D2*
X1952677D1*
Y458976D1*
X1995978D1*
X2062902Y510157D2*
X2019602D1*
X2062913D2*
Y458976D1*
X2019602D2*
X2062902D1*
X2409364Y510157D2*
X2366063D1*
Y458976D1*
X2409364D1*
X2476288Y510157D2*
X2432987D1*
X2476299D2*
Y458976D1*
X2432987D2*
X2476288D1*
X3281024Y1285742D2*
Y1242441D1*
X3332205D1*
Y1285742D1*
X3281024Y1352666D2*
Y1309365D1*
Y1352677D2*
X3332205D1*
Y1309365D2*
Y1352666D1*
X3367631Y510157D2*
X3324331D1*
Y458976D1*
X3367631D1*
X3434556Y510157D2*
X3391255D1*
X3434567D2*
Y458976D1*
X3391255D2*
X3434556D1*
X3781017Y510157D2*
X3737717D1*
Y458976D1*
X3781017D1*
X3847942Y510157D2*
X3804641D1*
X3847953D2*
Y458976D1*
X3804641D2*
X3847942D1*
X4258976Y1285742D2*
Y1242441D1*
X4310157D1*
Y1285742D1*
X4258976Y1352666D2*
Y1309365D1*
Y1352677D2*
X4310157D1*
Y1309365D2*
Y1352666D1*
X4345584Y510157D2*
X4302283D1*
Y458976D1*
X4345584D1*
X4412509Y510157D2*
X4369208D1*
X4412520D2*
Y458976D1*
X4369208D2*
X4412509D1*
X4758970Y510157D2*
X4715669D1*
Y458976D1*
X4758970D1*
X4825894Y510157D2*
X4782594D1*
X4825906D2*
Y458976D1*
X4782594D2*
X4825894D1*
X5630630Y1285742D2*
Y1242441D1*
X5681811D1*
Y1285742D1*
X5630630Y1352666D2*
Y1309365D1*
Y1352677D2*
X5681811D1*
Y1309365D2*
Y1352666D1*
X5717238Y510157D2*
X5673937D1*
Y458976D1*
X5717238D1*
X5784162Y510157D2*
X5740861D1*
X5784173D2*
Y458976D1*
X5740861D2*
X5784162D1*
X6130624Y510157D2*
X6087323D1*
Y458976D1*
X6130624D1*
X6197548Y510157D2*
X6154247D1*
X6197559D2*
Y458976D1*
X6154247D2*
X6197548D1*
X6608583Y1285742D2*
Y1242441D1*
X6659764D1*
Y1285742D1*
X6608583Y1352666D2*
Y1309365D1*
Y1352677D2*
X6659764D1*
Y1309365D2*
Y1352666D1*
X6695191Y510157D2*
X6651890D1*
Y458976D1*
X6695191D1*
X6762115Y510157D2*
X6718814D1*
X6762126D2*
Y458976D1*
X6718814D2*
X6762115D1*
X7108576Y510157D2*
X7065276D1*
Y458976D1*
X7108576D1*
X7175501Y510157D2*
X7132200D1*
X7175512D2*
Y458976D1*
X7132200D2*
X7175501D1*
X998354Y1246384D2*
Y1443222D1*
X1195197Y1246384D2*
Y1443222D1*
D18*
X998344Y1226693D3*
X998354Y1246384D2*
D10*
X1006216D1*
X998354Y1443222D2*
X1006216D1*
X1195197Y1246384D2*
X1187315D1*
X1195197Y1443222D2*
X1187315D1*
X1057397Y1246384D2*
X1136134D1*
X1057397Y1443222D2*
X1136134D1*
X1976307Y1246384D2*
Y1443222D1*
X2173150Y1246384D2*
Y1443222D1*
D18*
X1976297Y1226693D3*
X1976307Y1246384D2*
D10*
X1984169D1*
X1976307Y1443222D2*
X1984169D1*
X2173150Y1246384D2*
X2165268D1*
X2173150Y1443222D2*
X2165268D1*
X2035350Y1246384D2*
X2114087D1*
X2035350Y1443222D2*
X2114087D1*
X3347961Y1246384D2*
Y1443222D1*
X3544803Y1246384D2*
Y1443222D1*
D18*
X3347950Y1226693D3*
X3347961Y1246384D2*
D10*
X3355822D1*
X3347961Y1443222D2*
X3355822D1*
X3544803Y1246384D2*
X3536921D1*
X3544803Y1443222D2*
X3536921D1*
X3407003Y1246384D2*
X3485740D1*
X3407003Y1443222D2*
X3485740D1*
X4325913Y1246384D2*
Y1443222D1*
X4522756Y1246384D2*
Y1443222D1*
D18*
X4325903Y1226693D3*
X4325913Y1246384D2*
D10*
X4333775D1*
X4325913Y1443222D2*
X4333775D1*
X4522756Y1246384D2*
X4514874D1*
X4522756Y1443222D2*
X4514874D1*
X4384956Y1246384D2*
X4463693D1*
X4384956Y1443222D2*
X4463693D1*
X5697567Y1246384D2*
Y1443222D1*
X5894409Y1246384D2*
Y1443222D1*
D18*
X5697557Y1226693D3*
X5697567Y1246384D2*
D10*
X5705428D1*
X5697567Y1443222D2*
X5705428D1*
X5894409Y1246384D2*
X5886528D1*
X5894409Y1443222D2*
X5886528D1*
X5756609Y1246384D2*
X5835346D1*
X5756609Y1443222D2*
X5835346D1*
X6675520Y1246384D2*
Y1443222D1*
X6872362Y1246384D2*
Y1443222D1*
D18*
X6675509Y1226693D3*
X6675520Y1246384D2*
D10*
X6683381D1*
X6675520Y1443222D2*
X6683381D1*
X6872362Y1246384D2*
X6864480D1*
X6872362Y1443222D2*
X6864480D1*
X6734562Y1246384D2*
X6813299D1*
X6734562Y1443222D2*
X6813299D1*
X422756Y1656364D2*
Y1606416D1*
Y1656364D2*
X447756Y1681417D1*
X497756D1*
X522756Y1656364D1*
X422756Y1606416D2*
X447756Y1581362D1*
X422756Y1556468D1*
X497756Y1481467D2*
X522756Y1506361D1*
Y1556468D1*
X497756Y1581362D1*
X522756Y1606416D1*
Y1631470D1*
Y1656364D1*
X422756Y1556468D2*
Y1506361D1*
X447756Y1481467D1*
X497756D1*
X422756Y1456364D2*
Y1406416D1*
Y1456364D2*
X447756Y1481417D1*
X497756D1*
X522756Y1456364D1*
X422756Y1406416D2*
X447756Y1381362D1*
X422756Y1356468D1*
X497756Y1281467D2*
X522756Y1306361D1*
Y1356468D1*
X497756Y1381362D1*
X522756Y1406416D1*
Y1431470D1*
Y1456364D1*
X422756Y1356468D2*
Y1306361D1*
X447756Y1281467D1*
X497756D1*
X422756Y1256367D2*
Y1206417D1*
Y1256367D2*
X447756Y1281417D1*
X497756D1*
X522756Y1256367D1*
X422756Y1206417D2*
X447756Y1181367D1*
X422756Y1156467D1*
X497756Y981417D2*
X522756Y1006467D1*
Y1056417D1*
X497756Y1081467D1*
X522756Y1106367D1*
Y1156467D1*
X497756Y1181367D1*
X522756Y1206417D1*
Y1231467D1*
Y1256367D1*
X422756Y1156467D2*
Y1106367D1*
X447756Y1081467D1*
X422756Y1056417D1*
Y1006467D1*
X447756Y981417D1*
X497756D2*
X447756D1*
X422756Y709513D2*
Y659566D1*
Y709513D2*
X447756Y734567D1*
X497756D1*
X522756Y709513D1*
X422756Y659566D2*
X447756Y634512D1*
X497756D2*
X522756Y659566D1*
Y684619D1*
Y709513D1*
X447756Y634612D2*
X497756D1*
X422756Y609513D2*
Y559566D1*
Y609513D2*
X447756Y634567D1*
X497756D1*
X522756Y609513D1*
X422756Y559566D2*
X447756Y534512D1*
X422756Y509618D1*
X497756Y434617D2*
X522756Y459511D1*
Y509618D1*
X497756Y534512D1*
X522756Y559566D1*
Y584619D1*
Y609513D1*
X422756Y509618D2*
Y459511D1*
X447756Y434617D1*
X497756D1*
X2687573Y816457D2*
X2737521D1*
X2687573D2*
X2662520Y841457D1*
Y891457D1*
X2687573Y916457D1*
X2737521Y816457D2*
X2762575Y841457D1*
X2787469Y816457D1*
X2862470Y891457D2*
X2837576Y916457D1*
X2787469D1*
X2762575Y891457D1*
X2737521Y916457D1*
X2712467D1*
X2687573D1*
X2787469Y816457D2*
X2837576D1*
X2862470Y841457D1*
Y891457D1*
X5037180Y816457D2*
X5087127D1*
X5037180D2*
X5012126Y841457D1*
Y891457D1*
X5037180Y916457D1*
X5087127Y816457D2*
X5112181Y841457D1*
X5137075Y816457D1*
X5212076Y891457D2*
X5187182Y916457D1*
X5137075D1*
X5112181Y891457D1*
X5087127Y916457D1*
X5062074D1*
X5037180D1*
X5137075Y816457D2*
X5187182D1*
X5212076Y841457D1*
Y891457D1*
X7351890Y1656364D2*
Y1606416D1*
Y1656364D2*
X7376890Y1681417D1*
X7426890D1*
X7451890Y1656364D1*
X7351890Y1606416D2*
X7376890Y1581362D1*
X7351890Y1556468D1*
X7426890Y1481467D2*
X7451890Y1506361D1*
Y1556468D1*
X7426890Y1581362D1*
X7451890Y1606416D1*
Y1631470D1*
Y1656364D1*
X7351890Y1556468D2*
Y1506361D1*
X7376890Y1481467D1*
X7426890D1*
X7351890Y1456364D2*
Y1406416D1*
Y1456364D2*
X7376890Y1481417D1*
X7426890D1*
X7451890Y1456364D1*
X7351890Y1406416D2*
X7376890Y1381362D1*
X7351890Y1356468D1*
X7426890Y1281467D2*
X7451890Y1306361D1*
Y1356468D1*
X7426890Y1381362D1*
X7451890Y1406416D1*
Y1431470D1*
Y1456364D1*
X7351890Y1356468D2*
Y1306361D1*
X7376890Y1281467D1*
X7426890D1*
X7351890Y1256367D2*
Y1206417D1*
Y1256367D2*
X7376890Y1281417D1*
X7426890D1*
X7451890Y1256367D1*
X7351890Y1206417D2*
X7376890Y1181367D1*
X7351890Y1156467D1*
X7426890Y981417D2*
X7451890Y1006467D1*
Y1056417D1*
X7426890Y1081467D1*
X7451890Y1106367D1*
Y1156467D1*
X7426890Y1181367D1*
X7451890Y1206417D1*
Y1231467D1*
Y1256367D1*
X7351890Y1156467D2*
Y1106367D1*
X7376890Y1081467D1*
X7351890Y1056417D1*
Y1006467D1*
X7376890Y981417D1*
X7426890D2*
X7376890D1*
X7351890Y709907D2*
Y659959D1*
Y709907D2*
X7376890Y734961D1*
X7426890D1*
X7451890Y709907D1*
X7351890Y659959D2*
X7376890Y634906D1*
X7426890D2*
X7451890Y659959D1*
Y685013D1*
Y709907D1*
X7376890Y635006D2*
X7426890D1*
X7351890Y609513D2*
Y559566D1*
Y609513D2*
X7376890Y634567D1*
X7426890D1*
X7451890Y609513D1*
X7351890Y559566D2*
X7376890Y534512D1*
X7351890Y509618D1*
X7426890Y434617D2*
X7451890Y459511D1*
Y509618D1*
X7426890Y534512D1*
X7451890Y559566D1*
Y584619D1*
Y609513D1*
X7351890Y509618D2*
Y459511D1*
X7376890Y434617D1*
X7426890D1*
X2616850Y1542047D2*
D22*
G02X2616850Y1542047I145669J0D01*
G01*
Y1148346D2*
G02X2616850Y1148346I145669J0D01*
G01*
X4966457Y1542047D2*
G02X4966457Y1542047I145669J0D01*
G01*
Y1148346D2*
G02X4966457Y1148346I145669J0D01*
G01*
X1489365Y954563D2*
G02X708115Y954563I-390625J327797D01*
G01*
X1489365Y1735830D2*
Y954563D1*
X708115D2*
Y1735830D1*
X998740Y1345197D2*
D24*
G02X998740Y1345197I100000J0D01*
G01*
X1098740Y1620817D2*
D10*
X1059365Y1581410D1*
X1098740Y1620817D2*
X1138115Y1581410D1*
X1489365Y1735830D2*
D22*
G03X708115Y1735830I-390625J-327797D01*
G01*
X1098740Y1502710D2*
D10*
Y1620817D1*
X2467318Y954563D2*
D22*
G02X1686068Y954563I-390625J327797D01*
G01*
X2467318Y1735830D2*
Y954563D1*
X1686068D2*
Y1735830D1*
X1976693Y1345197D2*
D24*
G02X1976693Y1345197I100000J0D01*
G01*
X2076693Y1620817D2*
D10*
X2037318Y1581410D1*
X2076693Y1620817D2*
X2116068Y1581410D1*
X2467318Y1735830D2*
D22*
G03X1686068Y1735830I-390625J-327797D01*
G01*
X2076693Y1502710D2*
D10*
Y1620817D1*
X3838971Y954563D2*
D22*
G02X3057722Y954563I-390625J327797D01*
G01*
X3838971Y1735830D2*
Y954563D1*
X3057722D2*
Y1735830D1*
X3348347Y1345197D2*
D24*
G02X3348347Y1345197I100000J0D01*
G01*
X3448346Y1620817D2*
D10*
X3408971Y1581410D1*
X3448346Y1620817D2*
X3487721Y1581410D1*
X3838971Y1735830D2*
D22*
G03X3057722Y1735830I-390625J-327797D01*
G01*
X3448346Y1502710D2*
D10*
Y1620817D1*
X4816924Y954563D2*
D22*
G02X4035675Y954563I-390625J327797D01*
G01*
X4816924Y1735830D2*
Y954563D1*
X4035675D2*
Y1735830D1*
X4326299Y1345197D2*
D24*
G02X4326299Y1345197I100000J0D01*
G01*
X4426299Y1620817D2*
D10*
X4386924Y1581410D1*
X4426299Y1620817D2*
X4465674Y1581410D1*
X4816924Y1735830D2*
D22*
G03X4035675Y1735830I-390625J-327797D01*
G01*
X4426299Y1502710D2*
D10*
Y1620817D1*
X6188577Y954563D2*
D22*
G02X5407328Y954563I-390625J327797D01*
G01*
X6188577Y1735830D2*
Y954563D1*
X5407328D2*
Y1735830D1*
X5697953Y1345197D2*
D24*
G02X5697953Y1345197I100000J0D01*
G01*
X5797953Y1620817D2*
D10*
X5758578Y1581410D1*
X5797953Y1620817D2*
X5837328Y1581410D1*
X6188577Y1735830D2*
D22*
G03X5407328Y1735830I-390625J-327797D01*
G01*
X5797953Y1502710D2*
D10*
Y1620817D1*
X7166530Y954563D2*
D22*
G02X6385281Y954563I-390625J327797D01*
G01*
X7166530Y1735830D2*
Y954563D1*
X6385281D2*
Y1735830D1*
X6675906Y1345197D2*
D24*
G02X6675906Y1345197I100000J0D01*
G01*
X6775906Y1620817D2*
D10*
X6736531Y1581410D1*
X6775906Y1620817D2*
X6815280Y1581410D1*
X7166530Y1735830D2*
D22*
G03X6385281Y1735830I-390625J-327797D01*
G01*
X6775906Y1502710D2*
D10*
Y1620817D1*
X789691Y1465276D2*
X832992D1*
Y1516457D1*
X789691D1*
X722767Y1465276D2*
X766068D1*
X722756D2*
Y1516457D1*
X766068D2*
X722767D1*
X789691Y1288110D2*
X832992D1*
Y1339291D1*
X789691D1*
X722767Y1288110D2*
X766068D1*
X722756D2*
Y1339291D1*
X766068D2*
X722767D1*
X789691Y1110945D2*
X832992D1*
Y1162126D1*
X789691D1*
X722767Y1110945D2*
X766068D1*
X722756D2*
Y1162126D1*
X766068D2*
X722767D1*
X832998Y969213D2*
X876299D1*
Y1020394D1*
X832998D1*
X766074Y969213D2*
X809375D1*
X766063D2*
Y1020394D1*
X809375D2*
X766074D1*
X899928Y1736929D2*
X943228D1*
Y1788110D1*
X899928D1*
X833003Y1736929D2*
X876304D1*
X832992D2*
Y1788110D1*
X876304D2*
X833003D1*
X1104652Y1819606D2*
X1147953D1*
Y1870787D1*
X1104652D1*
X1037728Y1819606D2*
X1081028D1*
X1037717D2*
Y1870787D1*
X1081028D2*
X1037728D1*
X1313313Y1736929D2*
X1356614D1*
Y1788110D1*
X1313313D1*
X1246389Y1736929D2*
X1289690D1*
X1246378D2*
Y1788110D1*
X1289690D2*
X1246389D1*
X1297559Y1071575D2*
X1350709D1*
X1297559Y988898D2*
X1350709D1*
X1421575Y1071575D2*
X1474724D1*
X1297559Y988898D2*
Y1071575D1*
X1421575Y988898D2*
X1474724D1*
Y1071575D1*
X1411726Y1579449D2*
X1368425D1*
Y1528268D1*
X1411726D1*
X1478650Y1579449D2*
X1435350D1*
X1478661D2*
Y1528268D1*
X1435350D2*
X1478650D1*
X1411726Y1406220D2*
X1368425D1*
Y1355039D1*
X1411726D1*
X1478650Y1406220D2*
X1435350D1*
X1478661D2*
Y1355039D1*
X1435350D2*
X1478650D1*
X1411726Y1232992D2*
X1368425D1*
Y1181811D1*
X1411726D1*
X1478650Y1232992D2*
X1435350D1*
X1478661D2*
Y1181811D1*
X1435350D2*
X1478650D1*
X1767644Y1465276D2*
X1810945D1*
Y1516457D1*
X1767644D1*
X1700720Y1465276D2*
X1744020D1*
X1700709D2*
Y1516457D1*
X1744020D2*
X1700720D1*
X1767644Y1288110D2*
X1810945D1*
Y1339291D1*
X1767644D1*
X1700720Y1288110D2*
X1744020D1*
X1700709D2*
Y1339291D1*
X1744020D2*
X1700720D1*
X1767644Y1110945D2*
X1810945D1*
Y1162126D1*
X1767644D1*
X1700720Y1110945D2*
X1744020D1*
X1700709D2*
Y1162126D1*
X1744020D2*
X1700720D1*
X1810951Y969213D2*
X1854252D1*
Y1020394D1*
X1810951D1*
X1744027Y969213D2*
X1787328D1*
X1744016D2*
Y1020394D1*
X1787328D2*
X1744027D1*
X1877880Y1736929D2*
X1921181D1*
Y1788110D1*
X1877880D1*
X1810956Y1736929D2*
X1854257D1*
X1810945D2*
Y1788110D1*
X1854257D2*
X1810956D1*
X2082605Y1819606D2*
X2125906D1*
Y1870787D1*
X2082605D1*
X2015680Y1819606D2*
X2058981D1*
X2015669D2*
Y1870787D1*
X2058981D2*
X2015680D1*
X2291266Y1736929D2*
X2334567D1*
Y1788110D1*
X2291266D1*
X2224342Y1736929D2*
X2267643D1*
X2224331D2*
Y1788110D1*
X2267643D2*
X2224342D1*
X2275512Y1071575D2*
X2328661D1*
X2275512Y988898D2*
X2328661D1*
X2399528Y1071575D2*
X2452677D1*
X2275512Y988898D2*
Y1071575D1*
X2399528Y988898D2*
X2452677D1*
Y1071575D1*
X2389679Y1579449D2*
X2346378D1*
Y1528268D1*
X2389679D1*
X2456603Y1579449D2*
X2413302D1*
X2456614D2*
Y1528268D1*
X2413302D2*
X2456603D1*
X2389679Y1406220D2*
X2346378D1*
Y1355039D1*
X2389679D1*
X2456603Y1406220D2*
X2413302D1*
X2456614D2*
Y1355039D1*
X2413302D2*
X2456603D1*
X2389679Y1232992D2*
X2346378D1*
Y1181811D1*
X2389679D1*
X2456603Y1232992D2*
X2413302D1*
X2456614D2*
Y1181811D1*
X2413302D2*
X2456603D1*
X2618819Y1581024D2*
Y1634173D1*
X2701496Y1581024D2*
Y1634173D1*
X2618819Y1705039D2*
Y1758189D1*
X2701496Y1581024D2*
X2618819D1*
X2701496Y1705039D2*
Y1758189D1*
X2618819D1*
Y1187323D2*
Y1240472D1*
X2701496Y1187323D2*
Y1240472D1*
X2618819Y1311339D2*
Y1364488D1*
X2701496Y1187323D2*
X2618819D1*
X2701496Y1311339D2*
Y1364488D1*
X2618819D1*
X2748746Y1014094D2*
X2792047D1*
Y1065276D1*
X2748746D1*
X2681822Y1014094D2*
X2725123D1*
X2681811D2*
Y1065276D1*
X2725123D2*
X2681822D1*
X2844803Y1671581D2*
Y1714882D1*
X2793622D1*
Y1671581D1*
X2844803Y1604657D2*
Y1647957D1*
Y1604646D2*
X2793622D1*
Y1647957D2*
Y1604657D1*
X3139298Y1465276D2*
X3182598D1*
Y1516457D1*
X3139298D1*
X3072373Y1465276D2*
X3115674D1*
X3072362D2*
Y1516457D1*
X3115674D2*
X3072373D1*
X3139298Y1288110D2*
X3182598D1*
Y1339291D1*
X3139298D1*
X3072373Y1288110D2*
X3115674D1*
X3072362D2*
Y1339291D1*
X3115674D2*
X3072373D1*
X3139298Y1110945D2*
X3182598D1*
Y1162126D1*
X3139298D1*
X3072373Y1110945D2*
X3115674D1*
X3072362D2*
Y1162126D1*
X3115674D2*
X3072373D1*
X3182605Y969213D2*
X3225906D1*
Y1020394D1*
X3182605D1*
X3115680Y969213D2*
X3158981D1*
X3115669D2*
Y1020394D1*
X3158981D2*
X3115680D1*
X3249534Y1736929D2*
X3292835D1*
Y1788110D1*
X3249534D1*
X3182609Y1736929D2*
X3225910D1*
X3182598D2*
Y1788110D1*
X3225910D2*
X3182609D1*
X3454258Y1819606D2*
X3497559D1*
Y1870787D1*
X3454258D1*
X3387334Y1819606D2*
X3430635D1*
X3387323D2*
Y1870787D1*
X3430635D2*
X3387334D1*
X3662920Y1736929D2*
X3706220D1*
Y1788110D1*
X3662920D1*
X3595995Y1736929D2*
X3639296D1*
X3595984D2*
Y1788110D1*
X3639296D2*
X3595995D1*
X3647165Y1071575D2*
X3700315D1*
X3647165Y988898D2*
X3700315D1*
X3771181Y1071575D2*
X3824331D1*
X3647165Y988898D2*
Y1071575D1*
X3771181Y988898D2*
X3824331D1*
Y1071575D1*
X3761332Y1579449D2*
X3718031D1*
Y1528268D1*
X3761332D1*
X3828257Y1579449D2*
X3784956D1*
X3828268D2*
Y1528268D1*
X3784956D2*
X3828257D1*
X3761332Y1406220D2*
X3718031D1*
Y1355039D1*
X3761332D1*
X3828257Y1406220D2*
X3784956D1*
X3828268D2*
Y1355039D1*
X3784956D2*
X3828257D1*
X3761332Y1232992D2*
X3718031D1*
Y1181811D1*
X3761332D1*
X3828257Y1232992D2*
X3784956D1*
X3828268D2*
Y1181811D1*
X3784956D2*
X3828257D1*
X4117250Y1465276D2*
X4160551D1*
Y1516457D1*
X4117250D1*
X4050326Y1465276D2*
X4093627D1*
X4050315D2*
Y1516457D1*
X4093627D2*
X4050326D1*
X4117250Y1288110D2*
X4160551D1*
Y1339291D1*
X4117250D1*
X4050326Y1288110D2*
X4093627D1*
X4050315D2*
Y1339291D1*
X4093627D2*
X4050326D1*
X4117250Y1110945D2*
X4160551D1*
Y1162126D1*
X4117250D1*
X4050326Y1110945D2*
X4093627D1*
X4050315D2*
Y1162126D1*
X4093627D2*
X4050326D1*
X4160557Y969213D2*
X4203858D1*
Y1020394D1*
X4160557D1*
X4093633Y969213D2*
X4136934D1*
X4093622D2*
Y1020394D1*
X4136934D2*
X4093633D1*
X4227487Y1736929D2*
X4270787D1*
Y1788110D1*
X4227487D1*
X4160562Y1736929D2*
X4203863D1*
X4160551D2*
Y1788110D1*
X4203863D2*
X4160562D1*
X4432211Y1819606D2*
X4475512D1*
Y1870787D1*
X4432211D1*
X4365287Y1819606D2*
X4408587D1*
X4365276D2*
Y1870787D1*
X4408587D2*
X4365287D1*
X4640872Y1736929D2*
X4684173D1*
Y1788110D1*
X4640872D1*
X4573948Y1736929D2*
X4617249D1*
X4573937D2*
Y1788110D1*
X4617249D2*
X4573948D1*
X4625118Y1071575D2*
X4678268D1*
X4625118Y988898D2*
X4678268D1*
X4749134Y1071575D2*
X4802283D1*
X4625118Y988898D2*
Y1071575D1*
X4749134Y988898D2*
X4802283D1*
Y1071575D1*
X4739285Y1579449D2*
X4695984D1*
Y1528268D1*
X4739285D1*
X4806209Y1579449D2*
X4762909D1*
X4806220D2*
Y1528268D1*
X4762909D2*
X4806209D1*
X4739285Y1406220D2*
X4695984D1*
Y1355039D1*
X4739285D1*
X4806209Y1406220D2*
X4762909D1*
X4806220D2*
Y1355039D1*
X4762909D2*
X4806209D1*
X4739285Y1232992D2*
X4695984D1*
Y1181811D1*
X4739285D1*
X4806209Y1232992D2*
X4762909D1*
X4806220D2*
Y1181811D1*
X4762909D2*
X4806209D1*
X4968425Y1581024D2*
Y1634173D1*
X5051102Y1581024D2*
Y1634173D1*
X4968425Y1705039D2*
Y1758189D1*
X5051102Y1581024D2*
X4968425D1*
X5051102Y1705039D2*
Y1758189D1*
X4968425D1*
Y1187323D2*
Y1240472D1*
X5051102Y1187323D2*
Y1240472D1*
X4968425Y1311339D2*
Y1364488D1*
X5051102Y1187323D2*
X4968425D1*
X5051102Y1311339D2*
Y1364488D1*
X4968425D1*
X5098353Y1014094D2*
X5141654D1*
Y1065276D1*
X5098353D1*
X5031428Y1014094D2*
X5074729D1*
X5031417D2*
Y1065276D1*
X5074729D2*
X5031428D1*
X5194409Y1671581D2*
Y1714882D1*
X5143228D1*
Y1671581D1*
X5194409Y1604657D2*
Y1647957D1*
Y1604646D2*
X5143228D1*
Y1647957D2*
Y1604657D1*
X5488904Y1465276D2*
X5532205D1*
Y1516457D1*
X5488904D1*
X5421980Y1465276D2*
X5465280D1*
X5421969D2*
Y1516457D1*
X5465280D2*
X5421980D1*
X5488904Y1288110D2*
X5532205D1*
Y1339291D1*
X5488904D1*
X5421980Y1288110D2*
X5465280D1*
X5421969D2*
Y1339291D1*
X5465280D2*
X5421980D1*
X5488904Y1110945D2*
X5532205D1*
Y1162126D1*
X5488904D1*
X5421980Y1110945D2*
X5465280D1*
X5421969D2*
Y1162126D1*
X5465280D2*
X5421980D1*
X5532211Y969213D2*
X5575512D1*
Y1020394D1*
X5532211D1*
X5465287Y969213D2*
X5508587D1*
X5465276D2*
Y1020394D1*
X5508587D2*
X5465287D1*
X5599140Y1736929D2*
X5642441D1*
Y1788110D1*
X5599140D1*
X5532216Y1736929D2*
X5575517D1*
X5532205D2*
Y1788110D1*
X5575517D2*
X5532216D1*
X5803865Y1819606D2*
X5847165D1*
Y1870787D1*
X5803865D1*
X5736940Y1819606D2*
X5780241D1*
X5736929D2*
Y1870787D1*
X5780241D2*
X5736940D1*
X6012526Y1736929D2*
X6055827D1*
Y1788110D1*
X6012526D1*
X5945602Y1736929D2*
X5988902D1*
X5945591D2*
Y1788110D1*
X5988902D2*
X5945602D1*
X5996772Y1071575D2*
X6049921D1*
X5996772Y988898D2*
X6049921D1*
X6120787Y1071575D2*
X6173937D1*
X5996772Y988898D2*
Y1071575D1*
X6120787Y988898D2*
X6173937D1*
Y1071575D1*
X6110939Y1579449D2*
X6067638D1*
Y1528268D1*
X6110939D1*
X6177863Y1579449D2*
X6134562D1*
X6177874D2*
Y1528268D1*
X6134562D2*
X6177863D1*
X6110939Y1406220D2*
X6067638D1*
Y1355039D1*
X6110939D1*
X6177863Y1406220D2*
X6134562D1*
X6177874D2*
Y1355039D1*
X6134562D2*
X6177863D1*
X6110939Y1232992D2*
X6067638D1*
Y1181811D1*
X6110939D1*
X6177863Y1232992D2*
X6134562D1*
X6177874D2*
Y1181811D1*
X6134562D2*
X6177863D1*
X6466857Y1465276D2*
X6510157D1*
Y1516457D1*
X6466857D1*
X6399932Y1465276D2*
X6443233D1*
X6399921D2*
Y1516457D1*
X6443233D2*
X6399932D1*
X6466857Y1288110D2*
X6510157D1*
Y1339291D1*
X6466857D1*
X6399932Y1288110D2*
X6443233D1*
X6399921D2*
Y1339291D1*
X6443233D2*
X6399932D1*
X6466857Y1110945D2*
X6510157D1*
Y1162126D1*
X6466857D1*
X6399932Y1110945D2*
X6443233D1*
X6399921D2*
Y1162126D1*
X6443233D2*
X6399932D1*
X6510164Y969213D2*
X6553465D1*
Y1020394D1*
X6510164D1*
X6443239Y969213D2*
X6486540D1*
X6443228D2*
Y1020394D1*
X6486540D2*
X6443239D1*
X6577093Y1736929D2*
X6620394D1*
Y1788110D1*
X6577093D1*
X6510169Y1736929D2*
X6553469D1*
X6510157D2*
Y1788110D1*
X6553469D2*
X6510169D1*
X6781817Y1819606D2*
X6825118D1*
Y1870787D1*
X6781817D1*
X6714893Y1819606D2*
X6758194D1*
X6714882D2*
Y1870787D1*
X6758194D2*
X6714893D1*
X6990479Y1736929D2*
X7033780D1*
Y1788110D1*
X6990479D1*
X6923554Y1736929D2*
X6966855D1*
X6923543D2*
Y1788110D1*
X6966855D2*
X6923554D1*
X6974724Y1071575D2*
X7027874D1*
X6974724Y988898D2*
X7027874D1*
X7098740Y1071575D2*
X7151890D1*
X6974724Y988898D2*
Y1071575D1*
X7098740Y988898D2*
X7151890D1*
Y1071575D1*
X7088891Y1579449D2*
X7045591D1*
Y1528268D1*
X7088891D1*
X7155816Y1579449D2*
X7112515D1*
X7155827D2*
Y1528268D1*
X7112515D2*
X7155816D1*
X7088891Y1406220D2*
X7045591D1*
Y1355039D1*
X7088891D1*
X7155816Y1406220D2*
X7112515D1*
X7155827D2*
Y1355039D1*
X7112515D2*
X7155816D1*
X7088891Y1232992D2*
X7045591D1*
Y1181811D1*
X7088891D1*
X7155816Y1232992D2*
X7112515D1*
X7155827D2*
Y1181811D1*
X7112515D2*
X7155816D1*
X1085142Y742842D2*
X691472D1*
X1085142Y640465D2*
X691472D1*
Y742842D2*
Y640465D1*
X1085142Y742842D2*
Y711348D1*
Y671959D2*
Y640465D1*
Y711348D2*
G03X1085142Y671959I11J-19694D01*
G01*
X1494591Y742842D2*
X1100921D1*
X1494591Y640465D2*
X1100921D1*
Y742842D2*
Y640465D1*
X1494591Y742842D2*
Y711348D1*
Y671959D2*
Y640465D1*
Y711348D2*
G03X1494591Y671959I11J-19694D01*
G01*
X2063094Y742842D2*
X1669425D1*
X2063094Y640465D2*
X1669425D1*
Y742842D2*
Y640465D1*
X2063094Y742842D2*
Y711348D1*
Y671959D2*
Y640465D1*
Y711348D2*
G03X2063094Y671959I11J-19694D01*
G01*
X2472543Y742842D2*
X2078874D1*
X2472543Y640465D2*
X2078874D1*
Y742842D2*
Y640465D1*
X2472543Y742842D2*
Y711348D1*
Y671959D2*
Y640465D1*
Y711348D2*
G03X2472543Y671959I11J-19694D01*
G01*
X3434748Y742842D2*
X3041079D1*
X3434748Y640465D2*
X3041079D1*
Y742842D2*
Y640465D1*
X3434748Y742842D2*
Y711348D1*
Y671959D2*
Y640465D1*
Y711348D2*
G03X3434748Y671959I11J-19694D01*
G01*
X3844197Y742842D2*
X3450528D1*
X3844197Y640465D2*
X3450528D1*
Y742842D2*
Y640465D1*
X3844197Y742842D2*
Y711348D1*
Y671959D2*
Y640465D1*
Y711348D2*
G03X3844197Y671959I11J-19694D01*
G01*
X4412701Y742842D2*
X4019031D1*
X4412701Y640465D2*
X4019031D1*
Y742842D2*
Y640465D1*
X4412701Y742842D2*
Y711348D1*
Y671959D2*
Y640465D1*
Y711348D2*
G03X4412701Y671959I11J-19694D01*
G01*
X4822150Y742842D2*
X4428480D1*
X4822150Y640465D2*
X4428480D1*
Y742842D2*
Y640465D1*
X4822150Y742842D2*
Y711348D1*
Y671959D2*
Y640465D1*
Y711348D2*
G03X4822150Y671959I11J-19694D01*
G01*
X5784354Y742842D2*
X5390685D1*
X5784354Y640465D2*
X5390685D1*
Y742842D2*
Y640465D1*
X5784354Y742842D2*
Y711348D1*
Y671959D2*
Y640465D1*
Y711348D2*
G03X5784354Y671959I11J-19694D01*
G01*
X6193803Y742842D2*
X5800134D1*
X6193803Y640465D2*
X5800134D1*
Y742842D2*
Y640465D1*
X6193803Y742842D2*
Y711348D1*
Y671959D2*
Y640465D1*
Y711348D2*
G03X6193803Y671959I11J-19694D01*
G01*
X6762307Y742842D2*
X6368638D1*
X6762307Y640465D2*
X6368638D1*
Y742842D2*
Y640465D1*
X6762307Y742842D2*
Y711348D1*
Y671959D2*
Y640465D1*
Y711348D2*
G03X6762307Y671959I11J-19694D01*
G01*
X7171756Y742842D2*
X6778087D1*
X7171756Y640465D2*
X6778087D1*
Y742842D2*
Y640465D1*
X7171756Y742842D2*
Y711348D1*
Y671959D2*
Y640465D1*
Y711348D2*
G03X7171756Y671959I11J-19694D01*
G01*
X593219Y1671505D2*
D12*
X620148D1*
X587823Y1668513D2*
X625544D1*
X583093Y1665521D2*
X630275D1*
X579204Y1662529D2*
X634164D1*
X576119Y1659537D2*
X637249D1*
X573750Y1656545D2*
X639618D1*
X571939Y1653552D2*
X641428D1*
X570652Y1650560D2*
X642715D1*
X569909Y1647568D2*
X643459D1*
X569543Y1644576D2*
X643824D1*
X569384Y1641584D2*
X643984D1*
X569320Y1638592D2*
X644048D1*
X569295Y1635600D2*
X644060D1*
X569298Y1632608D2*
X643964D1*
X569401Y1629615D2*
X584368D1*
X595747D2*
X617744D1*
X632579D2*
X643574D1*
X569793Y1626623D2*
X581888D1*
X597972D2*
X615994D1*
X633309D2*
X642753D1*
X570614Y1623631D2*
X579866D1*
X600066D2*
X615004D1*
X633967D2*
X641593D1*
X571762Y1620639D2*
X579294D1*
X602196D2*
X614670D1*
X634304D2*
X640250D1*
X573013Y1617647D2*
X580190D1*
X599859D2*
X614793D1*
X633257D2*
X638824D1*
X574162Y1614655D2*
X583818D1*
X597044D2*
X616940D1*
X629585D2*
X637458D1*
X575204Y1611663D2*
X589399D1*
X591090D2*
X622540D1*
X623982D2*
X636350D1*
X576379Y1608671D2*
X602783D1*
X611637D2*
X635552D1*
X577909Y1605678D2*
X601022D1*
X612404D2*
X634600D1*
X580192Y1602686D2*
X599952D1*
X613302D2*
X633199D1*
X583560Y1599694D2*
X599203D1*
X614164D2*
X629732D1*
X587566Y1596702D2*
X625766D1*
X591194Y1593710D2*
X622277D1*
X594128Y1590718D2*
X619631D1*
X623140D2*
X626133D1*
X587235Y1587726D2*
X590227D1*
X595303D2*
X619362D1*
X621738D2*
X624984D1*
X588732Y1584734D2*
X603037D1*
X617156D2*
X623605D1*
X590481Y1581741D2*
X621916D1*
X592321Y1578749D2*
X619910D1*
X594345Y1575757D2*
X617554D1*
X596689Y1572765D2*
X614592D1*
X557314Y1569773D2*
X563298D1*
X599203D2*
X611172D1*
X650070D2*
X656054D1*
X555932Y1566781D2*
X566416D1*
X646952D2*
X656065D1*
X555061Y1563789D2*
X569908D1*
X643459D2*
X656182D1*
X554521Y1560797D2*
X574116D1*
X639252D2*
X656669D1*
X553947Y1557804D2*
X579090D1*
X634278D2*
X657755D1*
X553152Y1554812D2*
X584609D1*
X628758D2*
X659126D1*
X552348Y1551820D2*
X590611D1*
X622757D2*
X660314D1*
X551770Y1548828D2*
X563298D1*
X568083D2*
X597436D1*
X615932D2*
X641591D1*
X650070D2*
X659887D1*
X551329Y1545836D2*
X560306D1*
X577321D2*
X605434D1*
X607934D2*
X633699D1*
X653062D2*
X659046D1*
X584257Y1542844D2*
X626892D1*
X589470Y1539852D2*
X621553D1*
X592074Y1536860D2*
X617156D1*
X588090Y1533867D2*
X622690D1*
X583455Y1530875D2*
X602670D1*
X611646D2*
X628049D1*
X577934Y1527883D2*
X597544D1*
X615485D2*
X633733D1*
X571297Y1524891D2*
X592833D1*
X619633D2*
X640175D1*
X564307Y1521899D2*
X588587D1*
X623866D2*
X646868D1*
X558555Y1518907D2*
X584875D1*
X627892D2*
X652819D1*
X554204Y1515915D2*
X581638D1*
X631416D2*
X657696D1*
X552190Y1512923D2*
X578974D1*
X634252D2*
X662038D1*
X553824Y1509930D2*
X577019D1*
X636290D2*
X658581D1*
X557599Y1506938D2*
X575520D1*
X637826D2*
X654822D1*
X561903Y1503946D2*
X573976D1*
X639383D2*
X650932D1*
X566290Y1500954D2*
X572274D1*
X641093D2*
X647077D1*
X7258573Y1671496D2*
X7285503D1*
X7253177Y1668504D2*
X7290899D1*
X7248447Y1665512D2*
X7295629D1*
X7244558Y1662520D2*
X7299518D1*
X7241473Y1659528D2*
X7302603D1*
X7239104Y1656535D2*
X7304972D1*
X7237294Y1653543D2*
X7306783D1*
X7236007Y1650551D2*
X7308069D1*
X7235263Y1647559D2*
X7308813D1*
X7234898Y1644567D2*
X7309178D1*
X7234738Y1641575D2*
X7309338D1*
X7234674Y1638583D2*
X7309402D1*
X7234650Y1635591D2*
X7309415D1*
X7234653Y1632598D2*
X7309318D1*
X7234755Y1629606D2*
X7249723D1*
X7261101D2*
X7283099D1*
X7297934D2*
X7308928D1*
X7235147Y1626614D2*
X7247243D1*
X7263326D2*
X7281349D1*
X7298664D2*
X7308107D1*
X7235968Y1623622D2*
X7245220D1*
X7265420D2*
X7280358D1*
X7299321D2*
X7306948D1*
X7237117Y1620630D2*
X7244649D1*
X7267550D2*
X7280024D1*
X7299658D2*
X7305604D1*
X7238367Y1617638D2*
X7245544D1*
X7265213D2*
X7280148D1*
X7298612D2*
X7304178D1*
X7239517Y1614646D2*
X7249172D1*
X7262398D2*
X7282294D1*
X7294939D2*
X7302813D1*
X7240558Y1611654D2*
X7254753D1*
X7256444D2*
X7287894D1*
X7289336D2*
X7301704D1*
X7241734Y1608661D2*
X7268137D1*
X7276991D2*
X7300906D1*
X7243263Y1605669D2*
X7266377D1*
X7277758D2*
X7299954D1*
X7245546Y1602677D2*
X7265306D1*
X7278656D2*
X7298554D1*
X7248914Y1599685D2*
X7264558D1*
X7279518D2*
X7295087D1*
X7252920Y1596693D2*
X7291120D1*
X7256549Y1593701D2*
X7287632D1*
X7259482Y1590709D2*
X7284986D1*
X7288495D2*
X7291487D1*
X7252589Y1587717D2*
X7255581D1*
X7260657D2*
X7284716D1*
X7287092D2*
X7290338D1*
X7254086Y1584724D2*
X7268391D1*
X7282510D2*
X7288959D1*
X7255835Y1581732D2*
X7287270D1*
X7257675Y1578740D2*
X7285264D1*
X7259699Y1575748D2*
X7282909D1*
X7262044Y1572756D2*
X7279947D1*
X7222668Y1569764D2*
X7228652D1*
X7264558D2*
X7276526D1*
X7315424D2*
X7321408D1*
X7221287Y1566772D2*
X7231770D1*
X7312306D2*
X7321420D1*
X7220416Y1563780D2*
X7235263D1*
X7308814D2*
X7321537D1*
X7219876Y1560787D2*
X7239470D1*
X7304606D2*
X7322023D1*
X7219302Y1557795D2*
X7244444D1*
X7299632D2*
X7323109D1*
X7218506Y1554803D2*
X7249964D1*
X7294112D2*
X7324480D1*
X7217702Y1551811D2*
X7255965D1*
X7288111D2*
X7325668D1*
X7217124Y1548819D2*
X7228652D1*
X7233437D2*
X7262790D1*
X7281286D2*
X7306945D1*
X7315424D2*
X7325242D1*
X7216684Y1545827D2*
X7225660D1*
X7242676D2*
X7270788D1*
X7273288D2*
X7299053D1*
X7318416D2*
X7324400D1*
X7249611Y1542835D2*
X7292246D1*
X7254824Y1539843D2*
X7286908D1*
X7257428Y1536850D2*
X7282510D1*
X7253444Y1533858D2*
X7288044D1*
X7248810Y1530866D2*
X7268024D1*
X7277000D2*
X7293403D1*
X7243288Y1527874D2*
X7262898D1*
X7280839D2*
X7299088D1*
X7236652Y1524882D2*
X7258187D1*
X7284988D2*
X7305529D1*
X7229661Y1521890D2*
X7253942D1*
X7289220D2*
X7312222D1*
X7223909Y1518898D2*
X7250229D1*
X7293246D2*
X7318174D1*
X7219558Y1515906D2*
X7246993D1*
X7296770D2*
X7323051D1*
X7217545Y1512913D2*
X7244329D1*
X7299606D2*
X7327392D1*
X7219178Y1509921D2*
X7242374D1*
X7301644D2*
X7323936D1*
X7222953Y1506929D2*
X7240874D1*
X7303180D2*
X7320177D1*
X7227257Y1503937D2*
X7239331D1*
X7304738D2*
X7316286D1*
X7231644Y1500945D2*
X7237629D1*
X7306448D2*
X7312432D1*
X593219Y1671505D2*
X587823Y1668513D1*
X583093Y1665521D1*
X579204Y1662529D1*
X576119Y1659537D1*
X573750Y1656545D1*
X571939Y1653552D1*
X570652Y1650560D1*
X569909Y1647568D1*
X569543Y1644576D1*
X569384Y1641584D1*
X569320Y1638592D1*
X569295Y1635600D1*
X569298Y1632608D1*
X569401Y1629615D1*
X569793Y1626623D1*
X570614Y1623631D1*
X571762Y1620639D1*
X573013Y1617647D1*
X574162Y1614655D1*
X575204Y1611663D1*
X576379Y1608671D1*
X577909Y1605678D1*
X580192Y1602686D1*
X583560Y1599694D1*
X587566Y1596702D1*
X591194Y1593710D1*
X594128Y1590718D1*
X595303Y1587726D1*
X596211Y1584734D1*
X617156D1*
Y1581741D1*
X620148Y1671505D2*
X625544Y1668513D1*
X630275Y1665521D1*
X634164Y1662529D1*
X637249Y1659537D1*
X639618Y1656545D1*
X641428Y1653552D1*
X642715Y1650560D1*
X643459Y1647568D1*
X643824Y1644576D1*
X643984Y1641584D1*
X644048Y1638592D1*
X644060Y1635600D1*
X643964Y1632608D1*
X643574Y1629615D1*
X642753Y1626623D1*
X641593Y1623631D1*
X640250Y1620639D1*
X638824Y1617647D1*
X637458Y1614655D1*
X636350Y1611663D1*
X635552Y1608671D1*
X634600Y1605678D1*
X633199Y1602686D1*
X629732Y1599694D1*
X625766Y1596702D1*
X622277Y1593710D1*
X619631Y1590718D1*
X619362Y1587726D1*
X620148Y1584734D1*
X587235Y1632608D2*
X584368Y1629615D1*
X581888Y1626623D1*
X579866Y1623631D1*
X579294Y1620639D1*
X580190Y1617647D1*
X583818Y1614655D1*
X589399Y1611663D1*
X596211Y1608671D1*
X593219Y1632608D2*
X595747Y1629615D1*
X597972Y1626623D1*
X600066Y1623631D1*
X602196Y1620639D1*
X599859Y1617647D1*
X597044Y1614655D1*
X591090Y1611663D1*
X584243Y1608671D1*
X620148Y1632608D2*
X617744Y1629615D1*
X615994Y1626623D1*
X615004Y1623631D1*
X614670Y1620639D1*
X614793Y1617647D1*
X616940Y1614655D1*
X622540Y1611663D1*
X629125Y1608671D1*
X632117Y1632608D2*
X632579Y1629615D1*
X633309Y1626623D1*
X633967Y1623631D1*
X634304Y1620639D1*
X633257Y1617647D1*
X629585Y1614655D1*
X623982Y1611663D1*
X617156Y1608671D1*
X605188Y1611663D2*
X602783Y1608671D1*
X601022Y1605678D1*
X599952Y1602686D1*
X599203Y1599694D1*
X611172Y1596702D1*
Y1611663D2*
X611637Y1608671D1*
X612404Y1605678D1*
X613302Y1602686D1*
X614164Y1599694D1*
X602196Y1596702D1*
X623140Y1590718D2*
X621738Y1587726D1*
X620148Y1584734D1*
X626133Y1590718D2*
X624984Y1587726D1*
X623605Y1584734D1*
X621916Y1581741D1*
X619910Y1578749D1*
X617554Y1575757D1*
X614592Y1572765D1*
X611172Y1569773D1*
X587235Y1587726D2*
X588732Y1584734D1*
X590481Y1581741D1*
X592321Y1578749D1*
X594345Y1575757D1*
X596689Y1572765D1*
X599203Y1569773D1*
X590227Y1587726D2*
X603037Y1584734D1*
X617156Y1581741D1*
X557314Y1569773D2*
X555932Y1566781D1*
X555061Y1563789D1*
X554521Y1560797D1*
X553947Y1557804D1*
X553152Y1554812D1*
X552348Y1551820D1*
X551770Y1548828D1*
X551329Y1545836D1*
X563298Y1569773D2*
X566416Y1566781D1*
X569908Y1563789D1*
X574116Y1560797D1*
X579090Y1557804D1*
X584609Y1554812D1*
X590611Y1551820D1*
X597436Y1548828D1*
X605434Y1545836D1*
X614164Y1542844D1*
X650070Y1569773D2*
X646952Y1566781D1*
X643459Y1563789D1*
X639252Y1560797D1*
X634278Y1557804D1*
X628758Y1554812D1*
X622757Y1551820D1*
X615932Y1548828D1*
X607934Y1545836D1*
X599203Y1542844D1*
X656054Y1569773D2*
X656065Y1566781D1*
X656182Y1563789D1*
X656669Y1560797D1*
X657755Y1557804D1*
X659126Y1554812D1*
X660314Y1551820D1*
X659887Y1548828D1*
X659046Y1545836D1*
X566290Y1551820D2*
X563298Y1548828D1*
X560306Y1545836D1*
X557314Y1551820D2*
X568083Y1548828D1*
X577321Y1545836D1*
X584257Y1542844D1*
X589470Y1539852D1*
X592074Y1536860D1*
X588090Y1533867D1*
X583455Y1530875D1*
X577934Y1527883D1*
X571297Y1524891D1*
X564307Y1521899D1*
X558555Y1518907D1*
X554204Y1515915D1*
X552190Y1512923D1*
X553824Y1509930D1*
X557599Y1506938D1*
X561903Y1503946D1*
X566290Y1500954D1*
X650070Y1551820D2*
X641591Y1548828D1*
X633699Y1545836D1*
X626892Y1542844D1*
X621553Y1539852D1*
X617156Y1536860D1*
X622690Y1533867D1*
X628049Y1530875D1*
X633733Y1527883D1*
X640175Y1524891D1*
X646868Y1521899D1*
X652819Y1518907D1*
X657696Y1515915D1*
X662038Y1512923D1*
X658581Y1509930D1*
X654822Y1506938D1*
X650932Y1503946D1*
X647077Y1500954D1*
Y1551820D2*
X650070Y1548828D1*
X653062Y1545836D1*
X608180Y1533867D2*
X602670Y1530875D1*
X597544Y1527883D1*
X592833Y1524891D1*
X588587Y1521899D1*
X584875Y1518907D1*
X581638Y1515915D1*
X578974Y1512923D1*
X577019Y1509930D1*
X575520Y1506938D1*
X573976Y1503946D1*
X572274Y1500954D1*
X608180Y1533867D2*
X611646Y1530875D1*
X615485Y1527883D1*
X619633Y1524891D1*
X623866Y1521899D1*
X627892Y1518907D1*
X631416Y1515915D1*
X634252Y1512923D1*
X636290Y1509930D1*
X637826Y1506938D1*
X639383Y1503946D1*
X641093Y1500954D1*
X7258573Y1671496D2*
X7253177Y1668504D1*
X7248447Y1665512D1*
X7244558Y1662520D1*
X7241473Y1659528D1*
X7239104Y1656535D1*
X7237294Y1653543D1*
X7236007Y1650551D1*
X7235263Y1647559D1*
X7234898Y1644567D1*
X7234738Y1641575D1*
X7234674Y1638583D1*
X7234650Y1635591D1*
X7234653Y1632598D1*
X7234755Y1629606D1*
X7235147Y1626614D1*
X7235968Y1623622D1*
X7237117Y1620630D1*
X7238367Y1617638D1*
X7239517Y1614646D1*
X7240558Y1611654D1*
X7241734Y1608661D1*
X7243263Y1605669D1*
X7245546Y1602677D1*
X7248914Y1599685D1*
X7252920Y1596693D1*
X7256549Y1593701D1*
X7259482Y1590709D1*
X7260657Y1587717D1*
X7261566Y1584724D1*
X7282510D1*
Y1581732D1*
X7285503Y1671496D2*
X7290899Y1668504D1*
X7295629Y1665512D1*
X7299518Y1662520D1*
X7302603Y1659528D1*
X7304972Y1656535D1*
X7306783Y1653543D1*
X7308069Y1650551D1*
X7308813Y1647559D1*
X7309178Y1644567D1*
X7309338Y1641575D1*
X7309402Y1638583D1*
X7309415Y1635591D1*
X7309318Y1632598D1*
X7308928Y1629606D1*
X7308107Y1626614D1*
X7306948Y1623622D1*
X7305604Y1620630D1*
X7304178Y1617638D1*
X7302813Y1614646D1*
X7301704Y1611654D1*
X7300906Y1608661D1*
X7299954Y1605669D1*
X7298554Y1602677D1*
X7295087Y1599685D1*
X7291120Y1596693D1*
X7287632Y1593701D1*
X7284986Y1590709D1*
X7284716Y1587717D1*
X7285503Y1584724D1*
X7252589Y1632598D2*
X7249723Y1629606D1*
X7247243Y1626614D1*
X7245220Y1623622D1*
X7244649Y1620630D1*
X7245544Y1617638D1*
X7249172Y1614646D1*
X7254753Y1611654D1*
X7261566Y1608661D1*
X7258573Y1632598D2*
X7261101Y1629606D1*
X7263326Y1626614D1*
X7265420Y1623622D1*
X7267550Y1620630D1*
X7265213Y1617638D1*
X7262398Y1614646D1*
X7256444Y1611654D1*
X7249597Y1608661D1*
X7285503Y1632598D2*
X7283099Y1629606D1*
X7281349Y1626614D1*
X7280358Y1623622D1*
X7280024Y1620630D1*
X7280148Y1617638D1*
X7282294Y1614646D1*
X7287894Y1611654D1*
X7294479Y1608661D1*
X7297471Y1632598D2*
X7297934Y1629606D1*
X7298664Y1626614D1*
X7299321Y1623622D1*
X7299658Y1620630D1*
X7298612Y1617638D1*
X7294939Y1614646D1*
X7289336Y1611654D1*
X7282510Y1608661D1*
X7270542Y1611654D2*
X7268137Y1608661D1*
X7266377Y1605669D1*
X7265306Y1602677D1*
X7264558Y1599685D1*
X7276526Y1596693D1*
Y1611654D2*
X7276991Y1608661D1*
X7277758Y1605669D1*
X7278656Y1602677D1*
X7279518Y1599685D1*
X7267550Y1596693D1*
X7288495Y1590709D2*
X7287092Y1587717D1*
X7285503Y1584724D1*
X7291487Y1590709D2*
X7290338Y1587717D1*
X7288959Y1584724D1*
X7287270Y1581732D1*
X7285264Y1578740D1*
X7282909Y1575748D1*
X7279947Y1572756D1*
X7276526Y1569764D1*
X7252589Y1587717D2*
X7254086Y1584724D1*
X7255835Y1581732D1*
X7257675Y1578740D1*
X7259699Y1575748D1*
X7262044Y1572756D1*
X7264558Y1569764D1*
X7255581Y1587717D2*
X7268391Y1584724D1*
X7282510Y1581732D1*
X7222668Y1569764D2*
X7221287Y1566772D1*
X7220416Y1563780D1*
X7219876Y1560787D1*
X7219302Y1557795D1*
X7218506Y1554803D1*
X7217702Y1551811D1*
X7217124Y1548819D1*
X7216684Y1545827D1*
X7228652Y1569764D2*
X7231770Y1566772D1*
X7235263Y1563780D1*
X7239470Y1560787D1*
X7244444Y1557795D1*
X7249964Y1554803D1*
X7255965Y1551811D1*
X7262790Y1548819D1*
X7270788Y1545827D1*
X7279518Y1542835D1*
X7315424Y1569764D2*
X7312306Y1566772D1*
X7308814Y1563780D1*
X7304606Y1560787D1*
X7299632Y1557795D1*
X7294112Y1554803D1*
X7288111Y1551811D1*
X7281286Y1548819D1*
X7273288Y1545827D1*
X7264558Y1542835D1*
X7321408Y1569764D2*
X7321420Y1566772D1*
X7321537Y1563780D1*
X7322023Y1560787D1*
X7323109Y1557795D1*
X7324480Y1554803D1*
X7325668Y1551811D1*
X7325242Y1548819D1*
X7324400Y1545827D1*
X7231644Y1551811D2*
X7228652Y1548819D1*
X7225660Y1545827D1*
X7222668Y1551811D2*
X7233437Y1548819D1*
X7242676Y1545827D1*
X7249611Y1542835D1*
X7254824Y1539843D1*
X7257428Y1536850D1*
X7253444Y1533858D1*
X7248810Y1530866D1*
X7243288Y1527874D1*
X7236652Y1524882D1*
X7229661Y1521890D1*
X7223909Y1518898D1*
X7219558Y1515906D1*
X7217545Y1512913D1*
X7219178Y1509921D1*
X7222953Y1506929D1*
X7227257Y1503937D1*
X7231644Y1500945D1*
X7315424Y1551811D2*
X7306945Y1548819D1*
X7299053Y1545827D1*
X7292246Y1542835D1*
X7286908Y1539843D1*
X7282510Y1536850D1*
X7288044Y1533858D1*
X7293403Y1530866D1*
X7299088Y1527874D1*
X7305529Y1524882D1*
X7312222Y1521890D1*
X7318174Y1518898D1*
X7323051Y1515906D1*
X7327392Y1512913D1*
X7323936Y1509921D1*
X7320177Y1506929D1*
X7316286Y1503937D1*
X7312432Y1500945D1*
Y1551811D2*
X7315424Y1548819D1*
X7318416Y1545827D1*
X7273534Y1533858D2*
X7268024Y1530866D1*
X7262898Y1527874D1*
X7258187Y1524882D1*
X7253942Y1521890D1*
X7250229Y1518898D1*
X7246993Y1515906D1*
X7244329Y1512913D1*
X7242374Y1509921D1*
X7240874Y1506929D1*
X7239331Y1503937D1*
X7237629Y1500945D1*
X7273534Y1533858D2*
X7277000Y1530866D1*
X7280839Y1527874D1*
X7284988Y1524882D1*
X7289220Y1521890D1*
X7293246Y1518898D1*
X7296770Y1515906D1*
X7299606Y1512913D1*
X7301644Y1509921D1*
X7303180Y1506929D1*
X7304738Y1503937D1*
X7306448Y1500945D1*
X894646Y1276468D2*
D62*
X891795Y1275042D1*
X888909Y1272157D1*
X887484Y1269305D1*
Y1263568D1*
X888909Y1260683D1*
X891795Y1257831D1*
X894646Y1256372D1*
X898957Y1254946D1*
X906154D1*
X910431Y1256372D1*
X913316Y1257831D1*
X916168Y1260683D1*
X917628Y1263568D1*
Y1269305D1*
X916168Y1272157D1*
X913317Y1275042D1*
X910431Y1276468D1*
X893254Y1285732D2*
X891795Y1288617D1*
X887517Y1292928D1*
X917628D1*
X1102299Y480648D2*
X1099447Y479222D1*
X1096562Y476337D1*
X1095136Y473485D1*
Y467748D1*
X1096562Y464863D1*
X1099447Y462011D1*
X1102299Y460552D1*
X1106610Y459126D1*
X1113806D1*
X1118084Y460552D1*
X1120969Y462011D1*
X1123821Y464863D1*
X1125280Y467748D1*
Y473485D1*
X1123821Y476337D1*
X1120969Y479222D1*
X1118084Y480648D1*
X1102332Y491371D2*
X1100906D1*
X1098021Y492797D1*
X1096595Y494223D1*
X1095169Y497108D1*
Y502845D1*
X1096595Y505697D1*
X1098021Y507123D1*
X1100906Y508582D1*
X1103758D1*
X1106643Y507123D1*
X1110921Y504271D1*
X1125280Y489912D1*
Y510008D1*
X1515685Y480648D2*
X1512833Y479222D1*
X1509948Y476337D1*
X1508522Y473485D1*
Y467748D1*
X1509948Y464863D1*
X1512833Y462011D1*
X1515685Y460552D1*
X1519996Y459126D1*
X1527192D1*
X1531470Y460552D1*
X1534355Y462011D1*
X1537207Y464863D1*
X1538666Y467748D1*
Y473485D1*
X1537207Y476337D1*
X1534355Y479222D1*
X1531470Y480648D1*
X1508555Y492797D2*
Y508549D1*
X1520029Y499960D1*
Y504271D1*
X1521455Y507123D1*
X1522881Y508549D1*
X1527192Y510008D1*
X1530044D1*
X1534355Y508549D1*
X1537240Y505697D1*
X1538666Y501386D1*
Y497075D1*
X1537240Y492797D1*
X1535781Y491371D1*
X1532929Y489912D1*
X1872599Y1269305D2*
X1869747Y1267879D1*
X1866862Y1264994D1*
X1865436Y1262142D1*
Y1256405D1*
X1866862Y1253520D1*
X1869747Y1250668D1*
X1872599Y1249209D1*
X1876910Y1247783D1*
X1884106D1*
X1888384Y1249209D1*
X1891269Y1250668D1*
X1894121Y1253520D1*
X1895580Y1256405D1*
Y1262142D1*
X1894121Y1264994D1*
X1891269Y1267879D1*
X1888384Y1269305D1*
X1895580Y1292928D2*
X1865469D1*
X1885532Y1278569D1*
Y1300091D1*
X2080252Y480648D2*
X2077400Y479222D1*
X2074515Y476337D1*
X2073089Y473485D1*
Y467748D1*
X2074515Y464863D1*
X2077400Y462011D1*
X2080252Y460552D1*
X2084563Y459126D1*
X2091759D1*
X2096037Y460552D1*
X2098922Y462011D1*
X2101774Y464863D1*
X2103233Y467748D1*
Y473485D1*
X2101774Y476337D1*
X2098922Y479222D1*
X2096037Y480648D1*
X2073122Y507123D2*
Y492797D1*
X2086022Y491371D1*
X2084596Y492797D1*
X2083137Y497108D1*
Y501386D1*
X2084596Y505697D1*
X2087448Y508582D1*
X2091759Y510008D1*
X2094611D1*
X2098922Y508582D1*
X2101807Y505697D1*
X2103233Y501386D1*
Y497108D1*
X2101807Y492797D1*
X2100348Y491371D1*
X2097496Y489912D1*
X2493637Y481378D2*
X2490786Y479952D1*
X2487900Y477067D1*
X2486474Y474215D1*
Y468478D1*
X2487900Y465593D1*
X2490785Y462741D1*
X2493637Y461282D1*
X2497948Y459856D1*
X2505144D1*
X2509422Y461282D1*
X2512307Y462741D1*
X2515159Y465593D1*
X2516618Y468478D1*
Y474215D1*
X2515159Y477067D1*
X2512307Y479952D1*
X2509422Y481378D1*
X2490786Y507852D2*
X2487934Y506426D1*
X2486508Y502115D1*
Y499263D1*
X2487934Y494952D1*
X2492245Y492067D1*
X2499408Y490641D1*
X2506570D1*
X2512307Y492067D1*
X2515193Y494952D1*
X2516618Y499263D1*
Y500689D1*
X2515193Y504967D1*
X2512307Y507852D1*
X2507996Y509278D1*
X2506570D1*
X2502259Y507852D1*
X2499408Y504967D1*
X2497982Y500689D1*
Y499263D1*
X2499408Y494952D1*
X2502259Y492067D1*
X2506570Y490641D1*
X3244253Y1270018D2*
X3241401Y1268592D1*
X3238516Y1265707D1*
X3237090Y1262855D1*
Y1257118D1*
X3238516Y1254233D1*
X3241401Y1251381D1*
X3244253Y1249922D1*
X3248564Y1248496D1*
X3255760D1*
X3260038Y1249922D1*
X3262923Y1251381D1*
X3265775Y1254233D1*
X3267234Y1257118D1*
Y1262855D1*
X3265775Y1265707D1*
X3262923Y1268592D1*
X3260038Y1270018D1*
X3267234Y1285019D2*
X3237123Y1299378D1*
Y1279282D1*
X3451905Y480665D2*
X3449053Y479239D1*
X3446168Y476354D1*
X3444742Y473502D1*
Y467765D1*
X3446168Y464880D1*
X3449053Y462028D1*
X3451905Y460569D1*
X3456216Y459143D1*
X3463412D1*
X3467690Y460569D1*
X3470575Y462028D1*
X3473427Y464880D1*
X3474886Y467765D1*
Y473502D1*
X3473427Y476354D1*
X3470575Y479239D1*
X3467690Y480665D1*
X3444775Y497091D2*
X3446201Y492813D1*
X3449053Y491354D1*
X3451938D1*
X3454790Y492813D1*
X3456249Y495665D1*
X3457675Y501402D1*
X3459101Y505713D1*
X3461986Y508565D1*
X3464838Y509991D1*
X3469149D1*
X3472001Y508565D1*
X3473460Y507139D1*
X3474886Y502828D1*
Y497091D1*
X3473460Y492813D1*
X3472001Y491354D1*
X3469149Y489928D1*
X3464838D1*
X3461986Y491354D1*
X3459101Y494239D1*
X3457675Y498517D1*
X3456249Y504254D1*
X3454790Y507139D1*
X3451938Y508565D1*
X3449053D1*
X3446201Y507139D1*
X3444775Y502828D1*
Y497091D1*
X3865291Y481361D2*
X3862439Y479935D1*
X3859554Y477050D1*
X3858128Y474198D1*
Y468461D1*
X3859554Y465576D1*
X3862439Y462724D1*
X3865291Y461265D1*
X3869602Y459839D1*
X3876798D1*
X3881076Y461265D1*
X3883961Y462724D1*
X3886813Y465576D1*
X3888272Y468461D1*
Y474198D1*
X3886813Y477050D1*
X3883961Y479935D1*
X3881076Y481361D1*
X3868176Y509295D2*
X3872487Y507836D1*
X3875372Y504984D1*
X3876798Y500673D1*
Y499247D1*
X3875372Y494936D1*
X3872487Y492084D1*
X3868176Y490625D1*
X3866750D1*
X3862439Y492084D1*
X3859587Y494936D1*
X3858161Y499247D1*
Y500673D1*
X3859587Y504984D1*
X3862439Y507836D1*
X3868176Y509295D1*
X3875372D1*
X3882535Y507836D1*
X3886846Y504984D1*
X3888272Y500673D1*
Y497821D1*
X3886846Y493510D1*
X3883961Y492084D1*
X4222206Y1261788D2*
X4219354Y1260363D1*
X4216469Y1257477D1*
X4215043Y1254626D1*
Y1248889D1*
X4216469Y1246004D1*
X4219354Y1243152D1*
X4222205Y1241693D1*
X4226516Y1240267D1*
X4233713D1*
X4237990Y1241693D1*
X4240876Y1243152D1*
X4243727Y1246004D1*
X4245187Y1248889D1*
Y1254626D1*
X4243727Y1257477D1*
X4240876Y1260362D1*
X4237991Y1261788D1*
X4220813Y1271052D2*
X4219354Y1273937D1*
X4215076Y1278248D1*
X4245187D1*
X4215076Y1296134D2*
X4216502Y1291823D1*
X4220813Y1288938D1*
X4227976Y1287512D1*
X4232287D1*
X4239450Y1288938D1*
X4243761Y1291823D1*
X4245187Y1296134D1*
Y1298986D1*
X4243761Y1303297D1*
X4239450Y1306148D1*
X4232287Y1307608D1*
X4227976D1*
X4220813Y1306148D1*
X4216502Y1303297D1*
X4215076Y1298986D1*
Y1296134D1*
X4220813Y1306148D2*
X4239450Y1288938D1*
X4429858Y478868D2*
X4427006Y477442D1*
X4424121Y474557D1*
X4422695Y471705D1*
Y465968D1*
X4424121Y463083D1*
X4427006Y460232D1*
X4429858Y458772D1*
X4434169Y457346D1*
X4441365D1*
X4445643Y458772D1*
X4448528Y460232D1*
X4451380Y463083D1*
X4452839Y465968D1*
Y471705D1*
X4451380Y474557D1*
X4448528Y477442D1*
X4445643Y478868D1*
X4428465Y488132D2*
X4427006Y491017D1*
X4422728Y495328D1*
X4452839D1*
X4428465Y504592D2*
X4427006Y507477D1*
X4422728Y511788D1*
X4452839D1*
X4843244Y472418D2*
X4840392Y470992D1*
X4837507Y468107D1*
X4836081Y465255D1*
Y459519D1*
X4837507Y456633D1*
X4840392Y453782D1*
X4843244Y452322D1*
X4847555Y450896D1*
X4854751D1*
X4859029Y452322D1*
X4861914Y453782D1*
X4864766Y456633D1*
X4866225Y459518D1*
Y465255D1*
X4864766Y468107D1*
X4861914Y470992D1*
X4859029Y472418D1*
X4841851Y481682D2*
X4840392Y484567D1*
X4836114Y488878D1*
X4866225D1*
X4843277Y499601D2*
X4841851D1*
X4838966Y501027D1*
X4837540Y502453D1*
X4836114Y505338D1*
Y511075D1*
X4837540Y513927D1*
X4838966Y515352D1*
X4841851Y516812D1*
X4844703D1*
X4847588Y515352D1*
X4851866Y512501D1*
X4866225Y498142D1*
Y518238D1*
X5593859Y1261788D2*
X5591007Y1260363D1*
X5588122Y1257477D1*
X5586696Y1254626D1*
Y1248889D1*
X5588122Y1246004D1*
X5591007Y1243152D1*
X5593859Y1241693D1*
X5598170Y1240267D1*
X5605366D1*
X5609644Y1241693D1*
X5612529Y1243152D1*
X5615381Y1246004D1*
X5616840Y1248889D1*
Y1254626D1*
X5615381Y1257477D1*
X5612529Y1260362D1*
X5609644Y1261788D1*
X5592466Y1271052D2*
X5591007Y1273937D1*
X5586729Y1278248D1*
X5616840D1*
X5586729Y1290397D2*
Y1306149D1*
X5598203Y1297560D1*
Y1301871D1*
X5599629Y1304723D1*
X5601055Y1306148D1*
X5605366Y1307608D1*
X5608218D1*
X5612529Y1306148D1*
X5615414Y1303297D1*
X5616840Y1298986D1*
Y1294675D1*
X5615414Y1290397D1*
X5613955Y1288971D1*
X5611103Y1287512D1*
X5801511Y471705D2*
X5798660Y470279D1*
X5795774Y467394D1*
X5794348Y464543D1*
Y458806D1*
X5795774Y455920D1*
X5798659Y453069D1*
X5801511Y451609D1*
X5805822Y450184D1*
X5813018D1*
X5817296Y451609D1*
X5820181Y453069D1*
X5823033Y455920D1*
X5824493Y458806D1*
Y464542D1*
X5823033Y467394D1*
X5820181Y470279D1*
X5817296Y471705D1*
X5800119Y480969D2*
X5798660Y483854D1*
X5794382Y488165D1*
X5824492D1*
Y511788D2*
X5794382D1*
X5814444Y497429D1*
Y518950D1*
X6214897Y472418D2*
X6212045Y470992D1*
X6209160Y468107D1*
X6207734Y465255D1*
Y459519D1*
X6209160Y456633D1*
X6212045Y453782D1*
X6214897Y452322D1*
X6219208Y450896D1*
X6226404D1*
X6230682Y452322D1*
X6233567Y453782D1*
X6236419Y456633D1*
X6237878Y459518D1*
Y465255D1*
X6236419Y468107D1*
X6233567Y470992D1*
X6230682Y472418D1*
X6213504Y481682D2*
X6212045Y484567D1*
X6207767Y488878D1*
X6237878D1*
X6207767Y515352D2*
Y501027D1*
X6220667Y499601D1*
X6219241Y501027D1*
X6217782Y505338D1*
Y509615D1*
X6219241Y513927D1*
X6222093Y516812D1*
X6226404Y518238D1*
X6229256D1*
X6233567Y516812D1*
X6236452Y513926D1*
X6237878Y509615D1*
Y505338D1*
X6236452Y501027D1*
X6234993Y499601D1*
X6232141Y498142D1*
X6571812Y1262518D2*
X6568960Y1261092D1*
X6566075Y1258207D1*
X6564649Y1255355D1*
Y1249618D1*
X6566075Y1246733D1*
X6568960Y1243881D1*
X6571812Y1242422D1*
X6576123Y1240996D1*
X6583319D1*
X6587597Y1242422D1*
X6590482Y1243881D1*
X6593334Y1246733D1*
X6594793Y1249618D1*
Y1255355D1*
X6593334Y1258207D1*
X6590482Y1261092D1*
X6587597Y1262518D1*
X6570419Y1271782D2*
X6568960Y1274667D1*
X6564682Y1278978D1*
X6594793D1*
X6568960Y1305452D2*
X6566108Y1304026D1*
X6564682Y1299715D1*
Y1296863D1*
X6566108Y1292552D1*
X6570419Y1289667D1*
X6577582Y1288241D1*
X6584745D1*
X6590482Y1289667D1*
X6593367Y1292552D1*
X6594793Y1296863D1*
Y1298289D1*
X6593367Y1302567D1*
X6590482Y1305452D1*
X6586171Y1306878D1*
X6584745D1*
X6580434Y1305452D1*
X6577582Y1302567D1*
X6576156Y1298289D1*
Y1296863D1*
X6577582Y1292552D1*
X6580434Y1289667D1*
X6584745Y1288241D1*
X6779464Y472418D2*
X6776612Y470992D1*
X6773727Y468107D1*
X6772301Y465255D1*
Y459519D1*
X6773727Y456633D1*
X6776612Y453782D1*
X6779464Y452322D1*
X6783775Y450896D1*
X6790971D1*
X6795249Y452322D1*
X6798134Y453782D1*
X6800986Y456633D1*
X6802445Y459518D1*
Y465255D1*
X6800986Y468107D1*
X6798134Y470992D1*
X6795249Y472418D1*
X6778071Y481682D2*
X6776612Y484567D1*
X6772334Y488878D1*
X6802445D1*
Y503878D2*
X6772334Y518238D1*
Y498142D1*
X7192850Y472435D2*
X7189998Y471009D1*
X7187113Y468124D1*
X7185687Y465272D1*
Y459535D1*
X7187113Y456650D1*
X7189998Y453798D1*
X7192850Y452339D1*
X7197161Y450913D1*
X7204357D1*
X7208635Y452339D1*
X7211520Y453798D1*
X7214372Y456650D1*
X7215831Y459535D1*
Y465272D1*
X7214372Y468124D1*
X7211520Y471009D1*
X7208635Y472435D1*
X7191457Y481699D2*
X7189998Y484584D1*
X7185720Y488895D1*
X7215831D1*
X7185720Y505321D2*
X7187146Y501043D1*
X7189998Y499584D1*
X7192883D1*
X7195735Y501043D1*
X7197194Y503895D1*
X7198620Y509632D1*
X7200046Y513943D1*
X7202931Y516795D1*
X7205783Y518221D1*
X7210094D1*
X7212946Y516795D1*
X7214405Y515369D1*
X7215831Y511058D1*
Y505321D1*
X7214405Y501043D1*
X7212946Y499584D1*
X7210094Y498158D1*
X7205783D1*
X7202931Y499584D1*
X7200046Y502469D1*
X7198620Y506747D1*
X7197194Y512484D1*
X7195735Y515369D1*
X7192883Y516795D1*
X7189998D1*
X7187146Y515369D1*
X7185720Y511058D1*
Y505321D1*
X759596Y1546032D2*
X772496D1*
X776807Y1547491D1*
X778266Y1548917D1*
X779692Y1551768D1*
Y1554654D1*
X778266Y1557505D1*
X776807Y1558965D1*
X772496Y1560391D1*
X759596D1*
Y1530247D1*
X769644Y1546032D2*
X779692Y1530247D1*
X788956Y1554620D2*
X791841Y1556080D1*
X796152Y1560357D1*
Y1530247D1*
X753146Y1368866D2*
X766046D1*
X770357Y1370325D1*
X771816Y1371751D1*
X773242Y1374603D1*
Y1377488D1*
X771816Y1380340D1*
X770357Y1381799D1*
X766046Y1383225D1*
X753146D1*
Y1353081D1*
X763194Y1368866D2*
X773242Y1353081D1*
X783965Y1376029D2*
Y1377455D1*
X785391Y1380340D1*
X786817Y1381766D1*
X789702Y1383192D1*
X795439D1*
X798291Y1381766D1*
X799717Y1380340D1*
X801176Y1377455D1*
Y1374603D1*
X799717Y1371718D1*
X796865Y1367440D1*
X782506Y1353081D1*
X802602D1*
X753146Y1191701D2*
X766046D1*
X770357Y1193160D1*
X771816Y1194586D1*
X773242Y1197438D1*
Y1200323D1*
X771816Y1203175D1*
X770357Y1204634D1*
X766046Y1206060D1*
X753146D1*
Y1175916D1*
X763194Y1191701D2*
X773242Y1175916D1*
X785391Y1206027D2*
X801143D1*
X792554Y1194553D1*
X796865D1*
X799717Y1193127D1*
X801143Y1191701D1*
X802602Y1187390D1*
Y1184538D1*
X801143Y1180227D1*
X798291Y1177342D1*
X793980Y1175916D1*
X789669D1*
X785391Y1177342D1*
X783965Y1178801D1*
X782506Y1181653D1*
X795740Y1049969D2*
X808640D1*
X812951Y1051428D1*
X814410Y1052854D1*
X815836Y1055705D1*
Y1058591D1*
X814410Y1061442D1*
X812951Y1062902D1*
X808640Y1064328D1*
X795740D1*
Y1034184D1*
X805788Y1049969D2*
X815836Y1034184D1*
X839459D2*
Y1064294D1*
X825100Y1044232D1*
X846622D1*
X863382Y1817685D2*
X876282D1*
X880593Y1819144D1*
X882053Y1820570D1*
X883478Y1823422D1*
Y1826307D1*
X882053Y1829159D1*
X880593Y1830618D1*
X876282Y1832044D1*
X863382D1*
Y1801900D1*
X873430Y1817685D2*
X883478Y1801900D1*
X909953Y1832011D2*
X895627D1*
X894201Y1819111D1*
X895627Y1820537D1*
X899938Y1821996D1*
X904216D1*
X908527Y1820537D1*
X911412Y1817685D1*
X912838Y1813374D1*
Y1810522D1*
X911412Y1806211D1*
X908527Y1803326D1*
X904216Y1801900D1*
X899938D1*
X895627Y1803326D1*
X894201Y1804785D1*
X892742Y1807637D1*
X1068836Y1900362D2*
X1081736D1*
X1086047Y1901821D1*
X1087506Y1903247D1*
X1088932Y1906099D1*
Y1908984D1*
X1087506Y1911836D1*
X1086047Y1913295D1*
X1081736Y1914721D1*
X1068836D1*
Y1884577D1*
X1078884Y1900362D2*
X1088932Y1884577D1*
X1115407Y1910410D2*
X1113981Y1913262D1*
X1109670Y1914688D1*
X1106818D1*
X1102507Y1913262D1*
X1099622Y1908951D1*
X1098196Y1901788D1*
Y1894625D1*
X1099622Y1888888D1*
X1102507Y1886003D1*
X1106818Y1884577D1*
X1108244D1*
X1112522Y1886003D1*
X1115407Y1888888D1*
X1116833Y1893199D1*
Y1894625D1*
X1115407Y1898936D1*
X1112522Y1901788D1*
X1108244Y1903214D1*
X1106818D1*
X1102507Y1901788D1*
X1099622Y1898936D1*
X1098196Y1894625D1*
X1276768Y1817685D2*
X1289668D1*
X1293979Y1819144D1*
X1295438Y1820570D1*
X1296864Y1823422D1*
Y1826307D1*
X1295438Y1829159D1*
X1293979Y1830618D1*
X1289668Y1832044D1*
X1276768D1*
Y1801900D1*
X1286816Y1817685D2*
X1296864Y1801900D1*
X1311865D2*
X1326224Y1832011D1*
X1306128D1*
X1361431Y1101150D2*
X1374330D1*
X1378641Y1102609D1*
X1380101Y1104035D1*
X1381527Y1106887D1*
Y1109772D1*
X1380101Y1112624D1*
X1378641Y1114083D1*
X1374330Y1115509D1*
X1361431D1*
Y1085365D1*
X1371479Y1101150D2*
X1381527Y1085365D1*
X1397953Y1115475D2*
X1393675Y1114050D1*
X1392216Y1111198D1*
Y1108313D1*
X1393675Y1105461D1*
X1396527Y1104002D1*
X1402264Y1102576D1*
X1406575Y1101150D1*
X1409427Y1098265D1*
X1410853Y1095413D1*
Y1091102D1*
X1409427Y1088250D1*
X1408001Y1086791D1*
X1403690Y1085365D1*
X1397953D1*
X1393675Y1086791D1*
X1392216Y1088250D1*
X1390790Y1091102D1*
Y1095413D1*
X1392216Y1098265D1*
X1395101Y1101150D1*
X1399379Y1102576D1*
X1405116Y1104002D1*
X1408001Y1105461D1*
X1409427Y1108313D1*
Y1111198D1*
X1408001Y1114050D1*
X1403690Y1115475D1*
X1397953D1*
X1399529Y1609024D2*
X1412428D1*
X1416739Y1610483D1*
X1418199Y1611909D1*
X1419625Y1614761D1*
Y1617646D1*
X1418199Y1620498D1*
X1416739Y1621957D1*
X1412428Y1623383D1*
X1399529D1*
Y1593239D1*
X1409577Y1609024D2*
X1419625Y1593239D1*
X1447558Y1613335D2*
X1446099Y1609024D1*
X1443247Y1606139D1*
X1438936Y1604713D1*
X1437510D1*
X1433199Y1606139D1*
X1430347Y1609024D1*
X1428888Y1613335D1*
Y1614761D1*
X1430347Y1619072D1*
X1433199Y1621924D1*
X1437510Y1623350D1*
X1438936D1*
X1443247Y1621924D1*
X1446099Y1619072D1*
X1447558Y1613335D1*
Y1606139D1*
X1446099Y1598976D1*
X1443247Y1594665D1*
X1438936Y1593239D1*
X1436084D1*
X1431773Y1594665D1*
X1430347Y1597550D1*
X1390586Y1435795D2*
X1403486D1*
X1407797Y1437254D1*
X1409256Y1438680D1*
X1410682Y1441532D1*
Y1444417D1*
X1409256Y1447269D1*
X1407797Y1448728D1*
X1403486Y1450154D1*
X1390586D1*
Y1420010D1*
X1400634Y1435795D2*
X1410682Y1420010D1*
X1419945Y1444384D2*
X1422830Y1445843D1*
X1427141Y1450121D1*
Y1420010D1*
X1445027Y1450121D2*
X1440716Y1448695D1*
X1437831Y1444384D1*
X1436405Y1437221D1*
Y1432910D1*
X1437831Y1425747D1*
X1440716Y1421436D1*
X1445027Y1420010D1*
X1447879D1*
X1452190Y1421436D1*
X1455042Y1425747D1*
X1456501Y1432910D1*
Y1437221D1*
X1455042Y1444384D1*
X1452190Y1448695D1*
X1447879Y1450121D1*
X1445027D1*
X1455042Y1444384D2*
X1437831Y1425747D1*
X1397036Y1262567D2*
X1409936D1*
X1414247Y1264026D1*
X1415706Y1265452D1*
X1417132Y1268304D1*
Y1271189D1*
X1415706Y1274041D1*
X1414247Y1275500D1*
X1409936Y1276926D1*
X1397036D1*
Y1246782D1*
X1407084Y1262567D2*
X1417132Y1246782D1*
X1426395Y1271156D2*
X1429280Y1272615D1*
X1433591Y1276893D1*
Y1246782D1*
X1442855Y1271156D2*
X1445740Y1272615D1*
X1450051Y1276893D1*
Y1246782D1*
X1722869Y1546032D2*
X1735769D1*
X1740080Y1547491D1*
X1741539Y1548917D1*
X1742965Y1551768D1*
Y1554654D1*
X1741539Y1557505D1*
X1740080Y1558965D1*
X1735769Y1560391D1*
X1722869D1*
Y1530247D1*
X1732917Y1546032D2*
X1742965Y1530247D1*
X1752229Y1554620D2*
X1755114Y1556080D1*
X1759425Y1560357D1*
Y1530247D1*
X1770147Y1553194D2*
Y1554620D1*
X1771573Y1557505D1*
X1772999Y1558931D1*
X1775884Y1560357D1*
X1781621D1*
X1784473Y1558931D1*
X1785899Y1557505D1*
X1787358Y1554620D1*
Y1551768D1*
X1785899Y1548883D1*
X1783047Y1544606D1*
X1768688Y1530247D1*
X1788784D1*
X1722869Y1368866D2*
X1735769D1*
X1740080Y1370325D1*
X1741539Y1371751D1*
X1742965Y1374603D1*
Y1377488D1*
X1741539Y1380340D1*
X1740080Y1381799D1*
X1735769Y1383225D1*
X1722869D1*
Y1353081D1*
X1732917Y1368866D2*
X1742965Y1353081D1*
X1752229Y1377455D2*
X1755114Y1378914D1*
X1759425Y1383192D1*
Y1353081D1*
X1771573Y1383192D2*
X1787325D1*
X1778736Y1371718D1*
X1783047D1*
X1785899Y1370292D1*
X1787325Y1368866D1*
X1788784Y1364555D1*
Y1361703D1*
X1787325Y1357392D1*
X1784473Y1354507D1*
X1780162Y1353081D1*
X1775851D1*
X1771573Y1354507D1*
X1770147Y1355966D1*
X1768688Y1358818D1*
X1722156Y1191701D2*
X1735056D1*
X1739367Y1193160D1*
X1740826Y1194586D1*
X1742252Y1197438D1*
Y1200323D1*
X1740826Y1203175D1*
X1739367Y1204634D1*
X1735056Y1206060D1*
X1722156D1*
Y1175916D1*
X1732204Y1191701D2*
X1742252Y1175916D1*
X1751516Y1200290D2*
X1754401Y1201749D1*
X1758712Y1206027D1*
Y1175916D1*
X1782334D2*
Y1206027D1*
X1767975Y1185964D1*
X1789497D1*
X1766176Y1049969D2*
X1779076D1*
X1783387Y1051428D1*
X1784846Y1052854D1*
X1786272Y1055705D1*
Y1058591D1*
X1784846Y1061442D1*
X1783387Y1062902D1*
X1779076Y1064328D1*
X1766176D1*
Y1034184D1*
X1776224Y1049969D2*
X1786272Y1034184D1*
X1795536Y1058557D2*
X1798421Y1060017D1*
X1802732Y1064294D1*
Y1034184D1*
X1829206Y1064294D2*
X1814881D1*
X1813455Y1051394D1*
X1814881Y1052820D1*
X1819192Y1054280D1*
X1823469D1*
X1827780Y1052820D1*
X1830666Y1049969D1*
X1832091Y1045657D1*
Y1042806D1*
X1830666Y1038495D1*
X1827780Y1035609D1*
X1823469Y1034184D1*
X1819192D1*
X1814881Y1035609D1*
X1813455Y1037069D1*
X1811995Y1039921D1*
X1833835Y1817685D2*
X1846735D1*
X1851046Y1819144D1*
X1852505Y1820570D1*
X1853931Y1823422D1*
Y1826307D1*
X1852505Y1829159D1*
X1851046Y1830618D1*
X1846735Y1832044D1*
X1833835D1*
Y1801900D1*
X1843883Y1817685D2*
X1853931Y1801900D1*
X1863195Y1826274D2*
X1866080Y1827733D1*
X1870391Y1832011D1*
Y1801900D1*
X1896865Y1827733D2*
X1895439Y1830585D1*
X1891128Y1832011D1*
X1888276D1*
X1883965Y1830585D1*
X1881080Y1826274D1*
X1879654Y1819111D1*
Y1811948D1*
X1881080Y1806211D1*
X1883965Y1803326D1*
X1888276Y1801900D1*
X1889702D1*
X1893980Y1803326D1*
X1896865Y1806211D1*
X1898291Y1810522D1*
Y1811948D1*
X1896865Y1816259D1*
X1893980Y1819111D1*
X1889702Y1820537D1*
X1888276D1*
X1883965Y1819111D1*
X1881080Y1816259D1*
X1879654Y1811948D1*
X2037830Y1900362D2*
X2050730D1*
X2055041Y1901821D1*
X2056500Y1903247D1*
X2057926Y1906099D1*
Y1908984D1*
X2056500Y1911836D1*
X2055041Y1913295D1*
X2050730Y1914721D1*
X2037830D1*
Y1884577D1*
X2047878Y1900362D2*
X2057926Y1884577D1*
X2067189Y1908951D2*
X2070074Y1910410D1*
X2074385Y1914688D1*
Y1884577D1*
X2089386D2*
X2103745Y1914688D1*
X2083649D1*
X2246508Y1817685D2*
X2259408D1*
X2263719Y1819144D1*
X2265178Y1820570D1*
X2266604Y1823422D1*
Y1826307D1*
X2265178Y1829159D1*
X2263719Y1830618D1*
X2259408Y1832044D1*
X2246508D1*
Y1801900D1*
X2256556Y1817685D2*
X2266604Y1801900D1*
X2275867Y1826274D2*
X2278752Y1827733D1*
X2283063Y1832011D1*
Y1801900D1*
X2299490Y1832011D2*
X2295212Y1830585D1*
X2293753Y1827733D1*
Y1824848D1*
X2295212Y1821996D1*
X2298064Y1820537D1*
X2303801Y1819111D1*
X2308112Y1817685D1*
X2310964Y1814800D1*
X2312390Y1811948D1*
Y1807637D1*
X2310964Y1804785D1*
X2309538Y1803326D1*
X2305227Y1801900D1*
X2299490D1*
X2295212Y1803326D1*
X2293753Y1804785D1*
X2292327Y1807637D1*
Y1811948D1*
X2293753Y1814800D1*
X2296638Y1817685D1*
X2300916Y1819111D1*
X2306653Y1820537D1*
X2309538Y1821996D1*
X2310964Y1824848D1*
Y1827733D1*
X2309538Y1830585D1*
X2305227Y1832011D1*
X2299490D1*
X2331850Y1101150D2*
X2344750D1*
X2349061Y1102609D1*
X2350520Y1104035D1*
X2351946Y1106887D1*
Y1109772D1*
X2350520Y1112624D1*
X2349061Y1114083D1*
X2344750Y1115509D1*
X2331850D1*
Y1085365D1*
X2341898Y1101150D2*
X2351946Y1085365D1*
X2361209Y1109739D2*
X2364094Y1111198D1*
X2368406Y1115475D1*
Y1085365D1*
X2396339Y1105461D2*
X2394880Y1101150D1*
X2392028Y1098265D1*
X2387717Y1096839D1*
X2386291D1*
X2381980Y1098265D1*
X2379128Y1101150D1*
X2377669Y1105461D1*
Y1106887D1*
X2379128Y1111198D1*
X2381980Y1114050D1*
X2386291Y1115475D1*
X2387717D1*
X2392028Y1114050D1*
X2394880Y1111198D1*
X2396339Y1105461D1*
Y1098265D1*
X2394880Y1091102D1*
X2392028Y1086791D1*
X2387717Y1085365D1*
X2384865D1*
X2380554Y1086791D1*
X2379128Y1089676D1*
X2362089Y1609024D2*
X2374988D1*
X2379299Y1610483D1*
X2380759Y1611909D1*
X2382185Y1614761D1*
Y1617646D1*
X2380759Y1620498D1*
X2379299Y1621957D1*
X2374988Y1623383D1*
X2362089D1*
Y1593239D1*
X2372137Y1609024D2*
X2382185Y1593239D1*
X2392907Y1616187D2*
Y1617613D1*
X2394333Y1620498D1*
X2395759Y1621924D1*
X2398644Y1623350D1*
X2404381D1*
X2407233Y1621924D1*
X2408659Y1620498D1*
X2410118Y1617613D1*
Y1614761D1*
X2408659Y1611876D1*
X2405807Y1607598D1*
X2391448Y1593239D1*
X2411544D1*
X2429430Y1623350D2*
X2425119Y1621924D1*
X2422234Y1617613D1*
X2420808Y1610450D1*
Y1606139D1*
X2422234Y1598976D1*
X2425119Y1594665D1*
X2429430Y1593239D1*
X2432282D1*
X2436593Y1594665D1*
X2439444Y1598976D1*
X2440904Y1606139D1*
Y1610450D1*
X2439444Y1617613D1*
X2436593Y1621924D1*
X2432282Y1623350D1*
X2429430D1*
X2439444Y1617613D2*
X2422234Y1598976D1*
X2368538Y1435795D2*
X2381438D1*
X2385749Y1437254D1*
X2387209Y1438680D1*
X2388634Y1441532D1*
Y1444417D1*
X2387209Y1447269D1*
X2385749Y1448728D1*
X2381438Y1450154D1*
X2368538D1*
Y1420010D1*
X2378586Y1435795D2*
X2388634Y1420010D1*
X2399357Y1442958D2*
Y1444384D1*
X2400783Y1447269D1*
X2402209Y1448695D1*
X2405094Y1450121D1*
X2410831D1*
X2413683Y1448695D1*
X2415109Y1447269D1*
X2416568Y1444384D1*
Y1441532D1*
X2415109Y1438647D1*
X2412257Y1434369D1*
X2397898Y1420010D1*
X2417994D1*
X2427258Y1444384D2*
X2430143Y1445843D1*
X2434454Y1450121D1*
Y1420010D1*
X2362089Y1262567D2*
X2374988D1*
X2379299Y1264026D1*
X2380759Y1265452D1*
X2382185Y1268304D1*
Y1271189D1*
X2380759Y1274041D1*
X2379299Y1275500D1*
X2374988Y1276926D1*
X2362089D1*
Y1246782D1*
X2372137Y1262567D2*
X2382185Y1246782D1*
X2392907Y1269730D2*
Y1271156D1*
X2394333Y1274041D1*
X2395759Y1275467D1*
X2398644Y1276893D1*
X2404381D1*
X2407233Y1275467D1*
X2408659Y1274041D1*
X2410118Y1271156D1*
Y1268304D1*
X2408659Y1265419D1*
X2405807Y1261141D1*
X2391448Y1246782D1*
X2411544D1*
X2422267Y1269730D2*
Y1271156D1*
X2423693Y1274041D1*
X2425119Y1275467D1*
X2428004Y1276893D1*
X2433741D1*
X2436593Y1275467D1*
X2438019Y1274041D1*
X2439478Y1271156D1*
Y1268304D1*
X2438019Y1265419D1*
X2435167Y1261141D1*
X2420808Y1246782D1*
X2440904D1*
X2589244Y1630199D2*
Y1643099D1*
X2587785Y1647410D1*
X2586359Y1648869D1*
X2583507Y1650295D1*
X2580622D1*
X2577770Y1648869D1*
X2576311Y1647410D1*
X2574885Y1643099D1*
Y1630199D1*
X2605029D1*
X2589244Y1640247D2*
X2605029Y1650295D1*
X2582081Y1661017D2*
X2580655D1*
X2577770Y1662443D1*
X2576344Y1663869D1*
X2574918Y1666754D1*
Y1672491D1*
X2576344Y1675343D1*
X2577770Y1676769D1*
X2580655Y1678228D1*
X2583507D1*
X2586392Y1676769D1*
X2590670Y1673917D1*
X2605029Y1659558D1*
Y1679654D1*
X2574918Y1691803D2*
Y1707555D1*
X2586392Y1698966D1*
Y1703277D1*
X2587818Y1706129D1*
X2589244Y1707555D1*
X2593555Y1709014D1*
X2596407D1*
X2600718Y1707555D1*
X2603603Y1704703D1*
X2605029Y1700392D1*
Y1696081D1*
X2603603Y1691803D1*
X2602144Y1690377D1*
X2599292Y1688918D1*
X2589244Y1235785D2*
Y1248685D1*
X2587785Y1252996D1*
X2586359Y1254455D1*
X2583507Y1255881D1*
X2580622D1*
X2577770Y1254455D1*
X2576311Y1252996D1*
X2574885Y1248685D1*
Y1235785D1*
X2605029D1*
X2589244Y1245833D2*
X2605029Y1255881D1*
X2582081Y1266604D2*
X2580655D1*
X2577770Y1268030D1*
X2576344Y1269456D1*
X2574918Y1272341D1*
Y1278078D1*
X2576344Y1280930D1*
X2577770Y1282356D1*
X2580655Y1283815D1*
X2583507D1*
X2586392Y1282356D1*
X2590670Y1279504D1*
X2605029Y1265145D1*
Y1285241D1*
Y1308863D2*
X2574918D1*
X2594981Y1294504D1*
Y1316026D1*
X2697522Y1094850D2*
X2710421D1*
X2714733Y1096310D1*
X2716192Y1097735D1*
X2717618Y1100587D1*
Y1103472D1*
X2716192Y1106324D1*
X2714733Y1107783D1*
X2710421Y1109209D1*
X2697522D1*
Y1079065D1*
X2707570Y1094850D2*
X2717618Y1079065D1*
X2728340Y1102013D2*
Y1103439D1*
X2729766Y1106324D1*
X2731192Y1107750D1*
X2734077Y1109176D1*
X2739814D1*
X2742666Y1107750D1*
X2744092Y1106324D1*
X2745551Y1103439D1*
Y1100587D1*
X2744092Y1097702D1*
X2741240Y1093424D1*
X2726881Y1079065D1*
X2746977D1*
X2773452Y1109176D2*
X2759126D1*
X2757700Y1096276D1*
X2759126Y1097702D1*
X2763437Y1099161D1*
X2767715D1*
X2772026Y1097702D1*
X2774911Y1094850D1*
X2776337Y1090539D1*
Y1087687D1*
X2774911Y1083376D1*
X2772026Y1080491D1*
X2767715Y1079065D1*
X2763437D1*
X2759126Y1080491D1*
X2757700Y1081951D1*
X2756241Y1084802D1*
X2780535Y1580111D2*
X2793435D1*
X2797746Y1581571D1*
X2799205Y1582996D1*
X2800631Y1585848D1*
Y1588733D1*
X2799205Y1591585D1*
X2797746Y1593045D1*
X2793435Y1594470D1*
X2780535D1*
Y1564326D1*
X2790583Y1580111D2*
X2800631Y1564326D1*
X2811353Y1587274D2*
Y1588700D1*
X2812779Y1591585D1*
X2814205Y1593011D1*
X2817090Y1594437D1*
X2822827D1*
X2825679Y1593011D1*
X2827105Y1591585D1*
X2828564Y1588700D1*
Y1585848D1*
X2827105Y1582963D1*
X2824253Y1578685D1*
X2809894Y1564326D1*
X2829990D1*
X2856465Y1590159D2*
X2855039Y1593011D1*
X2850728Y1594437D1*
X2847876D1*
X2843565Y1593011D1*
X2840680Y1588700D1*
X2839254Y1581537D1*
Y1574374D1*
X2840680Y1568637D1*
X2843565Y1565752D1*
X2847876Y1564326D1*
X2849302D1*
X2853580Y1565752D1*
X2856465Y1568637D1*
X2857891Y1572948D1*
Y1574374D1*
X2856465Y1578685D1*
X2853580Y1581537D1*
X2849302Y1582963D1*
X2847876D1*
X2843565Y1581537D1*
X2840680Y1578685D1*
X2839254Y1574374D1*
X3088073Y1546032D2*
X3100973D1*
X3105284Y1547491D1*
X3106743Y1548917D1*
X3108169Y1551768D1*
Y1554654D1*
X3106743Y1557505D1*
X3105284Y1558965D1*
X3100973Y1560391D1*
X3088073D1*
Y1530247D1*
X3098121Y1546032D2*
X3108169Y1530247D1*
X3118891Y1553194D2*
Y1554620D1*
X3120317Y1557505D1*
X3121743Y1558931D1*
X3124628Y1560357D1*
X3130365D1*
X3133217Y1558931D1*
X3134643Y1557505D1*
X3136102Y1554620D1*
Y1551768D1*
X3134643Y1548883D1*
X3131791Y1544606D1*
X3117432Y1530247D1*
X3137528D1*
X3152529D2*
X3166888Y1560357D1*
X3146792D1*
X3088089Y1368866D2*
X3100989D1*
X3105300Y1370325D1*
X3106759Y1371751D1*
X3108185Y1374603D1*
Y1377488D1*
X3106759Y1380340D1*
X3105300Y1381799D1*
X3100989Y1383225D1*
X3088089D1*
Y1353081D1*
X3098137Y1368866D2*
X3108185Y1353081D1*
X3118908Y1376029D2*
Y1377455D1*
X3120334Y1380340D1*
X3121760Y1381766D1*
X3124645Y1383192D1*
X3130382D1*
X3133234Y1381766D1*
X3134660Y1380340D1*
X3136119Y1377455D1*
Y1374603D1*
X3134660Y1371718D1*
X3131808Y1367440D1*
X3117449Y1353081D1*
X3137545D1*
X3153971Y1383192D2*
X3149694Y1381766D1*
X3148234Y1378914D1*
Y1376029D1*
X3149694Y1373177D1*
X3152545Y1371718D1*
X3158282Y1370292D1*
X3162593Y1368866D1*
X3165445Y1365981D1*
X3166871Y1363129D1*
Y1358818D1*
X3165445Y1355966D1*
X3164019Y1354507D1*
X3159708Y1353081D1*
X3153971D1*
X3149694Y1354507D1*
X3148234Y1355966D1*
X3146808Y1358818D1*
Y1363129D1*
X3148234Y1365981D1*
X3151119Y1368866D1*
X3155397Y1370292D1*
X3161134Y1371718D1*
X3164019Y1373177D1*
X3165445Y1376029D1*
Y1378914D1*
X3164019Y1381766D1*
X3159708Y1383192D1*
X3153971D1*
X3088786Y1191701D2*
X3101686D1*
X3105997Y1193160D1*
X3107456Y1194586D1*
X3108882Y1197438D1*
Y1200323D1*
X3107456Y1203175D1*
X3105997Y1204634D1*
X3101686Y1206060D1*
X3088786D1*
Y1175916D1*
X3098834Y1191701D2*
X3108882Y1175916D1*
X3119604Y1198864D2*
Y1200290D1*
X3121030Y1203175D1*
X3122456Y1204601D1*
X3125341Y1206027D1*
X3131078D1*
X3133930Y1204601D1*
X3135356Y1203175D1*
X3136815Y1200290D1*
Y1197438D1*
X3135356Y1194553D1*
X3132504Y1190275D1*
X3118145Y1175916D1*
X3138241D1*
X3166175Y1196012D2*
X3164716Y1191701D1*
X3161864Y1188816D1*
X3157553Y1187390D1*
X3156127D1*
X3151816Y1188816D1*
X3148964Y1191701D1*
X3147505Y1196012D1*
Y1197438D1*
X3148964Y1201749D1*
X3151816Y1204601D1*
X3156127Y1206027D1*
X3157553D1*
X3161864Y1204601D1*
X3164716Y1201749D1*
X3166175Y1196012D1*
Y1188816D1*
X3164716Y1181653D1*
X3161864Y1177342D1*
X3157553Y1175916D1*
X3154701D1*
X3150390Y1177342D1*
X3148964Y1180227D1*
X3131380Y1049969D2*
X3144280D1*
X3148591Y1051428D1*
X3150050Y1052854D1*
X3151476Y1055705D1*
Y1058591D1*
X3150050Y1061442D1*
X3148591Y1062902D1*
X3144280Y1064328D1*
X3131380D1*
Y1034184D1*
X3141428Y1049969D2*
X3151476Y1034184D1*
X3163624Y1064294D2*
X3179376D1*
X3170787Y1052820D1*
X3175098D1*
X3177950Y1051394D1*
X3179376Y1049969D1*
X3180835Y1045657D1*
Y1042806D1*
X3179376Y1038495D1*
X3176524Y1035609D1*
X3172213Y1034184D1*
X3167902D1*
X3163624Y1035609D1*
X3162199Y1037069D1*
X3160739Y1039921D1*
X3198721Y1064294D2*
X3194410Y1062868D1*
X3191525Y1058557D1*
X3190099Y1051394D1*
Y1047083D1*
X3191525Y1039921D1*
X3194410Y1035609D1*
X3198721Y1034184D1*
X3201573D1*
X3205884Y1035609D1*
X3208736Y1039921D1*
X3210195Y1047083D1*
Y1051394D1*
X3208736Y1058557D1*
X3205884Y1062868D1*
X3201573Y1064294D1*
X3198721D1*
X3208736Y1058557D2*
X3191525Y1039921D1*
X3204759Y1817685D2*
X3217659D1*
X3221970Y1819144D1*
X3223429Y1820570D1*
X3224855Y1823422D1*
Y1826307D1*
X3223429Y1829159D1*
X3221970Y1830618D1*
X3217659Y1832044D1*
X3204759D1*
Y1801900D1*
X3214807Y1817685D2*
X3224855Y1801900D1*
X3237004Y1832011D2*
X3252755D1*
X3244166Y1820537D1*
X3248478D1*
X3251329Y1819111D1*
X3252755Y1817685D1*
X3254214Y1813374D1*
Y1810522D1*
X3252755Y1806211D1*
X3249903Y1803326D1*
X3245592Y1801900D1*
X3241281D1*
X3237004Y1803326D1*
X3235578Y1804785D1*
X3234118Y1807637D1*
X3263478Y1826274D2*
X3266363Y1827733D1*
X3270674Y1832011D1*
Y1801900D1*
X3403033Y1900362D2*
X3415933D1*
X3420244Y1901821D1*
X3421703Y1903247D1*
X3423129Y1906099D1*
Y1908984D1*
X3421703Y1911836D1*
X3420244Y1913295D1*
X3415933Y1914721D1*
X3403033D1*
Y1884577D1*
X3413081Y1900362D2*
X3423129Y1884577D1*
X3435278Y1914688D2*
X3451030D1*
X3442441Y1903214D1*
X3446752D1*
X3449604Y1901788D1*
X3451030Y1900362D1*
X3452489Y1896051D1*
Y1893199D1*
X3451030Y1888888D1*
X3448178Y1886003D1*
X3443867Y1884577D1*
X3439556D1*
X3435278Y1886003D1*
X3433852Y1887462D1*
X3432393Y1890314D1*
X3463212Y1907525D2*
Y1908951D1*
X3464638Y1911836D1*
X3466064Y1913262D1*
X3468949Y1914688D1*
X3474686D1*
X3477537Y1913262D1*
X3478963Y1911836D1*
X3480423Y1908951D1*
Y1906099D1*
X3478963Y1903214D1*
X3476112Y1898936D1*
X3461752Y1884577D1*
X3481848D1*
X3611695Y1817685D2*
X3624595D1*
X3628906Y1819144D1*
X3630365Y1820570D1*
X3631791Y1823422D1*
Y1826307D1*
X3630365Y1829159D1*
X3628906Y1830618D1*
X3624595Y1832044D1*
X3611695D1*
Y1801900D1*
X3621743Y1817685D2*
X3631791Y1801900D1*
X3643939Y1832011D2*
X3659691D1*
X3651102Y1820537D1*
X3655413D1*
X3658265Y1819111D1*
X3659691Y1817685D1*
X3661150Y1813374D1*
Y1810522D1*
X3659691Y1806211D1*
X3656839Y1803326D1*
X3652528Y1801900D1*
X3648217D1*
X3643939Y1803326D1*
X3642513Y1804785D1*
X3641054Y1807637D1*
X3673299Y1832011D2*
X3689051D1*
X3680462Y1820537D1*
X3684773D1*
X3687625Y1819111D1*
X3689051Y1817685D1*
X3690510Y1813374D1*
Y1810522D1*
X3689051Y1806211D1*
X3686199Y1803326D1*
X3681888Y1801900D1*
X3677577D1*
X3673299Y1803326D1*
X3671873Y1804785D1*
X3670414Y1807637D1*
X3695628Y1101150D2*
X3708527D1*
X3712838Y1102609D1*
X3714298Y1104035D1*
X3715724Y1106887D1*
Y1109772D1*
X3714298Y1112624D1*
X3712838Y1114083D1*
X3708527Y1115509D1*
X3695628D1*
Y1085365D1*
X3705676Y1101150D2*
X3715724Y1085365D1*
X3727872Y1115475D2*
X3743624D1*
X3735035Y1104002D1*
X3739346D1*
X3742198Y1102576D1*
X3743624Y1101150D1*
X3745083Y1096839D1*
Y1093987D1*
X3743624Y1089676D1*
X3740772Y1086791D1*
X3736461Y1085365D1*
X3732150D1*
X3727872Y1086791D1*
X3726446Y1088250D1*
X3724987Y1091102D1*
X3768706Y1085365D2*
Y1115475D1*
X3754347Y1095413D1*
X3775869D1*
X3733742Y1609024D2*
X3746642D1*
X3750953Y1610483D1*
X3752412Y1611909D1*
X3753838Y1614761D1*
Y1617646D1*
X3752412Y1620498D1*
X3750953Y1621957D1*
X3746642Y1623383D1*
X3733742D1*
Y1593239D1*
X3743790Y1609024D2*
X3753838Y1593239D1*
X3765987Y1623350D2*
X3781738D1*
X3773150Y1611876D1*
X3777461D1*
X3780313Y1610450D1*
X3781738Y1609024D1*
X3783198Y1604713D1*
Y1601861D1*
X3781738Y1597550D1*
X3778887Y1594665D1*
X3774576Y1593239D1*
X3770265D1*
X3765987Y1594665D1*
X3764561Y1596124D1*
X3763102Y1598976D1*
X3809672Y1623350D2*
X3795346D1*
X3793920Y1610450D1*
X3795346Y1611876D1*
X3799657Y1613335D1*
X3803935D1*
X3808246Y1611876D1*
X3811131Y1609024D1*
X3812557Y1604713D1*
Y1601861D1*
X3811131Y1597550D1*
X3808246Y1594665D1*
X3803935Y1593239D1*
X3799657D1*
X3795346Y1594665D1*
X3793920Y1596124D1*
X3792461Y1598976D1*
X3734472Y1435795D2*
X3747372D1*
X3751683Y1437254D1*
X3753142Y1438680D1*
X3754568Y1441532D1*
Y1444417D1*
X3753142Y1447269D1*
X3751683Y1448728D1*
X3747372Y1450154D1*
X3734472D1*
Y1420010D1*
X3744520Y1435795D2*
X3754568Y1420010D1*
X3766716Y1450121D2*
X3782468D1*
X3773879Y1438647D1*
X3778190D1*
X3781042Y1437221D1*
X3782468Y1435795D1*
X3783927Y1431484D1*
Y1428632D1*
X3782468Y1424321D1*
X3779616Y1421436D1*
X3775305Y1420010D1*
X3770994D1*
X3766716Y1421436D1*
X3765290Y1422895D1*
X3763831Y1425747D1*
X3810402Y1445843D2*
X3808976Y1448695D1*
X3804665Y1450121D1*
X3801813D1*
X3797502Y1448695D1*
X3794617Y1444384D1*
X3793191Y1437221D1*
Y1430058D1*
X3794617Y1424321D1*
X3797502Y1421436D1*
X3801813Y1420010D1*
X3803239D1*
X3807517Y1421436D1*
X3810402Y1424321D1*
X3811828Y1428632D1*
Y1430058D1*
X3810402Y1434369D1*
X3807517Y1437221D1*
X3803239Y1438647D1*
X3801813D1*
X3797502Y1437221D1*
X3794617Y1434369D1*
X3793191Y1430058D1*
X3733742Y1262567D2*
X3746642D1*
X3750953Y1264026D1*
X3752412Y1265452D1*
X3753838Y1268304D1*
Y1271189D1*
X3752412Y1274041D1*
X3750953Y1275500D1*
X3746642Y1276926D1*
X3733742D1*
Y1246782D1*
X3743790Y1262567D2*
X3753838Y1246782D1*
X3765987Y1276893D2*
X3781738D1*
X3773150Y1265419D1*
X3777461D1*
X3780313Y1263993D1*
X3781738Y1262567D1*
X3783198Y1258256D1*
Y1255404D1*
X3781738Y1251093D1*
X3778887Y1248208D1*
X3774576Y1246782D1*
X3770265D1*
X3765987Y1248208D1*
X3764561Y1249667D1*
X3763102Y1252519D1*
X3798198Y1246782D2*
X3812557Y1276893D1*
X3792461D1*
X4066042Y1546032D2*
X4078942D1*
X4083253Y1547491D1*
X4084712Y1548917D1*
X4086138Y1551768D1*
Y1554654D1*
X4084712Y1557505D1*
X4083253Y1558965D1*
X4078942Y1560391D1*
X4066042D1*
Y1530247D1*
X4076090Y1546032D2*
X4086138Y1530247D1*
X4098287Y1560357D2*
X4114039D1*
X4105450Y1548883D1*
X4109761D1*
X4112613Y1547457D1*
X4114039Y1546032D1*
X4115498Y1541720D1*
Y1538869D1*
X4114039Y1534558D1*
X4111187Y1531672D1*
X4106876Y1530247D1*
X4102565D1*
X4098287Y1531672D1*
X4096861Y1533132D1*
X4095402Y1535984D1*
X4131924Y1560357D2*
X4127646Y1558931D1*
X4126187Y1556080D1*
Y1553194D1*
X4127646Y1550343D1*
X4130498Y1548883D1*
X4136235Y1547457D1*
X4140546Y1546032D1*
X4143398Y1543146D1*
X4144824Y1540295D1*
Y1535984D1*
X4143398Y1533132D1*
X4141972Y1531672D1*
X4137661Y1530247D1*
X4131924D1*
X4127646Y1531672D1*
X4126187Y1533132D1*
X4124761Y1535984D1*
Y1540295D1*
X4126187Y1543146D1*
X4129072Y1546032D1*
X4133350Y1547457D1*
X4139087Y1548883D1*
X4141972Y1550343D1*
X4143398Y1553194D1*
Y1556080D1*
X4141972Y1558931D1*
X4137661Y1560357D1*
X4131924D1*
X4066738Y1368866D2*
X4079638D1*
X4083949Y1370325D1*
X4085409Y1371751D1*
X4086834Y1374603D1*
Y1377488D1*
X4085409Y1380340D1*
X4083949Y1381799D1*
X4079638Y1383225D1*
X4066738D1*
Y1353081D1*
X4076786Y1368866D2*
X4086834Y1353081D1*
X4098983Y1383192D2*
X4114735D1*
X4106146Y1371718D1*
X4110457D1*
X4113309Y1370292D1*
X4114735Y1368866D1*
X4116194Y1364555D1*
Y1361703D1*
X4114735Y1357392D1*
X4111883Y1354507D1*
X4107572Y1353081D1*
X4103261D1*
X4098983Y1354507D1*
X4097557Y1355966D1*
X4096098Y1358818D1*
X4144128Y1373177D2*
X4142669Y1368866D1*
X4139817Y1365981D1*
X4135506Y1364555D1*
X4134080D1*
X4129769Y1365981D1*
X4126917Y1368866D1*
X4125458Y1373177D1*
Y1374603D1*
X4126917Y1378914D1*
X4129769Y1381766D1*
X4134080Y1383192D1*
X4135506D1*
X4139817Y1381766D1*
X4142669Y1378914D1*
X4144128Y1373177D1*
Y1365981D1*
X4142669Y1358818D1*
X4139817Y1354507D1*
X4135506Y1353081D1*
X4132654D1*
X4128343Y1354507D1*
X4126917Y1357392D1*
X4065313Y1191701D2*
X4078212D1*
X4082523Y1193160D1*
X4083983Y1194586D1*
X4085409Y1197438D1*
Y1200323D1*
X4083983Y1203175D1*
X4082523Y1204634D1*
X4078212Y1206060D1*
X4065313D1*
Y1175916D1*
X4075361Y1191701D2*
X4085409Y1175916D1*
X4109031D2*
Y1206027D1*
X4094672Y1185964D1*
X4116194D1*
X4134080Y1206027D2*
X4129769Y1204601D1*
X4126884Y1200290D1*
X4125458Y1193127D1*
Y1188816D1*
X4126884Y1181653D1*
X4129769Y1177342D1*
X4134080Y1175916D1*
X4136932D1*
X4141243Y1177342D1*
X4144094Y1181653D1*
X4145554Y1188816D1*
Y1193127D1*
X4144094Y1200290D1*
X4141243Y1204601D1*
X4136932Y1206027D1*
X4134080D1*
X4144094Y1200290D2*
X4126884Y1181653D1*
X4115070Y1049969D2*
X4127969D1*
X4132281Y1051428D1*
X4133740Y1052854D1*
X4135166Y1055705D1*
Y1058591D1*
X4133740Y1061442D1*
X4132281Y1062902D1*
X4127969Y1064328D1*
X4115070D1*
Y1034184D1*
X4125118Y1049969D2*
X4135166Y1034184D1*
X4158788D2*
Y1064294D1*
X4144429Y1044232D1*
X4165951D1*
X4175215Y1058557D2*
X4178100Y1060017D1*
X4182411Y1064294D1*
Y1034184D1*
X4175549Y1817685D2*
X4188449D1*
X4192760Y1819144D1*
X4194219Y1820570D1*
X4195645Y1823422D1*
Y1826307D1*
X4194219Y1829159D1*
X4192760Y1830618D1*
X4188449Y1832044D1*
X4175549D1*
Y1801900D1*
X4185597Y1817685D2*
X4195645Y1801900D1*
X4219267D2*
Y1832011D1*
X4204908Y1811948D1*
X4226430D1*
X4237153Y1824848D2*
Y1826274D1*
X4238579Y1829159D1*
X4240005Y1830585D1*
X4242890Y1832011D1*
X4248627D1*
X4251479Y1830585D1*
X4252905Y1829159D1*
X4254364Y1826274D1*
Y1823422D1*
X4252905Y1820537D1*
X4250053Y1816259D1*
X4235694Y1801900D1*
X4255790D1*
X4380273Y1900362D2*
X4393173D1*
X4397484Y1901821D1*
X4398943Y1903247D1*
X4400369Y1906099D1*
Y1908984D1*
X4398943Y1911836D1*
X4397484Y1913295D1*
X4393173Y1914721D1*
X4380273D1*
Y1884577D1*
X4390321Y1900362D2*
X4400369Y1884577D1*
X4423992D2*
Y1914688D1*
X4409633Y1894625D1*
X4431155D1*
X4443303Y1914688D2*
X4459055D1*
X4450466Y1903214D1*
X4454777D1*
X4457629Y1901788D1*
X4459055Y1900362D1*
X4460514Y1896051D1*
Y1893199D1*
X4459055Y1888888D1*
X4456203Y1886003D1*
X4451892Y1884577D1*
X4447581D1*
X4443303Y1886003D1*
X4441877Y1887462D1*
X4440418Y1890314D1*
X4588222Y1817685D2*
X4601122D1*
X4605433Y1819144D1*
X4606892Y1820570D1*
X4608318Y1823422D1*
Y1826307D1*
X4606892Y1829159D1*
X4605433Y1830618D1*
X4601122Y1832044D1*
X4588222D1*
Y1801900D1*
X4598270Y1817685D2*
X4608318Y1801900D1*
X4631940D2*
Y1832011D1*
X4617581Y1811948D1*
X4639103D1*
X4662726Y1801900D2*
Y1832011D1*
X4648367Y1811948D1*
X4669889D1*
X4673580Y1101150D2*
X4686480D1*
X4690791Y1102609D1*
X4692250Y1104035D1*
X4693676Y1106887D1*
Y1109772D1*
X4692250Y1112624D1*
X4690791Y1114083D1*
X4686480Y1115509D1*
X4673580D1*
Y1085365D1*
X4683628Y1101150D2*
X4693676Y1085365D1*
X4717299D2*
Y1115475D1*
X4702940Y1095413D1*
X4724462D1*
X4750936Y1115475D2*
X4736610D1*
X4735184Y1102576D1*
X4736610Y1104002D1*
X4740921Y1105461D1*
X4745199D1*
X4749510Y1104002D1*
X4752395Y1101150D1*
X4753821Y1096839D1*
Y1093987D1*
X4752395Y1089676D1*
X4749510Y1086791D1*
X4745199Y1085365D1*
X4740921D1*
X4736610Y1086791D1*
X4735184Y1088250D1*
X4733725Y1091102D1*
X4711711Y1609024D2*
X4724611D1*
X4728922Y1610483D1*
X4730381Y1611909D1*
X4731807Y1614761D1*
Y1617646D1*
X4730381Y1620498D1*
X4728922Y1621957D1*
X4724611Y1623383D1*
X4711711D1*
Y1593239D1*
X4721759Y1609024D2*
X4731807Y1593239D1*
X4755430D2*
Y1623350D1*
X4741071Y1603287D1*
X4762593D1*
X4789067Y1619072D2*
X4787641Y1621924D1*
X4783330Y1623350D1*
X4780478D1*
X4776167Y1621924D1*
X4773282Y1617613D1*
X4771856Y1610450D1*
Y1603287D1*
X4773282Y1597550D1*
X4776167Y1594665D1*
X4780478Y1593239D1*
X4781904D1*
X4786182Y1594665D1*
X4789067Y1597550D1*
X4790493Y1601861D1*
Y1603287D1*
X4789067Y1607598D1*
X4786182Y1610450D1*
X4781904Y1611876D1*
X4780478D1*
X4776167Y1610450D1*
X4773282Y1607598D1*
X4771856Y1603287D1*
X4710982Y1435795D2*
X4723882D1*
X4728193Y1437254D1*
X4729652Y1438680D1*
X4731078Y1441532D1*
Y1444417D1*
X4729652Y1447269D1*
X4728193Y1448728D1*
X4723882Y1450154D1*
X4710982D1*
Y1420010D1*
X4721030Y1435795D2*
X4731078Y1420010D1*
X4754700D2*
Y1450121D1*
X4740341Y1430058D1*
X4761863D1*
X4776864Y1420010D2*
X4791223Y1450121D1*
X4771127D1*
X4710998Y1262567D2*
X4723898D1*
X4728209Y1264026D1*
X4729668Y1265452D1*
X4731094Y1268304D1*
Y1271189D1*
X4729668Y1274041D1*
X4728209Y1275500D1*
X4723898Y1276926D1*
X4710998D1*
Y1246782D1*
X4721046Y1262567D2*
X4731094Y1246782D1*
X4754717D2*
Y1276893D1*
X4740358Y1256830D1*
X4761880D1*
X4778306Y1276893D2*
X4774029Y1275467D1*
X4772569Y1272615D1*
Y1269730D1*
X4774029Y1266878D1*
X4776880Y1265419D1*
X4782617Y1263993D1*
X4786928Y1262567D1*
X4789780Y1259682D1*
X4791206Y1256830D1*
Y1252519D1*
X4789780Y1249667D1*
X4788354Y1248208D1*
X4784043Y1246782D1*
X4778306D1*
X4774029Y1248208D1*
X4772569Y1249667D1*
X4771143Y1252519D1*
Y1256830D1*
X4772569Y1259682D1*
X4775454Y1262567D1*
X4779732Y1263993D1*
X4785469Y1265419D1*
X4788354Y1266878D1*
X4789780Y1269730D1*
Y1272615D1*
X4788354Y1275467D1*
X4784043Y1276893D1*
X4778306D1*
X4938850Y1630199D2*
Y1643099D1*
X4937391Y1647410D1*
X4935965Y1648869D1*
X4933113Y1650295D1*
X4930228D1*
X4927376Y1648869D1*
X4925917Y1647410D1*
X4924491Y1643099D1*
Y1630199D1*
X4954635D1*
X4938850Y1640247D2*
X4954635Y1650295D1*
Y1673917D2*
X4924525D1*
X4944587Y1659558D1*
Y1681080D1*
X4934539Y1709014D2*
X4938850Y1707555D1*
X4941735Y1704703D1*
X4943161Y1700392D1*
Y1698966D1*
X4941735Y1694655D1*
X4938850Y1691803D1*
X4934539Y1690344D1*
X4933113D1*
X4928802Y1691803D1*
X4925951Y1694655D1*
X4924525Y1698966D1*
Y1700392D1*
X4925951Y1704703D1*
X4928802Y1707555D1*
X4934539Y1709014D1*
X4941735D1*
X4948898Y1707555D1*
X4953209Y1704703D1*
X4954635Y1700392D1*
Y1697540D1*
X4953209Y1693229D1*
X4950324Y1691803D1*
X4938850Y1236498D2*
Y1249398D1*
X4937391Y1253709D1*
X4935965Y1255168D1*
X4933113Y1256594D1*
X4930228D1*
X4927376Y1255168D1*
X4925917Y1253709D1*
X4924491Y1249398D1*
Y1236498D1*
X4954635D1*
X4938850Y1246546D2*
X4954635Y1256594D1*
X4924525Y1283069D2*
Y1268743D1*
X4937424Y1267317D1*
X4935999Y1268743D1*
X4934539Y1273054D1*
Y1277332D1*
X4935999Y1281643D1*
X4938850Y1284528D1*
X4943161Y1285954D1*
X4946013D1*
X4950324Y1284528D1*
X4953209Y1281642D1*
X4954635Y1277331D1*
Y1273054D1*
X4953209Y1268743D1*
X4951750Y1267317D1*
X4948898Y1265858D1*
X4924525Y1303839D2*
X4925951Y1299528D1*
X4930262Y1296643D1*
X4937424Y1295217D1*
X4941735D1*
X4948898Y1296643D1*
X4953209Y1299528D1*
X4954635Y1303839D1*
Y1306691D1*
X4953209Y1311002D1*
X4948898Y1313854D1*
X4941735Y1315313D1*
X4937424D1*
X4930262Y1313854D1*
X4925951Y1311002D1*
X4924525Y1306691D1*
Y1303839D1*
X4930262Y1313854D2*
X4948898Y1296643D1*
X5053578Y1094850D2*
X5066478D1*
X5070789Y1096310D1*
X5072248Y1097735D1*
X5073674Y1100587D1*
Y1103472D1*
X5072248Y1106324D1*
X5070789Y1107783D1*
X5066478Y1109209D1*
X5053578D1*
Y1079065D1*
X5063626Y1094850D2*
X5073674Y1079065D1*
X5100148Y1109176D2*
X5085822D1*
X5084397Y1096276D1*
X5085822Y1097702D1*
X5090133Y1099161D1*
X5094411D1*
X5098722Y1097702D1*
X5101607Y1094850D1*
X5103033Y1090539D1*
Y1087687D1*
X5101607Y1083376D1*
X5098722Y1080491D1*
X5094411Y1079065D1*
X5090133D1*
X5085822Y1080491D1*
X5084397Y1081951D1*
X5082937Y1084802D1*
X5112297Y1103439D2*
X5115182Y1104898D1*
X5119493Y1109176D1*
Y1079065D1*
X5129411Y1580111D2*
X5142311D1*
X5146622Y1581571D1*
X5148081Y1582996D1*
X5149507Y1585848D1*
Y1588733D1*
X5148081Y1591585D1*
X5146622Y1593045D1*
X5142311Y1594470D1*
X5129411D1*
Y1564326D1*
X5139459Y1580111D2*
X5149507Y1564326D1*
X5175982Y1594437D2*
X5161656D1*
X5160230Y1581537D1*
X5161656Y1582963D1*
X5165967Y1584422D1*
X5170245D1*
X5174556Y1582963D1*
X5177441Y1580111D1*
X5178867Y1575800D1*
Y1572948D1*
X5177441Y1568637D1*
X5174556Y1565752D1*
X5170245Y1564326D1*
X5165967D1*
X5161656Y1565752D1*
X5160230Y1567212D1*
X5158771Y1570063D1*
X5189590Y1587274D2*
Y1588700D1*
X5191016Y1591585D1*
X5192441Y1593011D1*
X5195327Y1594437D1*
X5201064D1*
X5203915Y1593011D1*
X5205341Y1591585D1*
X5206800Y1588700D1*
Y1585848D1*
X5205341Y1582963D1*
X5202489Y1578685D1*
X5188130Y1564326D1*
X5208226D1*
X5437679Y1546032D2*
X5450579D1*
X5454890Y1547491D1*
X5456349Y1548917D1*
X5457775Y1551768D1*
Y1554654D1*
X5456349Y1557505D1*
X5454890Y1558965D1*
X5450579Y1560391D1*
X5437679D1*
Y1530247D1*
X5447727Y1546032D2*
X5457775Y1530247D1*
X5484250Y1560357D2*
X5469924D1*
X5468498Y1547457D1*
X5469924Y1548883D1*
X5474235Y1550343D1*
X5478513D1*
X5482824Y1548883D1*
X5485709Y1546032D1*
X5487135Y1541720D1*
Y1538869D1*
X5485709Y1534558D1*
X5482824Y1531672D1*
X5478513Y1530247D1*
X5474235D1*
X5469924Y1531672D1*
X5468498Y1533132D1*
X5467039Y1535984D1*
X5499283Y1560357D2*
X5515035D1*
X5506446Y1548883D1*
X5510757D1*
X5513609Y1547457D1*
X5515035Y1546032D1*
X5516494Y1541720D1*
Y1538869D1*
X5515035Y1534558D1*
X5512183Y1531672D1*
X5507872Y1530247D1*
X5503561D1*
X5499283Y1531672D1*
X5497857Y1533132D1*
X5496398Y1535984D1*
X5436966Y1368866D2*
X5449866D1*
X5454177Y1370325D1*
X5455636Y1371751D1*
X5457062Y1374603D1*
Y1377488D1*
X5455636Y1380340D1*
X5454177Y1381799D1*
X5449866Y1383225D1*
X5436966D1*
Y1353081D1*
X5447014Y1368866D2*
X5457062Y1353081D1*
X5483537Y1383192D2*
X5469211D1*
X5467785Y1370292D1*
X5469211Y1371718D1*
X5473522Y1373177D1*
X5477800D1*
X5482111Y1371718D1*
X5484996Y1368866D1*
X5486422Y1364555D1*
Y1361703D1*
X5484996Y1357392D1*
X5482111Y1354507D1*
X5477800Y1353081D1*
X5473522D1*
X5469211Y1354507D1*
X5467785Y1355966D1*
X5466326Y1358818D1*
X5510044Y1353081D2*
Y1383192D1*
X5495685Y1363129D1*
X5517207D1*
X5437679Y1191701D2*
X5450579D1*
X5454890Y1193160D1*
X5456349Y1194586D1*
X5457775Y1197438D1*
Y1200323D1*
X5456349Y1203175D1*
X5454890Y1204634D1*
X5450579Y1206060D1*
X5437679D1*
Y1175916D1*
X5447727Y1191701D2*
X5457775Y1175916D1*
X5484250Y1206027D2*
X5469924D1*
X5468498Y1193127D1*
X5469924Y1194553D1*
X5474235Y1196012D1*
X5478513D1*
X5482824Y1194553D1*
X5485709Y1191701D1*
X5487135Y1187390D1*
Y1184538D1*
X5485709Y1180227D1*
X5482824Y1177342D1*
X5478513Y1175916D1*
X5474235D1*
X5469924Y1177342D1*
X5468498Y1178801D1*
X5467039Y1181653D1*
X5513609Y1206027D2*
X5499283D1*
X5497857Y1193127D1*
X5499283Y1194553D1*
X5503594Y1196012D1*
X5507872D1*
X5512183Y1194553D1*
X5515068Y1191701D1*
X5516494Y1187390D1*
Y1184538D1*
X5515068Y1180227D1*
X5512183Y1177342D1*
X5507872Y1175916D1*
X5503594D1*
X5499283Y1177342D1*
X5497857Y1178801D1*
X5496398Y1181653D1*
X5481716Y1049969D2*
X5494616D1*
X5498927Y1051428D1*
X5500386Y1052854D1*
X5501812Y1055705D1*
Y1058591D1*
X5500386Y1061442D1*
X5498927Y1062902D1*
X5494616Y1064328D1*
X5481716D1*
Y1034184D1*
X5491764Y1049969D2*
X5501812Y1034184D1*
X5528286Y1064294D2*
X5513960D1*
X5512534Y1051394D1*
X5513960Y1052820D1*
X5518271Y1054280D1*
X5522549D1*
X5526860Y1052820D1*
X5529745Y1049969D1*
X5531171Y1045657D1*
Y1042806D1*
X5529745Y1038495D1*
X5526860Y1035609D1*
X5522549Y1034184D1*
X5518271D1*
X5513960Y1035609D1*
X5512534Y1037069D1*
X5511075Y1039921D1*
X5557646Y1060017D2*
X5556220Y1062868D1*
X5551909Y1064294D1*
X5549057D1*
X5544746Y1062868D1*
X5541861Y1058557D1*
X5540435Y1051394D1*
Y1044232D1*
X5541861Y1038495D1*
X5544746Y1035609D1*
X5549057Y1034184D1*
X5550483D1*
X5554761Y1035609D1*
X5557646Y1038495D1*
X5559072Y1042806D1*
Y1044232D1*
X5557646Y1048543D1*
X5554761Y1051394D1*
X5550483Y1052820D1*
X5549057D1*
X5544746Y1051394D1*
X5541861Y1048543D1*
X5540435Y1044232D1*
X5547915Y1817685D2*
X5560815D1*
X5565126Y1819144D1*
X5566585Y1820570D1*
X5568011Y1823422D1*
Y1826307D1*
X5566585Y1829159D1*
X5565126Y1830618D1*
X5560815Y1832044D1*
X5547915D1*
Y1801900D1*
X5557963Y1817685D2*
X5568011Y1801900D1*
X5594486Y1832011D2*
X5580160D1*
X5578734Y1819111D1*
X5580160Y1820537D1*
X5584471Y1821996D1*
X5588749D1*
X5593060Y1820537D1*
X5595945Y1817685D1*
X5597371Y1813374D1*
Y1810522D1*
X5595945Y1806211D1*
X5593060Y1803326D1*
X5588749Y1801900D1*
X5584471D1*
X5580160Y1803326D1*
X5578734Y1804785D1*
X5577275Y1807637D1*
X5612371Y1801900D2*
X5626730Y1832011D1*
X5606634D1*
X5752656Y1900362D2*
X5765556D1*
X5769867Y1901821D1*
X5771326Y1903247D1*
X5772752Y1906099D1*
Y1908984D1*
X5771326Y1911836D1*
X5769867Y1913295D1*
X5765556Y1914721D1*
X5752656D1*
Y1884577D1*
X5762704Y1900362D2*
X5772752Y1884577D1*
X5799227Y1914688D2*
X5784901D1*
X5783475Y1901788D1*
X5784901Y1903214D1*
X5789212Y1904673D1*
X5793490D1*
X5797801Y1903214D1*
X5800686Y1900362D1*
X5802112Y1896051D1*
Y1893199D1*
X5800686Y1888888D1*
X5797801Y1886003D1*
X5793490Y1884577D1*
X5789212D1*
X5784901Y1886003D1*
X5783475Y1887462D1*
X5782016Y1890314D1*
X5818538Y1914688D2*
X5814260Y1913262D1*
X5812801Y1910410D1*
Y1907525D1*
X5814260Y1904673D1*
X5817112Y1903214D1*
X5822849Y1901788D1*
X5827160Y1900362D1*
X5830012Y1897477D1*
X5831438Y1894625D1*
Y1890314D1*
X5830012Y1887462D1*
X5828586Y1886003D1*
X5824275Y1884577D1*
X5818538D1*
X5814260Y1886003D1*
X5812801Y1887462D1*
X5811375Y1890314D1*
Y1894625D1*
X5812801Y1897477D1*
X5815686Y1900362D1*
X5819964Y1901788D1*
X5825701Y1903214D1*
X5828586Y1904673D1*
X5830012Y1907525D1*
Y1910410D1*
X5828586Y1913262D1*
X5824275Y1914688D1*
X5818538D1*
X5962014Y1817685D2*
X5974914D1*
X5979225Y1819144D1*
X5980684Y1820570D1*
X5982110Y1823422D1*
Y1826307D1*
X5980684Y1829159D1*
X5979225Y1830618D1*
X5974914Y1832044D1*
X5962014D1*
Y1801900D1*
X5972062Y1817685D2*
X5982110Y1801900D1*
X6008585Y1832011D2*
X5994259D1*
X5992833Y1819111D1*
X5994259Y1820537D1*
X5998570Y1821996D1*
X6002848D1*
X6007159Y1820537D1*
X6010044Y1817685D1*
X6011470Y1813374D1*
Y1810522D1*
X6010044Y1806211D1*
X6007159Y1803326D1*
X6002848Y1801900D1*
X5998570D1*
X5994259Y1803326D1*
X5992833Y1804785D1*
X5991374Y1807637D1*
X6039403Y1821996D2*
X6037944Y1817685D1*
X6035092Y1814800D1*
X6030781Y1813374D1*
X6029355D1*
X6025044Y1814800D1*
X6022192Y1817685D1*
X6020733Y1821996D1*
Y1823422D1*
X6022192Y1827733D1*
X6025044Y1830585D1*
X6029355Y1832011D1*
X6030781D1*
X6035092Y1830585D1*
X6037944Y1827733D1*
X6039403Y1821996D1*
Y1814800D1*
X6037944Y1807637D1*
X6035092Y1803326D1*
X6030781Y1801900D1*
X6027929D1*
X6023618Y1803326D1*
X6022192Y1806211D1*
X6046676Y1101150D2*
X6059576D1*
X6063887Y1102609D1*
X6065346Y1104035D1*
X6066772Y1106887D1*
Y1109772D1*
X6065346Y1112624D1*
X6063887Y1114083D1*
X6059576Y1115509D1*
X6046676D1*
Y1085365D1*
X6056724Y1101150D2*
X6066772Y1085365D1*
X6093247Y1111198D2*
X6091821Y1114050D1*
X6087510Y1115475D1*
X6084658D1*
X6080347Y1114050D1*
X6077462Y1109739D1*
X6076036Y1102576D1*
Y1095413D1*
X6077462Y1089676D1*
X6080347Y1086791D1*
X6084658Y1085365D1*
X6086084D1*
X6090362Y1086791D1*
X6093247Y1089676D1*
X6094673Y1093987D1*
Y1095413D1*
X6093247Y1099724D1*
X6090362Y1102576D1*
X6086084Y1104002D1*
X6084658D1*
X6080347Y1102576D1*
X6077462Y1099724D1*
X6076036Y1095413D1*
X6112558Y1115475D2*
X6108247Y1114050D1*
X6105362Y1109739D1*
X6103936Y1102576D1*
Y1098265D1*
X6105362Y1091102D1*
X6108247Y1086791D1*
X6112558Y1085365D1*
X6115410D1*
X6119721Y1086791D1*
X6122573Y1091102D1*
X6124032Y1098265D1*
Y1102576D1*
X6122573Y1109739D1*
X6119721Y1114050D1*
X6115410Y1115475D1*
X6112558D1*
X6122573Y1109739D2*
X6105362Y1091102D1*
X6090528Y1609024D2*
X6103428D1*
X6107739Y1610483D1*
X6109198Y1611909D1*
X6110624Y1614761D1*
Y1617646D1*
X6109198Y1620498D1*
X6107739Y1621957D1*
X6103428Y1623383D1*
X6090528D1*
Y1593239D1*
X6100576Y1609024D2*
X6110624Y1593239D1*
X6137098Y1619072D2*
X6135672Y1621924D1*
X6131361Y1623350D1*
X6128509D1*
X6124198Y1621924D1*
X6121313Y1617613D1*
X6119887Y1610450D1*
Y1603287D1*
X6121313Y1597550D1*
X6124198Y1594665D1*
X6128509Y1593239D1*
X6129935D1*
X6134213Y1594665D1*
X6137098Y1597550D1*
X6138524Y1601861D1*
Y1603287D1*
X6137098Y1607598D1*
X6134213Y1610450D1*
X6129935Y1611876D1*
X6128509D1*
X6124198Y1610450D1*
X6121313Y1607598D1*
X6119887Y1603287D1*
X6147788Y1617613D2*
X6150673Y1619072D1*
X6154984Y1623350D1*
Y1593239D1*
X6084078Y1435795D2*
X6096978D1*
X6101289Y1437254D1*
X6102748Y1438680D1*
X6104174Y1441532D1*
Y1444417D1*
X6102748Y1447269D1*
X6101289Y1448728D1*
X6096978Y1450154D1*
X6084078D1*
Y1420010D1*
X6094126Y1435795D2*
X6104174Y1420010D1*
X6130648Y1445843D2*
X6129222Y1448695D1*
X6124911Y1450121D1*
X6122060D1*
X6117748Y1448695D1*
X6114863Y1444384D1*
X6113437Y1437221D1*
Y1430058D1*
X6114863Y1424321D1*
X6117748Y1421436D1*
X6122060Y1420010D1*
X6123485D1*
X6127763Y1421436D1*
X6130648Y1424321D1*
X6132074Y1428632D1*
Y1430058D1*
X6130648Y1434369D1*
X6127763Y1437221D1*
X6123485Y1438647D1*
X6122060D1*
X6117748Y1437221D1*
X6114863Y1434369D1*
X6113437Y1430058D1*
X6142797Y1442958D2*
Y1444384D1*
X6144223Y1447269D1*
X6145649Y1448695D1*
X6148534Y1450121D1*
X6154271D1*
X6157123Y1448695D1*
X6158549Y1447269D1*
X6160008Y1444384D1*
Y1441532D1*
X6158549Y1438647D1*
X6155697Y1434369D1*
X6141338Y1420010D1*
X6161434D1*
X6084078Y1262567D2*
X6096978D1*
X6101289Y1264026D1*
X6102748Y1265452D1*
X6104174Y1268304D1*
Y1271189D1*
X6102748Y1274041D1*
X6101289Y1275500D1*
X6096978Y1276926D1*
X6084078D1*
Y1246782D1*
X6094126Y1262567D2*
X6104174Y1246782D1*
X6130648Y1272615D2*
X6129222Y1275467D1*
X6124911Y1276893D1*
X6122060D1*
X6117748Y1275467D1*
X6114863Y1271156D1*
X6113437Y1263993D1*
Y1256830D1*
X6114863Y1251093D1*
X6117748Y1248208D1*
X6122060Y1246782D1*
X6123485D1*
X6127763Y1248208D1*
X6130648Y1251093D1*
X6132074Y1255404D1*
Y1256830D1*
X6130648Y1261141D1*
X6127763Y1263993D1*
X6123485Y1265419D1*
X6122060D1*
X6117748Y1263993D1*
X6114863Y1261141D1*
X6113437Y1256830D1*
X6144223Y1276893D2*
X6159975D1*
X6151386Y1265419D1*
X6155697D1*
X6158549Y1263993D1*
X6159975Y1262567D1*
X6161434Y1258256D1*
Y1255404D1*
X6159975Y1251093D1*
X6157123Y1248208D1*
X6152812Y1246782D1*
X6148501D1*
X6144223Y1248208D1*
X6142797Y1249667D1*
X6141338Y1252519D1*
X6415648Y1546032D2*
X6428548D1*
X6432859Y1547491D1*
X6434318Y1548917D1*
X6435744Y1551768D1*
Y1554654D1*
X6434318Y1557505D1*
X6432859Y1558965D1*
X6428548Y1560391D1*
X6415648D1*
Y1530247D1*
X6425696Y1546032D2*
X6435744Y1530247D1*
X6462219Y1556080D2*
X6460793Y1558931D1*
X6456482Y1560357D1*
X6453630D1*
X6449319Y1558931D1*
X6446434Y1554620D1*
X6445008Y1547457D1*
Y1540295D1*
X6446434Y1534558D1*
X6449319Y1531672D1*
X6453630Y1530247D1*
X6455056D1*
X6459334Y1531672D1*
X6462219Y1534558D1*
X6463645Y1538869D1*
Y1540295D1*
X6462219Y1544606D1*
X6459334Y1547457D1*
X6455056Y1548883D1*
X6453630D1*
X6449319Y1547457D1*
X6446434Y1544606D1*
X6445008Y1540295D1*
X6487267Y1530247D2*
Y1560357D1*
X6472908Y1540295D1*
X6494430D1*
X6416361Y1368866D2*
X6429261D1*
X6433572Y1370325D1*
X6435031Y1371751D1*
X6436457Y1374603D1*
Y1377488D1*
X6435031Y1380340D1*
X6433572Y1381799D1*
X6429261Y1383225D1*
X6416361D1*
Y1353081D1*
X6426409Y1368866D2*
X6436457Y1353081D1*
X6462932Y1378914D2*
X6461506Y1381766D1*
X6457195Y1383192D1*
X6454343D1*
X6450032Y1381766D1*
X6447147Y1377455D1*
X6445721Y1370292D1*
Y1363129D1*
X6447147Y1357392D1*
X6450032Y1354507D1*
X6454343Y1353081D1*
X6455769D1*
X6460047Y1354507D1*
X6462932Y1357392D1*
X6464358Y1361703D1*
Y1363129D1*
X6462932Y1367440D1*
X6460047Y1370292D1*
X6455769Y1371718D1*
X6454343D1*
X6450032Y1370292D1*
X6447147Y1367440D1*
X6445721Y1363129D1*
X6490832Y1383192D2*
X6476506D1*
X6475080Y1370292D1*
X6476506Y1371718D1*
X6480817Y1373177D1*
X6485095D1*
X6489406Y1371718D1*
X6492291Y1368866D1*
X6493717Y1364555D1*
Y1361703D1*
X6492291Y1357392D1*
X6489406Y1354507D1*
X6485095Y1353081D1*
X6480817D1*
X6476506Y1354507D1*
X6475080Y1355966D1*
X6473621Y1358818D1*
X6417091Y1191701D2*
X6429991D1*
X6434302Y1193160D1*
X6435761Y1194586D1*
X6437187Y1197438D1*
Y1200323D1*
X6435761Y1203175D1*
X6434302Y1204634D1*
X6429991Y1206060D1*
X6417091D1*
Y1175916D1*
X6427139Y1191701D2*
X6437187Y1175916D1*
X6463661Y1201749D2*
X6462235Y1204601D1*
X6457924Y1206027D1*
X6455073D1*
X6450762Y1204601D1*
X6447876Y1200290D1*
X6446450Y1193127D1*
Y1185964D1*
X6447876Y1180227D1*
X6450762Y1177342D1*
X6455073Y1175916D1*
X6456498D1*
X6460776Y1177342D1*
X6463661Y1180227D1*
X6465087Y1184538D1*
Y1185964D1*
X6463661Y1190275D1*
X6460776Y1193127D1*
X6456498Y1194553D1*
X6455073D1*
X6450762Y1193127D1*
X6447876Y1190275D1*
X6446450Y1185964D1*
X6491562Y1201749D2*
X6490136Y1204601D1*
X6485825Y1206027D1*
X6482973D1*
X6478662Y1204601D1*
X6475777Y1200290D1*
X6474351Y1193127D1*
Y1185964D1*
X6475777Y1180227D1*
X6478662Y1177342D1*
X6482973Y1175916D1*
X6484399D1*
X6488677Y1177342D1*
X6491562Y1180227D1*
X6492988Y1184538D1*
Y1185964D1*
X6491562Y1190275D1*
X6488677Y1193127D1*
X6484399Y1194553D1*
X6482973D1*
X6478662Y1193127D1*
X6475777Y1190275D1*
X6474351Y1185964D1*
X6459668Y1049969D2*
X6472568D1*
X6476879Y1051428D1*
X6478339Y1052854D1*
X6479764Y1055705D1*
Y1058591D1*
X6478339Y1061442D1*
X6476879Y1062902D1*
X6472568Y1064328D1*
X6459668D1*
Y1034184D1*
X6469716Y1049969D2*
X6479764Y1034184D1*
X6506239Y1060017D2*
X6504813Y1062868D1*
X6500502Y1064294D1*
X6497650D1*
X6493339Y1062868D1*
X6490454Y1058557D1*
X6489028Y1051394D1*
Y1044232D1*
X6490454Y1038495D1*
X6493339Y1035609D1*
X6497650Y1034184D1*
X6499076D1*
X6503354Y1035609D1*
X6506239Y1038495D1*
X6507665Y1042806D1*
Y1044232D1*
X6506239Y1048543D1*
X6503354Y1051394D1*
X6499076Y1052820D1*
X6497650D1*
X6493339Y1051394D1*
X6490454Y1048543D1*
X6489028Y1044232D1*
X6522665Y1034184D2*
X6537024Y1064294D1*
X6516928D1*
X6526614Y1817685D2*
X6539514D1*
X6543825Y1819144D1*
X6545284Y1820570D1*
X6546710Y1823422D1*
Y1826307D1*
X6545284Y1829159D1*
X6543825Y1830618D1*
X6539514Y1832044D1*
X6526614D1*
Y1801900D1*
X6536662Y1817685D2*
X6546710Y1801900D1*
X6573185Y1827733D2*
X6571759Y1830585D1*
X6567448Y1832011D1*
X6564596D1*
X6560285Y1830585D1*
X6557400Y1826274D1*
X6555974Y1819111D1*
Y1811948D1*
X6557400Y1806211D1*
X6560285Y1803326D1*
X6564596Y1801900D1*
X6566022D1*
X6570300Y1803326D1*
X6573185Y1806211D1*
X6574611Y1810522D1*
Y1811948D1*
X6573185Y1816259D1*
X6570300Y1819111D1*
X6566022Y1820537D1*
X6564596D1*
X6560285Y1819111D1*
X6557400Y1816259D1*
X6555974Y1811948D1*
X6591037Y1832011D2*
X6586759Y1830585D1*
X6585300Y1827733D1*
Y1824848D1*
X6586759Y1821996D1*
X6589611Y1820537D1*
X6595348Y1819111D1*
X6599659Y1817685D1*
X6602511Y1814800D1*
X6603937Y1811948D1*
Y1807637D1*
X6602511Y1804785D1*
X6601085Y1803326D1*
X6596774Y1801900D1*
X6591037D1*
X6586759Y1803326D1*
X6585300Y1804785D1*
X6583874Y1807637D1*
Y1811948D1*
X6585300Y1814800D1*
X6588185Y1817685D1*
X6592463Y1819111D1*
X6598200Y1820537D1*
X6601085Y1821996D1*
X6602511Y1824848D1*
Y1827733D1*
X6601085Y1830585D1*
X6596774Y1832011D1*
X6591037D1*
X6732035Y1900362D2*
X6744935D1*
X6749246Y1901821D1*
X6750705Y1903247D1*
X6752131Y1906099D1*
Y1908984D1*
X6750705Y1911836D1*
X6749246Y1913295D1*
X6744935Y1914721D1*
X6732035D1*
Y1884577D1*
X6742083Y1900362D2*
X6752131Y1884577D1*
X6778605Y1910410D2*
X6777180Y1913262D1*
X6772868Y1914688D1*
X6770017D1*
X6765706Y1913262D1*
X6762820Y1908951D1*
X6761395Y1901788D1*
Y1894625D1*
X6762820Y1888888D1*
X6765706Y1886003D1*
X6770017Y1884577D1*
X6771443D1*
X6775720Y1886003D1*
X6778605Y1888888D1*
X6780031Y1893199D1*
Y1894625D1*
X6778605Y1898936D1*
X6775720Y1901788D1*
X6771443Y1903214D1*
X6770017D1*
X6765706Y1901788D1*
X6762820Y1898936D1*
X6761395Y1894625D1*
X6807965Y1904673D2*
X6806506Y1900362D1*
X6803654Y1897477D1*
X6799343Y1896051D1*
X6797917D1*
X6793606Y1897477D1*
X6790754Y1900362D1*
X6789295Y1904673D1*
Y1906099D1*
X6790754Y1910410D1*
X6793606Y1913262D1*
X6797917Y1914688D1*
X6799343D1*
X6803654Y1913262D1*
X6806506Y1910410D1*
X6807965Y1904673D1*
Y1897477D1*
X6806506Y1890314D1*
X6803654Y1886003D1*
X6799343Y1884577D1*
X6796491D1*
X6792180Y1886003D1*
X6790754Y1888888D1*
X6939254Y1817685D2*
X6952154D1*
X6956465Y1819144D1*
X6957924Y1820570D1*
X6959350Y1823422D1*
Y1826307D1*
X6957924Y1829159D1*
X6956465Y1830618D1*
X6952154Y1832044D1*
X6939254D1*
Y1801900D1*
X6949302Y1817685D2*
X6959350Y1801900D1*
X6974350D2*
X6988709Y1832011D1*
X6968613D1*
X7006595D2*
X7002284Y1830585D1*
X6999399Y1826274D1*
X6997973Y1819111D1*
Y1814800D1*
X6999399Y1807637D1*
X7002284Y1803326D1*
X7006595Y1801900D1*
X7009447D1*
X7013758Y1803326D1*
X7016610Y1807637D1*
X7018069Y1814800D1*
Y1819111D1*
X7016610Y1826274D1*
X7013758Y1830585D1*
X7009447Y1832011D1*
X7006595D1*
X7016610Y1826274D2*
X6999399Y1807637D1*
X7030349Y1101150D2*
X7043249D1*
X7047560Y1102609D1*
X7049020Y1104035D1*
X7050445Y1106887D1*
Y1109772D1*
X7049020Y1112624D1*
X7047560Y1114083D1*
X7043249Y1115509D1*
X7030349D1*
Y1085365D1*
X7040397Y1101150D2*
X7050445Y1085365D1*
X7065446D2*
X7079805Y1115475D1*
X7059709D1*
X7089069Y1109739D2*
X7091954Y1111198D1*
X7096265Y1115475D1*
Y1085365D1*
X7061301Y1609024D2*
X7074201D1*
X7078512Y1610483D1*
X7079971Y1611909D1*
X7081397Y1614761D1*
Y1617646D1*
X7079971Y1620498D1*
X7078512Y1621957D1*
X7074201Y1623383D1*
X7061301D1*
Y1593239D1*
X7071349Y1609024D2*
X7081397Y1593239D1*
X7096398D2*
X7110757Y1623350D1*
X7090661D1*
X7121479Y1616187D2*
Y1617613D1*
X7122905Y1620498D1*
X7124331Y1621924D1*
X7127216Y1623350D1*
X7132953D1*
X7135805Y1621924D1*
X7137231Y1620498D1*
X7138690Y1617613D1*
Y1614761D1*
X7137231Y1611876D1*
X7134379Y1607598D1*
X7120020Y1593239D1*
X7140116D1*
X7061301Y1435795D2*
X7074201D1*
X7078512Y1437254D1*
X7079971Y1438680D1*
X7081397Y1441532D1*
Y1444417D1*
X7079971Y1447269D1*
X7078512Y1448728D1*
X7074201Y1450154D1*
X7061301D1*
Y1420010D1*
X7071349Y1435795D2*
X7081397Y1420010D1*
X7096398D2*
X7110757Y1450121D1*
X7090661D1*
X7122905D2*
X7138657D1*
X7130068Y1438647D1*
X7134379D1*
X7137231Y1437221D1*
X7138657Y1435795D1*
X7140116Y1431484D1*
Y1428632D1*
X7138657Y1424321D1*
X7135805Y1421436D1*
X7131494Y1420010D1*
X7127183D1*
X7122905Y1421436D1*
X7121479Y1422895D1*
X7120020Y1425747D1*
X7060588Y1262567D2*
X7073488D1*
X7077799Y1264026D1*
X7079258Y1265452D1*
X7080684Y1268304D1*
Y1271189D1*
X7079258Y1274041D1*
X7077799Y1275500D1*
X7073488Y1276926D1*
X7060588D1*
Y1246782D1*
X7070636Y1262567D2*
X7080684Y1246782D1*
X7095685D2*
X7110044Y1276893D1*
X7089948D1*
X7133666Y1246782D2*
Y1276893D1*
X7119307Y1256830D1*
X7140829D1*
X870029Y881257D2*
Y859735D1*
X871455Y855424D1*
X874340Y852572D1*
X878651Y851113D1*
X881503D1*
X885814Y852572D1*
X888699Y855424D1*
X890125Y859735D1*
Y881257D1*
X899389Y875487D2*
X902274Y876946D1*
X906585Y881224D1*
Y851113D1*
X1273028Y881257D2*
Y859735D1*
X1274454Y855424D1*
X1277339Y852572D1*
X1281650Y851113D1*
X1284502D1*
X1288813Y852572D1*
X1291698Y855424D1*
X1293124Y859735D1*
Y881257D1*
X1303847Y874061D2*
Y875487D1*
X1305273Y878372D1*
X1306699Y879798D1*
X1309584Y881224D1*
X1315321D1*
X1318173Y879798D1*
X1319599Y878372D1*
X1321058Y875487D1*
Y872635D1*
X1319599Y869750D1*
X1316747Y865472D1*
X1302388Y851113D1*
X1322484D1*
X1841532Y881257D2*
Y859735D1*
X1842958Y855424D1*
X1845843Y852572D1*
X1850154Y851113D1*
X1853006D1*
X1857317Y852572D1*
X1860202Y855424D1*
X1861628Y859735D1*
Y881257D1*
X1873777Y881224D2*
X1889529D1*
X1880940Y869750D1*
X1885251D1*
X1888103Y868324D1*
X1889529Y866898D1*
X1890988Y862587D1*
Y859735D1*
X1889529Y855424D1*
X1886677Y852539D1*
X1882366Y851113D1*
X1878055D1*
X1873777Y852539D1*
X1872351Y853998D1*
X1870892Y856850D1*
X2250268Y881257D2*
Y859735D1*
X2251694Y855424D1*
X2254579Y852572D1*
X2258890Y851113D1*
X2261742D1*
X2266053Y852572D1*
X2268938Y855424D1*
X2270364Y859735D1*
Y881257D1*
X2293986Y851113D2*
Y881224D1*
X2279627Y861161D1*
X2301149D1*
X3213186Y881257D2*
Y859735D1*
X3214612Y855424D1*
X3217497Y852572D1*
X3221808Y851113D1*
X3224660D1*
X3228971Y852572D1*
X3231856Y855424D1*
X3233282Y859735D1*
Y881257D1*
X3259756Y881224D2*
X3245430D1*
X3244004Y868324D1*
X3245430Y869750D1*
X3249741Y871209D1*
X3254019D1*
X3258330Y869750D1*
X3261215Y866898D1*
X3262641Y862587D1*
Y859735D1*
X3261215Y855424D1*
X3258330Y852539D1*
X3254019Y851113D1*
X3249741D1*
X3245430Y852539D1*
X3244004Y853998D1*
X3242545Y856850D1*
X3623364Y881257D2*
Y859735D1*
X3624790Y855424D1*
X3627675Y852572D1*
X3631986Y851113D1*
X3634838D1*
X3639149Y852572D1*
X3642034Y855424D1*
X3643460Y859735D1*
Y881257D1*
X3669934Y876946D2*
X3668509Y879798D1*
X3664197Y881224D1*
X3661346D1*
X3657035Y879798D1*
X3654149Y875487D1*
X3652724Y868324D1*
Y861161D1*
X3654149Y855424D1*
X3657035Y852539D1*
X3661346Y851113D1*
X3662772D1*
X3667049Y852539D1*
X3669934Y855424D1*
X3671360Y859735D1*
Y861161D1*
X3669934Y865472D1*
X3667049Y868324D1*
X3662772Y869750D1*
X3661346D1*
X3657035Y868324D1*
X3654149Y865472D1*
X3652724Y861161D1*
X4191138Y881257D2*
Y859735D1*
X4192564Y855424D1*
X4195449Y852572D1*
X4199760Y851113D1*
X4202612D1*
X4206923Y852572D1*
X4209808Y855424D1*
X4211234Y859735D1*
Y881257D1*
X4226235Y851113D2*
X4240594Y881224D1*
X4220498D1*
X4600604Y881257D2*
Y859735D1*
X4602030Y855424D1*
X4604915Y852572D1*
X4609226Y851113D1*
X4612078D1*
X4616389Y852572D1*
X4619274Y855424D1*
X4620700Y859735D1*
Y881257D1*
X4637126Y881224D2*
X4632848Y879798D1*
X4631389Y876946D1*
Y874061D1*
X4632848Y871209D1*
X4635700Y869750D1*
X4641437Y868324D1*
X4645748Y866898D1*
X4648600Y864013D1*
X4650026Y861161D1*
Y856850D1*
X4648600Y853998D1*
X4647174Y852539D1*
X4642863Y851113D1*
X4637126D1*
X4632848Y852539D1*
X4631389Y853998D1*
X4629963Y856850D1*
Y861161D1*
X4631389Y864013D1*
X4634274Y866898D1*
X4638552Y868324D1*
X4644289Y869750D1*
X4647174Y871209D1*
X4648600Y874061D1*
Y876946D1*
X4647174Y879798D1*
X4642863Y881224D1*
X4637126D1*
X5563505Y881257D2*
Y859735D1*
X5564931Y855424D1*
X5567816Y852572D1*
X5572127Y851113D1*
X5574979D1*
X5579290Y852572D1*
X5582175Y855424D1*
X5583601Y859735D1*
Y881257D1*
X5611534Y871209D2*
X5610075Y866898D1*
X5607223Y864013D1*
X5602912Y862587D1*
X5601486D1*
X5597175Y864013D1*
X5594324Y866898D1*
X5592864Y871209D1*
Y872635D1*
X5594324Y876946D1*
X5597175Y879798D1*
X5601486Y881224D1*
X5602912D1*
X5607223Y879798D1*
X5610075Y876946D1*
X5611534Y871209D1*
Y864013D1*
X5610075Y856850D1*
X5607223Y852539D1*
X5602912Y851113D1*
X5600061D1*
X5595750Y852539D1*
X5594324Y855424D1*
X5964011Y881257D2*
Y859735D1*
X5965437Y855424D1*
X5968322Y852572D1*
X5972633Y851113D1*
X5975485D1*
X5979796Y852572D1*
X5982681Y855424D1*
X5984107Y859735D1*
Y881257D1*
X5993370Y875487D2*
X5996256Y876946D1*
X6000567Y881224D1*
Y851113D1*
X6018452Y881224D2*
X6014141Y879798D1*
X6011256Y875487D1*
X6009830Y868324D1*
Y864013D1*
X6011256Y856850D1*
X6014141Y852539D1*
X6018452Y851113D1*
X6021304D1*
X6025615Y852539D1*
X6028467Y856850D1*
X6029926Y864013D1*
Y868324D1*
X6028467Y875487D1*
X6025615Y879798D1*
X6021304Y881224D1*
X6018452D1*
X6028467Y875487D2*
X6011256Y856850D1*
X6538965Y881257D2*
Y859735D1*
X6540391Y855424D1*
X6543276Y852572D1*
X6547587Y851113D1*
X6550439D1*
X6554750Y852572D1*
X6557635Y855424D1*
X6559061Y859735D1*
Y881257D1*
X6568324Y875487D2*
X6571209Y876946D1*
X6575520Y881224D1*
Y851113D1*
X6584784Y875487D2*
X6587669Y876946D1*
X6591980Y881224D1*
Y851113D1*
X6941964Y881257D2*
Y859735D1*
X6943390Y855424D1*
X6946275Y852572D1*
X6950586Y851113D1*
X6953438D1*
X6957749Y852572D1*
X6960634Y855424D1*
X6962060Y859735D1*
Y881257D1*
X6971323Y875487D2*
X6974208Y876946D1*
X6978519Y881224D1*
Y851113D1*
X6989242Y874061D2*
Y875487D1*
X6990668Y878372D1*
X6992094Y879798D1*
X6994979Y881224D1*
X7000716D1*
X7003568Y879798D1*
X7004994Y878372D1*
X7006453Y875487D1*
Y872635D1*
X7004994Y869750D1*
X7002142Y865472D1*
X6987783Y851113D1*
X7007879D1*
X539993Y607638D2*
D63*
X555292Y567446D1*
X570591Y607638D1*
X611638Y598087D2*
X609737Y601890D1*
X605890Y605736D1*
X602087Y607638D1*
X594438D1*
X590591Y605736D1*
X586789Y601890D1*
X584843Y598087D1*
X582942Y592339D1*
Y582744D1*
X584843Y577041D1*
X586789Y573194D1*
X590591Y569391D1*
X594438Y567446D1*
X602087D1*
X605890Y569391D1*
X609737Y573194D1*
X611638Y577041D1*
X652685Y598087D2*
X650784Y601890D1*
X646937Y605736D1*
X643135Y607638D1*
X635485D1*
X631639Y605736D1*
X627836Y601890D1*
X625891Y598087D1*
X623989Y592339D1*
Y582744D1*
X625891Y577041D1*
X627836Y573194D1*
X631639Y569391D1*
X635485Y567446D1*
X643135D1*
X646937Y569391D1*
X650784Y573194D1*
X652685Y577041D1*
X568689Y495725D2*
X566788Y499528D1*
X562941Y503374D1*
X559139Y505276D1*
X551489D1*
X547643Y503374D1*
X543840Y499528D1*
X541895Y495725D1*
X539993Y489977D1*
Y480382D1*
X541895Y474678D1*
X543840Y470832D1*
X547643Y467029D1*
X551489Y465084D1*
X559139D1*
X562941Y467029D1*
X566788Y470832D1*
X568689Y474678D1*
Y480382D1*
X559139D1*
X607835Y505276D2*
Y465084D1*
X581041Y505276D1*
Y465084D1*
X620187Y505276D2*
Y465084D1*
X633584D1*
X639332Y467029D1*
X643179Y470832D1*
X645080Y474678D1*
X646981Y480382D1*
Y489977D1*
X645080Y495725D1*
X643179Y499528D1*
X639332Y503374D1*
X633584Y505276D1*
X620187D1*
X566788Y704252D2*
X562985Y708099D1*
X557237Y710000D1*
X549588D1*
X543840Y708099D1*
X539993Y704252D1*
Y700449D1*
X541939Y696603D1*
X543840Y694701D1*
X547643Y692800D1*
X559139Y688953D1*
X562985Y687052D1*
X564887Y685107D1*
X566788Y681304D1*
Y675556D1*
X562985Y671753D1*
X557237Y669808D1*
X549588D1*
X543840Y671753D1*
X539993Y675556D1*
X607835Y700449D2*
X605934Y704252D1*
X602087Y708099D1*
X598285Y710000D1*
X590635D1*
X586789Y708099D1*
X582986Y704252D1*
X581041Y700449D1*
X579139Y694701D1*
Y685107D1*
X581041Y679403D1*
X582986Y675556D1*
X586789Y671753D1*
X590635Y669808D1*
X598285D1*
X602087Y671753D1*
X605934Y675556D1*
X607835Y679403D1*
X620187Y710000D2*
Y669808D1*
X646981Y710000D2*
X620187Y683205D1*
X629737Y692800D2*
X646981Y669808D1*
X551489Y1150945D2*
X547643Y1149044D1*
X543840Y1145197D1*
X541895Y1141394D1*
X539993Y1135646D1*
Y1126051D1*
X541895Y1120348D1*
X543840Y1116501D1*
X547643Y1112698D1*
X551489Y1110753D1*
X559139D1*
X562941Y1112698D1*
X566788Y1116501D1*
X568689Y1120348D1*
X570591Y1126051D1*
Y1135646D1*
X568689Y1141394D1*
X566788Y1145197D1*
X562941Y1149044D1*
X559139Y1150945D1*
X551489D1*
X607791D2*
X582942D1*
Y1110753D1*
X607791D1*
X582942Y1131799D2*
X598241D1*
X539993Y1161424D2*
X620143D1*
X539993Y1037311D2*
X557193D1*
X562941Y1039257D1*
X564887Y1041158D1*
X566788Y1044961D1*
Y1048807D1*
X564887Y1052610D1*
X562941Y1054555D1*
X557193Y1056457D1*
X539993D1*
Y1016265D1*
X553391Y1037311D2*
X566788Y1016265D1*
X607835Y1046906D2*
X605934Y1050709D1*
X602087Y1054555D1*
X598285Y1056457D1*
X590635D1*
X586789Y1054555D1*
X582986Y1050709D1*
X581041Y1046906D1*
X579139Y1041158D1*
Y1031563D1*
X581041Y1025859D1*
X582986Y1022013D1*
X586789Y1018210D1*
X590635Y1016265D1*
X598285D1*
X602087Y1018210D1*
X605934Y1022013D1*
X607835Y1025859D1*
X620187Y1056457D2*
Y1016265D1*
X646981Y1056457D2*
X620187Y1029662D1*
X629737Y1039257D2*
X646981Y1016265D1*
X539993Y1257244D2*
Y1217052D1*
X553391D1*
X559139Y1218998D1*
X562985Y1222800D1*
X564887Y1226647D1*
X566788Y1232351D1*
Y1241945D1*
X564887Y1247693D1*
X562985Y1251496D1*
X559139Y1255343D1*
X553391Y1257244D1*
X539993D1*
X579139D2*
Y1217052D1*
X618285Y1257244D2*
Y1217052D1*
X591491Y1257244D1*
Y1217052D1*
X4862064Y672205D2*
Y632013D1*
Y672205D2*
X4835269Y632013D1*
Y672205D2*
Y632013D1*
X4874415Y672205D2*
Y632013D1*
X4901210Y672205D2*
Y632013D1*
X4874415Y653059D2*
X4901210D1*
X4913561Y652087D2*
X4935669D1*
X4948020Y664511D2*
X4951867Y666457D1*
X4957615Y672160D1*
Y632013D1*
X4971912Y662610D2*
Y664511D1*
X4973813Y668358D1*
X4975715Y670259D1*
X4979561Y672160D1*
X4987211D1*
X4991013Y670259D1*
X4992914Y668358D1*
X4994860Y664511D1*
Y660709D1*
X4992914Y656862D1*
X4989112Y651158D1*
X4969966Y632013D1*
X4996761D1*
X5074788Y672205D2*
Y632013D1*
X5047993Y672205D1*
Y632013D1*
X5087139Y672205D2*
X5089041Y670303D1*
X5090986Y672205D1*
X5089041Y674150D1*
X5087139Y672205D1*
X5089041Y658807D2*
Y632013D1*
X5103338Y658807D2*
X5124384Y632013D1*
Y658807D2*
X5103338Y632013D1*
X5136736Y672205D2*
X5138637Y670303D1*
X5140582Y672205D1*
X5138637Y674150D1*
X5136736Y672205D1*
X5138637Y658807D2*
Y632013D1*
X5152934Y647311D2*
X5175882D1*
Y651158D1*
X5173980Y655005D1*
X5172079Y656906D1*
X5168232Y658807D1*
X5162484D1*
X5158682Y656906D1*
X5154835Y653059D1*
X5152934Y647311D1*
Y643509D1*
X5154835Y637761D1*
X5158682Y633958D1*
X5162484Y632013D1*
X5168232D1*
X5172079Y633958D1*
X5175882Y637761D1*
X5255810Y662654D2*
X5253908Y666457D1*
X5250062Y670303D1*
X5246259Y672205D1*
X5238610D1*
X5234763Y670303D1*
X5230961Y666457D1*
X5229015Y662654D1*
X5227114Y656906D1*
Y647311D1*
X5229015Y641607D1*
X5230961Y637761D1*
X5234763Y633958D1*
X5238610Y632013D1*
X5246259D1*
X5250062Y633958D1*
X5253908Y637761D1*
X5255810Y641607D1*
X5268161Y672205D2*
Y632013D1*
X5290063Y658807D2*
X5286261Y656906D1*
X5282414Y653059D1*
X5280513Y647311D1*
Y643509D1*
X5282414Y637761D1*
X5286261Y633958D1*
X5290063Y632013D1*
X5295811D1*
X5299658Y633958D1*
X5303460Y637761D1*
X5305406Y643509D1*
Y647311D1*
X5303460Y653059D1*
X5299658Y656906D1*
X5295811Y658807D1*
X5290063D1*
X5340749Y653059D2*
X5336903Y656906D1*
X5333056Y658807D1*
X5327352D1*
X5323505Y656906D1*
X5319703Y653059D1*
X5317757Y647311D1*
Y643509D1*
X5319703Y637761D1*
X5323505Y633958D1*
X5327352Y632013D1*
X5333056D1*
X5336903Y633958D1*
X5340749Y637761D1*
X5353101Y672205D2*
Y632013D1*
X5372246Y658807D2*
X5353101Y639662D1*
X5360750Y647311D2*
X5374148Y632013D1*
X536056Y1347795D2*
X551355Y1307603D1*
X566654Y1347795D1*
X579005D2*
Y1307603D1*
X601953D1*
X639153Y1347795D2*
X614304D1*
Y1307603D1*
X639153D1*
X614304Y1328650D2*
X629603D1*
X651505Y1347795D2*
Y1307603D1*
X664902D1*
X670650Y1309549D1*
X674497Y1313351D1*
X676398Y1317198D1*
X678300Y1322902D1*
Y1332497D1*
X676398Y1338245D1*
X674497Y1342047D1*
X670650Y1345894D1*
X664902Y1347795D1*
X651505D1*
X539993Y1450157D2*
Y1409965D1*
X562941D1*
X575293Y1450157D2*
Y1409965D1*
X588690D1*
X594438Y1411911D1*
X598285Y1415713D1*
X600186Y1419560D1*
X602087Y1425264D1*
Y1434859D1*
X600186Y1440607D1*
X598285Y1444409D1*
X594438Y1448256D1*
X588690Y1450157D1*
X575293D1*
X614439D2*
Y1409965D1*
X653585Y1450157D2*
Y1409965D1*
X626790Y1450157D1*
Y1409965D1*
X2570950Y591890D2*
Y561293D1*
X2569048Y555544D1*
X2567103Y553643D1*
X2563300Y551698D1*
X2559454D1*
X2555651Y553643D1*
X2553750Y555544D1*
X2551804Y561293D1*
Y565095D1*
X2583301Y591890D2*
Y551698D1*
X2606249D1*
X2647296Y582339D2*
X2645395Y586142D1*
X2641548Y589988D1*
X2637746Y591890D1*
X2630097D1*
X2626250Y589988D1*
X2622447Y586142D1*
X2620502Y582339D1*
X2618600Y576591D1*
Y566996D1*
X2620502Y561293D1*
X2622447Y557446D1*
X2626250Y553643D1*
X2630097Y551698D1*
X2637746D1*
X2641548Y553643D1*
X2645395Y557446D1*
X2647296Y561293D1*
X2678793Y591890D2*
Y561293D1*
X2676892Y555544D1*
X2674946Y553643D1*
X2671144Y551698D1*
X2667297D1*
X2663495Y553643D1*
X2661593Y555544D1*
X2659648Y561293D1*
Y565095D1*
X2691145Y591890D2*
Y551698D1*
X2714092D1*
X2755140Y582339D2*
X2753239Y586142D1*
X2749392Y589988D1*
X2745589Y591890D1*
X2737940D1*
X2734093Y589988D1*
X2730291Y586142D1*
X2728345Y582339D1*
X2726444Y576591D1*
Y566996D1*
X2728345Y561293D1*
X2730291Y557446D1*
X2734093Y553643D1*
X2737940Y551698D1*
X2745589D1*
X2749392Y553643D1*
X2753239Y557446D1*
X2755140Y561293D1*
X2786637Y591890D2*
Y561293D1*
X2784735Y555544D1*
X2782790Y553643D1*
X2778987Y551698D1*
X2775141D1*
X2771338Y553643D1*
X2769437Y555544D1*
X2767491Y561293D1*
Y565095D1*
X2798988Y591890D2*
Y551698D1*
X2821936D1*
X2862983Y582339D2*
X2861082Y586142D1*
X2857235Y589988D1*
X2853433Y591890D1*
X2845783D1*
X2841937Y589988D1*
X2838134Y586142D1*
X2836189Y582339D1*
X2834287Y576591D1*
Y566996D1*
X2836189Y561293D1*
X2838134Y557446D1*
X2841937Y553643D1*
X2845783Y551698D1*
X2853433D1*
X2857235Y553643D1*
X2861082Y557446D1*
X2862983Y561293D1*
X2894480Y591890D2*
Y561293D1*
X2892579Y555544D1*
X2890633Y553643D1*
X2886831Y551698D1*
X2882984D1*
X2879181Y553643D1*
X2877280Y555544D1*
X2875335Y561293D1*
Y565095D1*
X2906831Y591890D2*
Y551698D1*
X2929779D1*
X2970827Y582339D2*
X2968925Y586142D1*
X2965079Y589988D1*
X2961276Y591890D1*
X2953627D1*
X2949780Y589988D1*
X2945977Y586142D1*
X2944032Y582339D1*
X2942131Y576591D1*
Y566996D1*
X2944032Y561293D1*
X2945977Y557446D1*
X2949780Y553643D1*
X2953627Y551698D1*
X2961276D1*
X2965079Y553643D1*
X2968925Y557446D1*
X2970827Y561293D1*
X2737981Y964229D2*
X2736079Y968031D1*
X2732233Y971878D1*
X2728430Y973780D1*
X2720781D1*
X2716934Y971878D1*
X2713131Y968031D1*
X2711186Y964229D1*
X2709285Y958481D1*
Y948886D1*
X2711186Y943182D1*
X2713131Y939336D1*
X2716934Y935533D1*
X2720781Y933587D1*
X2728430D1*
X2732233Y935533D1*
X2736079Y939336D1*
X2737981Y943182D1*
Y948886D1*
X2728430D1*
X2777127Y973780D2*
Y933587D1*
X2750332Y973780D1*
Y933587D1*
X2789478Y973780D2*
Y933587D1*
X2802875D1*
X2808623Y935533D1*
X2812470Y939336D1*
X2814372Y943182D1*
X2816273Y948886D1*
Y958481D1*
X2814372Y964229D1*
X2812470Y968031D1*
X2808623Y971878D1*
X2802875Y973780D1*
X2789478D1*
X5088374Y960292D2*
X5086473Y964094D1*
X5082626Y967941D1*
X5078824Y969842D1*
X5071174D1*
X5067328Y967941D1*
X5063525Y964094D1*
X5061580Y960292D1*
X5059678Y954544D1*
Y944949D1*
X5061580Y939245D1*
X5063525Y935399D1*
X5067328Y931596D1*
X5071174Y929650D1*
X5078824D1*
X5082626Y931596D1*
X5086473Y935399D1*
X5088374Y939245D1*
Y944949D1*
X5078824D1*
X5127520Y969842D2*
Y929650D1*
X5100726Y969842D1*
Y929650D1*
X5139872Y969842D2*
Y929650D1*
X5153269D1*
X5159017Y931596D1*
X5162864Y935399D1*
X5164765Y939245D1*
X5166666Y944949D1*
Y954544D1*
X5164765Y960292D1*
X5162864Y964094D1*
X5159017Y967941D1*
X5153269Y969842D1*
X5139872D1*
X5012434Y574319D2*
X5029634D1*
X5035382Y576265D1*
X5037328Y578166D1*
X5039229Y581968D1*
Y585815D1*
X5037328Y589618D1*
X5035382Y591563D1*
X5029634Y593465D1*
X5012434D1*
Y553273D1*
X5025832Y574319D2*
X5039229Y553273D1*
X5051580Y568571D2*
X5074528D1*
Y572418D1*
X5072627Y576265D1*
X5070726Y578166D1*
X5066879Y580067D1*
X5061131D1*
X5057328Y578166D1*
X5053482Y574319D1*
X5051580Y568571D1*
Y564769D1*
X5053482Y559021D1*
X5057328Y555218D1*
X5061131Y553273D1*
X5066879D1*
X5070726Y555218D1*
X5074528Y559021D1*
X5086880Y580067D2*
X5098376Y553273D1*
X5109828Y580067D1*
X5124080Y557119D2*
X5122179Y555174D1*
X5124080Y553273D1*
X5126026Y555174D1*
X5124080Y557119D1*
X5207899Y553273D2*
X5192557Y593465D1*
X5177258Y553273D1*
X5183006Y566670D2*
X5202151D1*
X2645438Y632013D2*
X2630095Y672205D1*
X2614797Y632013D1*
X2620545Y645410D2*
X2639690D1*
X2657789Y658807D2*
Y618615D1*
Y653059D2*
X2661636Y656862D1*
X2665439Y658807D1*
X2671187D1*
X2675033Y656862D1*
X2678836Y653059D1*
X2680781Y647311D1*
Y643465D1*
X2678836Y637761D1*
X2675033Y633914D1*
X2671187Y632013D1*
X2665439D1*
X2661636Y633914D1*
X2657789Y637761D1*
X2693133Y658807D2*
Y632013D1*
Y647311D2*
X2695078Y653059D1*
X2698881Y656906D1*
X2702728Y658807D1*
X2708476D1*
X2761653Y662610D2*
Y664511D1*
X2763555Y668358D1*
X2765456Y670259D1*
X2769303Y672160D1*
X2776952D1*
X2780754Y670259D1*
X2782656Y668358D1*
X2784601Y664511D1*
Y660709D1*
X2782656Y656862D1*
X2778853Y651158D1*
X2759708Y632013D1*
X2786503D1*
X2810350Y672160D2*
X2804602Y670259D1*
X2800755Y664511D1*
X2798854Y654961D1*
Y649213D1*
X2800755Y639662D1*
X2804602Y633914D1*
X2810350Y632013D1*
X2814153D1*
X2819901Y633914D1*
X2823703Y639662D1*
X2825649Y649213D1*
Y654961D1*
X2823703Y664511D1*
X2819901Y670259D1*
X2814153Y672160D1*
X2810350D1*
X2823703Y664511D2*
X2800755Y639662D1*
X2838000Y664511D2*
X2841847Y666457D1*
X2847595Y672160D1*
Y632013D1*
X2884840Y658807D2*
X2882894Y653059D1*
X2879092Y649213D1*
X2873344Y647311D1*
X2871442D1*
X2865694Y649213D1*
X2861892Y653059D1*
X2859946Y658807D1*
Y660709D1*
X2861892Y666457D1*
X2865694Y670259D1*
X2871442Y672160D1*
X2873344D1*
X2879092Y670259D1*
X2882894Y666457D1*
X2884840Y658807D1*
Y649213D1*
X2882894Y639662D1*
X2879092Y633914D1*
X2873344Y632013D1*
X2869541D1*
X2863793Y633914D1*
X2861892Y637761D1*
X2673852Y750945D2*
X2675753Y749044D1*
X2677698Y750945D1*
X2675753Y752890D1*
X2673852Y750945D1*
X2675753Y737548D2*
Y710753D1*
X2712998Y750945D2*
Y710753D1*
Y731799D2*
X2709195Y735646D1*
X2705348Y737548D1*
X2699600D1*
X2695798Y735646D1*
X2691951Y731799D1*
X2690050Y726051D1*
Y722249D1*
X2691951Y716501D1*
X2695798Y712698D1*
X2699600Y710753D1*
X2705348D1*
X2709195Y712698D1*
X2712998Y716501D1*
X2727295Y737548D2*
X2738746Y710753D1*
X2734944Y703104D1*
X2731097Y699257D1*
X2727295Y697356D1*
X2725349D1*
X2750242Y737548D2*
X2738746Y710753D1*
X2762594Y750945D2*
Y710753D1*
X2776847Y714600D2*
X2774945Y712654D1*
X2776847Y710753D1*
X2778792Y712654D1*
X2776847Y714600D1*
X2791143Y750945D2*
X2793045Y749044D1*
X2794990Y750945D1*
X2793045Y752890D1*
X2791143Y750945D1*
X2793045Y737548D2*
Y710753D1*
X2816892Y737548D2*
X2813090Y735646D1*
X2809243Y731799D1*
X2807342Y726051D1*
Y722249D1*
X2809243Y716501D1*
X2813090Y712698D1*
X2816892Y710753D1*
X2822640D1*
X2826487Y712698D1*
X2830290Y716501D1*
X2832235Y722249D1*
Y726051D1*
X2830290Y731799D1*
X2826487Y735646D1*
X2822640Y737548D1*
X2816892D1*
X7221096Y611575D2*
X7236394Y571383D1*
X7251693Y611575D1*
X7292740Y602024D2*
X7290839Y605827D1*
X7286992Y609674D1*
X7283190Y611575D1*
X7275540D1*
X7271694Y609674D1*
X7267891Y605827D1*
X7265946Y602024D1*
X7264044Y596276D1*
Y586681D1*
X7265946Y580978D1*
X7267891Y577131D1*
X7271694Y573328D1*
X7275540Y571383D1*
X7283190D1*
X7286992Y573328D1*
X7290839Y577131D1*
X7292740Y580978D1*
X7333788Y602024D2*
X7331886Y605827D1*
X7328040Y609674D1*
X7324237Y611575D1*
X7316588D1*
X7312741Y609674D1*
X7308938Y605827D1*
X7306993Y602024D1*
X7305092Y596276D1*
Y586681D1*
X7306993Y580978D1*
X7308938Y577131D1*
X7312741Y573328D1*
X7316588Y571383D1*
X7324237D1*
X7328040Y573328D1*
X7331886Y577131D1*
X7333788Y580978D1*
X7257666Y499662D2*
X7255764Y503465D1*
X7251918Y507311D1*
X7248115Y509213D1*
X7240466D1*
X7236619Y507311D1*
X7232816Y503465D1*
X7230871Y499662D1*
X7228970Y493914D1*
Y484319D1*
X7230871Y478615D1*
X7232816Y474769D1*
X7236619Y470966D1*
X7240466Y469021D1*
X7248115D1*
X7251918Y470966D1*
X7255764Y474769D1*
X7257666Y478615D1*
Y484319D1*
X7248115D1*
X7296812Y509213D2*
Y469021D1*
X7270017Y509213D1*
Y469021D1*
X7309163Y509213D2*
Y469021D1*
X7322560D1*
X7328309Y470966D1*
X7332155Y474769D1*
X7334057Y478615D1*
X7335958Y484319D1*
Y493914D1*
X7334057Y499662D1*
X7332155Y503465D1*
X7328309Y507311D1*
X7322560Y509213D1*
X7309163D1*
X7255764Y704252D2*
X7251962Y708099D1*
X7246214Y710000D1*
X7238565D1*
X7232816Y708099D1*
X7228970Y704252D1*
Y700449D1*
X7230915Y696603D1*
X7232816Y694701D1*
X7236619Y692800D1*
X7248115Y688953D1*
X7251962Y687052D1*
X7253863Y685107D1*
X7255764Y681304D1*
Y675556D1*
X7251962Y671753D1*
X7246214Y669808D1*
X7238565D1*
X7232816Y671753D1*
X7228970Y675556D1*
X7296812Y700449D2*
X7294910Y704252D1*
X7291064Y708099D1*
X7287261Y710000D1*
X7279612D1*
X7275765Y708099D1*
X7271963Y704252D1*
X7270017Y700449D1*
X7268116Y694701D1*
Y685107D1*
X7270017Y679403D1*
X7271963Y675556D1*
X7275765Y671753D1*
X7279612Y669808D1*
X7287261D1*
X7291064Y671753D1*
X7294910Y675556D1*
X7296812Y679403D1*
X7309163Y710000D2*
Y669808D1*
X7335958Y710000D2*
X7309163Y683205D1*
X7318714Y692800D2*
X7335958Y669808D1*
X7268025Y1150945D2*
X7264178Y1149044D1*
X7260376Y1145197D1*
X7258430Y1141394D1*
X7256529Y1135646D1*
Y1126051D1*
X7258430Y1120348D1*
X7260376Y1116501D1*
X7264178Y1112698D1*
X7268025Y1110753D1*
X7275674D1*
X7279477Y1112698D1*
X7283323Y1116501D1*
X7285225Y1120348D1*
X7287126Y1126051D1*
Y1135646D1*
X7285225Y1141394D1*
X7283323Y1145197D1*
X7279477Y1149044D1*
X7275674Y1150945D1*
X7268025D1*
X7324327D2*
X7299477D1*
Y1110753D1*
X7324327D1*
X7299477Y1131799D2*
X7314776D1*
X7256529Y1161424D2*
X7336678D1*
X7228970Y1037311D2*
X7246170D1*
X7251918Y1039257D1*
X7253863Y1041158D1*
X7255764Y1044961D1*
Y1048807D1*
X7253863Y1052610D1*
X7251918Y1054555D1*
X7246170Y1056457D1*
X7228970D1*
Y1016265D1*
X7242367Y1037311D2*
X7255764Y1016265D1*
X7296812Y1046906D2*
X7294910Y1050709D1*
X7291064Y1054555D1*
X7287261Y1056457D1*
X7279612D1*
X7275765Y1054555D1*
X7271963Y1050709D1*
X7270017Y1046906D1*
X7268116Y1041158D1*
Y1031563D1*
X7270017Y1025859D1*
X7271963Y1022013D1*
X7275765Y1018210D1*
X7279612Y1016265D1*
X7287261D1*
X7291064Y1018210D1*
X7294910Y1022013D1*
X7296812Y1025859D1*
X7309163Y1056457D2*
Y1016265D1*
X7335958Y1056457D2*
X7309163Y1029662D1*
X7318714Y1039257D2*
X7335958Y1016265D1*
X7193537Y1351732D2*
X7208835Y1311540D1*
X7224134Y1351732D1*
X7236485D2*
Y1311540D1*
X7259433D1*
X7296634Y1351732D2*
X7271785D1*
Y1311540D1*
X7296634D1*
X7271785Y1332587D2*
X7287083D1*
X7308985Y1351732D2*
Y1311540D1*
X7322383D1*
X7328131Y1313486D1*
X7331977Y1317288D1*
X7333879Y1321135D1*
X7335780Y1326839D1*
Y1336434D1*
X7333879Y1342182D1*
X7331977Y1345984D1*
X7328131Y1349831D1*
X7322383Y1351732D1*
X7308985D1*
X7189600Y1253307D2*
Y1213115D1*
X7202997D1*
X7208745Y1215061D1*
X7212592Y1218863D1*
X7214493Y1222710D1*
X7216394Y1228414D1*
Y1238008D1*
X7214493Y1243756D1*
X7212592Y1247559D1*
X7208745Y1251406D1*
X7202997Y1253307D1*
X7189600D1*
X7240242D2*
X7236395Y1251406D1*
X7232592Y1247559D1*
X7230647Y1243756D1*
X7228746Y1238008D1*
Y1228414D1*
X7230647Y1222710D1*
X7232592Y1218863D1*
X7236395Y1215061D1*
X7240242Y1213115D1*
X7247891D1*
X7251694Y1215061D1*
X7255540Y1218863D1*
X7257442Y1222710D1*
X7259343Y1228414D1*
Y1238008D1*
X7257442Y1243756D1*
X7255540Y1247559D1*
X7251694Y1251406D1*
X7247891Y1253307D1*
X7240242D1*
X7271694D2*
Y1224611D1*
X7273596Y1218863D1*
X7277442Y1215061D1*
X7283190Y1213115D1*
X7286993D1*
X7292741Y1215061D1*
X7296588Y1218863D1*
X7298489Y1224611D1*
Y1253307D1*
X7324238D2*
Y1213115D1*
X7310840Y1253307D2*
X7337635D1*
X4931343Y750945D2*
Y710753D1*
X4917946Y750945D2*
X4944741D1*
X4966643Y737548D2*
X4962840Y735646D1*
X4958993Y731799D1*
X4957092Y726051D1*
Y722249D1*
X4958993Y716501D1*
X4962840Y712698D1*
X4966643Y710753D1*
X4972391D1*
X4976238Y712698D1*
X4980040Y716501D1*
X4981986Y722249D1*
Y726051D1*
X4980040Y731799D1*
X4976238Y735646D1*
X4972391Y737548D1*
X4966643D1*
X4994337D2*
Y710753D1*
Y729898D2*
X5000085Y735646D1*
X5003932Y737548D1*
X5009636D1*
X5013482Y735646D1*
X5015384Y729898D1*
Y710753D1*
X5029681Y737548D2*
X5041132Y710753D1*
X5037330Y703104D1*
X5033483Y699257D1*
X5029681Y697356D1*
X5027735D1*
X5052628Y737548D2*
X5041132Y710753D1*
X5103861Y729898D2*
X5121105D1*
X5126808Y731799D1*
X5128754Y733745D1*
X5130655Y737548D1*
Y743296D1*
X5128754Y747098D1*
X5126808Y749044D1*
X5121105Y750945D1*
X5103861D1*
Y710753D1*
X5152557Y737548D2*
X5148755Y735646D1*
X5144908Y731799D1*
X5143007Y726051D1*
Y722249D1*
X5144908Y716501D1*
X5148755Y712698D1*
X5152557Y710753D1*
X5158305D1*
X5162152Y712698D1*
X5165955Y716501D1*
X5167900Y722249D1*
Y726051D1*
X5165955Y731799D1*
X5162152Y735646D1*
X5158305Y737548D1*
X5152557D1*
X5185999Y750945D2*
Y718402D1*
X5187901Y712698D1*
X5191748Y710753D1*
X5195550D1*
X5180251Y737548D2*
X5193649D1*
X5213649Y750945D2*
Y718402D1*
X5215551Y712698D1*
X5219398Y710753D1*
X5223200D1*
X5207901Y737548D2*
X5221299D1*
X5235551Y750945D2*
X5237453Y749044D1*
X5239398Y750945D1*
X5237453Y752890D1*
X5235551Y750945D1*
X5237453Y737548D2*
Y710753D1*
X5251750Y726051D2*
X5274698D1*
Y729898D1*
X5272796Y733745D1*
X5270895Y735646D1*
X5267048Y737548D1*
X5261300D1*
X5257498Y735646D1*
X5253651Y731799D1*
X5251750Y726051D1*
Y722249D1*
X5253651Y716501D1*
X5257498Y712698D1*
X5261300Y710753D1*
X5267048D1*
X5270895Y712698D1*
X5274698Y716501D1*
X5287049Y737548D2*
Y710753D1*
Y726051D2*
X5288994Y731799D1*
X5292797Y735646D1*
X5296644Y737548D1*
X5302392D1*
X7197474Y1454094D2*
Y1413902D1*
X7220422D1*
X7244269Y1454094D2*
X7240422Y1452193D1*
X7236620Y1448346D1*
X7234674Y1444544D1*
X7232773Y1438796D1*
Y1429201D1*
X7234674Y1423497D1*
X7236620Y1419650D1*
X7240422Y1415848D1*
X7244269Y1413902D1*
X7251918D1*
X7255721Y1415848D1*
X7259568Y1419650D1*
X7261469Y1423497D1*
X7263370Y1429201D1*
Y1438796D1*
X7261469Y1444544D1*
X7259568Y1448346D1*
X7255721Y1452193D1*
X7251918Y1454094D1*
X7244269D1*
X7275722D2*
Y1425399D1*
X7277623Y1419650D1*
X7281470Y1415848D1*
X7287218Y1413902D1*
X7291020D1*
X7296768Y1415848D1*
X7300615Y1419650D1*
X7302516Y1425399D1*
Y1454094D1*
X7328265D2*
Y1413902D1*
X7314868Y1454094D2*
X7341662D1*
M02*
