G04 DipTrace 3.1.0.1*
G04 Top-Clock-IN12c.Top.gbr*
%MOIN*%
G04 #@! TF.FileFunction,Copper,L1,Top*
G04 #@! TF.Part,Single*
G04 #@! TA.AperFunction,Conductor*
%ADD14C,0.011811*%
%ADD15C,0.019685*%
%ADD17R,0.031496X0.031496*%
%ADD19R,0.035433X0.059055*%
G04 #@! TA.AperFunction,ComponentPad*
%ADD20O,0.07X0.06*%
%ADD21O,0.06X0.07*%
%ADD23C,0.062992*%
%ADD25C,0.19685*%
%ADD30R,0.047244X0.062992*%
%ADD31R,0.062992X0.047244*%
%ADD32R,0.023622X0.07874*%
G04 #@! TA.AperFunction,ViaPad*
%ADD33C,0.031496*%
%FSLAX26Y26*%
G04*
G70*
G90*
G75*
G01*
G04 Top*
%LPD*%
X1013307Y585354D2*
D14*
Y649528D1*
X1063307Y699528D1*
X1208976D1*
X1240472Y731024D1*
X1382205Y1219213D2*
X1394016Y1207402D1*
X1240472Y894016D2*
X1185354Y949134D1*
Y1114488D1*
X1291654Y1220787D1*
X1380630D1*
X1394016Y1207402D1*
X1063307Y797953D2*
Y916063D1*
X1000315Y979055D1*
X866457D1*
X850709Y994803D1*
X1013307Y797953D2*
Y867638D1*
X1012126Y868819D1*
X1047559Y1055433D2*
X986929D1*
X937323Y1105039D1*
X838898D1*
X807402Y1136535D1*
X963307Y797953D2*
Y871181D1*
X1008189Y916063D1*
X984567Y1106614D2*
Y1126299D1*
X883780Y1227087D1*
X834961D1*
X807402Y1254646D1*
Y1313701D1*
X913307Y797953D2*
Y880236D1*
X980630Y947559D1*
X949134Y1205039D2*
X917638Y1236535D1*
Y1372756D1*
X886142Y1404252D1*
X823150D1*
X807402Y1420000D1*
Y1490866D1*
X863307Y797953D2*
Y860945D1*
X862520D1*
X1086929Y1055433D2*
X1082992D1*
Y1590866D1*
X917638Y1756220D1*
Y1762520D1*
X813307Y797953D2*
Y858976D1*
X811339Y860945D1*
X1108583Y910157D2*
X1114882D1*
X1145984Y941260D1*
Y1065669D1*
X1102677Y1108976D1*
Y1602677D1*
X1039685Y1665669D1*
Y1719213D1*
X1122362Y1801890D1*
Y1845197D1*
X763307Y797953D2*
Y759370D1*
X799528Y723150D1*
X1189291D1*
X1197165Y731024D1*
X1205039Y860945D2*
Y901890D1*
X1165669Y941260D1*
Y1079055D1*
X1122362Y1122362D1*
Y1527874D1*
X1197165Y1602677D1*
X1279843D1*
X1331024Y1653858D1*
Y1762520D1*
X1422756Y585354D2*
Y729843D1*
X1421575Y731024D1*
X1275906Y864882D2*
Y904252D1*
X1205039Y975118D1*
Y1071181D1*
X1236535Y1102677D1*
X1232598Y1252283D2*
X1197165Y1287717D1*
Y1313701D1*
X1394016Y1510551D1*
Y1553858D1*
X1334961Y951496D2*
X1370394D1*
X1472756Y849134D1*
Y797953D1*
X1232598Y1299528D2*
Y1295591D1*
X1352283D1*
X1394016Y1337323D1*
Y1380630D1*
X1453071Y1207402D2*
Y1234961D1*
X1464882Y1246772D1*
X791654Y994803D2*
Y959370D1*
X787717Y955433D1*
X748346Y1136535D2*
Y1112913D1*
X732598Y1097165D1*
X748346Y1313701D2*
Y1290079D1*
X732598Y1274331D1*
X748346Y1490866D2*
Y1467244D1*
X732598Y1451496D1*
X858583Y1762520D2*
Y1801890D1*
X854646Y1805827D1*
X1063307Y1845197D2*
Y1842835D1*
X1027874D1*
X1271969Y1762520D2*
Y1801890D1*
X1268031Y1805827D1*
X1453071Y1553858D2*
Y1581417D1*
X1464882Y1593228D1*
X1453071Y1380630D2*
Y1408189D1*
X1464882Y1420000D1*
X472756Y1231417D2*
X501496D1*
X681417Y1051496D1*
Y754646D1*
X705039Y731024D1*
X740472D1*
X744409Y727087D1*
X740472Y731024D2*
D3*
X964882Y671969D2*
Y586929D1*
X963307Y585354D1*
X713307Y797953D2*
D15*
Y860945D1*
X712913D1*
D14*
Y798346D1*
X713307Y797953D1*
X1122756D2*
D15*
Y860945D1*
X1122362D1*
X960945Y484567D2*
D14*
X1000315D1*
X1413701D2*
X1374331D1*
X1161732Y1441260D2*
D15*
Y1496378D1*
X957008Y1327087D2*
Y1366457D1*
X1938898Y484567D2*
D14*
X1978268D1*
X2391654D2*
X2352283D1*
X1691260Y797953D2*
D15*
Y860945D1*
X1690866D1*
D14*
Y798346D1*
X1691260Y797953D1*
X2100709D2*
D15*
Y860945D1*
X2100315D1*
X2139685Y1441260D2*
Y1496378D1*
X1934961Y1327087D2*
Y1366457D1*
X3310551Y484567D2*
D14*
X3349921D1*
X3763307D2*
X3723937D1*
X3062913Y797953D2*
D15*
Y860945D1*
X3062520D1*
D14*
Y798346D1*
X3062913Y797953D1*
X3472362D2*
D15*
Y860945D1*
X3471969D1*
X3511339Y1441260D2*
Y1496378D1*
X3306614Y1327087D2*
Y1366457D1*
X4288504Y484567D2*
D14*
X4327874D1*
X4741260D2*
X4701890D1*
X4040866Y797953D2*
D15*
Y860945D1*
X4040472D1*
D14*
Y798346D1*
X4040866Y797953D1*
X4450315D2*
D15*
Y860945D1*
X4449921D1*
X4489291Y1441260D2*
Y1496378D1*
X4284567Y1327087D2*
Y1366457D1*
X5660157Y484567D2*
D14*
X5699528D1*
X6112913D2*
X6073543D1*
X5412520Y797953D2*
D15*
Y860945D1*
X5412126D1*
D14*
Y798346D1*
X5412520Y797953D1*
X5821969D2*
D15*
Y860945D1*
X5821575D1*
X5860945Y1441260D2*
Y1496378D1*
X5656220Y1327087D2*
Y1366457D1*
X6638110Y484567D2*
D14*
X6677480D1*
X7090866D2*
X7051496D1*
X6390472Y797953D2*
D15*
Y860945D1*
X6390079D1*
D14*
Y798346D1*
X6390472Y797953D1*
X6799921D2*
D15*
Y860945D1*
X6799528D1*
X6838898Y1441260D2*
Y1496378D1*
X6634173Y1327087D2*
Y1366457D1*
X2100709Y585354D2*
D14*
Y642441D1*
X2135748Y677480D1*
X2242047D1*
X2265669Y701102D1*
X2312913D1*
X2316850Y697165D1*
X3314488Y671969D2*
Y586929D1*
X3312913Y585354D1*
X2490079Y775906D2*
X3009764D1*
X3054646Y731024D1*
X3090079D1*
X3094016Y727087D1*
X3090079Y731024D2*
D3*
X1122756Y585354D2*
Y642441D1*
X1157795Y677480D1*
X1264094D1*
X1287717Y701102D1*
X1334961D1*
X1338898Y697165D1*
X1942835Y671969D2*
Y586929D1*
X1941260Y585354D1*
X1512126Y775906D2*
X1638110D1*
X1682992Y731024D1*
X1718425D1*
X1722362Y727087D1*
X1718425Y731024D2*
D3*
X472756Y1631417D2*
D15*
X584173D1*
X882205Y1929449D1*
X1567244D1*
X2545197D1*
X3915823D1*
X4155827D1*
D14*
X4159370Y1932992D1*
X1441260Y1030236D2*
Y1086929D1*
X1567244Y1212913D1*
Y1929449D1*
X2419213Y1030236D2*
Y1086929D1*
X2545197Y1212913D1*
Y1331024D1*
D15*
Y1724724D1*
Y1929449D1*
X2660157Y1724724D2*
D14*
X2545197D1*
X2660157Y1331024D2*
X2545197D1*
X4155827Y1929449D2*
D15*
X4894803D1*
Y1724724D1*
Y1331024D1*
D14*
Y1212913D1*
X4768819Y1086929D1*
Y1030236D1*
X5009764Y1331024D2*
X4894803D1*
X5009764Y1724724D2*
X4894803D1*
X3915823Y1929449D2*
Y1211886D1*
X3790866Y1086929D1*
Y1030236D1*
X6140472D2*
Y1086929D1*
X6265429Y1211886D1*
Y1929449D1*
D15*
X6993871D1*
X7244409Y1678911D1*
X7289147Y1634173D1*
X7399134D1*
D14*
X7401890Y1631417D1*
X4894803Y1929449D2*
D15*
X6265429D1*
X7118425Y1030236D2*
D14*
Y1086929D1*
X7244409Y1212913D1*
Y1678911D1*
X2308976Y1030236D2*
D15*
X2234173D1*
X1331024D2*
X1256220D1*
X472756Y1431417D2*
D14*
X502283D1*
X693228Y1622362D1*
X897953D1*
X1031811Y1488504D1*
Y1441260D1*
X2139685Y1248346D2*
Y1311339D1*
X2175118Y1346772D1*
Y1486142D1*
X2496378Y1807402D1*
X2492441D1*
X2594803Y1811339D2*
X2895732D1*
X3065024Y1642047D1*
X3227874D1*
X3381417Y1488504D1*
Y1441260D1*
X1161732Y1248346D2*
Y1311339D1*
X1197165Y1346772D1*
Y1488504D1*
X1350709Y1642047D1*
X1520000D1*
X1614488D2*
X1856220D1*
X2009764Y1488504D1*
Y1441260D1*
X1991260Y585354D2*
Y649528D1*
X2041260Y699528D1*
X2186929D1*
X2218425Y731024D1*
X2360157Y1219213D2*
X2371969Y1207402D1*
X2218425Y894016D2*
X2163307Y949134D1*
Y1114488D1*
X2269606Y1220787D1*
X2358583D1*
X2371969Y1207402D1*
X2041260Y797953D2*
Y916063D1*
X1978268Y979055D1*
X1844409D1*
X1828661Y994803D1*
X1991260Y797953D2*
Y867638D1*
X1990079Y868819D1*
X2025512Y1055433D2*
X1964882D1*
X1915276Y1105039D1*
X1816850D1*
X1785354Y1136535D1*
X1941260Y797953D2*
Y871181D1*
X1986142Y916063D1*
X1962520Y1106614D2*
Y1126299D1*
X1861732Y1227087D1*
X1812913D1*
X1785354Y1254646D1*
Y1313701D1*
X1891260Y797953D2*
Y880236D1*
X1958583Y947559D1*
X1927087Y1205039D2*
X1895591Y1236535D1*
Y1372756D1*
X1864094Y1404252D1*
X1801102D1*
X1785354Y1420000D1*
Y1490866D1*
X1841260Y797953D2*
Y860945D1*
X1840472D1*
X2064882Y1055433D2*
X2060945D1*
Y1590866D1*
X1895591Y1756220D1*
Y1762520D1*
X1791260Y797953D2*
Y858976D1*
X1789291Y860945D1*
X2086535Y910157D2*
X2092835D1*
X2123937Y941260D1*
Y1065669D1*
X2080630Y1108976D1*
Y1602677D1*
X2017638Y1665669D1*
Y1719213D1*
X2100315Y1801890D1*
Y1845197D1*
X1741260Y797953D2*
Y759370D1*
X1777480Y723150D1*
X2167244D1*
X2175118Y731024D1*
X2182992Y860945D2*
Y901890D1*
X2143622Y941260D1*
Y1079055D1*
X2100315Y1122362D1*
Y1527874D1*
X2175118Y1602677D1*
X2257795D1*
X2308976Y1653858D1*
Y1762520D1*
X2400709Y585354D2*
Y729843D1*
X2399528Y731024D1*
X2253858Y864882D2*
Y904252D1*
X2182992Y975118D1*
Y1071181D1*
X2214488Y1102677D1*
X2210551Y1252283D2*
X2175118Y1287717D1*
Y1313701D1*
X2371969Y1510551D1*
Y1553858D1*
X2312913Y951496D2*
X2348346D1*
X2450709Y849134D1*
Y797953D1*
X2210551Y1299528D2*
Y1295591D1*
X2330236D1*
X2371969Y1337323D1*
Y1380630D1*
X2431024Y1207402D2*
Y1234961D1*
X2442835Y1246772D1*
X1769606Y994803D2*
Y959370D1*
X1765669Y955433D1*
X1726299Y1136535D2*
Y1112913D1*
X1710551Y1097165D1*
X1726299Y1313701D2*
Y1290079D1*
X1710551Y1274331D1*
X1726299Y1490866D2*
Y1467244D1*
X1710551Y1451496D1*
X1836535Y1762520D2*
Y1801890D1*
X1832598Y1805827D1*
X2041260Y1845197D2*
Y1842835D1*
X2005827D1*
X2249921Y1762520D2*
Y1801890D1*
X2245984Y1805827D1*
X2431024Y1553858D2*
Y1581417D1*
X2442835Y1593228D1*
X2431024Y1380630D2*
Y1408189D1*
X2442835Y1420000D1*
X3362913Y585354D2*
Y649528D1*
X3412913Y699528D1*
X3558583D1*
X3590079Y731024D1*
X3731811Y1219213D2*
X3743622Y1207402D1*
X3590079Y894016D2*
X3534961Y949134D1*
Y1114488D1*
X3641260Y1220787D1*
X3730236D1*
X3743622Y1207402D1*
X3412913Y797953D2*
Y916063D1*
X3349921Y979055D1*
X3216063D1*
X3200315Y994803D1*
X3362913Y797953D2*
Y867638D1*
X3361732Y868819D1*
X3397165Y1055433D2*
X3336535D1*
X3286929Y1105039D1*
X3188504D1*
X3157008Y1136535D1*
X3312913Y797953D2*
Y871181D1*
X3357795Y916063D1*
X3334173Y1106614D2*
Y1126299D1*
X3233386Y1227087D1*
X3184567D1*
X3157008Y1254646D1*
Y1313701D1*
X3262913Y797953D2*
Y880236D1*
X3330236Y947559D1*
X3298740Y1205039D2*
X3267244Y1236535D1*
Y1372756D1*
X3235748Y1404252D1*
X3172756D1*
X3157008Y1420000D1*
Y1490866D1*
X4450315Y585354D2*
Y642441D1*
X4485354Y677480D1*
X4591654D1*
X4615276Y701102D1*
X4662520D1*
X4666457Y697165D1*
X5664094Y671969D2*
Y586929D1*
X5662520Y585354D1*
X4839685Y775906D2*
X5359370D1*
X5404252Y731024D1*
X5439685D1*
X5443622Y727087D1*
X5439685Y731024D2*
D3*
X3212913Y797953D2*
Y860945D1*
X3212126D1*
X3436535Y1055433D2*
X3432598D1*
Y1590866D1*
X3267244Y1756220D1*
Y1762520D1*
X3162913Y797953D2*
Y858976D1*
X3160945Y860945D1*
X3458189Y910157D2*
X3464488D1*
X3495591Y941260D1*
Y1065669D1*
X3452283Y1108976D1*
Y1602677D1*
X3389291Y1665669D1*
Y1719213D1*
X3471969Y1801890D1*
Y1845197D1*
X3112913Y797953D2*
Y759370D1*
X3149134Y723150D1*
X3538898D1*
X3546772Y731024D1*
X3554646Y860945D2*
Y901890D1*
X3515276Y941260D1*
Y1079055D1*
X3471969Y1122362D1*
Y1527874D1*
X3546772Y1602677D1*
X3629449D1*
X3680630Y1653858D1*
Y1762520D1*
X3772362Y585354D2*
Y729843D1*
X3771181Y731024D1*
X3625512Y864882D2*
Y904252D1*
X3554646Y975118D1*
Y1071181D1*
X3586142Y1102677D1*
X3582205Y1252283D2*
X3546772Y1287717D1*
Y1313701D1*
X3743622Y1510551D1*
Y1553858D1*
X1691260Y585354D2*
Y636929D1*
X1757795Y703465D1*
X1966457D1*
X1978268Y691654D1*
X2352283Y719213D2*
Y586929D1*
X2350709Y585354D1*
X3684567Y951496D2*
X3720000D1*
X3822362Y849134D1*
Y797953D1*
X3582205Y1299528D2*
Y1295591D1*
X3701890D1*
X3743622Y1337323D1*
Y1380630D1*
X3802677Y1207402D2*
Y1234961D1*
X3814488Y1246772D1*
X3141260Y994803D2*
Y959370D1*
X3137323Y955433D1*
X3097953Y1136535D2*
Y1112913D1*
X3082205Y1097165D1*
X3097953Y1313701D2*
Y1290079D1*
X3082205Y1274331D1*
X3097953Y1490866D2*
Y1467244D1*
X3082205Y1451496D1*
X3208189Y1762520D2*
Y1801890D1*
X3204252Y1805827D1*
X3412913Y1845197D2*
Y1842835D1*
X3377480D1*
X3621575Y1762520D2*
Y1801890D1*
X3617638Y1805827D1*
X3802677Y1553858D2*
Y1581417D1*
X3814488Y1593228D1*
X3802677Y1380630D2*
Y1408189D1*
X3814488Y1420000D1*
X3680630Y1030236D2*
D15*
X3605827D1*
X3472362Y585354D2*
D14*
Y642441D1*
X3507402Y677480D1*
X3613701D1*
X3637323Y701102D1*
X3684567D1*
X3688504Y697165D1*
X4292441Y671969D2*
Y586929D1*
X4290866Y585354D1*
X3861732Y775906D2*
X3987717D1*
X4032598Y731024D1*
X4068031D1*
X4071969Y727087D1*
X4068031Y731024D2*
D3*
X4658583Y1030236D2*
D15*
X4583780D1*
X3511339Y1248346D2*
D14*
Y1311339D1*
X3546772Y1346772D1*
Y1488504D1*
X3700315Y1642047D1*
X3869606D1*
X3964094D2*
X4205827D1*
X4359370Y1488504D1*
Y1441260D1*
X3062913Y585354D2*
Y636929D1*
X3129449Y703465D1*
X3338110D1*
X3349921Y691654D1*
X3723937Y719213D2*
Y586929D1*
X3722362Y585354D1*
X4340866D2*
Y649528D1*
X4390866Y699528D1*
X4536535D1*
X4568031Y731024D1*
X4709764Y1219213D2*
X4721575Y1207402D1*
X4568031Y894016D2*
X4512913Y949134D1*
Y1114488D1*
X4619213Y1220787D1*
X4708189D1*
X4721575Y1207402D1*
X4390866Y797953D2*
Y916063D1*
X4327874Y979055D1*
X4194016D1*
X4178268Y994803D1*
X4340866Y797953D2*
Y867638D1*
X4339685Y868819D1*
X4375118Y1055433D2*
X4314488D1*
X4264882Y1105039D1*
X4166457D1*
X4134961Y1136535D1*
X4290866Y797953D2*
Y871181D1*
X4335748Y916063D1*
X4312126Y1106614D2*
Y1126299D1*
X4211339Y1227087D1*
X4162520D1*
X4134961Y1254646D1*
Y1313701D1*
X2400709Y797953D2*
Y859764D1*
X2397953Y862520D1*
X2453071Y901890D2*
X2488504D1*
X2760157Y1173543D1*
Y1378268D1*
Y1449134D2*
Y1523937D1*
X2819213Y1582992D1*
Y1630236D1*
X2350709Y797953D2*
Y866457D1*
X2492441D2*
X2496378D1*
X2669606Y1039685D1*
X2707402D1*
X2660157Y1614488D2*
Y1545984D1*
X2664094Y1542047D1*
X2660157Y1220787D2*
Y1152283D1*
X2664094Y1148346D1*
X4240866Y797953D2*
Y880236D1*
X4308189Y947559D1*
X4276693Y1205039D2*
X4245197Y1236535D1*
Y1372756D1*
X4213701Y1404252D1*
X4150709D1*
X4134961Y1420000D1*
Y1490866D1*
X4190866Y797953D2*
Y860945D1*
X4190079D1*
X4414488Y1055433D2*
X4410551D1*
Y1590866D1*
X4245197Y1756220D1*
Y1762520D1*
X4140866Y797953D2*
Y858976D1*
X4138898Y860945D1*
X4436142Y910157D2*
X4442441D1*
X4473543Y941260D1*
Y1065669D1*
X4430236Y1108976D1*
Y1602677D1*
X4367244Y1665669D1*
Y1719213D1*
X4449921Y1801890D1*
Y1845197D1*
X4090866Y797953D2*
Y759370D1*
X4127087Y723150D1*
X4516850D1*
X4524724Y731024D1*
X4532598Y860945D2*
Y901890D1*
X4493228Y941260D1*
Y1079055D1*
X4449921Y1122362D1*
Y1527874D1*
X4524724Y1602677D1*
X4607402D1*
X4658583Y1653858D1*
Y1762520D1*
X4750315Y585354D2*
Y729843D1*
X4749134Y731024D1*
X4603465Y864882D2*
Y904252D1*
X4532598Y975118D1*
Y1071181D1*
X4564094Y1102677D1*
X4560157Y1252283D2*
X4524724Y1287717D1*
Y1313701D1*
X4721575Y1510551D1*
Y1553858D1*
X4662520Y951496D2*
X4697953D1*
X4800315Y849134D1*
Y797953D1*
X4560157Y1299528D2*
Y1295591D1*
X4679843D1*
X4721575Y1337323D1*
Y1380630D1*
X4780630Y1207402D2*
Y1234961D1*
X4792441Y1246772D1*
X4119213Y994803D2*
Y959370D1*
X4115276Y955433D1*
X4075906Y1136535D2*
Y1112913D1*
X4060157Y1097165D1*
X4075906Y1313701D2*
Y1290079D1*
X4060157Y1274331D1*
X4075906Y1490866D2*
Y1467244D1*
X4060157Y1451496D1*
X4186142Y1762520D2*
Y1801890D1*
X4182205Y1805827D1*
X4390866Y1845197D2*
Y1842835D1*
X4355433D1*
X4599528Y1762520D2*
Y1801890D1*
X4595591Y1805827D1*
X4780630Y1553858D2*
Y1581417D1*
X4792441Y1593228D1*
X4780630Y1380630D2*
Y1408189D1*
X4792441Y1420000D1*
X5712520Y585354D2*
Y649528D1*
X5762520Y699528D1*
X5908189D1*
X5939685Y731024D1*
X6081417Y1219213D2*
X6093228Y1207402D1*
X5939685Y894016D2*
X5884567Y949134D1*
Y1114488D1*
X5990866Y1220787D1*
X6079843D1*
X6093228Y1207402D1*
X5762520Y797953D2*
Y916063D1*
X5699528Y979055D1*
X5565669D1*
X5549921Y994803D1*
X4489291Y1248346D2*
Y1311339D1*
X4524724Y1346772D1*
Y1481417D1*
X4850709Y1807402D1*
X4842835D1*
X4945197Y1811339D2*
X5245339D1*
X5414630Y1642047D1*
X5577480D1*
X5731024Y1488504D1*
Y1441260D1*
X4040866Y585354D2*
Y636929D1*
X4107402Y703465D1*
X4316063D1*
X4327874Y691654D1*
X4701890Y719213D2*
Y586929D1*
X4700315Y585354D1*
X4750315Y797953D2*
Y859764D1*
X4747559Y862520D1*
X4802677Y901890D2*
X4838110D1*
X5109764Y1173543D1*
Y1378268D1*
Y1449134D2*
Y1523937D1*
X5168819Y1582992D1*
Y1630236D1*
X4700315Y797953D2*
Y866457D1*
X4842047D2*
X4845984D1*
X5019213Y1039685D1*
X5057008D1*
X5009764Y1614488D2*
Y1545984D1*
X5013701Y1542047D1*
X5009764Y1220787D2*
Y1152283D1*
X5013701Y1148346D1*
X5712520Y797953D2*
Y867638D1*
X5711339Y868819D1*
X5746772Y1055433D2*
X5686142D1*
X5636535Y1105039D1*
X5538110D1*
X5506614Y1136535D1*
X5662520Y797953D2*
Y871181D1*
X5707402Y916063D1*
X5683780Y1106614D2*
Y1126299D1*
X5582992Y1227087D1*
X5534173D1*
X5506614Y1254646D1*
Y1313701D1*
X2819213Y1689291D2*
Y1732598D1*
X2766457Y1039685D2*
Y1001890D1*
X2768031Y1000315D1*
X5612520Y797953D2*
Y880236D1*
X5679843Y947559D1*
X5648346Y1205039D2*
X5616850Y1236535D1*
Y1372756D1*
X5585354Y1404252D1*
X5522362D1*
X5506614Y1420000D1*
Y1490866D1*
X6799921Y585354D2*
Y642441D1*
X6834961Y677480D1*
X6941260D1*
X6964882Y701102D1*
X7012126D1*
X7016063Y697165D1*
X7189291Y775906D2*
Y1018819D1*
X7401890Y1231417D1*
X5168819Y1689291D2*
Y1732598D1*
X5116063Y1039685D2*
Y1001890D1*
X5117638Y1000315D1*
X5562520Y797953D2*
Y860945D1*
X5561732D1*
X5786142Y1055433D2*
X5782205D1*
Y1590866D1*
X5616850Y1756220D1*
Y1762520D1*
X5512520Y797953D2*
Y858976D1*
X5510551Y860945D1*
X5807795Y910157D2*
X5814094D1*
X5845197Y941260D1*
Y1065669D1*
X5801890Y1108976D1*
Y1602677D1*
X5738898Y1665669D1*
Y1719213D1*
X5821575Y1801890D1*
Y1845197D1*
X5462520Y797953D2*
Y759370D1*
X5498740Y723150D1*
X5888504D1*
X5896378Y731024D1*
X5904252Y860945D2*
Y901890D1*
X5864882Y941260D1*
Y1079055D1*
X5821575Y1122362D1*
Y1527874D1*
X5896378Y1602677D1*
X5979055D1*
X6030236Y1653858D1*
Y1762520D1*
X6121969Y585354D2*
Y729843D1*
X6120787Y731024D1*
X5975118Y864882D2*
Y904252D1*
X5904252Y975118D1*
Y1071181D1*
X5935748Y1102677D1*
X5931811Y1252283D2*
X5896378Y1287717D1*
Y1313701D1*
X6093228Y1510551D1*
Y1553858D1*
X6034173Y951496D2*
X6069606D1*
X6171969Y849134D1*
Y797953D1*
X5931811Y1299528D2*
Y1295591D1*
X6051496D1*
X6093228Y1337323D1*
Y1380630D1*
X6152283Y1207402D2*
Y1234961D1*
X6164094Y1246772D1*
X5490866Y994803D2*
Y959370D1*
X5486929Y955433D1*
X5447559Y1136535D2*
Y1112913D1*
X5431811Y1097165D1*
X5447559Y1313701D2*
Y1290079D1*
X5431811Y1274331D1*
X5447559Y1490866D2*
Y1467244D1*
X5431811Y1451496D1*
X5557795Y1762520D2*
Y1801890D1*
X5553858Y1805827D1*
X5762520Y1845197D2*
Y1842835D1*
X5727087D1*
X5971181Y1762520D2*
Y1801890D1*
X5967244Y1805827D1*
X6152283Y1553858D2*
Y1581417D1*
X6164094Y1593228D1*
X6152283Y1380630D2*
Y1408189D1*
X6164094Y1420000D1*
X6030236Y1030236D2*
D15*
X5955433D1*
X5821969Y585354D2*
D14*
Y642441D1*
X5857008Y677480D1*
X5963307D1*
X5986929Y701102D1*
X6034173D1*
X6038110Y697165D1*
X6642047Y671969D2*
Y586929D1*
X6640472Y585354D1*
X6211339Y775906D2*
X6337323D1*
X6382205Y731024D1*
X6417638D1*
X6421575Y727087D1*
X6417638Y731024D2*
D3*
X7008189Y1030236D2*
D15*
X6933386D1*
X5860945Y1248346D2*
D14*
Y1311339D1*
X5896378Y1346772D1*
Y1488504D1*
X6049921Y1642047D1*
X6219213D1*
X6313701D2*
X6555433D1*
X6708976Y1488504D1*
Y1441260D1*
X5412520Y585354D2*
Y636929D1*
X5479055Y703465D1*
X5687717D1*
X5699528Y691654D1*
X6073543Y719213D2*
Y586929D1*
X6071969Y585354D1*
X6690472D2*
Y649528D1*
X6740472Y699528D1*
X6886142D1*
X6917638Y731024D1*
X7059370Y1219213D2*
X7071181Y1207402D1*
X6917638Y894016D2*
X6862520Y949134D1*
Y1114488D1*
X6968819Y1220787D1*
X7057795D1*
X7071181Y1207402D1*
X6740472Y797953D2*
Y916063D1*
X6677480Y979055D1*
X6543622D1*
X6527874Y994803D1*
X6690472Y797953D2*
Y867638D1*
X6689291Y868819D1*
X6724724Y1055433D2*
X6664094D1*
X6614488Y1105039D1*
X6516063D1*
X6484567Y1136535D1*
X6640472Y797953D2*
Y871181D1*
X6685354Y916063D1*
X6661732Y1106614D2*
Y1126299D1*
X6560945Y1227087D1*
X6512126D1*
X6484567Y1254646D1*
Y1313701D1*
X6590472Y797953D2*
Y880236D1*
X6657795Y947559D1*
X6626299Y1205039D2*
X6594803Y1236535D1*
Y1372756D1*
X6563307Y1404252D1*
X6500315D1*
X6484567Y1420000D1*
Y1490866D1*
X6540472Y797953D2*
Y860945D1*
X6539685D1*
X6764094Y1055433D2*
X6760157D1*
Y1590866D1*
X6594803Y1756220D1*
Y1762520D1*
X6490472Y797953D2*
Y858976D1*
X6488504Y860945D1*
X6785748Y910157D2*
X6792047D1*
X6823150Y941260D1*
Y1065669D1*
X6779843Y1108976D1*
Y1602677D1*
X6716850Y1665669D1*
Y1719213D1*
X6799528Y1801890D1*
Y1845197D1*
X6440472Y797953D2*
Y759370D1*
X6476693Y723150D1*
X6866457D1*
X6874331Y731024D1*
X6882205Y860945D2*
Y901890D1*
X6842835Y941260D1*
Y1079055D1*
X6799528Y1122362D1*
Y1527874D1*
X6874331Y1602677D1*
X6957008D1*
X7008189Y1653858D1*
Y1762520D1*
X7099921Y585354D2*
Y729843D1*
X7098740Y731024D1*
X6953071Y864882D2*
Y904252D1*
X6882205Y975118D1*
Y1071181D1*
X6913701Y1102677D1*
X6909764Y1252283D2*
X6874331Y1287717D1*
Y1313701D1*
X7071181Y1510551D1*
Y1553858D1*
X7012126Y951496D2*
X7047559D1*
X7149921Y849134D1*
Y797953D1*
X6909764Y1299528D2*
Y1295591D1*
X7029449D1*
X7071181Y1337323D1*
Y1380630D1*
X7130236Y1207402D2*
Y1234961D1*
X7142047Y1246772D1*
X6468819Y994803D2*
Y959370D1*
X6464882Y955433D1*
X6425512Y1136535D2*
Y1112913D1*
X6409764Y1097165D1*
X6425512Y1313701D2*
Y1290079D1*
X6409764Y1274331D1*
X6425512Y1490866D2*
Y1467244D1*
X6409764Y1451496D1*
X6535748Y1762520D2*
Y1801890D1*
X6531811Y1805827D1*
X6740472Y1845197D2*
Y1842835D1*
X6705039D1*
X6949134Y1762520D2*
Y1801890D1*
X6945197Y1805827D1*
X7130236Y1553858D2*
Y1581417D1*
X7142047Y1593228D1*
X7130236Y1380630D2*
Y1408189D1*
X7142047Y1420000D1*
X6390472Y585354D2*
Y636929D1*
X6457008Y703465D1*
X6665669D1*
X6677480Y691654D1*
X7051496Y719213D2*
Y586929D1*
X7049921Y585354D1*
X6838898Y1248346D2*
Y1323150D1*
X6897953Y1382205D1*
Y1508189D1*
X7027874Y1638110D1*
X7153858D1*
X7177480Y1614488D1*
X7185354D1*
X7291654Y1531811D2*
X7301496D1*
X7401890Y1431417D1*
X472756Y1131417D2*
X503071D1*
X657795Y976693D1*
Y750709D1*
X712913Y695591D1*
X1323150Y660157D2*
Y585748D1*
X1322756Y585354D1*
X913701Y671969D2*
Y585748D1*
X913307Y585354D1*
X2301102Y660157D2*
Y585748D1*
X2300709Y585354D1*
X1891654Y671969D2*
Y585748D1*
X1891260Y585354D1*
X1460945Y669606D2*
X1511394Y720055D1*
X1666402D1*
X1690866Y695591D1*
X3672756Y660157D2*
Y585748D1*
X3672362Y585354D1*
X3263307Y671969D2*
Y585748D1*
X3262913Y585354D1*
X2438898Y669606D2*
X2489836Y720545D1*
X3037566D1*
X3062520Y695591D1*
X4650709Y660157D2*
Y585748D1*
X4650315Y585354D1*
X4241260Y671969D2*
Y585748D1*
X4240866Y585354D1*
X4040472Y695591D2*
X4016008Y720055D1*
X3861000D1*
X3810551Y669606D1*
X6022362Y660157D2*
Y585748D1*
X6021969Y585354D1*
X5612913Y671969D2*
Y585748D1*
X5612520Y585354D1*
X7000315Y660157D2*
Y585748D1*
X6999921Y585354D1*
X6590866Y671969D2*
Y585748D1*
X6590472Y585354D1*
X6390079Y695591D2*
X6365614Y720055D1*
X6210606D1*
X6160157Y669606D1*
X4788504D2*
X4839442Y720545D1*
X5387172D1*
X5412126Y695591D1*
X7138110Y669606D2*
X7220787Y752283D1*
Y791654D1*
X7208976Y803465D1*
Y938504D1*
X7220787Y950315D1*
X7401890Y1131417D1*
X472756Y1031417D2*
X500709D1*
X634173Y897953D1*
Y715276D1*
X685354Y664094D1*
X866457Y656220D2*
Y588504D1*
X863307Y585354D1*
X1271969Y648346D2*
Y586142D1*
X1272756Y585354D1*
X1844409Y656220D2*
Y588504D1*
X1841260Y585354D1*
X2249921Y648346D2*
Y586142D1*
X2250709Y585354D1*
X1516063Y681417D2*
X1645984D1*
X1663307Y664094D1*
X3216063Y656220D2*
Y588504D1*
X3212913Y585354D1*
X3621575Y648346D2*
Y586142D1*
X3622362Y585354D1*
X2494016Y681417D2*
X3017638D1*
X3034961Y664094D1*
X4194016Y656220D2*
Y588504D1*
X4190866Y585354D1*
X4599528Y648346D2*
Y586142D1*
X4600315Y585354D1*
X3865669Y681417D2*
X3995591D1*
X4012913Y664094D1*
X5565669Y656220D2*
Y588504D1*
X5562520Y585354D1*
X5971181Y648346D2*
Y586142D1*
X5971969Y585354D1*
X6543622Y656220D2*
Y588504D1*
X6540472Y585354D1*
X6949134Y648346D2*
Y586142D1*
X6949921Y585354D1*
X6215276Y681417D2*
X6345197D1*
X6362520Y664094D1*
X4843622Y681417D2*
X5367244D1*
X5384567Y664094D1*
X7193228Y681417D2*
X7197165D1*
X7244409Y728661D1*
Y799528D1*
X7228661Y815276D1*
Y901890D1*
X7358189Y1031417D1*
X7401890D1*
X4550315Y585354D2*
Y433386D1*
X4142835D1*
Y583386D1*
X4140866Y585354D1*
X3162913D2*
X3164882Y583386D1*
Y433386D1*
X3572362D1*
X4142835D1*
X1791260Y585354D2*
X1793228Y583386D1*
Y433386D1*
X2200709D1*
X3164882D1*
X3572362Y585354D2*
Y433386D1*
X472756Y684567D2*
X599528D1*
X657795Y626299D1*
Y559370D1*
X783780Y433386D1*
X815276D1*
Y583386D1*
X813307Y585354D1*
X2200709D2*
Y433386D1*
X6899921Y585354D2*
Y433386D1*
X6492441D1*
Y583386D1*
X6490472Y585354D1*
X5512520D2*
X5514488Y583386D1*
Y433386D1*
X5921969D1*
X6492441D1*
X5921969Y585354D2*
Y433386D1*
X4550315D2*
X5514488D1*
X815276D2*
X1222756D1*
X1793228D1*
X1222756Y585354D2*
Y433386D1*
X7401890Y684961D2*
X7307008D1*
X7220787Y598740D1*
Y468819D1*
X7185354Y433386D1*
X6899921D1*
X713307Y585354D2*
Y636929D1*
X779843Y703465D1*
X988504D1*
X1000315Y691654D1*
X1374331Y719213D2*
Y586929D1*
X1372756Y585354D1*
X1063307Y523937D2*
Y585354D1*
Y523937D2*
D15*
Y488504D1*
D14*
X1059370Y484567D1*
D15*
X1185354D1*
X1472756D2*
Y523937D1*
Y585354D1*
X763307D2*
D14*
Y524724D1*
X764094Y523937D1*
X1189291Y480630D2*
X1185354Y484567D1*
Y520000D1*
X1173543Y531811D1*
Y584567D1*
X1172756Y585354D1*
X622362Y590866D2*
D15*
X479055D1*
X472756Y584567D1*
X2041260Y523937D2*
D14*
Y585354D1*
Y523937D2*
D15*
Y488504D1*
D14*
X2037323Y484567D1*
D15*
X2163307D1*
X2450709D2*
Y523937D1*
Y585354D1*
X1741260D2*
D14*
Y524724D1*
X1742047Y523937D1*
X2167244Y480630D2*
X2163307Y484567D1*
Y520000D1*
X2151496Y531811D1*
Y584567D1*
X2150709Y585354D1*
X1472756Y523937D2*
D15*
X1742047D1*
X3412913D2*
D14*
Y585354D1*
Y523937D2*
D15*
Y488504D1*
D14*
X3408976Y484567D1*
D15*
X3534961D1*
X3822362D2*
Y523937D1*
Y585354D1*
X3112913D2*
D14*
Y524724D1*
X3113701Y523937D1*
X3538898Y480630D2*
X3534961Y484567D1*
Y520000D1*
X3523150Y531811D1*
Y584567D1*
X3522362Y585354D1*
X2450709Y523937D2*
D15*
X3113701D1*
X4390866D2*
D14*
Y585354D1*
Y523937D2*
D15*
Y488504D1*
D14*
X4386929Y484567D1*
D15*
X4512913D1*
X4800315D2*
Y523937D1*
Y585354D1*
X4090866D2*
D14*
Y524724D1*
X4091654Y523937D1*
X4516850Y480630D2*
X4512913Y484567D1*
Y520000D1*
X4501102Y531811D1*
Y584567D1*
X4500315Y585354D1*
X3822362Y523937D2*
D15*
X4091654D1*
X4800315D2*
X5463307D1*
X5762520D2*
D14*
Y585354D1*
Y523937D2*
D15*
Y488504D1*
D14*
X5758583Y484567D1*
D15*
X5884567D1*
X6171969D2*
Y523937D1*
Y585354D1*
X5462520D2*
D14*
Y524724D1*
X5463307Y523937D1*
X5888504Y480630D2*
X5884567Y484567D1*
Y520000D1*
X5872756Y531811D1*
Y584567D1*
X5871969Y585354D1*
X6740472Y523937D2*
Y585354D1*
Y523937D2*
D15*
Y488504D1*
D14*
X6736535Y484567D1*
D15*
X6862520D1*
X7149921D2*
Y523937D1*
Y585354D1*
X6440472D2*
D14*
Y524724D1*
X6441260Y523937D1*
X6866457Y480630D2*
X6862520Y484567D1*
Y520000D1*
X6850709Y531811D1*
Y584567D1*
X6849921Y585354D1*
X6171969Y523937D2*
D15*
X6441260D1*
X7260157D2*
X7320787Y584567D1*
X7401890D1*
X3306614Y1268031D2*
X3369606D1*
X3381417Y1256220D1*
Y1248346D1*
Y1205039D1*
X3401102Y1185354D1*
X3503465D2*
X3566457D1*
X3629449Y1248346D1*
X3700315D1*
X3735748Y1283780D1*
X3853858D1*
X3869606Y1268031D1*
Y1232598D1*
X2622362Y1413701D2*
X2893228D1*
X3066457Y1586929D1*
X3243622D1*
X3326299Y1504252D1*
Y1405827D1*
X3381417Y1350709D1*
Y1252283D1*
D14*
Y1248346D1*
X1031811D2*
Y1252283D1*
D15*
Y1350709D1*
X976693Y1405827D1*
Y1504252D1*
X894016Y1586929D1*
X736535D1*
X481024Y1331417D1*
X472756D1*
X1031811Y1248346D2*
D14*
D3*
X957008Y1268031D2*
D15*
X1020000D1*
X1031811Y1256220D1*
Y1248346D1*
Y1205039D1*
X1051496Y1185354D1*
X1153858D2*
X1216850D1*
X1279843Y1248346D1*
X1350709D1*
X1386142Y1283780D1*
X1504252D1*
X1520000Y1268031D1*
Y1232598D1*
X2009764Y1248346D2*
D14*
Y1252283D1*
D15*
Y1350709D1*
X1954646Y1405827D1*
Y1504252D1*
X1871969Y1586929D1*
X1694803D1*
X1614488Y1506614D1*
Y1283780D1*
X1934961Y1268031D2*
X1997953D1*
X2009764Y1256220D1*
Y1248346D1*
Y1205039D1*
X2029449Y1185354D1*
X2131811D2*
X2194803D1*
X2257795Y1248346D1*
X2328661D1*
X2364094Y1283780D1*
X2482205D1*
X2497953Y1268031D1*
Y1232598D1*
X2009764Y1248346D2*
D14*
D3*
X4284567Y1268031D2*
D15*
X4347559D1*
X4359370Y1256220D1*
Y1248346D1*
Y1205039D1*
X4379055Y1185354D1*
X4481417D2*
X4544409D1*
X4607402Y1248346D1*
X4678268D1*
X4713701Y1283780D1*
X4831811D1*
X4847559Y1268031D1*
Y1232598D1*
X3964094Y1283780D2*
Y1506614D1*
X4044409Y1586929D1*
X4221575D1*
X4304252Y1504252D1*
Y1405827D1*
X4359370Y1350709D1*
Y1252283D1*
D14*
Y1248346D1*
X5656220Y1268031D2*
D15*
X5719213D1*
X5731024Y1256220D1*
Y1248346D1*
Y1205039D1*
X5750709Y1185354D1*
X5853071D2*
X5916063D1*
X5979055Y1248346D1*
X6049921D1*
X6085354Y1283780D1*
X6203465D1*
X6219213Y1268031D1*
Y1232598D1*
X4971969Y1413701D2*
X5242835D1*
X5416063Y1586929D1*
X5593228D1*
X5675906Y1504252D1*
Y1405827D1*
X5731024Y1350709D1*
Y1252283D1*
D14*
Y1248346D1*
X6634173Y1268031D2*
D15*
X6697165D1*
X6708976Y1256220D1*
Y1248346D1*
Y1205039D1*
X6728661Y1185354D1*
X6831024D2*
X6894016D1*
X6957008Y1248346D1*
X7027874D1*
X7063307Y1283780D1*
X7181417D1*
X7197165Y1268031D1*
Y1232598D1*
X6313701Y1283780D2*
Y1506614D1*
X6394016Y1586929D1*
X6571181D1*
X6653858Y1504252D1*
Y1405827D1*
X6708976Y1350709D1*
Y1252283D1*
D14*
Y1248346D1*
X5731024D2*
D3*
X7301102Y1327087D2*
D15*
X7397559D1*
D14*
X7401890Y1331417D1*
D33*
X1240472Y731024D3*
X964882Y671969D3*
X3314488D3*
X1942835D3*
X2218425Y731024D3*
X3590079D3*
X5664094Y671969D3*
X4292441D3*
X4568031Y731024D3*
X5939685D3*
X6642047Y671969D3*
X6917638Y731024D3*
X455039Y1883780D3*
Y1805039D3*
Y887717D3*
Y808976D3*
X520000Y1919213D3*
Y1765669D3*
Y923150D3*
Y769606D3*
X584961Y1883780D3*
Y1805039D3*
Y887717D3*
Y808976D3*
X622362Y590866D3*
X685354Y664094D3*
X712913Y860945D3*
Y695591D3*
X732598Y1451496D3*
Y1274331D3*
Y1097165D3*
X744409Y727087D3*
X764094Y523937D3*
X787717Y955433D3*
X811339Y860945D3*
X854646Y1805827D3*
X862520Y860945D3*
X866457Y656220D3*
X913701Y671969D3*
X949134Y1205039D3*
X957008Y1366457D3*
X960945Y484567D3*
X980630Y947559D3*
X984567Y1106614D3*
X1000315Y691654D3*
X1008189Y916063D3*
X1012126Y868819D3*
X1027874Y1842835D3*
X1047559Y1055433D3*
X1051496Y1185354D3*
X1063307Y523937D3*
X1086929Y1055433D3*
X1108583Y910157D3*
X1122362Y860945D3*
X1153858Y1185354D3*
X1161732Y1496378D3*
X1185354Y484567D3*
X1197165Y731024D3*
X1205039Y860945D3*
X1232598Y1299528D3*
Y1252283D3*
X1236535Y1102677D3*
X1240472Y894016D3*
X1268031Y1805827D3*
X1271969Y648346D3*
X1275906Y864882D3*
X1323150Y660157D3*
X1334961Y951496D3*
X1338898Y697165D3*
X1374331Y719213D3*
Y484567D3*
X1421575Y731024D3*
X1460945Y669606D3*
X1464882Y1593228D3*
Y1420000D3*
Y1246772D3*
X1472756Y523937D3*
X1512126Y775906D3*
X1516063Y681417D3*
X1520000Y1642047D3*
Y1232598D3*
X1614488Y1642047D3*
Y1283780D3*
X1663307Y664094D3*
X1690866Y860945D3*
Y695591D3*
X1710551Y1451496D3*
Y1274331D3*
Y1097165D3*
X1722362Y727087D3*
X1742047Y523937D3*
X1765669Y955433D3*
X1789291Y860945D3*
X1832598Y1805827D3*
X1840472Y860945D3*
X1844409Y656220D3*
X1891654Y671969D3*
X1927087Y1205039D3*
X1934961Y1366457D3*
X1938898Y484567D3*
X1958583Y947559D3*
X1962520Y1106614D3*
X1978268Y691654D3*
X1986142Y916063D3*
X1990079Y868819D3*
X2005827Y1842835D3*
X2025512Y1055433D3*
X2029449Y1185354D3*
X2041260Y523937D3*
X2064882Y1055433D3*
X2086535Y910157D3*
X2100315Y860945D3*
X2131811Y1185354D3*
X2139685Y1496378D3*
X2163307Y484567D3*
X2175118Y731024D3*
X2182992Y860945D3*
X2210551Y1299528D3*
Y1252283D3*
X2214488Y1102677D3*
X2218425Y894016D3*
X2245984Y1805827D3*
X2249921Y648346D3*
X2253858Y864882D3*
X2301102Y660157D3*
X2312913Y951496D3*
X2316850Y697165D3*
X2350709Y866457D3*
X2352283Y719213D3*
Y484567D3*
X2397953Y862520D3*
X2399528Y731024D3*
X2438898Y669606D3*
X2442835Y1593228D3*
Y1420000D3*
Y1246772D3*
X2450709Y523937D3*
X2453071Y901890D3*
X2490079Y775906D3*
X2492441Y1807402D3*
Y866457D3*
X2494016Y681417D3*
X2497953Y1232598D3*
X2594803Y1811339D3*
X2622362Y1413701D3*
X2760157Y1449134D3*
Y1378268D3*
X2768031Y1000315D3*
X2819213Y1732598D3*
X3034961Y664094D3*
X3062520Y860945D3*
Y695591D3*
X3082205Y1451496D3*
Y1274331D3*
Y1097165D3*
X3094016Y727087D3*
X3113701Y523937D3*
X3137323Y955433D3*
X3160945Y860945D3*
X3204252Y1805827D3*
X3212126Y860945D3*
X3216063Y656220D3*
X3263307Y671969D3*
X3298740Y1205039D3*
X3306614Y1366457D3*
X3310551Y484567D3*
X3330236Y947559D3*
X3334173Y1106614D3*
X3349921Y691654D3*
X3357795Y916063D3*
X3361732Y868819D3*
X3377480Y1842835D3*
X3397165Y1055433D3*
X3401102Y1185354D3*
X3412913Y523937D3*
X3436535Y1055433D3*
X3458189Y910157D3*
X3471969Y860945D3*
X3503465Y1185354D3*
X3511339Y1496378D3*
X3534961Y484567D3*
X3546772Y731024D3*
X3554646Y860945D3*
X3582205Y1299528D3*
Y1252283D3*
X3586142Y1102677D3*
X3590079Y894016D3*
X3617638Y1805827D3*
X3621575Y648346D3*
X3625512Y864882D3*
X3672756Y660157D3*
X3684567Y951496D3*
X3688504Y697165D3*
X3723937Y719213D3*
Y484567D3*
X3771181Y731024D3*
X3810551Y669606D3*
X3814488Y1593228D3*
Y1420000D3*
Y1246772D3*
X3822362Y523937D3*
X3861732Y775906D3*
X3865669Y681417D3*
X3869606Y1642047D3*
Y1232598D3*
X3964094Y1642047D3*
Y1283780D3*
X4012913Y664094D3*
X4040472Y860945D3*
Y695591D3*
X4060157Y1451496D3*
Y1274331D3*
Y1097165D3*
X4071969Y727087D3*
X4091654Y523937D3*
X4115276Y955433D3*
X4138898Y860945D3*
X4182205Y1805827D3*
X4190079Y860945D3*
X4194016Y656220D3*
X4241260Y671969D3*
X4276693Y1205039D3*
X4284567Y1366457D3*
X4288504Y484567D3*
X4308189Y947559D3*
X4312126Y1106614D3*
X4327874Y691654D3*
X4335748Y916063D3*
X4339685Y868819D3*
X4355433Y1842835D3*
X4375118Y1055433D3*
X4379055Y1185354D3*
X4390866Y523937D3*
X4414488Y1055433D3*
X4436142Y910157D3*
X4449921Y860945D3*
X4481417Y1185354D3*
X4489291Y1496378D3*
X4512913Y484567D3*
X4524724Y731024D3*
X4532598Y860945D3*
X4560157Y1299528D3*
Y1252283D3*
X4564094Y1102677D3*
X4568031Y894016D3*
X4595591Y1805827D3*
X4599528Y648346D3*
X4603465Y864882D3*
X4650709Y660157D3*
X4662520Y951496D3*
X4666457Y697165D3*
X4700315Y866457D3*
X4701890Y719213D3*
Y484567D3*
X4747559Y862520D3*
X4749134Y731024D3*
X4788504Y669606D3*
X4792441Y1593228D3*
Y1420000D3*
Y1246772D3*
X4800315Y523937D3*
X4802677Y901890D3*
X4839685Y775906D3*
X4842047Y866457D3*
X4842835Y1807402D3*
X4843622Y681417D3*
X4847559Y1232598D3*
X4945197Y1811339D3*
X4971969Y1413701D3*
X5109764Y1449134D3*
Y1378268D3*
X5117638Y1000315D3*
X5168819Y1732598D3*
X5384567Y664094D3*
X5412126Y860945D3*
Y695591D3*
X5431811Y1451496D3*
Y1274331D3*
Y1097165D3*
X5443622Y727087D3*
X5463307Y523937D3*
X5486929Y955433D3*
X5510551Y860945D3*
X5553858Y1805827D3*
X5561732Y860945D3*
X5565669Y656220D3*
X5612913Y671969D3*
X5648346Y1205039D3*
X5656220Y1366457D3*
X5660157Y484567D3*
X5679843Y947559D3*
X5683780Y1106614D3*
X5699528Y691654D3*
X5707402Y916063D3*
X5711339Y868819D3*
X5727087Y1842835D3*
X5746772Y1055433D3*
X5750709Y1185354D3*
X5762520Y523937D3*
X5786142Y1055433D3*
X5807795Y910157D3*
X5821575Y860945D3*
X5853071Y1185354D3*
X5860945Y1496378D3*
X5884567Y484567D3*
X5896378Y731024D3*
X5904252Y860945D3*
X5931811Y1299528D3*
Y1252283D3*
X5935748Y1102677D3*
X5939685Y894016D3*
X5967244Y1805827D3*
X5971181Y648346D3*
X5975118Y864882D3*
X6022362Y660157D3*
X6034173Y951496D3*
X6038110Y697165D3*
X6073543Y719213D3*
Y484567D3*
X6120787Y731024D3*
X6160157Y669606D3*
X6164094Y1593228D3*
Y1420000D3*
Y1246772D3*
X6171969Y523937D3*
X6211339Y775906D3*
X6215276Y681417D3*
X6219213Y1642047D3*
Y1232598D3*
X6313701Y1642047D3*
Y1283780D3*
X6362520Y664094D3*
X6390079Y860945D3*
Y695591D3*
X6409764Y1451496D3*
Y1274331D3*
Y1097165D3*
X6421575Y727087D3*
X6441260Y523937D3*
X6464882Y955433D3*
X6488504Y860945D3*
X6531811Y1805827D3*
X6539685Y860945D3*
X6543622Y656220D3*
X6590866Y671969D3*
X6626299Y1205039D3*
X6634173Y1366457D3*
X6638110Y484567D3*
X6657795Y947559D3*
X6661732Y1106614D3*
X6677480Y691654D3*
X6685354Y916063D3*
X6689291Y868819D3*
X6705039Y1842835D3*
X6724724Y1055433D3*
X6728661Y1185354D3*
X6740472Y523937D3*
X6764094Y1055433D3*
X6785748Y910157D3*
X6799528Y860945D3*
X6831024Y1185354D3*
X6838898Y1496378D3*
X6862520Y484567D3*
X6874331Y731024D3*
X6882205Y860945D3*
X6909764Y1299528D3*
Y1252283D3*
X6913701Y1102677D3*
X6917638Y894016D3*
X6945197Y1805827D3*
X6949134Y648346D3*
X6953071Y864882D3*
X7000315Y660157D3*
X7012126Y951496D3*
X7016063Y697165D3*
X7051496Y719213D3*
Y484567D3*
X7098740Y731024D3*
X7138110Y669606D3*
X7142047Y1593228D3*
Y1420000D3*
Y1246772D3*
X7149921Y523937D3*
X7185354Y1614488D3*
X7189291Y775906D3*
X7193228Y681417D3*
X7197165Y1232598D3*
X7260157Y523937D3*
X7289685Y1883780D3*
Y1805039D3*
Y887717D3*
Y808976D3*
X7291654Y1531811D3*
X7301102Y1327087D3*
X7354646Y1919213D3*
Y1765669D3*
Y923150D3*
Y769606D3*
X7419606Y1883780D3*
Y1805039D3*
Y887717D3*
Y808976D3*
D17*
X957008Y1268031D3*
Y1327087D3*
X1000315Y484567D3*
X1059370D3*
X1413701D3*
X1472756D3*
X1934961Y1268031D3*
Y1327087D3*
X1978268Y484567D3*
X2037323D3*
X2391654D3*
X2450709D3*
X3306614Y1268031D3*
Y1327087D3*
X3349921Y484567D3*
X3408976D3*
X3763307D3*
X3822362D3*
X4284567Y1268031D3*
Y1327087D3*
X4327874Y484567D3*
X4386929D3*
X4741260D3*
X4800315D3*
X5656220Y1268031D3*
Y1327087D3*
X5699528Y484567D3*
X5758583D3*
X6112913D3*
X6171969D3*
X6634173Y1268031D3*
Y1327087D3*
X6677480Y484567D3*
X6736535D3*
X7090866D3*
X7149921D3*
D19*
X1031811Y1248346D3*
X1161732D3*
Y1441260D3*
X1031811D3*
X2009764Y1248346D3*
X2139685D3*
Y1441260D3*
X2009764D3*
X3381417Y1248346D3*
X3511339D3*
Y1441260D3*
X3381417D3*
X4359370Y1248346D3*
X4489291D3*
Y1441260D3*
X4359370D3*
X5731024Y1248346D3*
X5860945D3*
Y1441260D3*
X5731024D3*
X6708976Y1248346D3*
X6838898D3*
Y1441260D3*
X6708976D3*
D20*
X472756Y1531417D3*
Y1631417D3*
Y1331417D3*
Y1431417D3*
Y1131417D3*
Y1031417D3*
Y1231417D3*
Y684567D3*
Y484567D3*
Y584567D3*
D21*
X2812520Y866457D3*
X2712520D3*
X5162126D3*
X5062126D3*
D20*
X7401890Y1531417D3*
Y1631417D3*
Y1331417D3*
Y1431417D3*
Y1131417D3*
Y1031417D3*
Y1231417D3*
Y684961D3*
Y484567D3*
Y584567D3*
D23*
X2664094Y1542047D3*
X2860945D3*
X2664094Y1148346D3*
X2860945D3*
X5013701Y1542047D3*
X5210551D3*
X5013701Y1148346D3*
X5210551D3*
X1098740Y1699528D3*
X1325118Y1345197D3*
Y1522362D3*
X1098740Y990866D3*
X1325118Y1168031D3*
X1256220Y1030236D3*
Y1660157D3*
X941260D3*
X872362Y1522362D3*
Y1345197D3*
Y1168031D3*
X941260Y1030236D3*
X2076693Y1699528D3*
X2303071Y1345197D3*
Y1522362D3*
X2076693Y990866D3*
X2303071Y1168031D3*
X2234173Y1030236D3*
Y1660157D3*
X1919213D3*
X1850315Y1522362D3*
Y1345197D3*
Y1168031D3*
X1919213Y1030236D3*
X3448346Y1699528D3*
X3674724Y1345197D3*
Y1522362D3*
X3448346Y990866D3*
X3674724Y1168031D3*
X3605827Y1030236D3*
Y1660157D3*
X3290866D3*
X3221969Y1522362D3*
Y1345197D3*
Y1168031D3*
X3290866Y1030236D3*
X4426299Y1699528D3*
X4652677Y1345197D3*
Y1522362D3*
X4426299Y990866D3*
X4652677Y1168031D3*
X4583780Y1030236D3*
Y1660157D3*
X4268819D3*
X4199921Y1522362D3*
Y1345197D3*
Y1168031D3*
X4268819Y1030236D3*
X5797953Y1699528D3*
X6024331Y1345197D3*
Y1522362D3*
X5797953Y990866D3*
X6024331Y1168031D3*
X5955433Y1030236D3*
Y1660157D3*
X5640472D3*
X5571575Y1522362D3*
Y1345197D3*
Y1168031D3*
X5640472Y1030236D3*
X6775906Y1699528D3*
X7002283Y1345197D3*
Y1522362D3*
X6775906Y990866D3*
X7002283Y1168031D3*
X6933386Y1030236D3*
Y1660157D3*
X6618425D3*
X6549528Y1522362D3*
Y1345197D3*
Y1168031D3*
X6618425Y1030236D3*
D25*
X520000Y1842835D3*
Y846772D3*
X7354646Y1842835D3*
Y846772D3*
D17*
X807402Y1490866D3*
X748346D3*
X807402Y1313701D3*
X748346D3*
X807402Y1136535D3*
X748346D3*
X850709Y994803D3*
X791654D3*
X917638Y1762520D3*
X858583D3*
X1122362Y1845197D3*
X1063307D3*
X1331024Y1762520D3*
X1271969D3*
D30*
X1331024Y1030236D3*
X1441260D3*
D17*
X1394016Y1553858D3*
X1453071D3*
X1394016Y1380630D3*
X1453071D3*
X1394016Y1207402D3*
X1453071D3*
X1785354Y1490866D3*
X1726299D3*
X1785354Y1313701D3*
X1726299D3*
X1785354Y1136535D3*
X1726299D3*
X1828661Y994803D3*
X1769606D3*
X1895591Y1762520D3*
X1836535D3*
X2100315Y1845197D3*
X2041260D3*
X2308976Y1762520D3*
X2249921D3*
D30*
X2308976Y1030236D3*
X2419213D3*
D17*
X2371969Y1553858D3*
X2431024D3*
X2371969Y1380630D3*
X2431024D3*
X2371969Y1207402D3*
X2431024D3*
D31*
X2660157Y1614488D3*
Y1724724D3*
Y1220787D3*
Y1331024D3*
D17*
X2766457Y1039685D3*
X2707402D3*
X2819213Y1689291D3*
Y1630236D3*
X3157008Y1490866D3*
X3097953D3*
X3157008Y1313701D3*
X3097953D3*
X3157008Y1136535D3*
X3097953D3*
X3200315Y994803D3*
X3141260D3*
X3267244Y1762520D3*
X3208189D3*
X3471969Y1845197D3*
X3412913D3*
X3680630Y1762520D3*
X3621575D3*
D30*
X3680630Y1030236D3*
X3790866D3*
D17*
X3743622Y1553858D3*
X3802677D3*
X3743622Y1380630D3*
X3802677D3*
X3743622Y1207402D3*
X3802677D3*
X4134961Y1490866D3*
X4075906D3*
X4134961Y1313701D3*
X4075906D3*
X4134961Y1136535D3*
X4075906D3*
X4178268Y994803D3*
X4119213D3*
X4245197Y1762520D3*
X4186142D3*
X4449921Y1845197D3*
X4390866D3*
X4658583Y1762520D3*
X4599528D3*
D30*
X4658583Y1030236D3*
X4768819D3*
D17*
X4721575Y1553858D3*
X4780630D3*
X4721575Y1380630D3*
X4780630D3*
X4721575Y1207402D3*
X4780630D3*
D31*
X5009764Y1614488D3*
Y1724724D3*
Y1220787D3*
Y1331024D3*
D17*
X5116063Y1039685D3*
X5057008D3*
X5168819Y1689291D3*
Y1630236D3*
X5506614Y1490866D3*
X5447559D3*
X5506614Y1313701D3*
X5447559D3*
X5506614Y1136535D3*
X5447559D3*
X5549921Y994803D3*
X5490866D3*
X5616850Y1762520D3*
X5557795D3*
X5821575Y1845197D3*
X5762520D3*
X6030236Y1762520D3*
X5971181D3*
D30*
X6030236Y1030236D3*
X6140472D3*
D17*
X6093228Y1553858D3*
X6152283D3*
X6093228Y1380630D3*
X6152283D3*
X6093228Y1207402D3*
X6152283D3*
X6484567Y1490866D3*
X6425512D3*
X6484567Y1313701D3*
X6425512D3*
X6484567Y1136535D3*
X6425512D3*
X6527874Y994803D3*
X6468819D3*
X6594803Y1762520D3*
X6535748D3*
X6799528Y1845197D3*
X6740472D3*
X7008189Y1762520D3*
X6949134D3*
D30*
X7008189Y1030236D3*
X7118425D3*
D17*
X7071181Y1553858D3*
X7130236D3*
X7071181Y1380630D3*
X7130236D3*
X7071181Y1207402D3*
X7130236D3*
D32*
X1063307Y797953D3*
X1013307D3*
X963307D3*
X913307D3*
X863307D3*
X813307D3*
X763307D3*
X713307D3*
Y585354D3*
X763307D3*
X813307D3*
X863307D3*
X913307D3*
X963307D3*
X1013307D3*
X1063307D3*
X1472756Y797953D3*
X1422756D3*
X1372756D3*
X1322756D3*
X1272756D3*
X1222756D3*
X1172756D3*
X1122756D3*
Y585354D3*
X1172756D3*
X1222756D3*
X1272756D3*
X1322756D3*
X1372756D3*
X1422756D3*
X1472756D3*
X2041260Y797953D3*
X1991260D3*
X1941260D3*
X1891260D3*
X1841260D3*
X1791260D3*
X1741260D3*
X1691260D3*
Y585354D3*
X1741260D3*
X1791260D3*
X1841260D3*
X1891260D3*
X1941260D3*
X1991260D3*
X2041260D3*
X2450709Y797953D3*
X2400709D3*
X2350709D3*
X2300709D3*
X2250709D3*
X2200709D3*
X2150709D3*
X2100709D3*
Y585354D3*
X2150709D3*
X2200709D3*
X2250709D3*
X2300709D3*
X2350709D3*
X2400709D3*
X2450709D3*
X3412913Y797953D3*
X3362913D3*
X3312913D3*
X3262913D3*
X3212913D3*
X3162913D3*
X3112913D3*
X3062913D3*
Y585354D3*
X3112913D3*
X3162913D3*
X3212913D3*
X3262913D3*
X3312913D3*
X3362913D3*
X3412913D3*
X3822362Y797953D3*
X3772362D3*
X3722362D3*
X3672362D3*
X3622362D3*
X3572362D3*
X3522362D3*
X3472362D3*
Y585354D3*
X3522362D3*
X3572362D3*
X3622362D3*
X3672362D3*
X3722362D3*
X3772362D3*
X3822362D3*
X4390866Y797953D3*
X4340866D3*
X4290866D3*
X4240866D3*
X4190866D3*
X4140866D3*
X4090866D3*
X4040866D3*
Y585354D3*
X4090866D3*
X4140866D3*
X4190866D3*
X4240866D3*
X4290866D3*
X4340866D3*
X4390866D3*
X4800315Y797953D3*
X4750315D3*
X4700315D3*
X4650315D3*
X4600315D3*
X4550315D3*
X4500315D3*
X4450315D3*
Y585354D3*
X4500315D3*
X4550315D3*
X4600315D3*
X4650315D3*
X4700315D3*
X4750315D3*
X4800315D3*
X5762520Y797953D3*
X5712520D3*
X5662520D3*
X5612520D3*
X5562520D3*
X5512520D3*
X5462520D3*
X5412520D3*
Y585354D3*
X5462520D3*
X5512520D3*
X5562520D3*
X5612520D3*
X5662520D3*
X5712520D3*
X5762520D3*
X6171969Y797953D3*
X6121969D3*
X6071969D3*
X6021969D3*
X5971969D3*
X5921969D3*
X5871969D3*
X5821969D3*
Y585354D3*
X5871969D3*
X5921969D3*
X5971969D3*
X6021969D3*
X6071969D3*
X6121969D3*
X6171969D3*
X6740472Y797953D3*
X6690472D3*
X6640472D3*
X6590472D3*
X6540472D3*
X6490472D3*
X6440472D3*
X6390472D3*
Y585354D3*
X6440472D3*
X6490472D3*
X6540472D3*
X6590472D3*
X6640472D3*
X6690472D3*
X6740472D3*
X7149921Y797953D3*
X7099921D3*
X7049921D3*
X6999921D3*
X6949921D3*
X6899921D3*
X6849921D3*
X6799921D3*
Y585354D3*
X6849921D3*
X6899921D3*
X6949921D3*
X6999921D3*
X7049921D3*
X7099921D3*
X7149921D3*
M02*
