G04 DipTrace 3.1.0.1*
G04 Top-Clock-IN12c.BottomSilk.gbr*
%MOIN*%
G04 #@! TF.FileFunction,Legend,Bot*
G04 #@! TF.Part,Single*
%ADD10C,0.009843*%
%ADD26C,0.015422*%
%ADD28C,0.015404*%
%ADD62C,0.004632*%
%FSLAX26Y26*%
G04*
G70*
G90*
G75*
G01*
G04 BotSilk*
%LPD*%
D26*
X7166381Y1588644D3*
X7116239Y1579443D2*
D10*
Y1461339D1*
X7096554D1*
Y1579443D1*
X7116239D1*
D26*
X7166381Y1415416D3*
X7116239Y1406215D2*
D10*
Y1288110D1*
X7096554D1*
Y1406215D1*
X7116239D1*
D26*
X7166381Y1242188D3*
X7116239Y1232987D2*
D10*
Y1114882D1*
X7096554D1*
Y1232987D1*
X7116239D1*
D28*
X6914348Y1778979D3*
X6923549Y1728837D2*
D10*
X7041654D1*
Y1709152D1*
X6923549D1*
Y1728837D1*
D28*
X6709623Y1861656D3*
X6718824Y1811515D2*
D10*
X6836929D1*
Y1791829D1*
X6718824D1*
Y1811515D1*
D28*
X6497025Y1778979D3*
X6506226Y1728837D2*
D10*
X6624331D1*
Y1709152D1*
X6506226D1*
Y1728837D1*
D26*
X6456296Y960017D3*
X6506438Y969218D2*
D10*
Y1087323D1*
X6526123D1*
Y969218D1*
X6506438D1*
D26*
X6385430Y1456080D3*
X6435572Y1465281D2*
D10*
Y1583386D1*
X6455257D1*
Y1465281D1*
X6435572D1*
D26*
X6385430Y1278915D3*
X6435572Y1288116D2*
D10*
Y1406220D1*
X6455257D1*
Y1288116D1*
X6435572D1*
D26*
X6385430Y1101749D3*
X6435572Y1110950D2*
D10*
Y1229055D1*
X6455257D1*
Y1110950D1*
X6435572D1*
D26*
X6188428Y1588644D3*
X6138286Y1579443D2*
D10*
Y1461339D1*
X6118601D1*
Y1579443D1*
X6138286D1*
D26*
X6188428Y1415416D3*
X6138286Y1406215D2*
D10*
Y1288110D1*
X6118601D1*
Y1406215D1*
X6138286D1*
D26*
X6188428Y1242188D3*
X6138286Y1232987D2*
D10*
Y1114882D1*
X6118601D1*
Y1232987D1*
X6138286D1*
D28*
X5936395Y1778979D3*
X5945596Y1728837D2*
D10*
X6063701D1*
Y1709152D1*
X5945596D1*
Y1728837D1*
D28*
X5731671Y1861656D3*
X5740871Y1811515D2*
D10*
X5858976D1*
Y1791829D1*
X5740871D1*
Y1811515D1*
D28*
X5519072Y1778979D3*
X5528273Y1728837D2*
D10*
X5646378D1*
Y1709152D1*
X5528273D1*
Y1728837D1*
D26*
X5478344Y960017D3*
X5528485Y969218D2*
D10*
Y1087323D1*
X5548171D1*
Y969218D1*
X5528485D1*
D26*
X5407477Y1456080D3*
X5457619Y1465281D2*
D10*
Y1583386D1*
X5477305D1*
Y1465281D1*
X5457619D1*
D26*
X5407477Y1278915D3*
X5457619Y1288116D2*
D10*
Y1406220D1*
X5477305D1*
Y1288116D1*
X5457619D1*
D26*
X5407477Y1101749D3*
X5457619Y1110950D2*
D10*
Y1229055D1*
X5477305D1*
Y1110950D1*
X5457619D1*
D28*
X5142694Y1700063D3*
X5151895Y1649921D2*
D10*
X5270000D1*
Y1630236D1*
X5151895D1*
Y1649921D1*
D26*
X5093480Y1020647D3*
X5143622Y1029848D2*
D10*
Y1147953D1*
X5163307D1*
Y1029848D1*
X5143622D1*
D26*
X4816775Y1588644D3*
X4766633Y1579443D2*
D10*
Y1461339D1*
X4746947D1*
Y1579443D1*
X4766633D1*
D26*
X4816775Y1415416D3*
X4766633Y1406215D2*
D10*
Y1288110D1*
X4746947D1*
Y1406215D1*
X4766633D1*
D26*
X4816775Y1242188D3*
X4766633Y1232987D2*
D10*
Y1114882D1*
X4746947D1*
Y1232987D1*
X4766633D1*
D28*
X4564742Y1778979D3*
X4573942Y1728837D2*
D10*
X4692047D1*
Y1709152D1*
X4573942D1*
Y1728837D1*
D28*
X4360017Y1861656D3*
X4369218Y1811515D2*
D10*
X4487323D1*
Y1791829D1*
X4369218D1*
Y1811515D1*
D28*
X4147419Y1778979D3*
X4156620Y1728837D2*
D10*
X4274724D1*
Y1709152D1*
X4156620D1*
Y1728837D1*
D26*
X4106690Y960017D3*
X4156832Y969218D2*
D10*
Y1087323D1*
X4176517D1*
Y969218D1*
X4156832D1*
D26*
X4035824Y1456080D3*
X4085966Y1465281D2*
D10*
Y1583386D1*
X4105651D1*
Y1465281D1*
X4085966D1*
D26*
X4035824Y1278915D3*
X4085966Y1288116D2*
D10*
Y1406220D1*
X4105651D1*
Y1288116D1*
X4085966D1*
D26*
X4035824Y1101749D3*
X4085966Y1110950D2*
D10*
Y1229055D1*
X4105651D1*
Y1110950D1*
X4085966D1*
D26*
X3838822Y1588644D3*
X3788680Y1579443D2*
D10*
Y1461339D1*
X3768995D1*
Y1579443D1*
X3788680D1*
D26*
X3838822Y1415416D3*
X3788680Y1406215D2*
D10*
Y1288110D1*
X3768995D1*
Y1406215D1*
X3788680D1*
D26*
X3838822Y1242188D3*
X3788680Y1232987D2*
D10*
Y1114882D1*
X3768995D1*
Y1232987D1*
X3788680D1*
D28*
X3586789Y1778979D3*
X3595990Y1728837D2*
D10*
X3714094D1*
Y1709152D1*
X3595990D1*
Y1728837D1*
D28*
X3382064Y1861656D3*
X3391265Y1811515D2*
D10*
X3509370D1*
Y1791829D1*
X3391265D1*
Y1811515D1*
D28*
X3169466Y1778979D3*
X3178667Y1728837D2*
D10*
X3296772D1*
Y1709152D1*
X3178667D1*
Y1728837D1*
D26*
X3128737Y960017D3*
X3178879Y969218D2*
D10*
Y1087323D1*
X3198564D1*
Y969218D1*
X3178879D1*
D26*
X3057871Y1456080D3*
X3108013Y1465281D2*
D10*
Y1583386D1*
X3127698D1*
Y1465281D1*
X3108013D1*
D26*
X3057871Y1278915D3*
X3108013Y1288116D2*
D10*
Y1406220D1*
X3127698D1*
Y1288116D1*
X3108013D1*
D26*
X3057871Y1101749D3*
X3108013Y1110950D2*
D10*
Y1229055D1*
X3127698D1*
Y1110950D1*
X3108013D1*
D28*
X2792301Y1704000D3*
X2801501Y1653858D2*
D10*
X2919606D1*
Y1634173D1*
X2801501D1*
Y1653858D1*
D26*
X2743874Y1020647D3*
X2794016Y1029848D2*
D10*
Y1147953D1*
X2813701D1*
Y1029848D1*
X2794016D1*
D26*
X2467168Y1588644D3*
X2417026Y1579443D2*
D10*
Y1461339D1*
X2397341D1*
Y1579443D1*
X2417026D1*
D26*
X2467168Y1415416D3*
X2417026Y1406215D2*
D10*
Y1288110D1*
X2397341D1*
Y1406215D1*
X2417026D1*
D26*
X2467168Y1242188D3*
X2417026Y1232987D2*
D10*
Y1114882D1*
X2397341D1*
Y1232987D1*
X2417026D1*
D28*
X2215135Y1778979D3*
X2224336Y1728837D2*
D10*
X2342441D1*
Y1709152D1*
X2224336D1*
Y1728837D1*
D28*
X2010411Y1861656D3*
X2019612Y1811515D2*
D10*
X2137717D1*
Y1791829D1*
X2019612D1*
Y1811515D1*
D28*
X1797812Y1778979D3*
X1807013Y1728837D2*
D10*
X1925118D1*
Y1709152D1*
X1807013D1*
Y1728837D1*
D26*
X1757084Y960017D3*
X1807226Y969218D2*
D10*
Y1087323D1*
X1826911D1*
Y969218D1*
X1807226D1*
D26*
X1686218Y1456080D3*
X1736359Y1465281D2*
D10*
Y1583386D1*
X1756045D1*
Y1465281D1*
X1736359D1*
D26*
X1686218Y1278915D3*
X1736359Y1288116D2*
D10*
Y1406220D1*
X1756045D1*
Y1288116D1*
X1736359D1*
D26*
X1686218Y1101749D3*
X1736359Y1110950D2*
D10*
Y1229055D1*
X1756045D1*
Y1110950D1*
X1736359D1*
D26*
X1489215Y1588644D3*
X1439074Y1579443D2*
D10*
Y1461339D1*
X1419388D1*
Y1579443D1*
X1439074D1*
D26*
X1489215Y1415416D3*
X1439074Y1406215D2*
D10*
Y1288110D1*
X1419388D1*
Y1406215D1*
X1439074D1*
D26*
X1489215Y1242188D3*
X1439074Y1232987D2*
D10*
Y1114882D1*
X1419388D1*
Y1232987D1*
X1439074D1*
D28*
X1237183Y1778979D3*
X1246383Y1728837D2*
D10*
X1364488D1*
Y1709152D1*
X1246383D1*
Y1728837D1*
D28*
X1032458Y1861656D3*
X1041659Y1811515D2*
D10*
X1159764D1*
Y1791829D1*
X1041659D1*
Y1811515D1*
D28*
X819860Y1778979D3*
X829060Y1728837D2*
D10*
X947165D1*
Y1709152D1*
X829060D1*
Y1728837D1*
D26*
X779131Y960017D3*
X829273Y969218D2*
D10*
Y1087323D1*
X848958D1*
Y969218D1*
X829273D1*
D26*
X708265Y1456080D3*
X758407Y1465281D2*
D10*
Y1583386D1*
X778092D1*
Y1465281D1*
X758407D1*
D26*
X708265Y1278915D3*
X758407Y1288116D2*
D10*
Y1406220D1*
X778092D1*
Y1288116D1*
X758407D1*
D26*
X708265Y1101749D3*
X758407Y1110950D2*
D10*
Y1229055D1*
X778092D1*
Y1110950D1*
X758407D1*
X7118370Y1640280D2*
D62*
X7121222Y1638888D1*
X7124107Y1636002D1*
X7125533Y1633117D1*
X7126992Y1628806D1*
Y1621643D1*
X7125533Y1617332D1*
X7124107Y1614480D1*
X7121222Y1611595D1*
X7118370Y1610169D1*
X7112633D1*
X7109748Y1611595D1*
X7106896Y1614480D1*
X7105470Y1617332D1*
X7104011Y1621643D1*
Y1628806D1*
X7105470Y1633117D1*
X7106896Y1636002D1*
X7109748Y1638888D1*
X7112633Y1640280D1*
X7118370D1*
X7114059Y1615906D2*
X7105470Y1607284D1*
X7094747Y1634510D2*
X7091862Y1635969D1*
X7087551Y1640247D1*
Y1610136D1*
X7184267Y1373162D2*
X7185660Y1376014D1*
X7188545Y1378899D1*
X7191430Y1380325D1*
X7195741Y1381785D1*
X7202904D1*
X7207215Y1380325D1*
X7210067Y1378899D1*
X7212952Y1376014D1*
X7214378Y1373162D1*
Y1367425D1*
X7212952Y1364540D1*
X7210067Y1361689D1*
X7207215Y1360263D1*
X7202904Y1358803D1*
X7195741D1*
X7191430Y1360263D1*
X7188545Y1361689D1*
X7185660Y1364540D1*
X7184267Y1367426D1*
Y1373162D1*
X7208641Y1368851D2*
X7217263Y1360263D1*
X7191463Y1348081D2*
X7190037D1*
X7187152Y1346655D1*
X7185726Y1345229D1*
X7184300Y1342344D1*
Y1336607D1*
X7185726Y1333755D1*
X7187152Y1332329D1*
X7190037Y1330870D1*
X7192889D1*
X7195774Y1332329D1*
X7200052Y1335181D1*
X7214411Y1349540D1*
Y1329444D1*
X7184267Y1199934D2*
X7185660Y1202786D1*
X7188545Y1205671D1*
X7191430Y1207097D1*
X7195741Y1208556D1*
X7202904D1*
X7207215Y1207097D1*
X7210067Y1205671D1*
X7212952Y1202786D1*
X7214378Y1199934D1*
Y1194197D1*
X7212952Y1191312D1*
X7210067Y1188460D1*
X7207215Y1187034D1*
X7202904Y1185575D1*
X7195741D1*
X7191430Y1187034D1*
X7188545Y1188460D1*
X7185660Y1191312D1*
X7184267Y1194197D1*
Y1199934D1*
X7208641Y1195623D2*
X7217263Y1187034D1*
X7184300Y1173427D2*
Y1157675D1*
X7195774Y1166264D1*
Y1161953D1*
X7197200Y1159101D1*
X7198626Y1157675D1*
X7202937Y1156216D1*
X7205789D1*
X7210100Y1157675D1*
X7212985Y1160527D1*
X7214411Y1164838D1*
Y1169149D1*
X7212985Y1173426D1*
X7211526Y1174852D1*
X7208674Y1176312D1*
X6992411Y1830624D2*
X6995263Y1829231D1*
X6998148Y1826346D1*
X6999574Y1823461D1*
X7001033Y1819150D1*
Y1811987D1*
X6999574Y1807676D1*
X6998148Y1804824D1*
X6995263Y1801939D1*
X6992411Y1800513D1*
X6986674D1*
X6983789Y1801939D1*
X6980937Y1804824D1*
X6979511Y1807676D1*
X6978052Y1811987D1*
Y1819150D1*
X6979511Y1823461D1*
X6980937Y1826346D1*
X6983789Y1829231D1*
X6986674Y1830624D1*
X6992411D1*
X6988100Y1806250D2*
X6979511Y1797628D1*
X6954429Y1800480D2*
Y1830591D1*
X6968788Y1810528D1*
X6947266D1*
X6786973Y1913301D2*
X6789825Y1911909D1*
X6792710Y1909023D1*
X6794136Y1906138D1*
X6795596Y1901827D1*
Y1894664D1*
X6794136Y1890353D1*
X6792710Y1887501D1*
X6789825Y1884616D1*
X6786973Y1883190D1*
X6781236D1*
X6778351Y1884616D1*
X6775500Y1887501D1*
X6774074Y1890353D1*
X6772614Y1894664D1*
Y1901827D1*
X6774074Y1906138D1*
X6775500Y1909023D1*
X6778351Y1911909D1*
X6781236Y1913301D1*
X6786973D1*
X6782662Y1888927D2*
X6774074Y1880305D1*
X6746140Y1913268D2*
X6760466D1*
X6761892Y1900368D1*
X6760466Y1901794D1*
X6756155Y1903253D1*
X6751877D1*
X6747566Y1901794D1*
X6744681Y1898942D1*
X6743255Y1894631D1*
Y1891779D1*
X6744681Y1887468D1*
X6747566Y1884583D1*
X6751877Y1883157D1*
X6756155D1*
X6760466Y1884583D1*
X6761892Y1886042D1*
X6763351Y1888894D1*
X6573645Y1830624D2*
X6576497Y1829231D1*
X6579382Y1826346D1*
X6580808Y1823461D1*
X6582268Y1819150D1*
Y1811987D1*
X6580808Y1807676D1*
X6579382Y1804824D1*
X6576497Y1801939D1*
X6573645Y1800513D1*
X6567909D1*
X6565023Y1801939D1*
X6562172Y1804824D1*
X6560746Y1807676D1*
X6559286Y1811987D1*
Y1819150D1*
X6560746Y1823461D1*
X6562172Y1826346D1*
X6565023Y1829231D1*
X6567909Y1830624D1*
X6573645D1*
X6569334Y1806250D2*
X6560746Y1797628D1*
X6532812Y1826313D2*
X6534238Y1829165D1*
X6538549Y1830591D1*
X6541401D1*
X6545712Y1829165D1*
X6548597Y1824854D1*
X6550023Y1817691D1*
Y1810528D1*
X6548597Y1804791D1*
X6545712Y1801906D1*
X6541401Y1800480D1*
X6539975D1*
X6535697Y1801906D1*
X6532812Y1804791D1*
X6531386Y1809102D1*
Y1810528D1*
X6532812Y1814839D1*
X6535697Y1817691D1*
X6539975Y1819117D1*
X6541401D1*
X6545712Y1817691D1*
X6548597Y1814839D1*
X6550023Y1810528D1*
X6404652Y1037367D2*
X6406044Y1040219D1*
X6408929Y1043104D1*
X6411814Y1044530D1*
X6416125Y1045989D1*
X6423288D1*
X6427599Y1044530D1*
X6430451Y1043104D1*
X6433336Y1040219D1*
X6434762Y1037367D1*
Y1031630D1*
X6433336Y1028745D1*
X6430451Y1025893D1*
X6427599Y1024467D1*
X6423288Y1023008D1*
X6416125D1*
X6411814Y1024467D1*
X6408929Y1025893D1*
X6406044Y1028745D1*
X6404652Y1031630D1*
Y1037367D1*
X6429025Y1033056D2*
X6437647Y1024467D1*
X6434796Y1008008D2*
X6404685Y993649D1*
Y1013745D1*
X6462071Y1627320D2*
X6464923Y1625927D1*
X6467808Y1623042D1*
X6469234Y1620157D1*
X6470693Y1615846D1*
Y1608683D1*
X6469234Y1604372D1*
X6467808Y1601520D1*
X6464923Y1598635D1*
X6462071Y1597209D1*
X6456334D1*
X6453449Y1598635D1*
X6450597Y1601520D1*
X6449171Y1604372D1*
X6447712Y1608683D1*
Y1615846D1*
X6449171Y1620157D1*
X6450597Y1623042D1*
X6453449Y1625927D1*
X6456334Y1627320D1*
X6462071D1*
X6457760Y1602946D2*
X6449171Y1594324D1*
X6431286Y1627287D2*
X6435563Y1625861D1*
X6437023Y1623009D1*
Y1620124D1*
X6435563Y1617272D1*
X6432712Y1615813D1*
X6426975Y1614387D1*
X6422664Y1612961D1*
X6419812Y1610076D1*
X6418386Y1607224D1*
Y1602913D1*
X6419812Y1600061D1*
X6421238Y1598602D1*
X6425549Y1597176D1*
X6431286D1*
X6435563Y1598602D1*
X6437023Y1600061D1*
X6438448Y1602913D1*
Y1607224D1*
X6437023Y1610076D1*
X6434137Y1612961D1*
X6429860Y1614387D1*
X6424123Y1615813D1*
X6421238Y1617272D1*
X6419812Y1620124D1*
Y1623009D1*
X6421238Y1625861D1*
X6425549Y1627287D1*
X6431286D1*
X6333785Y1355552D2*
X6335178Y1358404D1*
X6338063Y1361289D1*
X6340948Y1362715D1*
X6345259Y1364174D1*
X6352422D1*
X6356733Y1362715D1*
X6359585Y1361289D1*
X6362470Y1358404D1*
X6363896Y1355552D1*
Y1349815D1*
X6362470Y1346930D1*
X6359585Y1344078D1*
X6356733Y1342652D1*
X6352422Y1341193D1*
X6345259D1*
X6340948Y1342652D1*
X6338063Y1344078D1*
X6335178Y1346930D1*
X6333785Y1349815D1*
Y1355552D1*
X6358159Y1351241D2*
X6366781Y1342652D1*
X6343833Y1313259D2*
X6348144Y1314718D1*
X6351029Y1317570D1*
X6352455Y1321881D1*
Y1323307D1*
X6351029Y1327618D1*
X6348144Y1330470D1*
X6343833Y1331929D1*
X6342407D1*
X6338096Y1330470D1*
X6335244Y1327618D1*
X6333819Y1323307D1*
Y1321881D1*
X6335244Y1317570D1*
X6338096Y1314718D1*
X6343833Y1313259D1*
X6351029D1*
X6358192Y1314718D1*
X6362503Y1317570D1*
X6363929Y1321881D1*
Y1324733D1*
X6362503Y1329044D1*
X6359618Y1330470D1*
X6333785Y1187329D2*
X6335178Y1190181D1*
X6338063Y1193066D1*
X6340948Y1194492D1*
X6345259Y1195951D1*
X6352422D1*
X6356733Y1194492D1*
X6359585Y1193066D1*
X6362470Y1190181D1*
X6363896Y1187329D1*
Y1181592D1*
X6362470Y1178707D1*
X6359585Y1175855D1*
X6356733Y1174429D1*
X6352422Y1172970D1*
X6345259D1*
X6340948Y1174429D1*
X6338063Y1175855D1*
X6335178Y1178707D1*
X6333785Y1181592D1*
Y1187329D1*
X6358159Y1183018D2*
X6366781Y1174429D1*
X6339556Y1163707D2*
X6338096Y1160822D1*
X6333819Y1156511D1*
X6363929D1*
X6333819Y1138625D2*
X6335244Y1142936D1*
X6339556Y1145821D1*
X6346718Y1147247D1*
X6351029D1*
X6358192Y1145821D1*
X6362503Y1142936D1*
X6363929Y1138625D1*
Y1135773D1*
X6362503Y1131462D1*
X6358192Y1128610D1*
X6351029Y1127151D1*
X6346718D1*
X6339555Y1128610D1*
X6335244Y1131462D1*
X6333819Y1135773D1*
Y1138625D1*
X6339555Y1128610D2*
X6358192Y1145821D1*
X6148647Y1640280D2*
X6151499Y1638888D1*
X6154384Y1636002D1*
X6155810Y1633117D1*
X6157269Y1628806D1*
Y1621643D1*
X6155810Y1617332D1*
X6154384Y1614480D1*
X6151499Y1611595D1*
X6148647Y1610169D1*
X6142910D1*
X6140025Y1611595D1*
X6137173Y1614480D1*
X6135747Y1617332D1*
X6134288Y1621643D1*
Y1628806D1*
X6135747Y1633117D1*
X6137173Y1636002D1*
X6140025Y1638888D1*
X6142910Y1640280D1*
X6148647D1*
X6144336Y1615906D2*
X6135747Y1607284D1*
X6125024Y1634510D2*
X6122139Y1635969D1*
X6117828Y1640247D1*
Y1610136D1*
X6108565Y1634510D2*
X6105680Y1635969D1*
X6101369Y1640247D1*
Y1610136D1*
X6206314Y1381392D2*
X6207707Y1384244D1*
X6210592Y1387129D1*
X6213477Y1388555D1*
X6217788Y1390014D1*
X6224951D1*
X6229262Y1388555D1*
X6232114Y1387129D1*
X6234999Y1384244D1*
X6236425Y1381392D1*
Y1375655D1*
X6234999Y1372770D1*
X6232114Y1369918D1*
X6229262Y1368492D1*
X6224951Y1367033D1*
X6217788D1*
X6213477Y1368492D1*
X6210592Y1369918D1*
X6207707Y1372770D1*
X6206314Y1375655D1*
Y1381392D1*
X6230688Y1377081D2*
X6239310Y1368492D1*
X6212085Y1357770D2*
X6210625Y1354885D1*
X6206348Y1350574D1*
X6236458D1*
X6213510Y1339851D2*
X6212085D1*
X6209199Y1338425D1*
X6207773Y1336999D1*
X6206348Y1334114D1*
Y1328377D1*
X6207773Y1325525D1*
X6209199Y1324099D1*
X6212084Y1322640D1*
X6214936D1*
X6217821Y1324099D1*
X6222099Y1326951D1*
X6236458Y1341310D1*
Y1321214D1*
X6206314Y1208164D2*
X6207707Y1211016D1*
X6210592Y1213901D1*
X6213477Y1215327D1*
X6217788Y1216786D1*
X6224951D1*
X6229262Y1215327D1*
X6232114Y1213901D1*
X6234999Y1211016D1*
X6236425Y1208164D1*
Y1202427D1*
X6234999Y1199542D1*
X6232114Y1196690D1*
X6229262Y1195264D1*
X6224951Y1193805D1*
X6217788D1*
X6213477Y1195264D1*
X6210592Y1196690D1*
X6207707Y1199542D1*
X6206314Y1202427D1*
Y1208164D1*
X6230688Y1203853D2*
X6239310Y1195264D1*
X6212085Y1184541D2*
X6210625Y1181656D1*
X6206348Y1177345D1*
X6236458D1*
X6206348Y1165197D2*
X6206347Y1149445D1*
X6217821Y1158034D1*
Y1153723D1*
X6219247Y1150871D1*
X6220673Y1149445D1*
X6224984Y1147986D1*
X6227836D1*
X6232147Y1149445D1*
X6235032Y1152297D1*
X6236458Y1156608D1*
Y1160919D1*
X6235032Y1165197D1*
X6233573Y1166623D1*
X6230721Y1168082D1*
X6022688Y1830624D2*
X6025540Y1829231D1*
X6028425Y1826346D1*
X6029851Y1823461D1*
X6031310Y1819150D1*
Y1811987D1*
X6029851Y1807676D1*
X6028425Y1804824D1*
X6025540Y1801939D1*
X6022688Y1800513D1*
X6016951D1*
X6014066Y1801939D1*
X6011214Y1804824D1*
X6009788Y1807676D1*
X6008329Y1811987D1*
Y1819150D1*
X6009788Y1823461D1*
X6011214Y1826346D1*
X6014066Y1829231D1*
X6016951Y1830624D1*
X6022688D1*
X6018377Y1806250D2*
X6009788Y1797628D1*
X5999065Y1824854D2*
X5996180Y1826313D1*
X5991869Y1830591D1*
Y1800480D1*
X5968247D2*
Y1830591D1*
X5982606Y1810528D1*
X5961084D1*
X5817251Y1913301D2*
X5820102Y1911909D1*
X5822988Y1909023D1*
X5824413Y1906138D1*
X5825873Y1901827D1*
Y1894664D1*
X5824413Y1890353D1*
X5822988Y1887501D1*
X5820102Y1884616D1*
X5817251Y1883190D1*
X5811514D1*
X5808628Y1884616D1*
X5805777Y1887501D1*
X5804351Y1890353D1*
X5802892Y1894664D1*
Y1901827D1*
X5804351Y1906138D1*
X5805777Y1909023D1*
X5808628Y1911909D1*
X5811514Y1913301D1*
X5817251D1*
X5812940Y1888927D2*
X5804351Y1880305D1*
X5793628Y1907531D2*
X5790743Y1908990D1*
X5786432Y1913268D1*
Y1883157D1*
X5759957Y1913268D2*
X5774283D1*
X5775709Y1900368D1*
X5774283Y1901794D1*
X5769972Y1903253D1*
X5765694D1*
X5761383Y1901794D1*
X5758498Y1898942D1*
X5757072Y1894631D1*
Y1891779D1*
X5758498Y1887468D1*
X5761383Y1884583D1*
X5765694Y1883157D1*
X5769972D1*
X5774283Y1884583D1*
X5775709Y1886042D1*
X5777168Y1888894D1*
X5603923Y1830624D2*
X5606774Y1829231D1*
X5609660Y1826346D1*
X5611085Y1823461D1*
X5612545Y1819150D1*
Y1811987D1*
X5611085Y1807676D1*
X5609660Y1804824D1*
X5606774Y1801939D1*
X5603923Y1800513D1*
X5598186D1*
X5595300Y1801939D1*
X5592449Y1804824D1*
X5591023Y1807676D1*
X5589564Y1811987D1*
Y1819150D1*
X5591023Y1823461D1*
X5592449Y1826346D1*
X5595300Y1829231D1*
X5598186Y1830624D1*
X5603923D1*
X5599612Y1806250D2*
X5591023Y1797628D1*
X5580300Y1824854D2*
X5577415Y1826313D1*
X5573104Y1830591D1*
Y1800480D1*
X5546629Y1826313D2*
X5548055Y1829165D1*
X5552366Y1830591D1*
X5555218D1*
X5559529Y1829165D1*
X5562414Y1824854D1*
X5563840Y1817691D1*
Y1810528D1*
X5562414Y1804791D1*
X5559529Y1801906D1*
X5555218Y1800480D1*
X5553792D1*
X5549514Y1801906D1*
X5546629Y1804791D1*
X5545203Y1809102D1*
Y1810528D1*
X5546629Y1814839D1*
X5549514Y1817691D1*
X5553792Y1819117D1*
X5555218D1*
X5559529Y1817691D1*
X5562414Y1814839D1*
X5563840Y1810528D1*
X5426699Y1045597D2*
X5428092Y1048449D1*
X5430977Y1051334D1*
X5433862Y1052760D1*
X5438173Y1054219D1*
X5445336D1*
X5449647Y1052760D1*
X5452499Y1051334D1*
X5455384Y1048449D1*
X5456810Y1045597D1*
Y1039860D1*
X5455384Y1036975D1*
X5452499Y1034123D1*
X5449647Y1032697D1*
X5445336Y1031238D1*
X5438173D1*
X5433862Y1032697D1*
X5430977Y1034123D1*
X5428092Y1036975D1*
X5426699Y1039860D1*
Y1045597D1*
X5451073Y1041286D2*
X5459695Y1032697D1*
X5432469Y1021974D2*
X5431010Y1019089D1*
X5426732Y1014778D1*
X5456843D1*
Y999778D2*
X5426732Y985419D1*
Y1005515D1*
X5492348Y1627320D2*
X5495200Y1625927D1*
X5498085Y1623042D1*
X5499511Y1620157D1*
X5500970Y1615846D1*
Y1608683D1*
X5499511Y1604372D1*
X5498085Y1601520D1*
X5495200Y1598635D1*
X5492348Y1597209D1*
X5486611D1*
X5483726Y1598635D1*
X5480874Y1601520D1*
X5479448Y1604372D1*
X5477989Y1608683D1*
Y1615846D1*
X5479448Y1620157D1*
X5480874Y1623042D1*
X5483726Y1625927D1*
X5486611Y1627320D1*
X5492348D1*
X5488037Y1602946D2*
X5479448Y1594324D1*
X5468726Y1621550D2*
X5465840Y1623009D1*
X5461529Y1627287D1*
Y1597176D1*
X5445103Y1627287D2*
X5449381Y1625861D1*
X5450840Y1623009D1*
Y1620124D1*
X5449381Y1617272D1*
X5446529Y1615813D1*
X5440792Y1614387D1*
X5436481Y1612961D1*
X5433629Y1610076D1*
X5432203Y1607224D1*
Y1602913D1*
X5433629Y1600061D1*
X5435055Y1598602D1*
X5439366Y1597176D1*
X5445103D1*
X5449381Y1598602D1*
X5450840Y1600061D1*
X5452266Y1602913D1*
Y1607224D1*
X5450840Y1610076D1*
X5447955Y1612961D1*
X5443677Y1614387D1*
X5437940Y1615813D1*
X5435055Y1617272D1*
X5433629Y1620124D1*
Y1623009D1*
X5435055Y1625861D1*
X5439366Y1627287D1*
X5445103D1*
X5355833Y1363782D2*
X5357225Y1366634D1*
X5360110Y1369519D1*
X5362996Y1370945D1*
X5367307Y1372404D1*
X5374469D1*
X5378781Y1370945D1*
X5381632Y1369519D1*
X5384517Y1366634D1*
X5385943Y1363782D1*
Y1358045D1*
X5384517Y1355160D1*
X5381632Y1352308D1*
X5378781Y1350882D1*
X5374469Y1349423D1*
X5367307D1*
X5362996Y1350882D1*
X5360110Y1352308D1*
X5357225Y1355160D1*
X5355833Y1358045D1*
Y1363782D1*
X5380206Y1359471D2*
X5388828Y1350882D1*
X5361603Y1340159D2*
X5360144Y1337274D1*
X5355866Y1332963D1*
X5385977D1*
X5365881Y1305030D2*
X5370192Y1306489D1*
X5373077Y1309341D1*
X5374503Y1313652D1*
Y1315077D1*
X5373077Y1319389D1*
X5370192Y1322240D1*
X5365881Y1323700D1*
X5364455D1*
X5360144Y1322240D1*
X5357292Y1319389D1*
X5355866Y1315078D1*
Y1313652D1*
X5357292Y1309341D1*
X5360144Y1306489D1*
X5365881Y1305030D1*
X5373077D1*
X5380240Y1306489D1*
X5384551Y1309341D1*
X5385977Y1313652D1*
Y1316503D1*
X5384551Y1320814D1*
X5381666Y1322240D1*
X5355833Y1193779D2*
X5357225Y1196631D1*
X5360110Y1199516D1*
X5362996Y1200942D1*
X5367307Y1202401D1*
X5374469D1*
X5378780Y1200942D1*
X5381632Y1199516D1*
X5384517Y1196631D1*
X5385943Y1193779D1*
Y1188042D1*
X5384517Y1185157D1*
X5381632Y1182305D1*
X5378781Y1180879D1*
X5374469Y1179420D1*
X5367307D1*
X5362996Y1180879D1*
X5360110Y1182305D1*
X5357225Y1185157D1*
X5355833Y1188042D1*
Y1193779D1*
X5380206Y1189468D2*
X5388828Y1180879D1*
X5363029Y1168698D2*
X5361603D1*
X5358718Y1167272D1*
X5357292Y1165846D1*
X5355866Y1162961D1*
Y1157224D1*
X5357292Y1154372D1*
X5358718Y1152946D1*
X5361603Y1151487D1*
X5364455D1*
X5367340Y1152946D1*
X5371618Y1155798D1*
X5385977Y1170157D1*
Y1150061D1*
X5355866Y1132175D2*
X5357292Y1136486D1*
X5361603Y1139371D1*
X5368766Y1140797D1*
X5373077D1*
X5380240Y1139371D1*
X5384551Y1136486D1*
X5385977Y1132175D1*
Y1129323D1*
X5384551Y1125012D1*
X5380240Y1122160D1*
X5373077Y1120701D1*
X5368766D1*
X5361603Y1122160D1*
X5357292Y1125012D1*
X5355866Y1129323D1*
Y1132175D1*
X5361603Y1122160D2*
X5380240Y1139371D1*
X5228274Y1751708D2*
X5231126Y1750315D1*
X5234011Y1747430D1*
X5235437Y1744545D1*
X5236896Y1740234D1*
Y1733071D1*
X5235437Y1728760D1*
X5234011Y1725908D1*
X5231126Y1723023D1*
X5228274Y1721597D1*
X5222537D1*
X5219652Y1723023D1*
X5216800Y1725908D1*
X5215374Y1728760D1*
X5213915Y1733071D1*
Y1740234D1*
X5215374Y1744545D1*
X5216800Y1747430D1*
X5219652Y1750315D1*
X5222537Y1751708D1*
X5228274D1*
X5223963Y1727334D2*
X5215374Y1718712D1*
X5203192Y1744512D2*
Y1745938D1*
X5201767Y1748823D1*
X5200341Y1750249D1*
X5197455Y1751675D1*
X5191719D1*
X5188867Y1750249D1*
X5187441Y1748823D1*
X5185982Y1745938D1*
Y1743086D1*
X5187441Y1740201D1*
X5190293Y1735923D1*
X5204652Y1721564D1*
X5184556D1*
X5175292Y1745938D2*
X5172407Y1747397D1*
X5168096Y1751675D1*
Y1721564D1*
X5184817Y1191887D2*
X5187669Y1190494D1*
X5190554Y1187609D1*
X5191980Y1184724D1*
X5193439Y1180413D1*
Y1173250D1*
X5191980Y1168939D1*
X5190554Y1166087D1*
X5187669Y1163202D1*
X5184817Y1161776D1*
X5179080D1*
X5176195Y1163202D1*
X5173343Y1166087D1*
X5171917Y1168939D1*
X5170458Y1173250D1*
Y1180413D1*
X5171917Y1184724D1*
X5173343Y1187609D1*
X5176195Y1190494D1*
X5179080Y1191887D1*
X5184817D1*
X5180506Y1167513D2*
X5171917Y1158891D1*
X5159736Y1184691D2*
Y1186116D1*
X5158310Y1189002D1*
X5156884Y1190427D1*
X5153999Y1191853D1*
X5148262D1*
X5145410Y1190427D1*
X5143984Y1189002D1*
X5142525Y1186116D1*
Y1183265D1*
X5143984Y1180379D1*
X5146836Y1176102D1*
X5161195Y1161743D1*
X5141099D1*
X5130376Y1184691D2*
Y1186116D1*
X5128950Y1189002D1*
X5127524Y1190427D1*
X5124639Y1191853D1*
X5118902D1*
X5116050Y1190427D1*
X5114624Y1189002D1*
X5113165Y1186116D1*
Y1183265D1*
X5114624Y1180379D1*
X5117476Y1176102D1*
X5131835Y1161743D1*
X5111739D1*
X4789893Y1640280D2*
X4792745Y1638888D1*
X4795630Y1636002D1*
X4797056Y1633117D1*
X4798515Y1628806D1*
Y1621643D1*
X4797056Y1617332D1*
X4795630Y1614480D1*
X4792745Y1611595D1*
X4789893Y1610169D1*
X4784156D1*
X4781271Y1611595D1*
X4778419Y1614480D1*
X4776993Y1617332D1*
X4775534Y1621643D1*
Y1628806D1*
X4776993Y1633117D1*
X4778419Y1636002D1*
X4781271Y1638888D1*
X4784156Y1640280D1*
X4789893D1*
X4785582Y1615906D2*
X4776993Y1607284D1*
X4764812Y1633084D2*
Y1634510D1*
X4763386Y1637395D1*
X4761960Y1638821D1*
X4759075Y1640247D1*
X4753338D1*
X4750486Y1638821D1*
X4749060Y1637395D1*
X4747601Y1634510D1*
Y1631658D1*
X4749060Y1628773D1*
X4751912Y1624495D1*
X4766271Y1610136D1*
X4746175D1*
X4734026Y1640247D2*
X4718274D1*
X4726863Y1628773D1*
X4722552D1*
X4719700Y1627347D1*
X4718274Y1625921D1*
X4716815Y1621610D1*
Y1618758D1*
X4718274Y1614447D1*
X4721126Y1611562D1*
X4725437Y1610136D1*
X4729748D1*
X4734026Y1611562D1*
X4735452Y1613021D1*
X4736911Y1615873D1*
X4834661Y1388555D2*
X4836054Y1391407D1*
X4838939Y1394292D1*
X4841824Y1395718D1*
X4846135Y1397177D1*
X4853298D1*
X4857609Y1395718D1*
X4860461Y1394292D1*
X4863346Y1391407D1*
X4864772Y1388555D1*
Y1382818D1*
X4863346Y1379933D1*
X4860461Y1377081D1*
X4857609Y1375655D1*
X4853298Y1374196D1*
X4846135D1*
X4841824Y1375655D1*
X4838939Y1377081D1*
X4836054Y1379933D1*
X4834661Y1382818D1*
Y1388555D1*
X4859035Y1384244D2*
X4867657Y1375655D1*
X4841857Y1363474D2*
X4840431D1*
X4837546Y1362048D1*
X4836120Y1360622D1*
X4834694Y1357737D1*
Y1352000D1*
X4836120Y1349148D1*
X4837546Y1347722D1*
X4840431Y1346263D1*
X4843283D1*
X4846168Y1347722D1*
X4850446Y1350574D1*
X4864805Y1364933D1*
Y1344837D1*
Y1321214D2*
X4834694D1*
X4854757Y1335573D1*
Y1314051D1*
X4834661Y1214614D2*
X4836054Y1217466D1*
X4838939Y1220351D1*
X4841824Y1221777D1*
X4846135Y1223236D1*
X4853298D1*
X4857609Y1221777D1*
X4860461Y1220351D1*
X4863346Y1217466D1*
X4864772Y1214614D1*
Y1208877D1*
X4863346Y1205992D1*
X4860461Y1203140D1*
X4857609Y1201714D1*
X4853298Y1200255D1*
X4846135D1*
X4841824Y1201714D1*
X4838939Y1203140D1*
X4836054Y1205992D1*
X4834661Y1208877D1*
Y1214614D1*
X4859035Y1210303D2*
X4867657Y1201714D1*
X4841857Y1189532D2*
X4840431D1*
X4837546Y1188106D1*
X4836120Y1186680D1*
X4834694Y1183795D1*
Y1178058D1*
X4836120Y1175206D1*
X4837546Y1173780D1*
X4840431Y1172321D1*
X4843283D1*
X4846168Y1173780D1*
X4850446Y1176632D1*
X4864805Y1190991D1*
Y1170895D1*
X4834694Y1144421D2*
Y1158747D1*
X4847594Y1160173D1*
X4846168Y1158747D1*
X4844709Y1154436D1*
Y1150158D1*
X4846168Y1145847D1*
X4849020Y1142962D1*
X4853331Y1141536D1*
X4856183D1*
X4860494Y1142962D1*
X4863379Y1145847D1*
X4864805Y1150158D1*
Y1154436D1*
X4863379Y1158747D1*
X4861920Y1160173D1*
X4859068Y1161632D1*
X4656042Y1830624D2*
X4658894Y1829231D1*
X4661779Y1826346D1*
X4663205Y1823461D1*
X4664664Y1819150D1*
Y1811987D1*
X4663205Y1807676D1*
X4661779Y1804824D1*
X4658894Y1801939D1*
X4656042Y1800513D1*
X4650305D1*
X4647420Y1801939D1*
X4644568Y1804824D1*
X4643142Y1807676D1*
X4641683Y1811987D1*
Y1819150D1*
X4643142Y1823461D1*
X4644568Y1826346D1*
X4647420Y1829231D1*
X4650305Y1830624D1*
X4656042D1*
X4651731Y1806250D2*
X4643142Y1797628D1*
X4630960Y1823428D2*
Y1824854D1*
X4629534Y1827739D1*
X4628108Y1829165D1*
X4625223Y1830591D1*
X4619486D1*
X4616634Y1829165D1*
X4615208Y1827739D1*
X4613749Y1824854D1*
Y1822002D1*
X4615208Y1819117D1*
X4618060Y1814839D1*
X4632419Y1800480D1*
X4612323D1*
X4585849Y1826313D2*
X4587275Y1829165D1*
X4591586Y1830591D1*
X4594438D1*
X4598749Y1829165D1*
X4601634Y1824854D1*
X4603060Y1817691D1*
Y1810528D1*
X4601634Y1804791D1*
X4598749Y1801906D1*
X4594438Y1800480D1*
X4593012D1*
X4588734Y1801906D1*
X4585849Y1804791D1*
X4584423Y1809102D1*
Y1810528D1*
X4585849Y1814839D1*
X4588734Y1817691D1*
X4593012Y1819117D1*
X4594438D1*
X4598749Y1817691D1*
X4601634Y1814839D1*
X4603060Y1810528D1*
X4452047Y1913301D2*
X4454899Y1911909D1*
X4457784Y1909023D1*
X4459210Y1906138D1*
X4460669Y1901827D1*
Y1894664D1*
X4459210Y1890353D1*
X4457784Y1887501D1*
X4454899Y1884616D1*
X4452047Y1883190D1*
X4446310D1*
X4443425Y1884616D1*
X4440573Y1887501D1*
X4439147Y1890353D1*
X4437688Y1894664D1*
Y1901827D1*
X4439147Y1906138D1*
X4440573Y1909023D1*
X4443425Y1911909D1*
X4446310Y1913301D1*
X4452047D1*
X4447736Y1888927D2*
X4439147Y1880305D1*
X4426965Y1906105D2*
Y1907531D1*
X4425539Y1910416D1*
X4424113Y1911842D1*
X4421228Y1913268D1*
X4415491D1*
X4412639Y1911842D1*
X4411213Y1910416D1*
X4409754Y1907531D1*
Y1904679D1*
X4411213Y1901794D1*
X4414065Y1897516D1*
X4428424Y1883157D1*
X4408328D1*
X4393328D2*
X4378969Y1913268D1*
X4399065D1*
X4239432Y1830624D2*
X4242284Y1829231D1*
X4245169Y1826346D1*
X4246595Y1823461D1*
X4248054Y1819150D1*
Y1811987D1*
X4246595Y1807676D1*
X4245169Y1804824D1*
X4242284Y1801939D1*
X4239432Y1800513D1*
X4233695D1*
X4230810Y1801939D1*
X4227958Y1804824D1*
X4226532Y1807676D1*
X4225073Y1811987D1*
Y1819150D1*
X4226532Y1823461D1*
X4227958Y1826346D1*
X4230810Y1829231D1*
X4233695Y1830624D1*
X4239432D1*
X4235121Y1806250D2*
X4226532Y1797628D1*
X4214350Y1823428D2*
Y1824854D1*
X4212924Y1827739D1*
X4211498Y1829165D1*
X4208613Y1830591D1*
X4202876D1*
X4200024Y1829165D1*
X4198598Y1827739D1*
X4197139Y1824854D1*
Y1822002D1*
X4198598Y1819117D1*
X4201450Y1814839D1*
X4215809Y1800480D1*
X4195713D1*
X4179287Y1830591D2*
X4183565Y1829165D1*
X4185024Y1826313D1*
Y1823428D1*
X4183565Y1820576D1*
X4180713Y1819117D1*
X4174976Y1817691D1*
X4170665Y1816265D1*
X4167813Y1813380D1*
X4166387Y1810528D1*
Y1806217D1*
X4167813Y1803365D1*
X4169239Y1801906D1*
X4173550Y1800480D1*
X4179287D1*
X4183565Y1801906D1*
X4185024Y1803365D1*
X4186450Y1806217D1*
Y1810528D1*
X4185024Y1813380D1*
X4182139Y1816265D1*
X4177861Y1817691D1*
X4172124Y1819117D1*
X4169239Y1820576D1*
X4167813Y1823428D1*
Y1826313D1*
X4169239Y1829165D1*
X4173550Y1830591D1*
X4179287D1*
X4055045Y1051334D2*
X4056438Y1054186D1*
X4059323Y1057071D1*
X4062208Y1058497D1*
X4066519Y1059956D1*
X4073682D1*
X4077993Y1058497D1*
X4080845Y1057071D1*
X4083730Y1054186D1*
X4085156Y1051334D1*
Y1045597D1*
X4083730Y1042712D1*
X4080845Y1039860D1*
X4077993Y1038434D1*
X4073682Y1036975D1*
X4066519D1*
X4062208Y1038434D1*
X4059323Y1039860D1*
X4056438Y1042712D1*
X4055045Y1045597D1*
Y1051334D1*
X4079419Y1047023D2*
X4088041Y1038434D1*
X4062241Y1026252D2*
X4060815D1*
X4057930Y1024826D1*
X4056504Y1023400D1*
X4055078Y1020515D1*
Y1014778D1*
X4056504Y1011926D1*
X4057930Y1010501D1*
X4060815Y1009041D1*
X4063667D1*
X4066552Y1010501D1*
X4070830Y1013352D1*
X4085189Y1027711D1*
Y1007615D1*
X4065093Y979682D2*
X4069404Y981141D1*
X4072289Y983993D1*
X4073715Y988304D1*
Y989730D1*
X4072289Y994041D1*
X4069404Y996893D1*
X4065093Y998352D1*
X4063667D1*
X4059356Y996893D1*
X4056504Y994041D1*
X4055078Y989730D1*
Y988304D1*
X4056504Y983993D1*
X4059356Y981141D1*
X4065093Y979682D1*
X4072289D1*
X4079452Y981141D1*
X4083763Y983993D1*
X4085189Y988304D1*
Y991156D1*
X4083763Y995467D1*
X4080878Y996893D1*
X4127161Y1627320D2*
X4130013Y1625927D1*
X4132898Y1623042D1*
X4134324Y1620157D1*
X4135783Y1615846D1*
Y1608683D1*
X4134324Y1604372D1*
X4132898Y1601520D1*
X4130013Y1598635D1*
X4127161Y1597209D1*
X4121424D1*
X4118539Y1598635D1*
X4115687Y1601520D1*
X4114261Y1604372D1*
X4112802Y1608683D1*
Y1615846D1*
X4114261Y1620157D1*
X4115687Y1623042D1*
X4118539Y1625927D1*
X4121424Y1627320D1*
X4127161D1*
X4122850Y1602946D2*
X4114261Y1594324D1*
X4100653Y1627287D2*
X4084902D1*
X4093491Y1615813D1*
X4089180D1*
X4086328Y1614387D1*
X4084902Y1612961D1*
X4083443Y1608650D1*
Y1605798D1*
X4084902Y1601487D1*
X4087754Y1598602D1*
X4092065Y1597176D1*
X4096376D1*
X4100653Y1598602D1*
X4102079Y1600061D1*
X4103539Y1602913D1*
X4065557Y1627287D2*
X4069868Y1625861D1*
X4072753Y1621550D1*
X4074179Y1614387D1*
Y1610076D1*
X4072753Y1602913D1*
X4069868Y1598602D1*
X4065557Y1597176D1*
X4062705D1*
X4058394Y1598602D1*
X4055542Y1602913D1*
X4054083Y1610076D1*
Y1614387D1*
X4055542Y1621550D1*
X4058394Y1625861D1*
X4062705Y1627287D1*
X4065557D1*
X4055542Y1621550D2*
X4072753Y1602913D1*
X3984179Y1364495D2*
X3985572Y1367347D1*
X3988457Y1370232D1*
X3991342Y1371658D1*
X3995653Y1373117D1*
X4002816D1*
X4007127Y1371658D1*
X4009979Y1370232D1*
X4012864Y1367347D1*
X4014290Y1364495D1*
Y1358758D1*
X4012864Y1355873D1*
X4009979Y1353021D1*
X4007127Y1351595D1*
X4002816Y1350136D1*
X3995653D1*
X3991342Y1351595D1*
X3988457Y1353021D1*
X3985572Y1355873D1*
X3984179Y1358758D1*
Y1364495D1*
X4008553Y1360184D2*
X4017175Y1351595D1*
X3984212Y1337987D2*
Y1322235D1*
X3995686Y1330824D1*
Y1326513D1*
X3997112Y1323661D1*
X3998538Y1322235D1*
X4002849Y1320776D1*
X4005701D1*
X4010012Y1322235D1*
X4012897Y1325087D1*
X4014323Y1329398D1*
Y1333709D1*
X4012897Y1337987D1*
X4011438Y1339413D1*
X4008586Y1340872D1*
X3989949Y1311513D2*
X3988490Y1308628D1*
X3984212Y1304317D1*
X4014323D1*
X3984179Y1193779D2*
X3985572Y1196631D1*
X3988457Y1199516D1*
X3991342Y1200942D1*
X3995653Y1202401D1*
X4002816D1*
X4007127Y1200942D1*
X4009979Y1199516D1*
X4012864Y1196631D1*
X4014290Y1193779D1*
Y1188042D1*
X4012864Y1185157D1*
X4009979Y1182305D1*
X4007127Y1180879D1*
X4002816Y1179420D1*
X3995653D1*
X3991342Y1180879D1*
X3988457Y1182305D1*
X3985572Y1185157D1*
X3984179Y1188042D1*
Y1193779D1*
X4008553Y1189468D2*
X4017175Y1180879D1*
X3984212Y1167272D2*
Y1151520D1*
X3995686Y1160109D1*
Y1155798D1*
X3997112Y1152946D1*
X3998538Y1151520D1*
X4002849Y1150061D1*
X4005701D1*
X4010012Y1151520D1*
X4012897Y1154372D1*
X4014323Y1158683D1*
Y1162994D1*
X4012897Y1167272D1*
X4011438Y1168698D1*
X4008586Y1170157D1*
X3991375Y1139338D2*
X3989949D1*
X3987064Y1137912D1*
X3985638Y1136486D1*
X3984212Y1133601D1*
Y1127864D1*
X3985638Y1125012D1*
X3987064Y1123586D1*
X3989949Y1122127D1*
X3992801D1*
X3995686Y1123586D1*
X3999964Y1126438D1*
X4014323Y1140797D1*
Y1120701D1*
X3811941Y1640280D2*
X3814793Y1638888D1*
X3817678Y1636002D1*
X3819104Y1633117D1*
X3820563Y1628806D1*
Y1621643D1*
X3819104Y1617332D1*
X3817678Y1614480D1*
X3814793Y1611595D1*
X3811941Y1610169D1*
X3806204D1*
X3803319Y1611595D1*
X3800467Y1614480D1*
X3799041Y1617332D1*
X3797582Y1621643D1*
Y1628806D1*
X3799041Y1633117D1*
X3800467Y1636002D1*
X3803319Y1638888D1*
X3806204Y1640280D1*
X3811941D1*
X3807630Y1615906D2*
X3799041Y1607284D1*
X3785433Y1640247D2*
X3769681D1*
X3778270Y1628773D1*
X3773959D1*
X3771107Y1627347D1*
X3769681Y1625921D1*
X3768222Y1621610D1*
Y1618758D1*
X3769681Y1614447D1*
X3772533Y1611562D1*
X3776844Y1610136D1*
X3781155D1*
X3785433Y1611562D1*
X3786859Y1613021D1*
X3788318Y1615873D1*
X3756073Y1640247D2*
X3740322D1*
X3748911Y1628773D1*
X3744599D1*
X3741748Y1627347D1*
X3740322Y1625921D1*
X3738863Y1621610D1*
Y1618758D1*
X3740322Y1614447D1*
X3743174Y1611562D1*
X3747485Y1610136D1*
X3751796D1*
X3756073Y1611562D1*
X3757499Y1613021D1*
X3758959Y1615873D1*
X3856708Y1388555D2*
X3858101Y1391407D1*
X3860986Y1394292D1*
X3863871Y1395718D1*
X3868182Y1397177D1*
X3875345D1*
X3879656Y1395718D1*
X3882508Y1394292D1*
X3885393Y1391407D1*
X3886819Y1388555D1*
Y1382818D1*
X3885393Y1379933D1*
X3882508Y1377081D1*
X3879656Y1375655D1*
X3875345Y1374196D1*
X3868182D1*
X3863871Y1375655D1*
X3860986Y1377081D1*
X3858101Y1379933D1*
X3856708Y1382818D1*
Y1388555D1*
X3881082Y1384244D2*
X3889704Y1375655D1*
X3856741Y1362048D2*
Y1346296D1*
X3868215Y1354885D1*
Y1350574D1*
X3869641Y1347722D1*
X3871067Y1346296D1*
X3875378Y1344837D1*
X3878230D1*
X3882541Y1346296D1*
X3885426Y1349148D1*
X3886852Y1353459D1*
Y1357770D1*
X3885426Y1362048D1*
X3883967Y1363474D1*
X3881115Y1364933D1*
X3886852Y1321214D2*
X3856741D1*
X3876804Y1335573D1*
Y1314051D1*
X3856708Y1214614D2*
X3858101Y1217466D1*
X3860986Y1220351D1*
X3863871Y1221777D1*
X3868182Y1223236D1*
X3875345D1*
X3879656Y1221777D1*
X3882508Y1220351D1*
X3885393Y1217466D1*
X3886819Y1214614D1*
Y1208877D1*
X3885393Y1205992D1*
X3882508Y1203140D1*
X3879656Y1201714D1*
X3875345Y1200255D1*
X3868182D1*
X3863871Y1201714D1*
X3860986Y1203140D1*
X3858101Y1205992D1*
X3856708Y1208877D1*
Y1214614D1*
X3881082Y1210303D2*
X3889704Y1201714D1*
X3856741Y1188106D2*
Y1172354D1*
X3868215Y1180943D1*
Y1176632D1*
X3869641Y1173780D1*
X3871067Y1172354D1*
X3875378Y1170895D1*
X3878230D1*
X3882541Y1172354D1*
X3885426Y1175206D1*
X3886852Y1179517D1*
Y1183828D1*
X3885426Y1188106D1*
X3883967Y1189532D1*
X3881115Y1190991D1*
X3856741Y1144421D2*
Y1158747D1*
X3869641Y1160173D1*
X3868215Y1158747D1*
X3866756Y1154436D1*
Y1150158D1*
X3868215Y1145847D1*
X3871067Y1142962D1*
X3875378Y1141536D1*
X3878230D1*
X3882541Y1142962D1*
X3885426Y1145847D1*
X3886852Y1150158D1*
Y1154436D1*
X3885426Y1158747D1*
X3883967Y1160173D1*
X3881115Y1161632D1*
X3678089Y1830624D2*
X3680941Y1829231D1*
X3683826Y1826346D1*
X3685252Y1823461D1*
X3686711Y1819150D1*
Y1811987D1*
X3685252Y1807676D1*
X3683826Y1804824D1*
X3680941Y1801939D1*
X3678089Y1800513D1*
X3672352D1*
X3669467Y1801939D1*
X3666615Y1804824D1*
X3665189Y1807676D1*
X3663730Y1811987D1*
Y1819150D1*
X3665189Y1823461D1*
X3666615Y1826346D1*
X3669467Y1829231D1*
X3672352Y1830624D1*
X3678089D1*
X3673778Y1806250D2*
X3665189Y1797628D1*
X3651581Y1830591D2*
X3635830D1*
X3644418Y1819117D1*
X3640107D1*
X3637256Y1817691D1*
X3635830Y1816265D1*
X3634370Y1811954D1*
Y1809102D1*
X3635830Y1804791D1*
X3638681Y1801906D1*
X3642993Y1800480D1*
X3647304D1*
X3651581Y1801906D1*
X3653007Y1803365D1*
X3654466Y1806217D1*
X3607896Y1826313D2*
X3609322Y1829165D1*
X3613633Y1830591D1*
X3616485D1*
X3620796Y1829165D1*
X3623681Y1824854D1*
X3625107Y1817691D1*
Y1810528D1*
X3623681Y1804791D1*
X3620796Y1801906D1*
X3616485Y1800480D1*
X3615059D1*
X3610781Y1801906D1*
X3607896Y1804791D1*
X3606470Y1809102D1*
Y1810528D1*
X3607896Y1814839D1*
X3610781Y1817691D1*
X3615059Y1819117D1*
X3616485D1*
X3620796Y1817691D1*
X3623681Y1814839D1*
X3625107Y1810528D1*
X3474094Y1913301D2*
X3476946Y1911909D1*
X3479831Y1909023D1*
X3481257Y1906138D1*
X3482716Y1901827D1*
Y1894664D1*
X3481257Y1890353D1*
X3479831Y1887501D1*
X3476946Y1884616D1*
X3474094Y1883190D1*
X3468357D1*
X3465472Y1884616D1*
X3462620Y1887501D1*
X3461194Y1890353D1*
X3459735Y1894664D1*
Y1901827D1*
X3461194Y1906138D1*
X3462620Y1909023D1*
X3465472Y1911909D1*
X3468357Y1913301D1*
X3474094D1*
X3469783Y1888927D2*
X3461194Y1880305D1*
X3447587Y1913268D2*
X3431835D1*
X3440424Y1901794D1*
X3436113D1*
X3433261Y1900368D1*
X3431835Y1898942D1*
X3430376Y1894631D1*
Y1891779D1*
X3431835Y1887468D1*
X3434687Y1884583D1*
X3438998Y1883157D1*
X3443309D1*
X3447587Y1884583D1*
X3449012Y1886042D1*
X3450472Y1888894D1*
X3415375Y1883157D2*
X3401016Y1913268D1*
X3421112D1*
X3261479Y1830624D2*
X3264331Y1829231D1*
X3267216Y1826346D1*
X3268642Y1823461D1*
X3270101Y1819150D1*
Y1811987D1*
X3268642Y1807676D1*
X3267216Y1804824D1*
X3264331Y1801939D1*
X3261479Y1800513D1*
X3255742D1*
X3252857Y1801939D1*
X3250005Y1804824D1*
X3248579Y1807676D1*
X3247120Y1811987D1*
Y1819150D1*
X3248579Y1823461D1*
X3250005Y1826346D1*
X3252857Y1829231D1*
X3255742Y1830624D1*
X3261479D1*
X3257168Y1806250D2*
X3248579Y1797628D1*
X3234972Y1830591D2*
X3219220D1*
X3227809Y1819117D1*
X3223498D1*
X3220646Y1817691D1*
X3219220Y1816265D1*
X3217761Y1811954D1*
Y1809102D1*
X3219220Y1804791D1*
X3222072Y1801906D1*
X3226383Y1800480D1*
X3230694D1*
X3234972Y1801906D1*
X3236397Y1803365D1*
X3237857Y1806217D1*
X3201334Y1830591D2*
X3205612Y1829165D1*
X3207071Y1826313D1*
Y1823428D1*
X3205612Y1820576D1*
X3202760Y1819117D1*
X3197023Y1817691D1*
X3192712Y1816265D1*
X3189860Y1813380D1*
X3188434Y1810528D1*
Y1806217D1*
X3189860Y1803365D1*
X3191286Y1801906D1*
X3195597Y1800480D1*
X3201334D1*
X3205612Y1801906D1*
X3207071Y1803365D1*
X3208497Y1806217D1*
Y1810528D1*
X3207071Y1813380D1*
X3204186Y1816265D1*
X3199908Y1817691D1*
X3194171Y1819117D1*
X3191286Y1820576D1*
X3189860Y1823428D1*
Y1826313D1*
X3191286Y1829165D1*
X3195597Y1830591D1*
X3201334D1*
X3077092Y1051334D2*
X3078485Y1054186D1*
X3081370Y1057071D1*
X3084255Y1058497D1*
X3088566Y1059956D1*
X3095729D1*
X3100040Y1058497D1*
X3102892Y1057071D1*
X3105777Y1054186D1*
X3107203Y1051334D1*
Y1045597D1*
X3105777Y1042712D1*
X3102892Y1039860D1*
X3100040Y1038434D1*
X3095729Y1036975D1*
X3088566D1*
X3084255Y1038434D1*
X3081370Y1039860D1*
X3078485Y1042712D1*
X3077092Y1045597D1*
Y1051334D1*
X3101466Y1047023D2*
X3110088Y1038434D1*
X3077126Y1024826D2*
Y1009075D1*
X3088600Y1017663D1*
Y1013352D1*
X3090026Y1010501D1*
X3091451Y1009075D1*
X3095763Y1007615D1*
X3098614D1*
X3102925Y1009075D1*
X3105810Y1011926D1*
X3107236Y1016237D1*
Y1020548D1*
X3105810Y1024826D1*
X3104351Y1026252D1*
X3101499Y1027711D1*
X3087140Y979682D2*
X3091451Y981141D1*
X3094337Y983993D1*
X3095762Y988304D1*
Y989730D1*
X3094337Y994041D1*
X3091451Y996893D1*
X3087140Y998352D1*
X3085715D1*
X3081403Y996893D1*
X3078552Y994041D1*
X3077126Y989730D1*
Y988304D1*
X3078552Y983993D1*
X3081403Y981141D1*
X3087140Y979682D1*
X3094336D1*
X3101499Y981141D1*
X3105810Y983993D1*
X3107236Y988304D1*
Y991156D1*
X3105811Y995467D1*
X3102925Y996893D1*
X3149921Y1627320D2*
X3152773Y1625927D1*
X3155658Y1623042D1*
X3157084Y1620157D1*
X3158543Y1615846D1*
Y1608683D1*
X3157084Y1604372D1*
X3155658Y1601520D1*
X3152773Y1598635D1*
X3149921Y1597209D1*
X3144184D1*
X3141299Y1598635D1*
X3138447Y1601520D1*
X3137021Y1604372D1*
X3135562Y1608683D1*
Y1615846D1*
X3137021Y1620157D1*
X3138447Y1623042D1*
X3141299Y1625927D1*
X3144184Y1627320D1*
X3149921D1*
X3145610Y1602946D2*
X3137021Y1594324D1*
X3111940Y1597176D2*
Y1627287D1*
X3126299Y1607224D1*
X3104777D1*
X3086891Y1627287D2*
X3091202Y1625861D1*
X3094087Y1621550D1*
X3095513Y1614387D1*
Y1610076D1*
X3094087Y1602913D1*
X3091202Y1598602D1*
X3086891Y1597176D1*
X3084039D1*
X3079728Y1598602D1*
X3076876Y1602913D1*
X3075417Y1610076D1*
Y1614387D1*
X3076876Y1621550D1*
X3079728Y1625861D1*
X3084039Y1627287D1*
X3086891D1*
X3076876Y1621550D2*
X3094087Y1602913D1*
X3006226Y1365208D2*
X3007619Y1368060D1*
X3010504Y1370945D1*
X3013389Y1372371D1*
X3017700Y1373830D1*
X3024863D1*
X3029174Y1372371D1*
X3032026Y1370945D1*
X3034911Y1368060D1*
X3036337Y1365208D1*
Y1359471D1*
X3034911Y1356586D1*
X3032026Y1353734D1*
X3029174Y1352308D1*
X3024863Y1350849D1*
X3017700D1*
X3013389Y1352308D1*
X3010504Y1353734D1*
X3007619Y1356586D1*
X3006226Y1359471D1*
Y1365208D1*
X3030600Y1360897D2*
X3039222Y1352308D1*
X3036370Y1327226D2*
X3006259D1*
X3026322Y1341585D1*
Y1320063D1*
X3011996Y1310800D2*
X3010537Y1307915D1*
X3006259Y1303604D1*
X3036370D1*
X3006226Y1194492D2*
X3007619Y1197344D1*
X3010504Y1200229D1*
X3013389Y1201655D1*
X3017700Y1203114D1*
X3024863D1*
X3029174Y1201655D1*
X3032026Y1200229D1*
X3034911Y1197344D1*
X3036337Y1194492D1*
Y1188755D1*
X3034911Y1185870D1*
X3032026Y1183018D1*
X3029174Y1181592D1*
X3024863Y1180133D1*
X3017700D1*
X3013389Y1181592D1*
X3010504Y1183018D1*
X3007619Y1185870D1*
X3006226Y1188755D1*
Y1194492D1*
X3030600Y1190181D2*
X3039222Y1181592D1*
X3036370Y1156511D2*
X3006259D1*
X3026322Y1170870D1*
Y1149348D1*
X3013422Y1138625D2*
X3011996D1*
X3009111Y1137199D1*
X3007685Y1135773D1*
X3006259Y1132888D1*
Y1127151D1*
X3007685Y1124299D1*
X3009111Y1122873D1*
X3011996Y1121414D1*
X3014848D1*
X3017733Y1122873D1*
X3022011Y1125725D1*
X3036370Y1140084D1*
Y1119988D1*
X2885043Y1755645D2*
X2887895Y1754252D1*
X2890780Y1751367D1*
X2892206Y1748482D1*
X2893665Y1744171D1*
Y1737008D1*
X2892206Y1732697D1*
X2890780Y1729845D1*
X2887895Y1726960D1*
X2885043Y1725534D1*
X2879306D1*
X2876421Y1726960D1*
X2873569Y1729845D1*
X2872143Y1732697D1*
X2870684Y1737008D1*
Y1744171D1*
X2872143Y1748482D1*
X2873569Y1751367D1*
X2876421Y1754252D1*
X2879306Y1755645D1*
X2885043D1*
X2880732Y1731271D2*
X2872143Y1722649D1*
X2847062Y1725501D2*
Y1755612D1*
X2861421Y1735549D1*
X2839899D1*
X2827750Y1755612D2*
X2811998D1*
X2820587Y1744138D1*
X2816276D1*
X2813424Y1742712D1*
X2811998Y1741286D1*
X2810539Y1736975D1*
Y1734123D1*
X2811998Y1729812D1*
X2814850Y1726927D1*
X2819161Y1725501D1*
X2823472D1*
X2827750Y1726927D1*
X2829176Y1728386D1*
X2830635Y1731238D1*
X2836637Y1191887D2*
X2839489Y1190494D1*
X2842374Y1187609D1*
X2843800Y1184724D1*
X2845259Y1180413D1*
Y1173250D1*
X2843800Y1168939D1*
X2842374Y1166087D1*
X2839489Y1163202D1*
X2836637Y1161776D1*
X2830900D1*
X2828015Y1163202D1*
X2825163Y1166087D1*
X2823737Y1168939D1*
X2822278Y1173250D1*
Y1180413D1*
X2823737Y1184724D1*
X2825163Y1187609D1*
X2828015Y1190494D1*
X2830900Y1191887D1*
X2836637D1*
X2832326Y1167513D2*
X2823737Y1158891D1*
X2798655Y1161743D2*
Y1191853D1*
X2813014Y1171791D1*
X2791492D1*
X2767870Y1161743D2*
Y1191853D1*
X2782229Y1171791D1*
X2760707D1*
X2441000Y1640280D2*
X2443852Y1638888D1*
X2446737Y1636002D1*
X2448163Y1633117D1*
X2449622Y1628806D1*
Y1621643D1*
X2448163Y1617332D1*
X2446737Y1614480D1*
X2443852Y1611595D1*
X2441000Y1610169D1*
X2435263D1*
X2432378Y1611595D1*
X2429526Y1614480D1*
X2428100Y1617332D1*
X2426641Y1621643D1*
Y1628806D1*
X2428100Y1633117D1*
X2429526Y1636002D1*
X2432378Y1638888D1*
X2435263Y1640280D1*
X2441000D1*
X2436689Y1615906D2*
X2428100Y1607284D1*
X2403018Y1610136D2*
Y1640247D1*
X2417377Y1620184D1*
X2395856D1*
X2369381Y1640247D2*
X2383707D1*
X2385133Y1627347D1*
X2383707Y1628773D1*
X2379396Y1630232D1*
X2375118D1*
X2370807Y1628773D1*
X2367922Y1625921D1*
X2366496Y1621610D1*
Y1618758D1*
X2367922Y1614447D1*
X2370807Y1611562D1*
X2375118Y1610136D1*
X2379396D1*
X2383707Y1611562D1*
X2385133Y1613021D1*
X2386592Y1615873D1*
X2485055Y1387826D2*
X2486447Y1390678D1*
X2489332Y1393563D1*
X2492217Y1394989D1*
X2496528Y1396448D1*
X2503691D1*
X2508002Y1394989D1*
X2510854Y1393563D1*
X2513739Y1390678D1*
X2515165Y1387826D1*
Y1382089D1*
X2513739Y1379204D1*
X2510854Y1376352D1*
X2508002Y1374926D1*
X2503691Y1373467D1*
X2496528D1*
X2492217Y1374926D1*
X2489332Y1376352D1*
X2486447Y1379204D1*
X2485055Y1382089D1*
Y1387826D1*
X2509428Y1383515D2*
X2518050Y1374926D1*
X2515199Y1349844D2*
X2485088D1*
X2505151Y1364203D1*
Y1342681D1*
X2489366Y1316207D2*
X2486514Y1317633D1*
X2485088Y1321944D1*
Y1324796D1*
X2486514Y1329107D1*
X2490825Y1331992D1*
X2497988Y1333418D1*
X2505151D1*
X2510888Y1331992D1*
X2513773Y1329107D1*
X2515199Y1324796D1*
Y1323370D1*
X2513773Y1319092D1*
X2510887Y1316207D1*
X2506576Y1314781D1*
X2505150D1*
X2500839Y1316207D1*
X2497988Y1319092D1*
X2496562Y1323370D1*
Y1324796D1*
X2497988Y1329107D1*
X2500840Y1331992D1*
X2505151Y1333418D1*
X2485055Y1215327D2*
X2486447Y1218179D1*
X2489332Y1221064D1*
X2492217Y1222490D1*
X2496528Y1223949D1*
X2503691D1*
X2508002Y1222490D1*
X2510854Y1221064D1*
X2513739Y1218179D1*
X2515165Y1215327D1*
Y1209590D1*
X2513739Y1206705D1*
X2510854Y1203853D1*
X2508002Y1202427D1*
X2503691Y1200968D1*
X2496528D1*
X2492217Y1202427D1*
X2489332Y1203853D1*
X2486447Y1206705D1*
X2485055Y1209590D1*
Y1215327D1*
X2509428Y1211016D2*
X2518050Y1202427D1*
X2515199Y1177345D2*
X2485088D1*
X2505151Y1191704D1*
Y1170182D1*
X2515199Y1155182D2*
X2485088Y1140823D1*
Y1160919D1*
X2307861Y1830624D2*
X2310713Y1829231D1*
X2313598Y1826346D1*
X2315024Y1823461D1*
X2316483Y1819150D1*
Y1811987D1*
X2315024Y1807676D1*
X2313598Y1804824D1*
X2310713Y1801939D1*
X2307861Y1800513D1*
X2302124D1*
X2299239Y1801939D1*
X2296387Y1804824D1*
X2294962Y1807676D1*
X2293502Y1811987D1*
Y1819150D1*
X2294962Y1823461D1*
X2296387Y1826346D1*
X2299239Y1829231D1*
X2302124Y1830624D1*
X2307861D1*
X2303550Y1806250D2*
X2294962Y1797628D1*
X2269880Y1800480D2*
Y1830591D1*
X2284239Y1810528D1*
X2262717D1*
X2246290Y1830591D2*
X2250568Y1829165D1*
X2252027Y1826313D1*
Y1823428D1*
X2250568Y1820576D1*
X2247716Y1819117D1*
X2241979Y1817691D1*
X2237668Y1816265D1*
X2234816Y1813380D1*
X2233391Y1810528D1*
Y1806217D1*
X2234816Y1803365D1*
X2236242Y1801906D1*
X2240553Y1800480D1*
X2246290D1*
X2250568Y1801906D1*
X2252027Y1803365D1*
X2253453Y1806217D1*
Y1810528D1*
X2252027Y1813380D1*
X2249142Y1816265D1*
X2244864Y1817691D1*
X2239128Y1819117D1*
X2236242Y1820576D1*
X2234816Y1823428D1*
Y1826313D1*
X2236242Y1829165D1*
X2240553Y1830591D1*
X2246290D1*
X2102441Y1913301D2*
X2105293Y1911909D1*
X2108178Y1909023D1*
X2109604Y1906138D1*
X2111063Y1901827D1*
Y1894664D1*
X2109604Y1890353D1*
X2108178Y1887501D1*
X2105293Y1884616D1*
X2102441Y1883190D1*
X2096704D1*
X2093819Y1884616D1*
X2090967Y1887501D1*
X2089541Y1890353D1*
X2088082Y1894664D1*
Y1901827D1*
X2089541Y1906138D1*
X2090967Y1909023D1*
X2093819Y1911909D1*
X2096704Y1913301D1*
X2102441D1*
X2098130Y1888927D2*
X2089541Y1880305D1*
X2064459Y1883157D2*
Y1913268D1*
X2078818Y1893205D1*
X2057296D1*
X2029363Y1903253D2*
X2030822Y1898942D1*
X2033674Y1896057D1*
X2037985Y1894631D1*
X2039411D1*
X2043722Y1896057D1*
X2046573Y1898942D1*
X2048033Y1903253D1*
Y1904679D1*
X2046573Y1908990D1*
X2043722Y1911842D1*
X2039411Y1913268D1*
X2037985D1*
X2033674Y1911842D1*
X2030822Y1908990D1*
X2029363Y1903253D1*
Y1896057D1*
X2030822Y1888894D1*
X2033674Y1884583D1*
X2037985Y1883157D1*
X2040836D1*
X2045147Y1884583D1*
X2046573Y1887468D1*
X1889842Y1830624D2*
X1892694Y1829231D1*
X1895579Y1826346D1*
X1897005Y1823461D1*
X1898464Y1819150D1*
Y1811987D1*
X1897005Y1807676D1*
X1895579Y1804824D1*
X1892694Y1801939D1*
X1889842Y1800513D1*
X1884105D1*
X1881220Y1801939D1*
X1878368Y1804824D1*
X1876942Y1807676D1*
X1875483Y1811987D1*
Y1819150D1*
X1876942Y1823461D1*
X1878368Y1826346D1*
X1881220Y1829231D1*
X1884105Y1830624D1*
X1889842D1*
X1885531Y1806250D2*
X1876942Y1797628D1*
X1849009Y1830591D2*
X1863335D1*
X1864761Y1817691D1*
X1863335Y1819117D1*
X1859024Y1820576D1*
X1854746D1*
X1850435Y1819117D1*
X1847550Y1816265D1*
X1846124Y1811954D1*
Y1809102D1*
X1847550Y1804791D1*
X1850435Y1801906D1*
X1854746Y1800480D1*
X1859024D1*
X1863335Y1801906D1*
X1864761Y1803365D1*
X1866220Y1806217D1*
X1828238Y1830591D2*
X1832549Y1829165D1*
X1835434Y1824854D1*
X1836860Y1817691D1*
Y1813380D1*
X1835434Y1806217D1*
X1832549Y1801906D1*
X1828238Y1800480D1*
X1825386D1*
X1821075Y1801906D1*
X1818223Y1806217D1*
X1816764Y1813380D1*
Y1817691D1*
X1818223Y1824854D1*
X1821075Y1829165D1*
X1825386Y1830591D1*
X1828238D1*
X1818223Y1824854D2*
X1835434Y1806217D1*
X1705439Y1045597D2*
X1706832Y1048449D1*
X1709717Y1051334D1*
X1712602Y1052760D1*
X1716913Y1054219D1*
X1724076D1*
X1728387Y1052760D1*
X1731239Y1051334D1*
X1734124Y1048449D1*
X1735550Y1045597D1*
Y1039860D1*
X1734124Y1036975D1*
X1731239Y1034123D1*
X1728387Y1032697D1*
X1724076Y1031238D1*
X1716913D1*
X1712602Y1032697D1*
X1709717Y1034123D1*
X1706832Y1036975D1*
X1705439Y1039860D1*
Y1045597D1*
X1729813Y1041286D2*
X1738435Y1032697D1*
X1705472Y1004764D2*
Y1019089D1*
X1718372Y1020515D1*
X1716946Y1019089D1*
X1715487Y1014778D1*
Y1010501D1*
X1716946Y1006190D1*
X1719798Y1003304D1*
X1724109Y1001878D1*
X1726961D1*
X1731272Y1003304D1*
X1734157Y1006189D1*
X1735583Y1010500D1*
Y1014778D1*
X1734157Y1019089D1*
X1732698Y1020515D1*
X1729846Y1021974D1*
X1711209Y992615D2*
X1709750Y989730D1*
X1705472Y985419D1*
X1735583D1*
X1777555Y1627320D2*
X1780407Y1625927D1*
X1783292Y1623042D1*
X1784718Y1620157D1*
X1786177Y1615846D1*
Y1608683D1*
X1784718Y1604372D1*
X1783292Y1601520D1*
X1780407Y1598635D1*
X1777555Y1597209D1*
X1771818D1*
X1768933Y1598635D1*
X1766081Y1601520D1*
X1764655Y1604372D1*
X1763196Y1608683D1*
Y1615846D1*
X1764655Y1620157D1*
X1766081Y1623042D1*
X1768933Y1625927D1*
X1771818Y1627320D1*
X1777555D1*
X1773244Y1602946D2*
X1764655Y1594324D1*
X1736721Y1627287D2*
X1751047D1*
X1752473Y1614387D1*
X1751047Y1615813D1*
X1746736Y1617272D1*
X1742458D1*
X1738147Y1615813D1*
X1735262Y1612961D1*
X1733836Y1608650D1*
Y1605798D1*
X1735262Y1601487D1*
X1738147Y1598602D1*
X1742458Y1597176D1*
X1746736D1*
X1751047Y1598602D1*
X1752473Y1600061D1*
X1753932Y1602913D1*
X1723114Y1620124D2*
Y1621550D1*
X1721688Y1624435D1*
X1720262Y1625861D1*
X1717377Y1627287D1*
X1711640D1*
X1708788Y1625861D1*
X1707362Y1624435D1*
X1705903Y1621550D1*
Y1618698D1*
X1707362Y1615813D1*
X1710214Y1611535D1*
X1724573Y1597176D1*
X1704477D1*
X1634573Y1370945D2*
X1635966Y1373797D1*
X1638851Y1376682D1*
X1641736Y1378108D1*
X1646047Y1379567D1*
X1653210D1*
X1657521Y1378108D1*
X1660373Y1376682D1*
X1663258Y1373796D1*
X1664684Y1370945D1*
Y1365208D1*
X1663258Y1362323D1*
X1660373Y1359471D1*
X1657521Y1358045D1*
X1653210Y1356586D1*
X1646047D1*
X1641736Y1358045D1*
X1638851Y1359471D1*
X1635966Y1362323D1*
X1634573Y1365208D1*
Y1370945D1*
X1658947Y1366634D2*
X1667569Y1358045D1*
X1634606Y1330111D2*
Y1344437D1*
X1647506Y1345863D1*
X1646080Y1344437D1*
X1644621Y1340126D1*
Y1335848D1*
X1646080Y1331537D1*
X1648932Y1328652D1*
X1653243Y1327226D1*
X1656095D1*
X1660406Y1328652D1*
X1663291Y1331537D1*
X1664717Y1335848D1*
Y1340126D1*
X1663291Y1344437D1*
X1661832Y1345863D1*
X1658980Y1347322D1*
X1634606Y1315077D2*
Y1299326D1*
X1646080Y1307915D1*
Y1303604D1*
X1647506Y1300752D1*
X1648932Y1299326D1*
X1653243Y1297867D1*
X1656095D1*
X1660406Y1299326D1*
X1663291Y1302178D1*
X1664717Y1306489D1*
Y1310800D1*
X1663291Y1315077D1*
X1661832Y1316503D1*
X1658980Y1317963D1*
X1634573Y1194492D2*
X1635966Y1197344D1*
X1638851Y1200229D1*
X1641736Y1201655D1*
X1646047Y1203114D1*
X1653210D1*
X1657521Y1201655D1*
X1660373Y1200229D1*
X1663258Y1197344D1*
X1664684Y1194492D1*
Y1188755D1*
X1663258Y1185870D1*
X1660373Y1183018D1*
X1657521Y1181592D1*
X1653210Y1180133D1*
X1646047D1*
X1641736Y1181592D1*
X1638851Y1183018D1*
X1635966Y1185870D1*
X1634573Y1188755D1*
Y1194492D1*
X1658947Y1190181D2*
X1667569Y1181592D1*
X1634606Y1153659D2*
Y1167985D1*
X1647506Y1169411D1*
X1646080Y1167985D1*
X1644621Y1163674D1*
Y1159396D1*
X1646080Y1155085D1*
X1648932Y1152200D1*
X1653243Y1150774D1*
X1656095D1*
X1660406Y1152200D1*
X1663291Y1155085D1*
X1664717Y1159396D1*
Y1163674D1*
X1663291Y1167985D1*
X1661832Y1169411D1*
X1658980Y1170870D1*
X1664717Y1127151D2*
X1634606D1*
X1654669Y1141510D1*
Y1119988D1*
X1462334Y1640280D2*
X1465186Y1638888D1*
X1468071Y1636002D1*
X1469497Y1633117D1*
X1470956Y1628806D1*
Y1621643D1*
X1469497Y1617332D1*
X1468071Y1614480D1*
X1465186Y1611595D1*
X1462334Y1610169D1*
X1456597D1*
X1453712Y1611595D1*
X1450860Y1614480D1*
X1449434Y1617332D1*
X1447975Y1621643D1*
Y1628806D1*
X1449434Y1633117D1*
X1450860Y1636002D1*
X1453712Y1638888D1*
X1456597Y1640280D1*
X1462334D1*
X1458023Y1615906D2*
X1449434Y1607284D1*
X1421501Y1640247D2*
X1435827D1*
X1437253Y1627347D1*
X1435827Y1628773D1*
X1431516Y1630232D1*
X1427238D1*
X1422927Y1628773D1*
X1420042Y1625921D1*
X1418616Y1621610D1*
Y1618758D1*
X1420042Y1614447D1*
X1422927Y1611562D1*
X1427238Y1610136D1*
X1431516D1*
X1435827Y1611562D1*
X1437253Y1613021D1*
X1438712Y1615873D1*
X1392141Y1640247D2*
X1406467D1*
X1407893Y1627347D1*
X1406467Y1628773D1*
X1402156Y1630232D1*
X1397878D1*
X1393567Y1628773D1*
X1390682Y1625921D1*
X1389256Y1621610D1*
Y1618758D1*
X1390682Y1614447D1*
X1393567Y1611562D1*
X1397878Y1610136D1*
X1402156D1*
X1406467Y1611562D1*
X1407893Y1613021D1*
X1409352Y1615873D1*
X1507102Y1387113D2*
X1508495Y1389965D1*
X1511380Y1392850D1*
X1514265Y1394276D1*
X1518576Y1395735D1*
X1525739D1*
X1530050Y1394276D1*
X1532902Y1392850D1*
X1535787Y1389965D1*
X1537213Y1387113D1*
Y1381376D1*
X1535787Y1378491D1*
X1532902Y1375639D1*
X1530050Y1374213D1*
X1525739Y1372754D1*
X1518576D1*
X1514265Y1374213D1*
X1511380Y1375639D1*
X1508495Y1378491D1*
X1507102Y1381376D1*
Y1387113D1*
X1531476Y1382802D2*
X1540098Y1374213D1*
X1507135Y1346279D2*
Y1360605D1*
X1520035Y1362031D1*
X1518609Y1360605D1*
X1517150Y1356294D1*
Y1352016D1*
X1518609Y1347705D1*
X1521461Y1344820D1*
X1525772Y1343394D1*
X1528624D1*
X1532935Y1344820D1*
X1535820Y1347705D1*
X1537246Y1352016D1*
Y1356294D1*
X1535820Y1360605D1*
X1534361Y1362031D1*
X1531509Y1363490D1*
X1511413Y1316920D2*
X1508561Y1318346D1*
X1507135Y1322657D1*
Y1325509D1*
X1508561Y1329820D1*
X1512872Y1332705D1*
X1520035Y1334131D1*
X1527198D1*
X1532935Y1332705D1*
X1535820Y1329820D1*
X1537246Y1325509D1*
Y1324083D1*
X1535820Y1319805D1*
X1532935Y1316920D1*
X1528624Y1315494D1*
X1527198D1*
X1522887Y1316920D1*
X1520035Y1319805D1*
X1518609Y1324083D1*
Y1325509D1*
X1520035Y1329820D1*
X1522887Y1332705D1*
X1527198Y1334131D1*
X1507102Y1214614D2*
X1508495Y1217466D1*
X1511380Y1220351D1*
X1514265Y1221777D1*
X1518576Y1223236D1*
X1525739D1*
X1530050Y1221777D1*
X1532902Y1220351D1*
X1535787Y1217466D1*
X1537213Y1214614D1*
Y1208877D1*
X1535787Y1205992D1*
X1532902Y1203140D1*
X1530050Y1201714D1*
X1525739Y1200255D1*
X1518576D1*
X1514265Y1201714D1*
X1511380Y1203140D1*
X1508495Y1205992D1*
X1507102Y1208877D1*
Y1214614D1*
X1531476Y1210303D2*
X1540098Y1201714D1*
X1507135Y1173780D2*
Y1188106D1*
X1520035Y1189532D1*
X1518609Y1188106D1*
X1517150Y1183795D1*
Y1179517D1*
X1518609Y1175206D1*
X1521461Y1172321D1*
X1525772Y1170895D1*
X1528624D1*
X1532935Y1172321D1*
X1535820Y1175206D1*
X1537246Y1179517D1*
Y1183795D1*
X1535820Y1188106D1*
X1534361Y1189532D1*
X1531509Y1190991D1*
X1537246Y1155895D2*
X1507135Y1141536D1*
Y1161632D1*
X1329196Y1830624D2*
X1332048Y1829231D1*
X1334933Y1826346D1*
X1336359Y1823461D1*
X1337818Y1819150D1*
Y1811987D1*
X1336359Y1807676D1*
X1334933Y1804824D1*
X1332048Y1801939D1*
X1329196Y1800513D1*
X1323459D1*
X1320574Y1801939D1*
X1317722Y1804824D1*
X1316296Y1807676D1*
X1314837Y1811987D1*
Y1819150D1*
X1316296Y1823461D1*
X1317722Y1826346D1*
X1320574Y1829231D1*
X1323459Y1830624D1*
X1329196D1*
X1324885Y1806250D2*
X1316296Y1797628D1*
X1288362Y1830591D2*
X1302688D1*
X1304114Y1817691D1*
X1302688Y1819117D1*
X1298377Y1820576D1*
X1294099D1*
X1289788Y1819117D1*
X1286903Y1816265D1*
X1285477Y1811954D1*
Y1809102D1*
X1286903Y1804791D1*
X1289788Y1801906D1*
X1294099Y1800480D1*
X1298377D1*
X1302688Y1801906D1*
X1304114Y1803365D1*
X1305573Y1806217D1*
X1269051Y1830591D2*
X1273329Y1829165D1*
X1274788Y1826313D1*
Y1823428D1*
X1273329Y1820576D1*
X1270477Y1819117D1*
X1264740Y1817691D1*
X1260429Y1816265D1*
X1257577Y1813380D1*
X1256151Y1810528D1*
Y1806217D1*
X1257577Y1803365D1*
X1259003Y1801906D1*
X1263314Y1800480D1*
X1269051D1*
X1273329Y1801906D1*
X1274788Y1803365D1*
X1276214Y1806217D1*
Y1810528D1*
X1274788Y1813380D1*
X1271903Y1816265D1*
X1267625Y1817691D1*
X1261888Y1819117D1*
X1259003Y1820576D1*
X1257577Y1823428D1*
Y1826313D1*
X1259003Y1829165D1*
X1263314Y1830591D1*
X1269051D1*
X1123775Y1913301D2*
X1126627Y1911909D1*
X1129512Y1909023D1*
X1130938Y1906138D1*
X1132397Y1901827D1*
Y1894664D1*
X1130938Y1890353D1*
X1129512Y1887501D1*
X1126627Y1884616D1*
X1123775Y1883190D1*
X1118038D1*
X1115153Y1884616D1*
X1112301Y1887501D1*
X1110875Y1890353D1*
X1109416Y1894664D1*
Y1901827D1*
X1110875Y1906138D1*
X1112301Y1909023D1*
X1115153Y1911909D1*
X1118038Y1913301D1*
X1123775D1*
X1119464Y1888927D2*
X1110875Y1880305D1*
X1082941Y1913268D2*
X1097267D1*
X1098693Y1900368D1*
X1097267Y1901794D1*
X1092956Y1903253D1*
X1088678D1*
X1084367Y1901794D1*
X1081482Y1898942D1*
X1080056Y1894631D1*
Y1891779D1*
X1081482Y1887468D1*
X1084367Y1884583D1*
X1088678Y1883157D1*
X1092956D1*
X1097267Y1884583D1*
X1098693Y1886042D1*
X1100152Y1888894D1*
X1052123Y1903253D2*
X1053582Y1898942D1*
X1056434Y1896057D1*
X1060745Y1894631D1*
X1062171D1*
X1066482Y1896057D1*
X1069334Y1898942D1*
X1070793Y1903253D1*
Y1904679D1*
X1069334Y1908990D1*
X1066482Y1911842D1*
X1062171Y1913268D1*
X1060745D1*
X1056434Y1911842D1*
X1053582Y1908990D1*
X1052123Y1903253D1*
Y1896057D1*
X1053582Y1888894D1*
X1056434Y1884583D1*
X1060745Y1883157D1*
X1063597D1*
X1067908Y1884583D1*
X1069334Y1887468D1*
X911160Y1830624D2*
X914012Y1829231D1*
X916897Y1826346D1*
X918323Y1823461D1*
X919782Y1819150D1*
Y1811987D1*
X918323Y1807676D1*
X916897Y1804824D1*
X914012Y1801939D1*
X911160Y1800513D1*
X905423D1*
X902538Y1801939D1*
X899686Y1804824D1*
X898260Y1807676D1*
X896801Y1811987D1*
Y1819150D1*
X898260Y1823461D1*
X899686Y1826346D1*
X902538Y1829231D1*
X905423Y1830624D1*
X911160D1*
X906849Y1806250D2*
X898260Y1797628D1*
X870326Y1826313D2*
X871752Y1829165D1*
X876063Y1830591D1*
X878915D1*
X883226Y1829165D1*
X886111Y1824854D1*
X887537Y1817691D1*
Y1810528D1*
X886111Y1804791D1*
X883226Y1801906D1*
X878915Y1800480D1*
X877489D1*
X873211Y1801906D1*
X870326Y1804791D1*
X868900Y1809102D1*
Y1810528D1*
X870326Y1814839D1*
X873211Y1817691D1*
X877489Y1819117D1*
X878915D1*
X883226Y1817691D1*
X886111Y1814839D1*
X887537Y1810528D1*
X851015Y1830591D2*
X855326Y1829165D1*
X858211Y1824854D1*
X859637Y1817691D1*
Y1813380D1*
X858211Y1806217D1*
X855326Y1801906D1*
X851015Y1800480D1*
X848163D1*
X843852Y1801906D1*
X841000Y1806217D1*
X839541Y1813380D1*
Y1817691D1*
X841000Y1824854D1*
X843852Y1829165D1*
X848163Y1830591D1*
X851015D1*
X841000Y1824854D2*
X858211Y1806217D1*
X727486Y1044867D2*
X728879Y1047719D1*
X731764Y1050604D1*
X734649Y1052030D1*
X738960Y1053489D1*
X746123D1*
X750434Y1052030D1*
X753286Y1050604D1*
X756171Y1047719D1*
X757597Y1044867D1*
Y1039130D1*
X756171Y1036245D1*
X753286Y1033393D1*
X750434Y1031968D1*
X746123Y1030508D1*
X738960D1*
X734649Y1031968D1*
X731764Y1033394D1*
X728879Y1036245D1*
X727486Y1039130D1*
Y1044867D1*
X751860Y1040556D2*
X760482Y1031968D1*
X731797Y1004034D2*
X728945Y1005460D1*
X727519Y1009771D1*
Y1012623D1*
X728945Y1016934D1*
X733256Y1019819D1*
X740419Y1021245D1*
X747582D1*
X753319Y1019819D1*
X756204Y1016934D1*
X757630Y1012623D1*
Y1011197D1*
X756204Y1006919D1*
X753319Y1004034D1*
X749008Y1002608D1*
X747582D1*
X743271Y1004034D1*
X740419Y1006919D1*
X738993Y1011197D1*
Y1012623D1*
X740419Y1016934D1*
X743271Y1019819D1*
X747582Y1021245D1*
X733256Y993345D2*
X731797Y990459D1*
X727519Y986148D1*
X757630D1*
X798872Y1627320D2*
X801724Y1625927D1*
X804609Y1623042D1*
X806035Y1620157D1*
X807495Y1615846D1*
Y1608683D1*
X806035Y1604372D1*
X804609Y1601520D1*
X801724Y1598635D1*
X798872Y1597209D1*
X793136D1*
X790250Y1598635D1*
X787399Y1601520D1*
X785973Y1604372D1*
X784513Y1608683D1*
Y1615846D1*
X785973Y1620157D1*
X787399Y1623042D1*
X790250Y1625927D1*
X793136Y1627320D1*
X798872D1*
X794561Y1602946D2*
X785973Y1594324D1*
X758039Y1623009D2*
X759465Y1625861D1*
X763776Y1627287D1*
X766628D1*
X770939Y1625861D1*
X773824Y1621550D1*
X775250Y1614387D1*
Y1607224D1*
X773824Y1601487D1*
X770939Y1598602D1*
X766628Y1597176D1*
X765202D1*
X760924Y1598602D1*
X758039Y1601487D1*
X756613Y1605798D1*
Y1607224D1*
X758039Y1611535D1*
X760924Y1614387D1*
X765202Y1615813D1*
X766628D1*
X770939Y1614387D1*
X773824Y1611535D1*
X775250Y1607224D1*
X745890Y1620124D2*
Y1621550D1*
X744464Y1624435D1*
X743038Y1625861D1*
X740153Y1627287D1*
X734416D1*
X731565Y1625861D1*
X730139Y1624435D1*
X728679Y1621550D1*
Y1618698D1*
X730139Y1615813D1*
X732990Y1611535D1*
X747349Y1597176D1*
X727253D1*
X656620Y1370215D2*
X658013Y1373067D1*
X660898Y1375952D1*
X663783Y1377378D1*
X668094Y1378837D1*
X675257D1*
X679568Y1377378D1*
X682420Y1375952D1*
X685305Y1373067D1*
X686731Y1370215D1*
Y1364478D1*
X685305Y1361593D1*
X682420Y1358741D1*
X679568Y1357315D1*
X675257Y1355856D1*
X668094D1*
X663783Y1357315D1*
X660898Y1358741D1*
X658013Y1361593D1*
X656620Y1364478D1*
Y1370215D1*
X680994Y1365904D2*
X689616Y1357315D1*
X660931Y1329382D2*
X658079Y1330808D1*
X656653Y1335119D1*
Y1337970D1*
X658079Y1342281D1*
X662390Y1345167D1*
X669553Y1346592D1*
X676716D1*
X682453Y1345167D1*
X685338Y1342281D1*
X686764Y1337970D1*
Y1336544D1*
X685338Y1332267D1*
X682453Y1329382D1*
X678142Y1327956D1*
X676716D1*
X672405Y1329382D1*
X669553Y1332267D1*
X668127Y1336544D1*
Y1337970D1*
X669553Y1342281D1*
X672405Y1345167D1*
X676716Y1346592D1*
X656653Y1315807D2*
Y1300055D1*
X668127Y1308644D1*
Y1304333D1*
X669553Y1301481D1*
X670979Y1300055D1*
X675290Y1298596D1*
X678142D1*
X682453Y1300055D1*
X685338Y1302907D1*
X686764Y1307218D1*
Y1311529D1*
X685338Y1315807D1*
X683879Y1317233D1*
X681027Y1318692D1*
X656620Y1193763D2*
X658013Y1196615D1*
X660898Y1199500D1*
X663783Y1200926D1*
X668094Y1202385D1*
X675257D1*
X679568Y1200926D1*
X682420Y1199500D1*
X685305Y1196615D1*
X686731Y1193763D1*
Y1188026D1*
X685305Y1185141D1*
X682420Y1182289D1*
X679568Y1180863D1*
X675257Y1179404D1*
X668094D1*
X663783Y1180863D1*
X660898Y1182289D1*
X658013Y1185141D1*
X656620Y1188026D1*
Y1193763D1*
X680994Y1189452D2*
X689616Y1180863D1*
X660931Y1152929D2*
X658079Y1154355D1*
X656653Y1158666D1*
Y1161518D1*
X658079Y1165829D1*
X662390Y1168714D1*
X669553Y1170140D1*
X676716D1*
X682453Y1168714D1*
X685338Y1165829D1*
X686764Y1161518D1*
Y1160092D1*
X685338Y1155814D1*
X682453Y1152929D1*
X678142Y1151503D1*
X676716D1*
X672405Y1152929D1*
X669553Y1155814D1*
X668127Y1160092D1*
Y1161518D1*
X669553Y1165829D1*
X672405Y1168714D1*
X676716Y1170140D1*
X686764Y1127881D2*
X656653D1*
X676716Y1142240D1*
Y1120718D1*
M02*
