G04 DipTrace 3.1.0.1*
G04 Top-Clock-IN12c.TopPaste.gbr*
%MOIN*%
G04 #@! TF.FileFunction,Paste,Top*
G04 #@! TF.Part,Single*
%ADD41R,0.015591X0.070709*%
%ADD43R,0.054961X0.039213*%
%ADD45R,0.039213X0.054961*%
%ADD51C,0.188819*%
%ADD53C,0.054961*%
%ADD55O,0.051969X0.061969*%
%ADD57O,0.061969X0.051969*%
%ADD59R,0.027402X0.051024*%
%ADD61R,0.023465X0.023465*%
%FSLAX26Y26*%
G04*
G70*
G90*
G75*
G01*
G04 TopPaste*
%LPD*%
D61*
X957008Y1268031D3*
Y1327087D3*
X1000315Y484567D3*
X1059370D3*
X1413701D3*
X1472756D3*
X1934961Y1268031D3*
Y1327087D3*
X1978268Y484567D3*
X2037323D3*
X2391654D3*
X2450709D3*
X3306614Y1268031D3*
Y1327087D3*
X3349921Y484567D3*
X3408976D3*
X3763307D3*
X3822362D3*
X4284567Y1268031D3*
Y1327087D3*
X4327874Y484567D3*
X4386929D3*
X4741260D3*
X4800315D3*
X5656220Y1268031D3*
Y1327087D3*
X5699528Y484567D3*
X5758583D3*
X6112913D3*
X6171969D3*
X6634173Y1268031D3*
Y1327087D3*
X6677480Y484567D3*
X6736535D3*
X7090866D3*
X7149921D3*
D59*
X1031811Y1248346D3*
X1161732D3*
Y1441260D3*
X1031811D3*
X2009764Y1248346D3*
X2139685D3*
Y1441260D3*
X2009764D3*
X3381417Y1248346D3*
X3511339D3*
Y1441260D3*
X3381417D3*
X4359370Y1248346D3*
X4489291D3*
Y1441260D3*
X4359370D3*
X5731024Y1248346D3*
X5860945D3*
Y1441260D3*
X5731024D3*
X6708976Y1248346D3*
X6838898D3*
Y1441260D3*
X6708976D3*
D57*
X472756Y1531417D3*
Y1631417D3*
Y1331417D3*
Y1431417D3*
Y1131417D3*
Y1031417D3*
Y1231417D3*
Y684567D3*
Y484567D3*
Y584567D3*
D55*
X2812520Y866457D3*
X2712520D3*
X5162126D3*
X5062126D3*
D57*
X7401890Y1531417D3*
Y1631417D3*
Y1331417D3*
Y1431417D3*
Y1131417D3*
Y1031417D3*
Y1231417D3*
Y684961D3*
Y484567D3*
Y584567D3*
D53*
X2664094Y1542047D3*
X2860945D3*
X2664094Y1148346D3*
X2860945D3*
X5013701Y1542047D3*
X5210551D3*
X5013701Y1148346D3*
X5210551D3*
X1098740Y1699528D3*
X1325118Y1345197D3*
Y1522362D3*
X1098740Y990866D3*
X1325118Y1168031D3*
X1256220Y1030236D3*
Y1660157D3*
X941260D3*
X872362Y1522362D3*
Y1345197D3*
Y1168031D3*
X941260Y1030236D3*
X2076693Y1699528D3*
X2303071Y1345197D3*
Y1522362D3*
X2076693Y990866D3*
X2303071Y1168031D3*
X2234173Y1030236D3*
Y1660157D3*
X1919213D3*
X1850315Y1522362D3*
Y1345197D3*
Y1168031D3*
X1919213Y1030236D3*
X3448346Y1699528D3*
X3674724Y1345197D3*
Y1522362D3*
X3448346Y990866D3*
X3674724Y1168031D3*
X3605827Y1030236D3*
Y1660157D3*
X3290866D3*
X3221969Y1522362D3*
Y1345197D3*
Y1168031D3*
X3290866Y1030236D3*
X4426299Y1699528D3*
X4652677Y1345197D3*
Y1522362D3*
X4426299Y990866D3*
X4652677Y1168031D3*
X4583780Y1030236D3*
Y1660157D3*
X4268819D3*
X4199921Y1522362D3*
Y1345197D3*
Y1168031D3*
X4268819Y1030236D3*
X5797953Y1699528D3*
X6024331Y1345197D3*
Y1522362D3*
X5797953Y990866D3*
X6024331Y1168031D3*
X5955433Y1030236D3*
Y1660157D3*
X5640472D3*
X5571575Y1522362D3*
Y1345197D3*
Y1168031D3*
X5640472Y1030236D3*
X6775906Y1699528D3*
X7002283Y1345197D3*
Y1522362D3*
X6775906Y990866D3*
X7002283Y1168031D3*
X6933386Y1030236D3*
Y1660157D3*
X6618425D3*
X6549528Y1522362D3*
Y1345197D3*
Y1168031D3*
X6618425Y1030236D3*
D51*
X520000Y1842835D3*
Y846772D3*
X7354646Y1842835D3*
Y846772D3*
D61*
X807402Y1490866D3*
X748346D3*
X807402Y1313701D3*
X748346D3*
X807402Y1136535D3*
X748346D3*
X850709Y994803D3*
X791654D3*
X917638Y1762520D3*
X858583D3*
X1122362Y1845197D3*
X1063307D3*
X1331024Y1762520D3*
X1271969D3*
D45*
X1331024Y1030236D3*
X1441260D3*
D61*
X1394016Y1553858D3*
X1453071D3*
X1394016Y1380630D3*
X1453071D3*
X1394016Y1207402D3*
X1453071D3*
X1785354Y1490866D3*
X1726299D3*
X1785354Y1313701D3*
X1726299D3*
X1785354Y1136535D3*
X1726299D3*
X1828661Y994803D3*
X1769606D3*
X1895591Y1762520D3*
X1836535D3*
X2100315Y1845197D3*
X2041260D3*
X2308976Y1762520D3*
X2249921D3*
D45*
X2308976Y1030236D3*
X2419213D3*
D61*
X2371969Y1553858D3*
X2431024D3*
X2371969Y1380630D3*
X2431024D3*
X2371969Y1207402D3*
X2431024D3*
D43*
X2660157Y1614488D3*
Y1724724D3*
Y1220787D3*
Y1331024D3*
D61*
X2766457Y1039685D3*
X2707402D3*
X2819213Y1689291D3*
Y1630236D3*
X3157008Y1490866D3*
X3097953D3*
X3157008Y1313701D3*
X3097953D3*
X3157008Y1136535D3*
X3097953D3*
X3200315Y994803D3*
X3141260D3*
X3267244Y1762520D3*
X3208189D3*
X3471969Y1845197D3*
X3412913D3*
X3680630Y1762520D3*
X3621575D3*
D45*
X3680630Y1030236D3*
X3790866D3*
D61*
X3743622Y1553858D3*
X3802677D3*
X3743622Y1380630D3*
X3802677D3*
X3743622Y1207402D3*
X3802677D3*
X4134961Y1490866D3*
X4075906D3*
X4134961Y1313701D3*
X4075906D3*
X4134961Y1136535D3*
X4075906D3*
X4178268Y994803D3*
X4119213D3*
X4245197Y1762520D3*
X4186142D3*
X4449921Y1845197D3*
X4390866D3*
X4658583Y1762520D3*
X4599528D3*
D45*
X4658583Y1030236D3*
X4768819D3*
D61*
X4721575Y1553858D3*
X4780630D3*
X4721575Y1380630D3*
X4780630D3*
X4721575Y1207402D3*
X4780630D3*
D43*
X5009764Y1614488D3*
Y1724724D3*
Y1220787D3*
Y1331024D3*
D61*
X5116063Y1039685D3*
X5057008D3*
X5168819Y1689291D3*
Y1630236D3*
X5506614Y1490866D3*
X5447559D3*
X5506614Y1313701D3*
X5447559D3*
X5506614Y1136535D3*
X5447559D3*
X5549921Y994803D3*
X5490866D3*
X5616850Y1762520D3*
X5557795D3*
X5821575Y1845197D3*
X5762520D3*
X6030236Y1762520D3*
X5971181D3*
D45*
X6030236Y1030236D3*
X6140472D3*
D61*
X6093228Y1553858D3*
X6152283D3*
X6093228Y1380630D3*
X6152283D3*
X6093228Y1207402D3*
X6152283D3*
X6484567Y1490866D3*
X6425512D3*
X6484567Y1313701D3*
X6425512D3*
X6484567Y1136535D3*
X6425512D3*
X6527874Y994803D3*
X6468819D3*
X6594803Y1762520D3*
X6535748D3*
X6799528Y1845197D3*
X6740472D3*
X7008189Y1762520D3*
X6949134D3*
D45*
X7008189Y1030236D3*
X7118425D3*
D61*
X7071181Y1553858D3*
X7130236D3*
X7071181Y1380630D3*
X7130236D3*
X7071181Y1207402D3*
X7130236D3*
D41*
X1063307Y797953D3*
X1013307D3*
X963307D3*
X913307D3*
X863307D3*
X813307D3*
X763307D3*
X713307D3*
Y585354D3*
X763307D3*
X813307D3*
X863307D3*
X913307D3*
X963307D3*
X1013307D3*
X1063307D3*
X1472756Y797953D3*
X1422756D3*
X1372756D3*
X1322756D3*
X1272756D3*
X1222756D3*
X1172756D3*
X1122756D3*
Y585354D3*
X1172756D3*
X1222756D3*
X1272756D3*
X1322756D3*
X1372756D3*
X1422756D3*
X1472756D3*
X2041260Y797953D3*
X1991260D3*
X1941260D3*
X1891260D3*
X1841260D3*
X1791260D3*
X1741260D3*
X1691260D3*
Y585354D3*
X1741260D3*
X1791260D3*
X1841260D3*
X1891260D3*
X1941260D3*
X1991260D3*
X2041260D3*
X2450709Y797953D3*
X2400709D3*
X2350709D3*
X2300709D3*
X2250709D3*
X2200709D3*
X2150709D3*
X2100709D3*
Y585354D3*
X2150709D3*
X2200709D3*
X2250709D3*
X2300709D3*
X2350709D3*
X2400709D3*
X2450709D3*
X3412913Y797953D3*
X3362913D3*
X3312913D3*
X3262913D3*
X3212913D3*
X3162913D3*
X3112913D3*
X3062913D3*
Y585354D3*
X3112913D3*
X3162913D3*
X3212913D3*
X3262913D3*
X3312913D3*
X3362913D3*
X3412913D3*
X3822362Y797953D3*
X3772362D3*
X3722362D3*
X3672362D3*
X3622362D3*
X3572362D3*
X3522362D3*
X3472362D3*
Y585354D3*
X3522362D3*
X3572362D3*
X3622362D3*
X3672362D3*
X3722362D3*
X3772362D3*
X3822362D3*
X4390866Y797953D3*
X4340866D3*
X4290866D3*
X4240866D3*
X4190866D3*
X4140866D3*
X4090866D3*
X4040866D3*
Y585354D3*
X4090866D3*
X4140866D3*
X4190866D3*
X4240866D3*
X4290866D3*
X4340866D3*
X4390866D3*
X4800315Y797953D3*
X4750315D3*
X4700315D3*
X4650315D3*
X4600315D3*
X4550315D3*
X4500315D3*
X4450315D3*
Y585354D3*
X4500315D3*
X4550315D3*
X4600315D3*
X4650315D3*
X4700315D3*
X4750315D3*
X4800315D3*
X5762520Y797953D3*
X5712520D3*
X5662520D3*
X5612520D3*
X5562520D3*
X5512520D3*
X5462520D3*
X5412520D3*
Y585354D3*
X5462520D3*
X5512520D3*
X5562520D3*
X5612520D3*
X5662520D3*
X5712520D3*
X5762520D3*
X6171969Y797953D3*
X6121969D3*
X6071969D3*
X6021969D3*
X5971969D3*
X5921969D3*
X5871969D3*
X5821969D3*
Y585354D3*
X5871969D3*
X5921969D3*
X5971969D3*
X6021969D3*
X6071969D3*
X6121969D3*
X6171969D3*
X6740472Y797953D3*
X6690472D3*
X6640472D3*
X6590472D3*
X6540472D3*
X6490472D3*
X6440472D3*
X6390472D3*
Y585354D3*
X6440472D3*
X6490472D3*
X6540472D3*
X6590472D3*
X6640472D3*
X6690472D3*
X6740472D3*
X7149921Y797953D3*
X7099921D3*
X7049921D3*
X6999921D3*
X6949921D3*
X6899921D3*
X6849921D3*
X6799921D3*
Y585354D3*
X6849921D3*
X6899921D3*
X6949921D3*
X6999921D3*
X7049921D3*
X7099921D3*
X7149921D3*
M02*
